<svg width="86" height="85" viewBox="0 0 86 85" fill="none" xmlns="http://www.w3.org/2000/svg">
<g clip-path="url(#clip0_1985_223)">
<path d="M15.3546 37.2558H19.3335C20.5048 37.2558 21.4172 37.4901 22.0529 37.9598C22.6956 38.4295 23.0182 39.1029 23.0182 39.9846C23.0182 40.4885 22.9029 40.9252 22.6721 41.2913C22.4413 41.6621 22.1011 41.9553 21.6491 42.173C22.273 42.3802 22.751 42.7087 23.0853 43.1584C23.4173 43.6081 23.5821 44.1543 23.5821 44.7947C23.5821 45.4268 23.4208 45.9707 23.0994 46.4192C22.778 46.8736 22.3189 47.2244 21.7221 47.4716C21.1264 47.7189 20.4154 47.8425 19.5796 47.8425H15.3534L15.3546 37.2558ZM10.0571 51.9709H28.8924V33.1356H10.0571V51.9709ZM19.1334 39.0217C20.2765 39.0217 20.8521 39.4419 20.8521 40.2813C20.8521 40.7157 20.7061 41.0547 20.413 41.296C20.1199 41.5385 19.6949 41.6586 19.1416 41.6586H17.5171V39.0217H19.1334ZM19.4065 43.3185H17.4994V46.1791H19.3712C20.0139 46.1791 20.5096 46.0578 20.8545 45.8165C21.2006 45.574 21.3736 45.2267 21.3736 44.7723C21.3736 43.8046 20.7156 43.3243 19.3959 43.3243L19.4065 43.3185Z" fill="white"/>
<path d="M38.8988 37.2558H42.8777C44.049 37.2558 44.9614 37.4901 45.5971 37.9598C46.2398 38.4295 46.5624 39.1029 46.5624 39.9846C46.5624 40.4885 46.4471 40.9252 46.2163 41.2913C45.9855 41.6621 45.6441 41.9553 45.1933 42.173C45.8172 42.3802 46.2951 42.7087 46.6295 43.1584C46.9614 43.6081 47.1263 44.1543 47.1263 44.7947C47.1263 45.4268 46.965 45.9707 46.6436 46.4192C46.3222 46.8736 45.8631 47.2244 45.2663 47.4716C44.6706 47.7189 43.9596 47.8425 43.1237 47.8425H38.8976L38.8988 37.2558ZM33.6013 51.9709H52.4366V33.1356H33.6013V51.9709ZM42.6776 39.0217C43.8207 39.0217 44.3963 39.4419 44.3963 40.2813C44.3963 40.7157 44.2503 41.0547 43.9572 41.296C43.6641 41.5385 43.2391 41.6586 42.6858 41.6586H41.0613V39.0217H42.6776ZM42.9507 43.3185H41.0436V46.1791H42.9154C43.5581 46.1791 44.0537 46.0578 44.3987 45.8165C44.7448 45.574 44.9178 45.2267 44.9178 44.7723C44.9178 43.8046 44.2597 43.3243 42.9401 43.3243L42.9507 43.3185Z" fill="white"/>
<path d="M69.153 47.733C69.731 47.5929 70.2396 47.401 70.6834 47.1597V45.1466C69.7569 45.7176 68.741 46.0037 67.6462 46.0037C66.9281 46.0037 66.316 45.8683 65.8098 45.5975C65.3059 45.3268 64.9221 44.9324 64.6584 44.4085C64.3936 43.8906 64.2617 43.2631 64.2617 42.525C64.2617 41.7893 64.3983 41.1594 64.6726 40.6532C64.9469 40.14 65.34 39.748 65.8498 39.4772C66.363 39.2065 66.9834 39.0711 67.7098 39.0711C68.2383 39.0711 68.7422 39.1415 69.2166 39.2818C69.6945 39.4219 70.1383 39.6279 70.5468 39.8987V37.8385C70.0983 37.6066 69.6121 37.4301 69.0871 37.3088C68.5632 37.1876 68.0076 37.1275 67.4155 37.1275C66.5679 37.1275 65.8027 37.2535 65.1199 37.5054C64.4371 37.7573 63.8485 38.1199 63.3659 38.5943C62.8773 39.0687 62.503 39.6373 62.244 40.3013C61.985 40.964 61.8555 41.7021 61.8555 42.5262C61.8555 43.3691 61.9803 44.1272 62.2299 44.7982C62.4794 45.4716 62.8373 46.0343 63.307 46.5051C63.7755 46.9701 64.3488 47.3257 65.0257 47.5729C65.7038 47.8201 66.4619 47.9437 67.3095 47.9437C67.9476 47.9437 68.5574 47.8733 69.1342 47.733H69.153ZM75.9808 51.9474H57.1455V33.1121H75.9808V51.9474Z" fill="white"/>
</g>
<defs>
<clipPath id="clip0_1985_223">
<rect width="65.9236" height="18.8353" fill="white" transform="translate(10.0571 33.1357)"/>
</clipPath>
</defs>
</svg>
