<svg width="86" height="86" viewBox="0 0 86 86" fill="none" xmlns="http://www.w3.org/2000/svg">
<g clip-path="url(#clip0_1985_2120)">
<path d="M31.0308 45.1388C31.9872 44.8977 32.5867 44.1792 32.5867 43.2244C32.5867 41.7639 31.2735 41.1491 29.9446 41.1491H26.7497V49.5813H29.7662C31.3551 49.5813 32.9773 48.9972 32.9773 47.1808C32.9773 46.1117 32.2644 45.2674 31.0308 45.1388ZM28.1789 42.3798H29.4424C30.1877 42.3798 31.0968 42.5106 31.0968 43.4842C31.0968 44.3603 30.3506 44.6189 29.6363 44.6189H28.1789V42.3798ZM29.6363 48.3484H28.1789V45.8527H29.7016C30.5455 45.8527 31.5507 45.9166 31.5507 47.0517C31.5507 48.1216 30.5115 48.3484 29.6363 48.3484ZM29.9089 53.9283C29.9089 53.6471 30.049 53.4192 30.2798 53.2563C30.5524 53.0593 30.9739 52.953 31.3065 52.953C32.0808 52.953 32.5717 53.0767 33.1862 53.3365V51.9744C32.574 51.7405 32.0879 51.6254 31.3104 51.6254C30.6834 51.6254 29.8821 51.8476 29.3756 52.247C28.8375 52.675 28.4822 53.2885 28.4822 53.992C28.4822 56.6841 32.3125 55.9064 32.3125 57.5599C32.3125 57.8617 32.166 58.1343 31.9446 58.3217C31.6902 58.5408 31.2497 58.663 30.815 58.663C30.0066 58.663 29.226 58.3839 28.6098 57.9302V59.3782C29.2795 59.8027 30.1044 59.9439 30.9472 59.9439C31.5436 59.9439 32.2306 59.7674 32.7095 59.4348C33.3193 59.007 33.7402 58.3436 33.7402 57.5597C33.7399 54.7383 29.9089 55.4205 29.9089 53.9283ZM39.0167 31.8729H33.3232V33.0395H35.5455V39.0072H36.8107V33.0395H39.0167V31.8729ZM41.9899 51.7862H40.561V54.965H36.8636V51.7862H35.4361V59.7655H36.8636V56.2625H40.561V59.7655H41.9899V51.7862ZM38.9624 40.954C36.3021 40.954 34.4522 42.803 34.4522 45.4304C34.4522 48.056 36.3345 49.7751 38.9624 49.7751C41.5891 49.7751 43.4705 47.9908 43.4705 45.3643C43.4703 42.6729 41.6543 40.954 38.9624 40.954ZM38.9624 48.4769C37.1134 48.4769 36.0088 47.0517 36.0088 45.2994C36.0088 43.582 37.2095 42.2516 38.9624 42.2516C40.7452 42.2516 41.9137 43.5822 41.9137 45.2994C41.9137 47.0517 40.8106 48.4769 38.9624 48.4769ZM46.0228 31.8729H44.7585V34.7262H41.4172V31.8729H40.1535V39.0072H41.4172V35.8291H44.7585V39.0072H46.0228V31.8729ZM47.726 51.5926C45.2293 51.5926 43.5089 53.3117 43.5089 55.8091C43.5089 58.3073 45.261 59.9602 47.726 59.9602C50.1902 59.9602 52.006 58.2734 52.006 55.8091C52.006 53.2469 50.2571 51.5926 47.726 51.5926ZM47.726 58.6632C46.0387 58.6632 45.0024 57.3654 45.0024 55.7428C45.0024 54.1545 46.1047 52.8901 47.726 52.8901C49.3474 52.8901 50.5154 54.1545 50.5154 55.7428C50.5156 57.3654 49.4113 58.6632 47.726 58.6632ZM51.0788 41.7244C50.4216 41.3517 49.4773 41.1493 48.5785 41.1493H45.387V49.5815H48.3514C49.236 49.5815 50.2439 49.382 50.9449 48.9864C52.1976 48.2805 53.0412 46.9886 53.0412 45.3641C53.0415 43.6996 52.3018 42.4185 51.0788 41.7244ZM50.4716 47.6148C49.8217 48.0813 49.0031 48.2845 48.0632 48.2845H46.8784V42.4469H48.3406C49.3284 42.4469 50.0904 42.68 50.6725 43.1905C51.2146 43.6661 51.5154 44.3793 51.5154 45.3641C51.5154 46.4182 51.1191 47.1492 50.4716 47.6148ZM52.7689 37.8404H49.1354V35.8939H52.3789V34.791H49.1354V33.0395H52.5733V31.8729H47.8718V39.0072H52.7689V37.8404ZM59.7298 41.1493L57.6208 44.585L55.4488 41.1493H53.6637L56.8095 45.9478V49.5815H58.3023V45.9478L61.4481 41.1493H59.7298ZM56.2958 51.7862H53.6196V59.7653H55.0457V56.6738H55.9507C56.7551 56.6738 57.4595 56.5698 58.0692 56.2924C58.7397 55.9835 59.244 55.3015 59.244 54.1892C59.244 52.4354 57.82 51.7862 56.2958 51.7862ZM57.0695 55.3449C56.7884 55.4742 56.4205 55.5231 56.102 55.5231H55.0457V52.9998H56.0846C56.5172 52.9998 56.8819 53.0117 57.1821 53.1533C57.5366 53.3227 57.7705 53.678 57.7705 54.2051C57.7705 54.7966 57.4743 55.1613 57.0695 55.3449ZM33.8187 22.6971C33.2744 22.6971 32.6243 22.9004 32.0131 23.2327C31.4219 23.552 30.8468 23.9003 30.2901 24.2765C24.1851 28.4063 20.0168 35.5548 20.0168 43.1903C20.0168 43.3526 20.1146 43.5157 20.2769 43.5157C20.4384 43.5157 20.5677 43.3856 20.6007 43.2565C20.8605 42.3166 21.1197 41.4075 21.4446 40.4669C22.8712 36.575 24.9795 33.5579 27.7361 31.1573C29.6488 29.4722 31.8563 28.1746 34.3869 27.0078C35.2604 26.6164 35.9434 25.7671 35.9434 24.7759C35.9434 23.5433 35.0517 22.6971 33.8187 22.6971ZM50.6669 24.7761C50.6669 25.7673 51.3499 26.6166 52.2237 27.008C54.7539 28.1749 56.9601 29.4722 58.8728 31.1575C61.6298 33.5582 63.7389 36.5752 65.1658 40.4671C65.4904 41.4077 65.7479 42.3168 66.0094 43.2567C66.0408 43.3858 66.1709 43.516 66.3332 43.516C66.4955 43.516 66.5933 43.353 66.5933 43.1905C66.5933 35.5551 62.4225 28.4065 56.3194 24.2767C55.7619 23.9005 55.1861 23.5521 54.5941 23.2329C53.9833 22.9004 53.3335 22.6974 52.7897 22.6974C51.5571 22.6971 50.6669 23.5433 50.6669 24.7761Z" fill="white"/>
<path d="M43.3041 69.0421C29.0974 69.0421 17.6183 57.496 17.6183 43.2902C17.6183 34.2727 22.2877 26.0898 30.0067 21.4173C31.7895 20.3633 33.0988 19.7724 35.0384 18.9845C35.838 18.6599 36.8803 18.2116 37.4013 17.7602C37.8755 17.3481 38.1267 16.7409 38.1267 16.109C38.1267 15.5277 37.9258 15.0471 37.5864 14.7003C37.1822 14.289 36.5819 14.0662 35.8888 14.0662C35.0136 14.0662 33.8681 14.3782 32.4067 14.9934C21.4112 19.5982 14.1799 29.894 14.1799 42.121C14.1799 58.2089 27.2181 71.2465 43.3045 71.2465C59.3924 71.2465 72.4316 58.2089 72.4316 42.121C72.4316 29.8942 65.1995 19.5982 54.2039 14.9934C52.7441 14.378 51.5965 14.0662 50.7208 14.0662C50.0278 14.0662 49.4274 14.289 49.0249 14.7003C48.6836 15.0471 48.4829 15.5275 48.4829 16.109C48.4829 16.7409 48.7331 17.3483 49.2083 17.7602C49.7291 18.2116 50.7714 18.6599 51.5712 18.9845C53.5109 19.7724 54.8201 20.3633 56.6029 21.4173C64.3234 26.0898 68.9921 34.2727 68.9921 43.2902C68.9915 57.496 57.5116 69.0421 43.3041 69.0421ZM63.6627 71.1974H63.3649V69.0436H62.7574V68.7798H64.2725V69.0436H63.6627V71.1974ZM64.5026 68.7798H65.0035L65.4888 70.7002H65.4936L65.9822 68.7798H66.4822V71.1974H66.1831V69.087H66.1775L65.6425 71.1974H65.3449L64.8068 69.087H64.8011V71.1974H64.5026V68.7798Z" fill="white"/>
</g>
<defs>
<clipPath id="clip0_1985_2120">
<rect width="58.2517" height="58.2517" fill="white" transform="translate(14.1799 13.5308)"/>
</clipPath>
</defs>
</svg>
