<svg width="86" height="86" viewBox="0 0 86 86" fill="none" xmlns="http://www.w3.org/2000/svg">
<g clip-path="url(#clip0_1985_3392)">
<path d="M28.2504 34.1429C22.8282 34.1429 19.5036 38.3798 19.5036 42.6565C19.5036 47.8044 23.699 51.1701 28.29 51.1701C31.3374 51.1701 34.2268 49.824 36.6806 47.646V54.0215C34.1079 55.5658 30.5854 56.5162 27.8544 56.5162C20.0179 56.5162 13.4478 50.1409 13.4478 42.6567C13.4478 34.7371 20.0573 28.7972 27.894 28.7972C30.902 28.7972 34.4245 29.708 36.7199 30.8564V37.1128C33.8308 35.2121 30.9022 34.1429 28.2504 34.1429Z" fill="white"/>
<path d="M53.3396 56.516C45.4636 56.516 38.8145 50.3781 38.8145 42.6565C38.8145 34.8557 45.4242 28.797 53.696 28.797C56.7039 28.797 60.4245 29.589 62.7201 30.6582V36.875C60.1081 35.3702 56.7438 34.1427 53.8148 34.1427C48.3928 34.1427 44.8701 38.3796 44.8701 42.6563C44.8701 47.6852 49.0259 51.3285 53.8941 51.3285C54.923 51.3285 55.9125 51.2493 57.1792 50.7739V45.7848H52.7467V40.5181H62.8788V54.536C59.9889 55.843 56.7438 56.516 53.3396 56.516Z" fill="white"/>
<path d="M67.3042 55.9616V29.3514H73.0034V55.9616H67.3042Z" fill="white"/>
</g>
<defs>
<clipPath id="clip0_1985_3392">
<rect width="59.9514" height="28.1152" fill="white" transform="translate(13.2498 28.599)"/>
</clipPath>
</defs>
</svg>
