<svg width="67" height="68" viewBox="0 0 67 68" fill="none" xmlns="http://www.w3.org/2000/svg">
<g clip-path="url(#clip0_1949_398)">
<path d="M32.6515 1.17413C29.9356 1.1867 27.342 1.41756 25.0598 1.82003C18.337 3.00376 17.1164 5.48142 17.1164 10.0506V16.0852H33.0033V18.0967H11.1542C6.53699 18.0967 2.49406 20.8626 1.22948 26.1244C-0.22919 32.1555 -0.293891 35.919 1.22948 42.2165C2.35878 46.9041 5.0557 50.2441 9.67287 50.2441H15.1352V43.01C15.1352 37.7838 19.6722 33.1739 25.0598 33.1739H40.9282C45.3454 33.1739 48.8717 29.5491 48.8717 25.1278V10.0506C48.8717 5.7596 45.2395 2.53619 40.9282 1.82003C38.1991 1.36725 35.3674 1.16155 32.6515 1.17413ZM24.06 6.02761C25.701 6.02761 27.0411 7.38505 27.0411 9.05412C27.0411 10.7173 25.701 12.0622 24.06 12.0622C22.4131 12.0622 21.0789 10.7173 21.0789 9.05412C21.0789 7.38505 22.4131 6.02761 24.06 6.02761Z" fill="url(#paint0_linear_1949_398)"/>
<path d="M50.8529 18.0969V25.128C50.8529 30.5791 46.2159 35.1672 40.9282 35.1672H25.0598C20.7132 35.1672 17.1164 38.8748 17.1164 43.2132V58.2904C17.1164 62.5814 20.8602 65.1054 25.0598 66.3365C30.0887 67.8102 34.9112 68.0766 40.9282 66.3365C44.9278 65.1823 48.8716 62.8596 48.8716 58.2904V52.2558H33.0033V50.2443H56.8151C61.4323 50.2443 63.1528 47.0345 64.7585 42.2167C66.4172 37.2568 66.3466 32.4871 64.7585 26.1245C63.6175 21.5435 61.4382 18.0969 56.8151 18.0969H50.8529ZM41.9281 56.2789C43.575 56.2789 44.9092 57.6238 44.9092 59.2869C44.9092 60.956 43.575 62.3134 41.9281 62.3134C40.2871 62.3134 38.947 60.956 38.947 59.2869C38.947 57.6238 40.2871 56.2789 41.9281 56.2789Z" fill="url(#paint1_linear_1949_398)"/>
</g>
<defs>
<linearGradient id="paint0_linear_1949_398" x1="0.111084" y1="1.17358" x2="49.5098" y2="43.3544" gradientUnits="userSpaceOnUse">
<stop stop-color="#5A9FD4"/>
<stop offset="1" stop-color="#306998"/>
</linearGradient>
<linearGradient id="paint1_linear_1949_398" x1="41.5464" y1="58.7796" x2="28.4619" y2="40.3829" gradientUnits="userSpaceOnUse">
<stop stop-color="#FFD43B"/>
<stop offset="1" stop-color="#FFE873"/>
</linearGradient>
<clipPath id="clip0_1949_398">
<rect width="66" height="67" fill="white" transform="translate(0.111084 0.74585)"/>
</clipPath>
</defs>
</svg>
