<svg width="68" height="69" viewBox="0 0 68 69" fill="none" xmlns="http://www.w3.org/2000/svg">
<g clip-path="url(#clip0_1378_74)">
<path d="M24.5715 52.8317C24.5715 52.8317 21.9849 54.4046 26.3694 54.8546C31.6476 55.5276 34.4591 55.4161 40.3009 54.2932C41.475 55.0122 42.7167 55.6144 44.0083 56.0911C30.8653 61.71 14.2338 55.7547 24.5715 52.8317ZM22.8892 45.5284C22.8892 45.5284 20.0797 47.6628 24.4621 48.1149C30.1924 48.6764 34.6862 48.7879 42.4416 47.217C43.1959 47.982 44.1193 48.5589 45.1375 48.9014C29.2945 53.6203 11.5421 49.3493 22.8892 45.5284ZM53.9001 58.3349C53.9001 58.3349 55.8095 59.9078 51.7657 61.1443C44.2375 63.3944 20.1933 64.0673 13.4515 61.1443C11.0921 60.1349 15.5859 58.6734 17.0264 58.4484C18.4879 58.112 19.2764 58.112 19.2764 58.112C16.6899 56.314 2.0855 61.8193 11.8617 63.3902C38.7153 67.7726 60.8501 61.4808 53.8833 58.3349H53.9001ZM25.7869 37.8866C25.7869 37.8866 13.5398 40.8096 21.4045 41.819C24.7754 42.269 31.4037 42.1554 37.584 41.7075C42.6393 41.2575 47.6988 40.3617 47.6988 40.3617C47.6988 40.3617 45.9008 41.1482 44.6644 41.9346C32.1944 45.1941 8.25951 43.7326 15.1149 40.3617C20.9566 37.5522 25.789 37.8908 25.789 37.8908L25.7869 37.8866ZM47.6988 50.1337C60.2823 43.6148 54.4406 37.3272 50.3947 38.1116C49.3853 38.3366 48.9332 38.5616 48.9332 38.5616C48.9332 38.5616 49.2696 37.8887 50.0561 37.6637C58.0344 34.8543 64.3262 46.0899 47.4696 50.4702C47.4696 50.4702 47.581 50.3587 47.6946 50.1337H47.6988ZM27.0276 67.8861C39.1611 68.6726 57.7021 67.4361 58.15 61.7037C58.15 61.7037 57.2521 63.9537 48.1509 65.636C37.8132 67.5454 25.0046 67.3183 17.4764 66.0861C17.4764 66.0861 19.0493 67.434 27.0276 67.8861Z" fill="#4E7896"/>
<path d="M40.078 0.80883C40.078 0.80883 47.0448 7.88708 33.4498 18.5612C22.5506 27.2124 30.9789 32.1563 33.4498 37.7751C27.0444 32.0448 22.4391 26.9874 25.585 22.2707C30.1903 15.3018 42.8874 11.9519 40.078 0.80883ZM36.5031 33.0563C39.7626 36.7637 35.6052 40.1346 35.6052 40.1346C35.6052 40.1346 43.9199 35.8657 40.099 30.5833C36.6167 25.528 33.9166 23.0551 48.5252 14.6289C48.5252 14.6289 25.4925 20.3592 36.5031 33.0563Z" fill="#F58219"/>
</g>
<defs>
<clipPath id="clip0_1378_74">
<rect width="67.2917" height="67.2917" fill="white" transform="translate(0.131836 0.80662)"/>
</clipPath>
</defs>
</svg>
