<svg width="86" height="85" viewBox="0 0 86 85" fill="none" xmlns="http://www.w3.org/2000/svg">
<g clip-path="url(#clip0_1985_587)">
<path d="M20.1754 37.1413C19.5825 40.8192 18.5839 44.3923 17.8328 48.0356C18.088 48.0211 18.3321 48.0099 18.575 47.9954C19.4153 47.9441 20.2557 47.8917 21.0949 47.8426C21.2988 47.8303 21.2988 47.8348 21.3345 47.635C21.3367 47.6261 21.3367 47.6172 21.339 47.6082C21.5485 46.4499 21.7535 45.2894 21.9709 44.1323C22.147 43.1971 22.3442 42.2676 22.517 41.3325C22.7109 40.2836 22.8892 39.2313 23.0709 38.1801C23.1188 37.9056 23.1578 37.6289 23.2013 37.3466C22.1882 37.2774 21.1896 37.2104 20.1754 37.1413ZM30.3474 37.6825C29.2786 37.6479 28.2098 37.6211 27.1421 37.5753C26.061 37.5285 24.98 37.4615 23.9001 37.4001C23.8153 37.3957 23.7853 37.4102 23.7741 37.5006C23.7184 37.938 23.6604 38.3743 23.5925 38.8095C23.5312 39.1989 23.4543 39.585 23.3785 40.008H25.2419C24.7972 42.6124 24.3592 45.1778 23.9212 47.7477C25.0569 47.6841 26.187 47.6205 27.3015 47.558C27.6291 45.0752 27.9568 42.5979 28.2856 40.1062C28.9119 40.1229 29.5193 40.1385 30.1245 40.1541C30.2259 39.3228 30.3251 38.5104 30.4243 37.6936C30.3986 37.6903 30.373 37.6836 30.3474 37.6825ZM36.9307 42.7006C36.817 42.6068 36.6989 42.5198 36.5752 42.4406C36.0647 42.117 35.5019 41.9061 34.9413 41.6929C34.7095 41.6048 34.4743 41.5144 34.2604 41.3917C33.6452 41.039 33.5861 40.3862 33.8168 39.8317C33.8814 39.6754 34.004 39.5828 34.179 39.5806C34.3529 39.5783 34.452 39.6855 34.5267 39.8283C34.6415 40.0515 34.6181 40.288 34.5914 40.5224C34.568 40.7143 34.5278 40.904 34.4944 41.1026C35.5576 41.1495 36.6097 41.1964 37.6685 41.2432C37.7509 40.7456 37.7788 40.2579 37.6874 39.7725C37.5102 38.824 36.9318 38.2259 36.0324 37.9235C35.2389 37.6579 34.4175 37.6256 33.5917 37.6702C33.1236 37.6947 32.6633 37.7673 32.2186 37.9235C31.4184 38.2058 30.821 38.7046 30.5614 39.5337C30.47 39.8238 30.4265 40.1318 30.3964 40.4353C30.3084 41.3147 30.5636 42.0612 31.2813 42.6191C31.7293 42.9673 32.2409 43.1916 32.7591 43.4069C33.1069 43.552 33.4579 43.7026 33.7778 43.8979C34.3016 44.2159 34.3328 44.7214 34.111 45.2448C34.0297 45.4345 33.8335 45.516 33.5917 45.4903C33.3966 45.4702 33.2718 45.3541 33.2272 45.17C33.196 45.0417 33.1782 44.9044 33.186 44.7739C33.2027 44.4916 33.2395 44.2115 33.2685 43.9347H29.9161C29.8191 44.3945 29.769 44.8364 29.7968 45.2827C29.8503 46.1453 30.266 46.7568 31.0662 47.1005C31.5176 47.2935 31.9924 47.3984 32.4783 47.4096C33.0556 47.423 33.6362 47.4196 34.2124 47.3817C34.8343 47.3404 35.4451 47.2143 36.0224 46.9621C36.6665 46.6809 37.197 46.2747 37.4801 45.6063C37.6963 45.0953 37.7119 44.5608 37.6584 44.0184C37.6049 43.4728 37.3486 43.042 36.9307 42.7006ZM46.0806 41.8815C46.0015 40.6306 45.8054 39.3987 45.5067 38.1824C45.4643 38.0116 45.4198 37.8409 45.3785 37.6802C44.3443 37.7539 43.3301 37.8253 42.3114 37.8978C42.3114 37.9168 42.3103 37.9291 42.3114 37.9425C42.4273 38.7426 42.5678 39.5404 42.6536 40.345C42.7773 41.5155 42.8107 42.6928 42.7015 43.8678C42.6748 44.1512 42.6168 44.4425 42.5143 44.7069C42.3872 45.0372 41.9905 45.0696 41.7876 44.7795C41.6918 44.6411 41.626 44.4715 41.5848 44.3063C41.4555 43.7852 41.4299 43.2507 41.4098 42.7162C41.3608 41.4664 41.4555 40.2244 41.5982 38.9836C41.6216 38.7816 41.6461 38.5796 41.6695 38.3777C40.6832 38.2661 39.7113 38.1556 38.7295 38.044C38.7205 38.0574 38.7094 38.0686 38.7072 38.0797C38.6671 38.2806 38.6247 38.4803 38.5902 38.6823C38.4018 39.7803 38.2647 40.8828 38.2268 41.9976C38.1956 42.9171 38.2112 43.8332 38.4586 44.7281C38.793 45.9344 39.5386 46.7523 40.7723 47.057C41.7508 47.298 42.7394 47.2969 43.7179 47.0391C44.5861 46.8104 45.2403 46.3049 45.6337 45.4858C45.8299 45.0774 45.948 44.6456 46.0193 44.2003C46.1431 43.4304 46.1286 42.6571 46.0806 41.8815ZM66.546 44.2037C66.3911 43.1637 66.1337 42.1471 65.8038 41.1495C65.5463 40.3751 65.2477 39.6207 64.7729 38.9468C64.2257 38.1712 63.528 37.5977 62.5807 37.4001C61.7582 37.2283 60.9324 37.2618 60.1232 37.495C59.1926 37.7639 58.5741 38.3676 58.2654 39.2893C58.0837 39.8317 58.0369 40.3929 58.0313 41.2299C58.0648 41.5523 58.1116 42.1426 58.1907 42.7285C58.3077 43.5944 58.5273 44.4369 58.8806 45.2392C59.4022 46.4232 60.2425 47.2869 61.4595 47.7477C62.5261 48.1505 63.6361 48.2499 64.7562 48.0702C65.874 47.8905 66.4145 47.3058 66.5873 46.1855C66.6898 45.5226 66.6441 44.8609 66.546 44.2037ZM63.1881 45.892C63.1558 46.0482 63.0399 46.1141 62.8805 46.0895C62.7077 46.0627 62.5718 45.9723 62.5116 45.815C62.3868 45.4925 62.2631 45.1678 62.1728 44.8353C61.8139 43.5085 61.5676 42.1571 61.3514 40.8014C61.2957 40.4521 61.2957 40.0939 61.2834 39.739C61.2778 39.6062 61.3469 39.4958 61.4851 39.4567C61.6311 39.4143 61.766 39.4567 61.8585 39.5717C61.932 39.6632 62.0011 39.7703 62.0346 39.8819C62.194 40.4086 62.3689 40.933 62.4837 41.4698L63.226 45.555C63.2137 45.6711 63.2104 45.7838 63.1881 45.892ZM19.675 37.0085C19.6995 36.965 19.7207 36.9181 19.7475 36.8656C19.4209 36.8288 19.1144 36.7976 18.8102 36.7596C18.1437 36.6771 17.4772 36.5934 16.8119 36.5041C16.7027 36.4896 16.6581 36.5286 16.6102 36.619C15.8133 38.1199 15.0109 39.6185 14.2107 41.1171C14.1884 41.1573 14.1639 41.1964 14.1405 41.2365C14.1338 41.2332 14.1271 41.2299 14.1204 41.2265C14.4949 39.8116 14.8693 38.3977 15.2471 36.9716C14.214 36.869 13.2165 36.7686 12.2135 36.6681C11.1191 40.6139 9.814 44.4826 8.61035 48.3983C8.90123 48.3737 9.16983 48.3458 9.43953 48.3269C10.3099 48.2633 11.1804 48.2019 12.0519 48.145C12.15 48.1383 12.1856 48.1048 12.2113 48.0133C12.4431 47.192 12.6805 46.3729 12.919 45.5539C13.007 45.2493 13.1006 44.9457 13.192 44.6411C13.2433 46.0069 13.2979 47.3661 13.4461 48.7319C14.7088 48.5846 15.9626 48.4384 17.2198 48.2911C17.2153 48.2621 17.2131 48.2443 17.2086 48.2275C17.0537 47.5748 16.8776 46.9264 16.7461 46.2692C16.5322 45.2057 16.3483 44.1367 16.1454 43.0711C16.1231 42.955 16.1432 42.8691 16.2045 42.7731C17.4048 40.8783 18.5784 38.9657 19.675 37.0085ZM72.5855 36.1682C71.7117 36.2363 70.8313 36.3055 69.9185 36.3769C70.673 38.4915 71.4208 40.5905 72.1698 42.6894C72.1631 42.6917 72.1575 42.6939 72.1519 42.6972C72.1352 42.676 72.1185 42.6571 72.104 42.6359C70.9427 40.8371 69.7814 39.0383 68.6223 37.2383C68.5811 37.1759 68.5488 37.1424 68.4663 37.1524C67.7998 37.2339 67.1323 37.3098 66.4647 37.3901C66.2329 37.418 66.0011 37.4548 65.7603 37.4883C65.7748 37.5474 65.7837 37.5943 65.796 37.6401C66.2117 39.2715 66.633 40.9018 67.042 42.5354C67.4588 44.1947 67.8645 45.8563 68.2724 47.5178C68.2947 47.6082 68.3259 47.6506 68.4351 47.6618C69.271 47.7488 70.1057 47.847 70.9416 47.9419C71.1444 47.9642 71.3462 47.9854 71.5456 48.0066C70.9962 46.3395 70.4501 44.6824 69.904 43.0253C69.9185 43.0197 69.933 43.0141 69.9486 43.0086C70.1068 43.244 70.2662 43.4806 70.4256 43.716C71.5535 45.3876 72.6824 47.0592 73.8148 48.7275C73.846 48.7754 73.9139 48.8234 73.9674 48.8268C74.6874 48.8681 75.4085 48.9038 76.1295 48.9339C76.4048 48.9451 76.6801 48.935 76.9688 48.935C75.4553 44.6913 73.944 40.4532 72.5855 36.1682ZM56.7073 37.4916C55.6798 37.5184 54.6388 37.5463 53.6101 37.5731C53.0819 38.9479 52.5603 40.3092 52.0276 41.6974C51.9718 41.6238 51.9451 41.5892 51.9195 41.5523C51.1371 40.442 50.3547 39.3317 49.5768 38.2181C49.5177 38.1344 49.4598 38.1054 49.3595 38.1076C48.459 38.131 47.5596 38.1478 46.6602 38.1668C46.6301 38.1679 46.6 38.1735 46.5688 38.1768C46.5476 41.0759 46.5264 43.9671 46.5053 46.8684C47.6933 46.8963 48.8691 46.9231 50.0415 46.9499C49.9089 45.3932 49.7785 43.8533 49.647 42.3123C49.7083 42.3502 49.7395 42.3959 49.7696 42.4428C50.4729 43.5208 51.1739 44.5998 51.8805 45.6755C51.9117 45.7235 51.9774 45.7748 52.0298 45.7782C52.3095 45.7972 52.5904 45.796 52.8701 45.8128C52.9771 45.8195 53.0262 45.7838 53.0685 45.6878C53.5221 44.688 53.9802 43.6893 54.4382 42.6905C54.456 42.6515 54.4772 42.6135 54.5029 42.5611C54.7748 44.2037 55.0434 45.8217 55.3142 47.452H58.7758C58.0882 44.1378 57.3994 40.8226 56.7073 37.4916Z" fill="white"/>
<path d="M46.5062 46.8684C46.5274 43.9671 46.5486 41.0759 46.5698 38.1768C46.601 38.1735 46.6311 38.1679 46.6612 38.1679C47.5606 38.1489 48.4611 38.1311 49.3605 38.1088C49.4608 38.1065 49.5187 38.1355 49.5778 38.2192C50.3557 39.3329 51.1392 40.4421 51.9204 41.5535C51.9461 41.5892 51.9728 41.6249 52.0285 41.6986C52.5613 40.3104 53.084 38.949 53.6111 37.5743C54.6398 37.5475 55.6807 37.5196 56.7083 37.4928C57.4004 40.8237 58.0891 44.139 58.7768 47.4532H55.3141C55.0432 45.8229 54.7758 44.2059 54.5027 42.5634C54.4771 42.6147 54.4559 42.6537 54.4381 42.6928C53.9811 43.6915 53.522 44.6891 53.0695 45.6901C53.026 45.786 52.977 45.8217 52.8711 45.815C52.5914 45.7983 52.3094 45.7994 52.0297 45.7804C51.9773 45.7771 51.9115 45.7258 51.8803 45.6778C51.1748 44.6021 50.4727 43.5241 49.7695 42.4462C49.7394 42.3993 49.7082 42.3536 49.6469 42.3145C49.7784 43.8556 49.9088 45.3966 50.0414 46.9521C48.869 46.9253 47.6932 46.8974 46.5051 46.8707L46.5062 46.8684Z" fill="white"/>
<path d="M72.1697 42.6894C71.4207 40.5904 70.6729 38.4915 69.9195 36.378C70.8323 36.3066 71.7116 36.2374 72.5854 36.1693C73.9439 40.4543 75.4563 44.6913 76.9687 48.9361C76.68 48.9361 76.4036 48.945 76.1283 48.9339C75.4073 48.9049 74.6873 48.868 73.9662 48.8268C73.9127 48.8234 73.8447 48.7754 73.8135 48.7274C72.6812 47.0581 71.5533 45.3865 70.4244 43.7149C70.265 43.4794 70.1067 43.2429 69.9474 43.0074C69.9329 43.013 69.9184 43.0186 69.9039 43.0242C70.45 44.6813 70.9961 46.3383 71.5455 48.0055C71.3461 47.9843 71.1443 47.9631 70.9415 47.9407C70.1056 47.8459 69.2709 47.7477 68.435 47.6607C68.3269 47.6495 68.2957 47.606 68.2734 47.5167C67.8644 45.8552 67.4587 44.1936 67.043 42.5343C66.6329 40.9006 66.2127 39.2703 65.797 37.6389C65.7847 37.5932 65.7758 37.5463 65.7625 37.4872C66.0032 37.4537 66.2339 37.4169 66.4668 37.389C67.1333 37.3086 67.8009 37.2339 68.4673 37.1513C68.5498 37.1412 68.5832 37.1747 68.6233 37.2372C69.7824 39.0371 70.9448 40.8359 72.1061 42.6336C72.1195 42.6548 72.1373 42.6749 72.1529 42.695C72.1585 42.6928 72.1652 42.6894 72.1708 42.6872L72.1697 42.6894Z" fill="white"/>
<path d="M17.2208 48.2912C15.9625 48.4385 14.7099 48.5846 13.4471 48.7319C13.2989 47.3661 13.2443 46.007 13.193 44.6422C13.1016 44.9458 13.008 45.2493 12.9189 45.5539C12.6815 46.373 12.4441 47.1931 12.2112 48.0133C12.1855 48.1048 12.1499 48.1383 12.0518 48.145C11.1814 48.2019 10.311 48.2633 9.43943 48.3269C9.16972 48.3458 8.90001 48.3737 8.60913 48.3994C9.81501 44.4827 11.119 40.6139 12.2134 36.6682C13.2164 36.7686 14.2139 36.869 15.247 36.9717C14.8692 38.3978 14.4948 39.8116 14.1203 41.2265C14.127 41.2299 14.1337 41.2332 14.1403 41.2366C14.1638 41.1964 14.1883 41.1573 14.2094 41.1172C15.0108 39.6185 15.8121 38.1199 16.6089 36.6202C16.6569 36.5298 16.7014 36.4896 16.8107 36.5041C17.476 36.5934 18.1425 36.6771 18.809 36.7597C19.1132 36.7976 19.4186 36.8288 19.7462 36.8645C19.7195 36.9181 19.6983 36.9639 19.6738 37.0074C18.576 38.9646 17.4036 40.8773 16.2033 42.772C16.142 42.868 16.1219 42.9539 16.1442 43.07C16.347 44.1356 16.5309 45.2046 16.7449 46.2681C16.8775 46.9253 17.0525 47.5737 17.2074 48.2265C17.2119 48.2432 17.213 48.261 17.2186 48.2901L17.2208 48.2912Z" fill="white"/>
<path d="M66.546 44.2037C66.391 43.1637 66.1336 42.1471 65.8037 41.1495C65.5463 40.3751 65.2476 39.6208 64.7728 38.9468C64.2256 38.1712 63.5279 37.5977 62.5806 37.4002C61.7581 37.2283 60.9323 37.2618 60.1231 37.495C59.1925 37.7639 58.574 38.3676 58.2653 39.2893C58.0836 39.8317 58.0368 40.3929 58.0312 41.2299C58.0647 41.5523 58.1115 42.1426 58.1906 42.7285C58.3076 43.5944 58.5272 44.4369 58.8805 45.2392C59.4021 46.4232 60.2424 47.2869 61.4594 47.7477C62.526 48.1506 63.636 48.2499 64.7561 48.0702C65.8739 47.8906 66.4145 47.3058 66.5872 46.1855C66.6897 45.5227 66.644 44.8609 66.546 44.2037ZM63.188 45.892C63.1557 46.0482 63.0398 46.1141 62.8804 46.0895C62.7077 46.0627 62.5717 45.9724 62.5115 45.815C62.3867 45.4925 62.263 45.1678 62.1727 44.8353C61.8138 43.5085 61.5675 42.1572 61.3513 40.8014C61.2956 40.4521 61.2956 40.0939 61.2833 39.739C61.2778 39.6063 61.3469 39.4958 61.4851 39.4567C61.6311 39.4143 61.7659 39.4567 61.8584 39.5717C61.932 39.6632 62.0011 39.7703 62.0345 39.8819C62.1939 40.4086 62.3688 40.933 62.4836 41.4698L63.2259 45.555C63.2136 45.6711 63.2103 45.7838 63.188 45.892Z" fill="white"/>
<path d="M38.7295 38.0439C39.7125 38.1555 40.6832 38.266 41.6707 38.3787C41.6472 38.5807 41.6227 38.7826 41.5993 38.9846C41.4567 40.2244 41.3619 41.4675 41.4099 42.7172C41.431 43.2518 41.4556 43.7863 41.586 44.3063C41.6272 44.4714 41.6918 44.641 41.7888 44.7794C41.9916 45.0706 42.3884 45.0372 42.5154 44.708C42.618 44.4435 42.6759 44.1523 42.7016 43.8677C42.8119 42.6927 42.7773 41.5166 42.6536 40.3449C42.5689 39.5414 42.4285 38.7425 42.3126 37.9424C42.3104 37.9301 42.3126 37.9167 42.3126 37.8989C43.3312 37.8263 44.3454 37.7549 45.3797 37.6813C45.4209 37.842 45.4655 38.0116 45.5078 38.1823C45.8065 39.3986 46.0027 40.6305 46.0818 41.8826C46.1308 42.6581 46.1453 43.4314 46.0216 44.2014C45.9503 44.6466 45.831 45.0785 45.636 45.4869C45.2426 46.3059 44.5884 46.8114 43.7202 47.0402C42.7417 47.2979 41.752 47.2991 40.7735 47.058C39.5397 46.7534 38.7942 45.9354 38.4609 44.7292C38.2135 43.8354 38.1968 42.9181 38.2291 41.9986C38.267 40.8839 38.4041 39.7814 38.5924 38.6833C38.627 38.4814 38.6693 38.2816 38.7095 38.0808C38.7117 38.0685 38.7228 38.0584 38.7317 38.0439H38.7295Z" fill="white"/>
<path d="M29.916 43.9348H33.2684C33.2394 44.2115 33.2026 44.4927 33.1859 44.7751C33.1781 44.9056 33.1971 45.0429 33.2271 45.1701C33.2717 45.3542 33.3965 45.4702 33.5916 45.4914C33.8334 45.5171 34.0296 45.4357 34.1098 45.246C34.3327 44.7226 34.3015 44.2171 33.7777 43.8991C33.4567 43.7038 33.1068 43.5532 32.7591 43.4081C32.2397 43.1916 31.7293 42.9673 31.2812 42.6192C30.5635 42.0612 30.3072 41.3158 30.3963 40.4365C30.4264 40.133 30.4699 39.8239 30.5613 39.5349C30.821 38.7058 31.4194 38.207 32.2185 37.9247C32.6621 37.7684 33.1235 37.6959 33.5905 37.6702C34.4174 37.6256 35.2377 37.658 36.0312 37.9247C36.9306 38.2259 37.509 38.8252 37.6862 39.7726C37.7776 40.2591 37.7486 40.7456 37.6673 41.2433C36.6085 41.1964 35.5564 41.1496 34.4921 41.1027C34.5255 40.9041 34.5668 40.7144 34.5891 40.5224C34.6169 40.2881 34.6392 40.0515 34.5244 39.8283C34.4509 39.6844 34.3506 39.5773 34.1767 39.5795C34.0028 39.5817 33.8791 39.6744 33.8145 39.8306C33.5838 40.3863 33.6429 41.0391 34.2581 41.3906C34.472 41.5133 34.7072 41.6037 34.939 41.6919C35.5007 41.905 36.0624 42.1159 36.5728 42.4395C36.6966 42.5176 36.8158 42.6058 36.9284 42.6984C37.3463 43.0399 37.6026 43.4717 37.6561 44.0163C37.7096 44.5586 37.694 45.0931 37.4778 45.6042C37.1947 46.2726 36.6642 46.6799 36.0201 46.9611C35.4428 47.2133 34.832 47.3393 34.2101 47.3806C33.6339 47.4186 33.0533 47.423 32.476 47.4085C31.9901 47.3974 31.5153 47.2925 31.0639 47.0983C30.2637 46.7546 29.848 46.1431 29.7945 45.2817C29.7667 44.8353 29.8168 44.3934 29.9138 43.9326L29.916 43.9348Z" fill="white"/>
<path d="M25.2431 40.0079H23.3796C23.4554 39.585 23.5312 39.1989 23.5925 38.8095C23.6605 38.3743 23.7196 37.938 23.7742 37.5006C23.7853 37.4102 23.8154 37.3957 23.9001 37.4001C24.98 37.4615 26.0611 37.5273 27.1422 37.5742C28.2098 37.6211 29.2786 37.6467 30.3474 37.6824C30.3731 37.6824 30.3987 37.6891 30.4243 37.6936C30.3251 38.5104 30.226 39.3228 30.1245 40.1541C29.5183 40.1385 28.912 40.1229 28.2856 40.1073C27.9569 42.5979 27.6292 45.0763 27.3004 47.558C26.187 47.6205 25.0558 47.6841 23.9202 47.7477C24.3593 45.1789 24.7973 42.6124 25.242 40.0079H25.2431Z" fill="white"/>
<path d="M20.1753 37.1412C21.1895 37.2104 22.1881 37.2774 23.2012 37.3466C23.1577 37.6289 23.1187 37.9045 23.0708 38.1801C22.888 39.2313 22.7108 40.2836 22.5169 41.3325C22.3441 42.2676 22.1457 43.1982 21.9708 44.1322C21.7534 45.2894 21.5484 46.4499 21.3377 47.6082C21.3366 47.6171 21.3355 47.6261 21.3344 47.635C21.2987 47.8347 21.2987 47.8303 21.0948 47.8425C20.2544 47.8916 19.4152 47.9452 18.5749 47.9954C18.332 48.0099 18.0879 48.0222 17.8315 48.0356C18.5827 44.3922 19.5824 40.8192 20.1742 37.1412H20.1753Z" fill="white"/>
</g>
<defs>
<clipPath id="clip0_1985_587">
<rect width="68.3584" height="12.7713" fill="white" transform="translate(8.61035 36.1677)"/>
</clipPath>
</defs>
</svg>
