<svg width="86" height="85" viewBox="0 0 86 85" fill="none" xmlns="http://www.w3.org/2000/svg">
<g clip-path="url(#clip0_1985_2646)">
<mask id="mask0_1985_2646" style="mask-type:luminance" maskUnits="userSpaceOnUse" x="10" y="34" width="65" height="17">
<path d="M74.8438 34.33H10.5281V50.7764H74.8438V34.33Z" fill="white"/>
</mask>
<g mask="url(#mask0_1985_2646)">
<path d="M17.5379 42.412L23.9542 34.7632H19.4073L14.2108 40.9596V34.7632H10.5281V50.5772H14.2089V43.8644L19.8384 50.5772H24.3853L17.5359 42.412H17.5379ZM32.5067 44.5394C32.5067 46.2142 31.1495 47.5718 29.4754 47.5718C27.8012 47.5718 26.4441 46.2142 26.4441 44.5394C26.4441 42.8645 27.8012 41.5069 29.4754 41.5069C31.1495 41.5069 32.5067 42.8645 32.5067 44.5394ZM35.5302 44.6032C35.5302 41.1936 32.7676 38.43 29.3594 38.43C25.9512 38.43 23.1867 41.1936 23.1867 44.6032C23.1867 48.0128 25.9492 50.7764 29.3594 50.7764C32.7696 50.7764 35.5302 48.0128 35.5302 44.6032ZM45.8883 44.5394C45.8883 46.2142 44.5312 47.5718 42.857 47.5718C41.1829 47.5718 39.8258 46.2142 39.8258 44.5394C39.8258 42.8645 41.1829 41.5069 42.857 41.5069C44.5312 41.5069 45.8883 42.8645 45.8883 44.5394ZM48.9118 44.6032V34.33H45.5558V39.1127C44.711 38.6775 43.756 38.428 42.741 38.428C39.3328 38.428 36.5702 41.1917 36.5702 44.6012C36.5702 48.0108 39.3328 50.7745 42.741 50.7745C46.1493 50.7745 48.9118 48.0108 48.9118 44.6012M58.224 46.3708C58.224 47.4945 57.0738 47.9683 56.6195 47.9683H54.6843C53.971 47.9683 53.3234 47.4171 53.3234 46.572C53.3234 45.7268 53.9459 45.1872 54.9202 45.1872H58.2221V46.3708M61.4158 46.8118V42.1877C61.4158 42.1877 60.743 38.5537 56.1594 38.5537C52.2756 38.5537 51.8309 39.1049 51.8309 39.1049V41.6597C51.8309 41.6597 52.7473 41.3077 55.5485 41.3077C58.3497 41.3077 58.1467 43.0695 58.1467 43.0695C58.1467 43.0695 50.0698 41.913 50.0698 46.8137C50.0698 46.8137 50.1007 50.7783 55.6007 50.7783C61.1006 50.7783 61.4177 46.8137 61.4177 46.8137M69.8117 44.58L74.4107 39.0972H70.0804L66.3996 43.4873V34.33H63.0435V50.5772H66.3996V45.9299L70.2969 50.5772H74.8438L69.8117 44.578V44.58Z" fill="white"/>
</g>
</g>
<defs>
<clipPath id="clip0_1985_2646">
<rect width="64.3157" height="16.4464" fill="white" transform="translate(10.5281 34.3301)"/>
</clipPath>
</defs>
</svg>
