<svg width="86" height="85" viewBox="0 0 86 85" fill="none" xmlns="http://www.w3.org/2000/svg">
<path d="M9.89222 49.6098H8.5498V60.1694H15.2423V58.8559H9.89222V49.6098ZM66.4187 53.4239L63.7636 56.4802L66.441 59.5616L65.5454 60.3389L65.5237 60.3139L62.9779 57.3838L60.4092 60.3389L59.5156 59.5616L59.5372 59.5353L62.1924 56.4803L59.5156 53.3982L60.4092 52.6203L60.4322 52.6453L62.9779 55.5754L65.5453 52.6203L66.441 53.3982L66.4187 53.4239ZM48.8978 57.2008L41.6998 49.6098H41.4339V60.1694H42.7763V52.5784L49.9743 60.1694H50.2395V49.6098H48.8978V57.2008ZM67.7841 52.7904H69.0529V60.1694H67.7841V52.7904ZM67.724 50.7977H69.1116V49.6091H67.724V50.7977ZM59.1174 56.7895C59.0877 54.1626 57.5833 52.6723 55.5181 52.6723C53.4535 52.6723 51.8155 54.3396 51.8155 56.4802C51.8155 58.6047 53.4238 60.2875 55.6072 60.2875C56.8902 60.2875 57.9377 59.7561 58.5721 59.0923L58.5654 59.0848L57.6623 58.2995C57.1878 58.7323 56.4745 59.0923 55.6072 59.0923C54.2648 59.0923 53.247 58.1036 53.1282 56.7895L59.1174 56.7895ZM57.6873 55.6827H53.1883C53.4535 54.5611 54.3673 53.8385 55.4438 53.8385C56.5656 53.823 57.5091 54.4719 57.6873 55.6827ZM73.7206 55.963L73.0923 55.7415C72.2028 55.4315 71.9726 55.0777 71.9726 54.6205C71.9726 54.1039 72.4795 53.8088 73.0612 53.8088C73.5998 53.8088 73.9798 54.0283 74.3051 54.3841L75.1643 53.6366C74.6271 52.9917 73.9089 52.6723 73.0612 52.6723C71.6662 52.6723 70.6693 53.5279 70.6693 54.6353C70.6693 55.5207 71.1452 56.3324 72.4943 56.8192L73.0923 57.0407C73.996 57.35 74.3956 57.66 74.3956 58.2212C74.3956 58.7823 73.7821 59.151 73.0309 59.151C72.221 59.151 71.702 58.7762 71.2214 58.2212L70.3157 59.0092C70.9778 59.8142 71.9206 60.2875 73.0005 60.2875C74.6716 60.2875 75.7144 59.3577 75.7144 58.1766C75.7144 57.0846 75.0239 56.4208 73.7206 55.963ZM30.3868 53.3982L29.4925 52.6203L26.9245 55.5754L24.3787 52.6453L24.3564 52.6203L23.4608 53.3982L26.1389 56.4803L23.4837 59.5353L23.4608 59.5616L24.3564 60.3389L26.9245 57.3838L29.4696 60.3139L29.4925 60.3389L30.3868 59.5616L27.7101 56.4802L30.3652 53.4239L30.3868 53.3982ZM31.7299 52.7904H32.9987V60.1694H31.7299V52.7904ZM31.6712 50.7977H33.0595V49.6091H31.6712V50.7977ZM23.0639 56.7895C23.0342 54.1626 21.5305 52.6723 19.4646 52.6723C17.3993 52.6723 15.7627 54.3396 15.7627 56.4802C15.7627 58.6047 17.3703 60.2875 19.553 60.2875C20.8367 60.2875 21.8842 59.7561 22.5186 59.0923L22.5119 59.0848L21.6088 58.2995C21.1337 58.7323 20.421 59.0923 19.553 59.0923C18.2113 59.0923 17.1935 58.1036 17.0754 56.7895L23.0639 56.7895ZM21.6331 55.6827H17.1341C17.3993 54.5611 18.3145 53.8385 19.391 53.8385C20.5121 53.823 21.4563 54.4719 21.6331 55.6827ZM37.6672 55.963L37.0388 55.7415C36.1493 55.4315 35.9191 55.0777 35.9191 54.6205C35.9191 54.1039 36.426 53.8088 37.0084 53.8088C37.5463 53.8088 37.927 54.0283 38.2516 54.3841L39.1108 53.6366C38.5736 52.9917 37.8561 52.6723 37.0084 52.6723C35.6127 52.6723 34.6158 53.5279 34.6158 54.6353C34.6158 55.5207 35.0917 56.3324 36.4402 56.8192L37.0388 57.0407C37.9432 57.35 38.3421 57.66 38.3421 58.2212C38.3421 58.7823 37.7286 59.151 36.9774 59.151C36.1675 59.151 35.6485 58.7762 35.1679 58.2212L34.2622 59.0092C34.9243 59.8142 35.8672 60.2875 36.947 60.2875C38.6181 60.2875 39.6609 59.3577 39.6609 58.1766C39.6609 57.0846 38.9704 56.4208 37.6672 55.963ZM77.7418 51.7822C77.7418 51.2292 77.3132 50.7963 76.7645 50.7963C76.2232 50.7963 75.7832 51.2379 75.7832 51.7822C75.7832 52.3353 76.2145 52.7688 76.7645 52.7688C77.3132 52.7688 77.7418 52.3353 77.7418 51.7822ZM77.5792 51.7822C77.5792 52.2455 77.2221 52.6101 76.7645 52.6101C76.3083 52.6101 75.9499 52.2455 75.9499 51.7822C75.9499 51.3257 76.315 50.9536 76.7645 50.9536C77.2147 50.9536 77.5792 51.3257 77.5792 51.7822ZM76.9522 51.8309L77.2174 52.3198H77.0203L76.7665 51.8579H76.5735V52.3198H76.3906V51.2123H76.7814C77.0325 51.2123 77.1769 51.3278 77.1769 51.5283C77.1769 51.6911 77.1013 51.793 76.9522 51.8309ZM76.7686 51.3784H76.5735V51.6985H76.7726C76.9305 51.6985 76.9967 51.6485 76.9967 51.5324C76.9967 51.4264 76.9265 51.3784 76.7686 51.3784Z" fill="white"/>
<path d="M32.4941 34.0173C33.6638 31.6842 35.588 29.8089 37.8557 28.7183C38.1209 28.592 38.3909 28.4752 38.6636 28.3691C38.6879 28.359 38.6777 28.3232 38.6514 28.328C30.578 29.6873 27.1137 39.7276 32.5049 44.0245C32.5258 44.0413 32.5529 44.0157 32.5373 43.9947C31.7544 42.9203 29.9071 39.217 32.4941 34.0173ZM34.3488 40.7115C34.1369 39.3865 34.1403 38.04 34.3503 36.7401C34.7728 34.1355 36.0302 31.7483 37.839 29.979C38.1751 29.6475 38.5321 29.3416 38.9027 29.0566C38.9229 29.041 38.9042 29.0093 38.8804 29.0195C34.6601 30.9069 32.225 35.6171 32.5368 39.9079C32.7083 41.8689 33.479 45.4804 37.237 46.1935C37.2606 46.1976 37.2734 46.1665 37.2538 46.153C35.7076 45.0901 34.6201 42.603 34.3488 40.7115ZM29.1325 31.0379C31.0196 28.3712 34.893 26.5715 38.6765 27.0395C38.7035 27.043 38.711 27.0044 38.6853 26.9976C35.7973 26.1528 32.7933 26.7194 30.9575 28.203C30.1699 28.8391 29.5584 29.9372 29.0947 31.0163C29.0839 31.0413 29.117 31.0595 29.1325 31.0379ZM50.4444 34.3664C49.9457 28.2631 44.4485 23.6381 38.3533 24.1952C36.2354 24.3883 33.9697 25.2642 32.2803 26.6938C32.2594 26.7113 32.2819 26.7437 32.3053 26.7296C33.7503 25.9023 35.7413 25.9226 36.9157 26.0597C37.5346 26.1319 38.146 26.2616 38.7379 26.4446C39.3299 26.6289 39.9042 26.868 40.4509 27.1557C40.7344 27.3042 41.0104 27.4677 41.2777 27.6432C42.2745 27.1996 43.326 26.9045 44.385 26.7559H44.3885C44.4635 26.7451 44.5404 26.7856 44.566 26.8572C44.5991 26.9511 44.5411 27.0463 44.45 27.0652C43.8803 27.1861 43.3195 27.3502 42.7748 27.5554C42.7512 27.5649 42.7572 27.6007 42.7836 27.6007C43.5557 27.6032 44.3237 27.6864 45.0709 27.8424L45.0744 27.8429C45.1412 27.8578 45.1945 27.9098 45.2026 27.9766C45.2148 28.0874 45.1217 28.1678 45.0231 28.1542C44.3671 28.055 43.7016 28.0151 43.0375 28.0367C43.0118 28.0372 43.0071 28.0746 43.0321 28.082C43.3425 28.1772 43.6476 28.2859 43.9479 28.4068C44.5122 28.6371 45.0548 28.9153 45.5705 29.232L45.5759 29.2366C45.6251 29.2663 45.6575 29.3216 45.6508 29.3797C45.636 29.504 45.5104 29.5573 45.4173 29.506C44.9036 29.2224 44.3678 28.9793 43.815 28.7821C43.5822 28.701 43.3466 28.6268 43.1097 28.5619C43.0834 28.5552 43.0686 28.5896 43.0908 28.6038C43.4789 28.849 43.8494 29.117 44.1997 29.4115C44.6661 29.8025 45.098 30.2326 45.4895 30.6952L45.493 30.6993C45.5309 30.7445 45.5437 30.8073 45.5194 30.86C45.466 30.9734 45.329 30.9849 45.2568 30.9059C44.862 30.4717 44.43 30.0712 43.9677 29.71C43.6944 29.4966 43.4082 29.3001 43.1133 29.1164C43.0903 29.1022 43.0653 29.1326 43.0843 29.1528C43.1686 29.2406 43.251 29.3311 43.332 29.4223C43.7356 29.8822 44.0973 30.3772 44.4098 30.9005C44.7223 31.4225 44.9862 31.9735 45.1981 32.5415L45.2001 32.5455C45.2197 32.6009 45.2109 32.665 45.1698 32.7069C45.08 32.7961 44.9464 32.7596 44.9059 32.6583C44.6872 32.114 44.4193 31.5886 44.1054 31.093C43.7916 30.5966 43.4319 30.13 43.0337 29.6985C42.6348 29.2683 42.1968 28.874 41.727 28.5221C41.5947 28.4222 41.3943 28.2837 41.3146 28.2324C32.1405 33.3511 35.3241 46.7908 41.945 46.0926C47.204 44.8439 50.8978 39.9089 50.4449 34.3661M30.524 32.6894C32.6399 29.3338 36.3269 27.8894 38.5859 27.6726C38.6115 27.6706 38.6115 27.6307 38.5859 27.6294C37.6525 27.5484 36.7886 27.6098 35.6574 27.8455C34.5134 28.1075 33.412 28.5593 32.4266 29.1975C31.4385 29.8309 30.5672 30.6446 29.8605 31.5812C29.8538 31.59 29.847 31.6008 29.8396 31.6096C28.477 33.4363 28.0396 35.7829 28.5809 37.9972C28.6423 38.2504 28.8144 38.7751 28.9312 39.1087C28.9393 39.133 28.9764 39.1249 28.973 39.0986C28.6923 36.4778 29.4536 34.3864 30.524 32.6894Z" fill="white"/>
</svg>
