<svg width="47" height="43" viewBox="0 0 47 43" fill="none" xmlns="http://www.w3.org/2000/svg">
<path fill-rule="evenodd" clip-rule="evenodd" d="M5.82812 6.82246C5.82812 5.887 6.60642 5.12866 7.5665 5.12866H17.9967C18.9568 5.12866 19.7351 5.887 19.7351 6.82246V13.5977C19.7351 14.5331 18.9568 15.2915 17.9967 15.2915H7.5665C6.60642 15.2915 5.82812 14.5331 5.82812 13.5977V6.82246ZM9.30487 8.51626V11.9039H16.2584V8.51626H9.30487Z" fill="white"/>
<path fill-rule="evenodd" clip-rule="evenodd" d="M5.82812 30.8923C5.82812 29.9568 6.59445 29.1985 7.53975 29.1985H21.2328C22.1781 29.1985 22.9444 29.9568 22.9444 30.8923V37.6675C22.9444 38.6029 22.1781 39.3613 21.2328 39.3613H7.53975C6.59445 39.3613 5.82812 38.6029 5.82812 37.6675V30.8923ZM9.25138 32.5861V35.9737H19.5211V32.5861H9.25138Z" fill="white"/>
<path fill-rule="evenodd" clip-rule="evenodd" d="M12.7815 18.6792C12.7815 17.6945 13.5448 16.8962 14.4864 16.8962H38.3556C39.2972 16.8962 40.0606 17.6945 40.0606 18.6792V25.811C40.0606 26.7957 39.2972 27.5939 38.3556 27.5939H14.4864C13.5448 27.5939 12.7815 26.7957 12.7815 25.811V18.6792ZM16.1914 20.4621V24.028H36.6507V20.4621H16.1914Z" fill="#69F977"/>
</svg>
