<svg width="86" height="85" viewBox="0 0 86 85" fill="none" xmlns="http://www.w3.org/2000/svg">
<path d="M61.5006 34.4289C60.2529 34.4289 59.5213 35.4387 59.5213 36.7954C59.5213 38.152 60.2529 39.1618 61.5006 39.1618C62.7484 39.1618 63.4801 38.152 63.4801 36.7954C63.4801 35.4387 62.7484 34.4289 61.5006 34.4289ZM65.8908 32.6483V40.3026C65.8908 40.5185 65.8292 40.6726 65.7136 40.796C65.5134 40.9964 65.0975 41.0812 64.6508 41.0812C63.8806 41.0812 63.5186 40.6187 63.5186 40.1331V40.1022C62.9717 40.7497 61.9782 41.2045 60.9769 41.2045C58.6124 41.2045 56.9873 39.4701 56.9873 36.7954C56.9873 34.2516 58.7973 32.3939 61.1233 32.3939C62.1014 32.3939 62.9024 32.7562 63.5186 33.3806C63.5494 32.8025 63.8343 32.5018 64.5891 32.5018H65.7444C65.8446 32.5018 65.8908 32.5404 65.8908 32.6483Z" fill="white"/>
<path d="M71.5056 34.4289C70.2579 34.4289 69.5262 35.4387 69.5262 36.7954C69.5262 38.152 70.2579 39.1618 71.5056 39.1618C72.7533 39.1618 73.485 38.152 73.485 36.7954C73.4927 35.4387 72.761 34.4289 71.5056 34.4289ZM76.0266 36.7954C76.0266 39.3854 74.1781 41.2045 71.8676 41.2045C71.0435 41.2045 70.2039 40.8577 69.6263 40.3489V43.5941C69.6263 43.8099 69.5647 43.9718 69.4491 44.0874C69.2489 44.2878 68.8869 44.3958 68.3786 44.3958C67.8702 44.3958 67.5083 44.2878 67.308 44.0874C67.1925 43.9641 67.1309 43.8022 67.1309 43.5941V32.6483C67.1309 32.5481 67.1771 32.5019 67.2772 32.5019H68.4325C69.2027 32.5019 69.4877 32.8256 69.5031 33.4346C70.1192 32.8102 71.0743 32.3862 72.0293 32.3862C74.3399 32.3862 76.0266 34.0512 76.0266 36.7954Z" fill="white"/>
<path d="M56.4713 33.1648C56.7871 33.4731 56.8102 33.9048 56.6253 34.3287C56.4559 34.7296 56.1709 34.9762 55.8628 34.9762C55.3391 34.9762 54.8385 34.5368 53.9373 34.5368C52.6665 34.5368 51.7885 35.4079 51.7885 36.7954C51.7885 38.2214 52.6511 39.0462 53.8372 39.0462C54.7692 39.0462 55.4238 38.5683 55.9013 38.5683C56.1324 38.5683 56.4174 38.6454 56.6407 39.1233C56.9488 39.7785 56.7871 40.1947 56.2941 40.4877C55.4931 40.9733 54.3687 41.2045 53.4983 41.2045C51.0183 41.2045 49.2314 39.6012 49.2314 36.857C49.2314 34.1977 51.0953 32.3862 53.7756 32.3862C54.5843 32.3862 55.8859 32.6021 56.4713 33.1648Z" fill="white"/>
<path d="M34.5901 34.2901C33.5965 34.2901 32.8032 35.0147 32.5799 36.0784H36.4848C36.4 35.1997 35.7531 34.2901 34.5901 34.2901ZM47.5448 33.2418C46.9517 32.6714 46.0583 32.3784 45.1264 32.3784C44.0943 32.3784 43.1315 32.787 42.5693 33.3728C42.5385 32.7947 42.2535 32.4941 41.5064 32.4941H40.3511C40.251 32.4941 40.2048 32.5403 40.2048 32.6405V35.3153C39.527 28.293 33.6658 22.9435 26.5415 22.9435C18.9628 22.9435 12.8167 28.9945 12.8167 36.6797C12.8167 43.2934 17.3685 48.6969 23.4608 50.0767C25.6635 52.3661 28.3592 53.584 30.5157 53.584C30.8469 53.584 31.2166 53.5454 31.4015 53.5069C31.5324 53.4761 31.5863 53.399 31.517 53.2757C30.9394 52.2736 30.5234 51.0942 30.5157 49.8455C35.7454 48.2807 39.658 43.7019 40.1971 38.0286V40.2717C40.1971 40.4876 40.2587 40.6417 40.3742 40.7651C40.5745 40.9655 40.9365 41.0734 41.4448 41.0734C41.9531 41.0734 42.3151 40.9655 42.5154 40.7651C42.6386 40.6417 42.6925 40.4799 42.6925 40.2717V36.2326C42.6925 35.6236 42.8081 35.2151 43.1084 34.9068C43.378 34.6293 43.8324 34.452 44.3176 34.452C44.8029 34.452 45.2573 34.6216 45.5269 34.9068C45.8272 35.2151 45.9351 35.6236 45.9351 36.2326V40.2717C45.9351 40.4876 45.9967 40.6417 46.1199 40.7651C46.3202 40.9655 46.6821 41.0734 47.1905 41.0734C47.6988 41.0734 48.0608 40.9655 48.261 40.7651C48.3843 40.6417 48.4382 40.4799 48.4382 40.2717V35.7701C48.4459 34.5059 48.1224 33.7968 47.5448 33.2418ZM29.0216 40.2717C29.0216 40.4876 28.9599 40.6495 28.8444 40.7651C28.6442 40.9655 28.2822 41.0734 27.7738 41.0734C27.2655 41.0734 26.9035 40.9655 26.7033 40.7651C26.5877 40.6417 26.5261 40.4799 26.5261 40.2717V36.2172C26.5261 35.5388 26.3798 35.1534 26.1102 34.8759C25.8484 34.6061 25.471 34.452 25.0088 34.452C24.5467 34.452 24.1693 34.5984 23.9075 34.8759C23.6379 35.1534 23.4839 35.5388 23.4839 36.2172V40.2717C23.4839 40.4876 23.4222 40.6495 23.3067 40.7651C23.1065 40.9655 22.7445 41.0734 22.2361 41.0734C21.7278 41.0734 21.3658 40.9655 21.1656 40.7651C21.0423 40.6417 20.9807 40.4799 20.9807 40.2717V36.2172C20.9807 35.5388 20.8344 35.1534 20.5648 34.8759C20.303 34.6061 19.9256 34.452 19.4634 34.452C19.0013 34.452 18.6239 34.5984 18.3621 34.8759C18.0925 35.1534 17.9385 35.5388 17.9385 36.2172V40.2717C17.9385 40.4876 17.8768 40.6495 17.7613 40.7651C17.5611 40.9655 17.1991 41.0734 16.6907 41.0734C16.1824 41.0734 15.8204 40.9655 15.6202 40.7651C15.5046 40.6417 15.443 40.4799 15.443 40.2717V32.6405C15.443 32.5403 15.4892 32.4941 15.5894 32.4941H16.7446C17.4917 32.4941 17.7767 32.7947 17.8075 33.3728C18.3698 32.8255 19.2863 32.3784 20.2721 32.3784C21.1425 32.3784 21.9743 32.6714 22.5673 33.2418C22.706 33.3805 22.8369 33.5193 22.9447 33.6734C23.6841 32.8409 24.7701 32.3784 25.8098 32.3784C26.6879 32.3784 27.512 32.6714 28.105 33.2418C28.675 33.7968 29.0139 34.452 29.0139 35.7701V40.2717H29.0216ZM37.7171 37.543H32.6107C32.7185 37.9824 32.9188 38.3524 33.2114 38.6145C33.5888 38.9536 34.1742 39.1849 35.0291 39.1849C36.1151 39.1849 36.9546 38.7378 37.3936 38.7378C37.7094 38.7378 37.9789 38.8457 38.1561 39.2774C38.3871 39.8401 38.2562 40.3642 37.7094 40.6032C36.9546 40.9347 35.9071 41.2044 34.7518 41.2044C33.3347 41.2044 32.1178 40.7497 31.3244 39.9711C30.5388 39.2003 30.0767 38.0749 30.0767 36.8184C30.0767 34.4443 31.9945 32.3939 34.5516 32.3939C37.1779 32.3939 38.7799 34.4134 38.7799 36.6874C38.7722 37.2424 38.4179 37.543 37.7171 37.543Z" fill="white"/>
<path d="M35.0522 55.1488C35.0522 55.2028 34.9751 55.2182 34.7056 55.2182H34.6517C34.3667 55.2182 34.3205 55.2105 34.3205 55.1488V52.1503H33.481C33.4116 52.1503 33.3962 52.1272 33.3962 51.8728V51.8342C33.3962 51.5645 33.4116 51.5645 33.481 51.5645H35.8994C35.9687 51.5645 35.9841 51.5722 35.9841 51.8342V51.8728C35.9841 52.1195 35.961 52.1503 35.8994 52.1503H35.0599V55.1488H35.0522Z" fill="white"/>
<path d="M36.377 51.5029C36.377 51.4489 36.3847 51.4258 36.7158 51.4258H36.7389C37.0393 51.4258 37.0701 51.4489 37.0701 51.5029V52.7516C37.2319 52.5897 37.4706 52.4818 37.7556 52.4818C38.0637 52.4818 38.3101 52.582 38.4642 52.7593C38.6336 52.9443 38.7029 53.191 38.7029 53.5764V55.1412C38.7029 55.1951 38.6721 55.2183 38.3718 55.2183H38.3487C38.0175 55.2183 38.0098 55.1951 38.0098 55.1412V53.7691C38.0098 53.4222 37.9867 53.3143 37.9096 53.2218C37.8403 53.1447 37.7171 53.1062 37.5708 53.1062C37.4552 53.1062 37.3243 53.1293 37.2319 53.191C37.124 53.2604 37.1009 53.3374 37.0932 53.4608C37.0855 53.5764 37.0855 53.7614 37.0855 53.9618V55.1489C37.0855 55.2028 37.0547 55.226 36.7543 55.226H36.7312C36.4001 55.226 36.3924 55.2028 36.3924 55.1489V51.5029H36.377Z" fill="white"/>
<path d="M40.4742 55.2645C39.6809 55.2645 39.1726 54.7635 39.1726 53.9001C39.1726 53.0676 39.6655 52.4818 40.4203 52.4818C41.1905 52.4818 41.5987 53.0754 41.5987 53.8462C41.5987 54.0466 41.591 54.1083 41.5448 54.1083H39.8966C39.9505 54.4706 40.1816 54.671 40.5667 54.671C40.8131 54.671 41.0519 54.6016 41.2829 54.5014C41.3369 54.4783 41.3677 54.4937 41.4216 54.6478L41.4678 54.7712C41.5294 54.9408 41.5217 54.9716 41.4601 55.0101C41.2059 55.1643 40.8285 55.2645 40.4742 55.2645ZM40.8978 53.6149C40.867 53.3143 40.7053 53.0676 40.4203 53.0676C40.1431 53.0676 39.9659 53.2758 39.8966 53.6149H40.8978Z" fill="white"/>
<path d="M53.6215 55.2645C52.8282 55.2645 52.3198 54.7635 52.3198 53.9001C52.3198 53.0676 52.8128 52.4818 53.5675 52.4818C54.3377 52.4818 54.7459 53.0754 54.7459 53.8462C54.7459 54.0466 54.7382 54.1083 54.692 54.1083H53.0438C53.0977 54.4706 53.3288 54.671 53.7139 54.671C53.9603 54.671 54.1991 54.6016 54.4302 54.5014C54.4841 54.4783 54.5149 54.4937 54.5688 54.6478L54.615 54.7712C54.6766 54.9408 54.6689 54.9716 54.6073 55.0101C54.3531 55.1643 53.9757 55.2645 53.6215 55.2645ZM54.0528 53.6149C54.022 53.3143 53.8602 53.0676 53.5752 53.0676C53.298 53.0676 53.1208 53.2758 53.0515 53.6149H54.0528Z" fill="white"/>
<path d="M44.4255 55.1566C44.4024 55.1951 44.3408 55.2183 44.0789 55.2183H44.025C43.7631 55.2183 43.7092 55.2028 43.6861 55.1489L42.7696 52.6283C42.7465 52.5666 42.7465 52.5358 43.0853 52.5358H43.1701C43.4473 52.5358 43.4935 52.5589 43.5167 52.6128L44.1174 54.432C44.3023 53.9464 44.5564 53.1216 44.6642 52.6128C44.6719 52.5589 44.6951 52.5358 44.98 52.5358H45.0262C45.3035 52.5358 45.3651 52.5743 45.3497 52.6128C45.2034 53.4222 44.7567 54.5399 44.4255 55.1566Z" fill="white"/>
<path d="M48.0915 53.8231C48.0915 54.7403 47.6371 55.2645 46.7899 55.2645C46.0351 55.2645 45.573 54.802 45.573 53.9233C45.573 53.006 46.0274 52.4818 46.8746 52.4818C47.6294 52.4818 48.0915 52.9443 48.0915 53.8231ZM47.3753 53.8539C47.3753 53.3606 47.2135 53.0754 46.8592 53.0754C46.4587 53.0754 46.2893 53.3837 46.2893 53.8924C46.2893 54.3858 46.451 54.671 46.8053 54.671C47.2058 54.671 47.3753 54.3626 47.3753 53.8539Z" fill="white"/>
<path d="M48.9312 51.3486C49.1776 51.3486 49.3548 51.5336 49.3548 51.7572C49.3548 51.9807 49.1776 52.1657 48.9312 52.1657C48.6847 52.1657 48.5076 51.9807 48.5076 51.7572C48.5076 51.5336 48.6924 51.3486 48.9312 51.3486ZM49.2932 52.6051C49.2932 52.5511 49.2624 52.528 48.962 52.528H48.9389C48.6077 52.528 48.6 52.5511 48.6 52.6051V55.1334C48.6 55.1874 48.6077 55.2105 48.9389 55.2105H48.962C49.2624 55.2105 49.2932 55.1874 49.2932 55.1334V52.6051Z" fill="white"/>
<path d="M52.012 52.7824C52.0659 52.8287 52.0582 52.8672 51.9735 53.0368L51.9196 53.137C51.8194 53.322 51.7809 53.322 51.7347 53.2912C51.5499 53.1679 51.3804 53.0908 51.1494 53.0908C50.8028 53.0908 50.5178 53.322 50.5178 53.8616C50.5178 54.3781 50.7412 54.6633 51.1802 54.6633C51.3958 54.6633 51.5653 54.6093 51.7578 54.5168C51.8194 54.486 51.8348 54.5091 51.9196 54.7018L51.9504 54.7712C52.0274 54.9485 52.0197 54.9793 51.9735 55.0101C51.7655 55.1489 51.4343 55.2645 51.0877 55.2645C50.7257 55.2645 50.41 55.1566 50.202 54.9562C49.9401 54.7172 49.8015 54.3472 49.8015 53.8924C49.8015 53.4531 49.9324 53.0908 50.1712 52.8441C50.3946 52.6129 50.7103 52.4818 51.1262 52.4818C51.4805 52.4818 51.7809 52.5974 52.012 52.7824Z" fill="white"/>
<path d="M58.6047 53.8231C58.6047 54.7403 58.1503 55.2645 57.3031 55.2645C56.5483 55.2645 56.0862 54.802 56.0862 53.9233C56.0862 53.006 56.5406 52.4818 57.3878 52.4818C58.1426 52.4818 58.6047 52.9443 58.6047 53.8231ZM57.8884 53.8539C57.8884 53.3606 57.7267 53.0754 57.3724 53.0754C56.9719 53.0754 56.8025 53.3837 56.8025 53.8924C56.8025 54.3858 56.9642 54.671 57.3185 54.671C57.719 54.671 57.8884 54.3626 57.8884 53.8539Z" fill="white"/>
<path d="M59.9757 55.1411C59.9757 55.1951 59.9449 55.2182 59.6445 55.2182H59.6214C59.2902 55.2182 59.2825 55.1951 59.2825 55.1411V53.083H58.8974C58.8512 53.083 58.8281 53.0753 58.8281 52.8287V52.7901C58.8281 52.5435 58.8512 52.5357 58.8974 52.5357H59.2825V52.4895C59.2825 52.1195 59.3827 51.8343 59.5675 51.6493C59.737 51.472 59.9911 51.3872 60.2992 51.3872C60.484 51.3872 60.692 51.4257 60.8537 51.4874C60.9 51.5028 60.9077 51.5414 60.8614 51.7187L60.8383 51.8035C60.7998 51.9807 60.769 52.0116 60.7305 52.0039C60.615 51.9807 60.5149 51.9653 60.407 51.9653C60.2453 51.9653 60.1375 52.0039 60.0758 52.0964C60.0065 52.1889 59.9757 52.3276 59.9757 52.5203V52.5512H60.5457C60.5919 52.5512 60.615 52.5589 60.615 52.8055V52.8441C60.615 53.0907 60.5919 53.0984 60.5457 53.0984H59.968V55.1411H59.9757Z" fill="white"/>
<path d="M36.9161 60.3596C36.1228 60.3596 35.6145 59.8586 35.6145 58.9952C35.6145 58.1627 36.0843 57.5769 36.8622 57.5769C37.6324 57.5769 38.0406 58.1473 38.0406 58.9413C38.0406 59.1417 38.0329 59.2034 37.9867 59.2034H36.3385C36.3924 59.5656 36.6235 59.7661 37.0086 59.7661C37.255 59.7661 37.4938 59.6967 37.7248 59.5965C37.7788 59.5734 37.8096 59.5888 37.8635 59.7429L37.9097 59.8663C37.9713 60.0358 37.9636 60.0667 37.902 60.1052C37.6478 60.2517 37.2704 60.3596 36.9161 60.3596ZM37.3397 58.7023C37.3089 58.4017 37.1549 58.155 36.8699 58.155C36.5927 58.155 36.4155 58.3631 36.3462 58.7023H37.3397Z" fill="white"/>
<path d="M42.9235 57.5769C42.9774 57.5769 43.0236 57.5846 43.0544 57.6C43.0929 57.6154 43.1006 57.6232 43.1006 57.8544V57.9238C43.1006 58.1859 43.0852 58.1936 43.0313 58.2013C42.7463 58.2244 42.5307 58.3477 42.3997 58.5481C42.2688 58.7409 42.2149 59.0338 42.2149 59.504V60.2363C42.2149 60.2902 42.1841 60.3134 41.8837 60.3134H41.8606C41.5294 60.3134 41.5217 60.2902 41.5217 60.2363V58.8334C41.5217 58.4402 41.514 57.9931 41.4909 57.7234C41.4832 57.654 41.5063 57.6309 41.799 57.6309H41.8298C42.0763 57.6309 42.1225 57.6386 42.1379 57.7002C42.1533 57.7465 42.1841 58.0163 42.1918 58.2244C42.3458 57.7927 42.6 57.5769 42.9235 57.5769Z" fill="white"/>
<path d="M45.573 57.8467C45.7425 58.0317 45.8118 58.2784 45.8118 58.6638V60.2286C45.8118 60.2825 45.781 60.3057 45.4806 60.3057H45.4575C45.1263 60.3057 45.1186 60.2825 45.1186 60.2286V58.8565C45.1186 58.5096 45.0955 58.4017 45.0185 58.3092C44.9492 58.2321 44.8259 58.1936 44.6796 58.1936C44.5641 58.1936 44.4331 58.2167 44.3407 58.2784C44.2329 58.3478 44.2098 58.4248 44.2021 58.5482C44.1944 58.6638 44.1944 58.8565 44.1944 59.0492V60.2363C44.1944 60.2902 44.1636 60.3134 43.8632 60.3134H43.8401C43.5089 60.3134 43.5012 60.2902 43.5012 60.2363V58.8334C43.5012 58.4403 43.4858 57.9932 43.4704 57.7234C43.4627 57.654 43.4858 57.6309 43.7785 57.6309H43.8016C44.048 57.6309 44.0943 57.6386 44.1174 57.7003C44.1328 57.7465 44.1405 57.8236 44.1559 57.9007C44.3176 57.7157 44.5795 57.5769 44.8953 57.5769C45.1802 57.5692 45.4267 57.6771 45.573 57.8467Z" fill="white"/>
<path d="M46.7284 56.4438C46.9749 56.4438 47.1597 56.6288 47.1597 56.8524C47.1597 57.0759 46.9826 57.2609 46.7361 57.2609C46.4896 57.2609 46.3125 57.0759 46.3125 56.8524C46.3125 56.6211 46.4819 56.4438 46.7284 56.4438ZM47.0904 57.7003C47.0904 57.6463 47.0596 57.6232 46.7592 57.6232H46.7361C46.4049 57.6232 46.3972 57.6463 46.3972 57.7003V60.2286C46.3972 60.2826 46.4049 60.3057 46.7361 60.3057H46.7592C47.0596 60.3057 47.0904 60.2826 47.0904 60.2286V57.7003Z" fill="white"/>
<path d="M49.7705 57.8467C49.94 58.0317 50.0093 58.2784 50.0093 58.6638V60.2286C50.0093 60.2825 49.9785 60.3057 49.6781 60.3057H49.655C49.3238 60.3057 49.3161 60.2825 49.3161 60.2286V58.8565C49.3161 58.5096 49.293 58.4017 49.216 58.3092C49.1467 58.2321 49.0235 58.1936 48.8771 58.1936C48.7616 58.1936 48.6307 58.2167 48.5382 58.2784C48.4304 58.3478 48.4073 58.4248 48.3996 58.5482C48.3919 58.6638 48.3919 58.8565 48.3919 59.0492V60.2363C48.3919 60.2902 48.3611 60.3134 48.0607 60.3134H48.0376C47.7064 60.3134 47.6987 60.2902 47.6987 60.2363V58.8334C47.6987 58.4403 47.6833 57.9932 47.6679 57.7234C47.6602 57.654 47.6833 57.6309 47.9683 57.6309H47.9914C48.2379 57.6309 48.2841 57.6386 48.3072 57.7003C48.3226 57.7465 48.3303 57.8236 48.3457 57.9007C48.5074 57.7157 48.7693 57.5769 49.0851 57.5769C49.3777 57.5692 49.6242 57.6771 49.7705 57.8467Z" fill="white"/>
<path d="M51.5574 60.3134C50.895 60.3134 50.4868 59.8123 50.4868 58.9798C50.4945 58.078 50.9566 57.5692 51.5959 57.5692C51.8732 57.5692 52.1042 57.7003 52.2737 57.8853C52.2814 57.8313 52.3045 57.7003 52.3122 57.6771C52.3276 57.6386 52.3276 57.6232 52.5509 57.6232H52.6049C52.8051 57.6232 52.8436 57.6309 52.8667 57.6848C52.9129 57.8159 52.9129 58.3169 52.9129 58.7563V60.0898C52.9129 60.5832 52.8051 60.93 52.6049 61.1536C52.3969 61.3848 52.0888 61.4927 51.6729 61.4927C51.3648 61.4927 51.026 61.4002 50.8257 61.2846C50.7718 61.2538 50.7564 61.2152 50.8411 61.0225L50.8796 60.9377C50.9489 60.7682 50.9797 60.7296 51.0337 60.7527C51.2108 60.8375 51.4342 60.8992 51.6344 60.8992C52.0118 60.8992 52.2198 60.7065 52.2198 60.1592V60.0821C52.0349 60.2363 51.8039 60.3134 51.5574 60.3134ZM52.135 59.5965C52.1889 59.5348 52.2044 59.4577 52.2044 59.319V58.4788C52.0888 58.2707 51.9194 58.1705 51.7422 58.1705C51.4033 58.1705 51.2031 58.4325 51.2031 58.9798C51.2031 59.4655 51.3879 59.7198 51.7576 59.7198C51.8963 59.7275 52.058 59.6736 52.135 59.5965Z" fill="white"/>
<path d="M56.1555 56.598C56.1555 56.544 56.1632 56.5209 56.4944 56.5209H56.5175C56.8179 56.5209 56.8487 56.544 56.8487 56.598V59.6273C56.8487 59.7429 56.8949 59.7661 56.995 59.7661C57.0567 59.7661 57.0644 59.7892 57.0644 59.9742V60.0282C57.0644 60.2054 57.0567 60.244 57.0181 60.2594C56.9257 60.2979 56.7871 60.3211 56.6562 60.3211C56.4328 60.3211 56.2788 60.2209 56.2171 60.0667C56.0477 60.2517 55.7935 60.3519 55.5086 60.3519C54.8462 60.3519 54.438 59.8354 54.438 59.0029C54.438 58.1011 54.8924 57.5692 55.5548 57.5692C55.7935 57.5692 55.9938 57.654 56.1555 57.8005V56.598ZM56.1555 58.4094C56.0323 58.2552 55.8783 58.1782 55.7011 58.1782C55.3314 58.1782 55.1543 58.4711 55.1543 59.0107C55.1543 59.3113 55.2236 59.504 55.3237 59.6196C55.4161 59.7275 55.5625 59.7661 55.7011 59.7661C55.8397 59.7661 56.0015 59.7121 56.0785 59.635C56.1324 59.5734 56.1478 59.4963 56.1478 59.3575V58.4094H56.1555Z" fill="white"/>
<path d="M57.9346 56.4438C58.1811 56.4438 58.3582 56.6288 58.3582 56.8524C58.3582 57.0759 58.1811 57.2609 57.9346 57.2609C57.6881 57.2609 57.511 57.0759 57.511 56.8524C57.5187 56.6211 57.6958 56.4438 57.9346 56.4438ZM58.2966 57.7003C58.2966 57.6463 58.2658 57.6232 57.9654 57.6232H57.9423C57.6111 57.6232 57.6034 57.6463 57.6034 57.7003V60.2286C57.6034 60.2826 57.6111 60.3057 57.9423 60.3057H57.9654C58.2658 60.3057 58.2966 60.2826 58.2966 60.2286V57.7003Z" fill="white"/>
<path d="M58.8896 59.82L58.9435 59.7275C59.0282 59.5734 59.0744 59.5348 59.1283 59.5734C59.3132 59.6967 59.5674 59.7892 59.7753 59.7892C60.0449 59.7892 60.1989 59.689 60.1989 59.5502C60.1989 59.1648 58.905 59.3884 58.905 58.4248C58.905 57.893 59.3594 57.5692 59.9525 57.5692C60.2836 57.5692 60.5763 57.6617 60.792 57.8236C60.8459 57.8621 60.8305 57.9007 60.7304 58.0703L60.6841 58.1396C60.5917 58.2938 60.5609 58.3246 60.4993 58.2861C60.3376 58.1859 60.1835 58.1242 59.9833 58.1242C59.8369 58.1242 59.7214 58.155 59.6521 58.209C59.6059 58.2475 59.5828 58.2938 59.5828 58.3555C59.5828 58.7255 60.8767 58.5405 60.8767 59.45C60.8767 59.6813 60.7843 59.9048 60.6225 60.0667C60.4377 60.2517 60.1527 60.3442 59.783 60.3442C59.3902 60.3442 59.0436 60.2209 58.8434 60.0436C58.8049 60.0127 58.8049 59.9665 58.8896 59.82Z" fill="white"/>
<path d="M64.9896 57.8159C65.159 57.6617 65.3824 57.5692 65.6519 57.5692C66.2912 57.5692 66.6994 58.078 66.6994 58.9182C66.6994 59.4192 66.5608 59.7892 66.322 60.0282C66.0986 60.2517 65.7366 60.3519 65.313 60.3519C64.9665 60.3519 64.5506 60.2594 64.358 60.1438C64.3041 60.1053 64.2964 60.0744 64.2964 60.0128V56.5903C64.2964 56.5363 64.3041 56.5132 64.6353 56.5132H64.6584C64.9588 56.5132 64.9896 56.5363 64.9896 56.5903V57.8159ZM65.0589 58.2938C65.005 58.3555 64.9896 58.4325 64.9896 58.5713V59.7275C65.0897 59.7661 65.2129 59.7815 65.3284 59.7815C65.5364 59.7815 65.7058 59.7198 65.8137 59.5965C65.9292 59.4578 65.9831 59.2419 65.9831 58.9336C65.9831 58.633 65.9138 58.4403 65.8137 58.3246C65.7212 58.2167 65.5826 58.1782 65.444 58.1782C65.3053 58.1705 65.1359 58.209 65.0589 58.2938Z" fill="white"/>
<path d="M67.5467 56.4438C67.7931 56.4438 67.9703 56.6288 67.9703 56.8524C67.9703 57.0759 67.7931 57.2609 67.5467 57.2609C67.3002 57.2609 67.123 57.0759 67.123 56.8524C67.1307 56.6211 67.3079 56.4438 67.5467 56.4438ZM67.9086 57.7003C67.9086 57.6463 67.8778 57.6232 67.5775 57.6232H67.5544C67.2232 57.6232 67.2155 57.6463 67.2155 57.7003V60.2286C67.2155 60.2826 67.2232 60.3057 67.5544 60.3057H67.5775C67.8778 60.3057 67.9086 60.2826 67.9086 60.2286V57.7003Z" fill="white"/>
<path d="M70.4119 56.4438C70.6584 56.4438 70.8355 56.6288 70.8355 56.8524C70.8355 57.0759 70.6584 57.2609 70.4119 57.2609C70.1654 57.2609 69.9883 57.0759 69.9883 56.8524C69.996 56.6211 70.1731 56.4438 70.4119 56.4438ZM70.7739 57.7003C70.7739 57.6463 70.7431 57.6232 70.4427 57.6232H70.4196C70.0884 57.6232 70.0807 57.6463 70.0807 57.7003V60.2286C70.0807 60.2826 70.0884 60.3057 70.4196 60.3057H70.4427C70.7431 60.3057 70.7739 60.2826 70.7739 60.2286V57.7003Z" fill="white"/>
<path d="M72.345 57.6231H72.9226C72.9688 57.6231 72.992 57.6309 72.992 57.8775V57.9161C72.992 58.1627 72.9688 58.1704 72.9226 58.1704H72.345V59.4269C72.345 59.5733 72.3681 59.6581 72.4297 59.7121C72.4836 59.7583 72.5529 59.7815 72.6531 59.7815C72.7378 59.7815 72.8225 59.7583 72.9149 59.7275C72.9688 59.7121 72.992 59.7429 73.0459 59.9279L73.0613 59.9819C73.1152 60.1669 73.1152 60.1977 73.0536 60.2285C72.8918 60.3133 72.6685 60.3519 72.4682 60.3519C72.1832 60.3519 71.983 60.2748 71.8521 60.1438C71.7134 60.005 71.6441 59.7892 71.6441 59.4577V58.1627H71.259C71.2128 58.1627 71.1897 58.155 71.1897 57.9084V57.8698C71.1897 57.6231 71.2128 57.6154 71.259 57.6154H71.6441V56.9217C71.6441 56.8677 71.6518 56.8446 71.983 56.8446H72.0061C72.3065 56.8446 72.3373 56.8677 72.3373 56.9217V57.6231H72.345Z" fill="white"/>
<path d="M73.5851 60.9069C73.8623 60.9069 74.0241 60.799 74.2012 60.3211L73.2847 57.708C73.2616 57.6463 73.2847 57.6155 73.6005 57.6155H73.6852C73.9856 57.6155 74.0087 57.6386 74.0318 57.6926L74.3476 58.6869C74.4631 59.0646 74.5324 59.319 74.5786 59.5888C74.6325 59.3267 74.7018 59.0415 74.802 58.7023L75.0946 57.7003C75.1178 57.6463 75.1486 57.6232 75.4104 57.6232H75.4874C75.7955 57.6232 75.8186 57.654 75.7955 57.7157L74.9252 60.2594C74.6248 61.1228 74.2936 61.485 73.6313 61.485C73.4156 61.485 73.1923 61.4311 73.0844 61.3617C73.0382 61.3309 73.0305 61.3078 73.0921 61.1228L73.1152 61.0534C73.1769 60.8838 73.2 60.8375 73.2693 60.8607C73.354 60.8838 73.4926 60.9069 73.5851 60.9069Z" fill="white"/>
<path d="M40.228 60.0744C40.074 60.2517 39.8044 60.3596 39.5348 60.3596C38.8724 60.3596 38.4565 59.8508 38.4565 59.0184C38.4565 58.0934 38.9726 57.5769 39.581 57.5769C39.8583 57.5769 40.1048 57.7079 40.2203 57.8775L40.2434 57.6925C40.2511 57.6463 40.2665 57.6232 40.5438 57.6232H40.5746C40.8364 57.6232 40.8673 57.6386 40.8673 57.6925C40.8673 57.8621 40.8596 58.3709 40.8596 58.7871V59.0954C40.8596 59.4886 40.875 59.9356 40.8981 60.2054C40.9058 60.2748 40.8827 60.2979 40.59 60.2979H40.5669C40.3204 60.2979 40.2819 60.2902 40.2665 60.2286C40.2357 60.2054 40.228 60.1361 40.228 60.0744ZM40.0894 59.6196C40.1433 59.5579 40.1587 59.45 40.1587 59.319V58.4171C40.0586 58.2706 39.8968 58.1704 39.7197 58.1704C39.35 58.1704 39.1805 58.4634 39.1805 58.9875C39.1805 59.4423 39.3038 59.7661 39.712 59.7661C39.8506 59.7738 40.0123 59.7044 40.0894 59.6196Z" fill="white"/>
<path d="M62.9948 60.0744C62.8408 60.2517 62.5712 60.3596 62.3017 60.3596C61.6393 60.3596 61.2234 59.8508 61.2234 59.0184C61.2234 58.0934 61.7394 57.5769 62.3479 57.5769C62.6251 57.5769 62.8716 57.7079 62.9871 57.8775L63.0102 57.6925C63.0179 57.6463 63.0333 57.6232 63.3106 57.6232H63.3414C63.6033 57.6232 63.6341 57.6386 63.6341 57.6925C63.6341 57.8621 63.6264 58.3709 63.6264 58.7871V59.0954C63.6264 59.4886 63.6418 59.9356 63.6649 60.2054C63.6726 60.2748 63.6495 60.2979 63.3645 60.2979H63.3414C63.095 60.2979 63.0565 60.2902 63.041 60.2286C63.0102 60.2054 63.0025 60.1361 62.9948 60.0744ZM62.8562 59.6196C62.9101 59.5579 62.9255 59.45 62.9255 59.319V58.4171C62.8254 58.2706 62.6637 58.1704 62.4865 58.1704C62.1168 58.1704 61.9474 58.4634 61.9474 58.9875C61.9474 59.4423 62.0706 59.7661 62.4788 59.7661C62.6174 59.7738 62.7792 59.7044 62.8562 59.6196Z" fill="white"/>
<path d="M68.6019 57.9546C68.6019 57.469 68.5787 56.7676 68.5633 56.5826C68.5556 56.5286 68.5633 56.5132 68.8945 56.5132H68.9176C69.2103 56.5132 69.2411 56.5286 69.2565 56.5826C69.2873 56.729 69.295 57.3765 69.295 58.0626V59.6042C69.295 59.7198 69.3335 59.7738 69.4645 59.7738H69.5261C69.5723 59.7738 69.58 59.8123 69.58 59.9973V60.0436C69.58 60.2286 69.5723 60.244 69.5338 60.2671C69.4568 60.3057 69.3258 60.3288 69.1949 60.3288C69.0101 60.3288 68.8637 60.2748 68.7713 60.1746C68.6481 60.0513 68.6096 59.8817 68.6096 59.6428V57.9546H68.6019Z" fill="white"/>
<path d="M34.3204 57.9546C34.3204 57.469 34.2973 56.7676 34.2819 56.5826C34.2741 56.5286 34.2819 56.5132 34.613 56.5132H34.6361C34.9288 56.5132 34.9596 56.5286 34.975 56.5826C35.0058 56.729 35.0135 57.3765 35.0135 58.0626V59.6042C35.0135 59.7198 35.052 59.7738 35.183 59.7738H35.2446C35.2908 59.7738 35.2985 59.8123 35.2985 59.9973V60.0436C35.2985 60.2286 35.2908 60.244 35.2523 60.2671C35.1753 60.3057 35.0443 60.3288 34.9134 60.3288C34.7286 60.3288 34.5822 60.2748 34.4898 60.1746C34.3666 60.0513 34.3281 59.8817 34.3281 59.6428V57.9546H34.3204Z" fill="white"/>
</svg>
