<svg width="61" height="69" viewBox="0 0 61 69" fill="none" xmlns="http://www.w3.org/2000/svg">
<path d="M30.1517 68.0984C29.2506 68.0984 28.3556 67.862 27.5656 67.4071L19.3337 62.5335C18.1041 61.8459 18.7041 61.6027 19.1096 61.4626C20.7489 60.8886 21.0816 60.759 22.8315 59.7652C23.0154 59.6603 23.2561 59.6974 23.4444 59.8085L29.7684 63.5612C29.9968 63.6846 30.3208 63.6846 30.5325 63.5612L55.1906 49.328C55.4189 49.1984 55.5671 48.933 55.5671 48.6614V20.2075C55.5671 19.9235 55.4189 19.6705 55.1856 19.5285L30.5375 5.30772C30.3091 5.17193 30.0067 5.17193 29.7783 5.30772L5.13507 19.5285C4.8962 19.6643 4.74437 19.9297 4.74437 20.2013V48.6552C4.74437 48.9268 4.8925 49.1861 5.12704 49.3157L11.8795 53.2165C15.5458 55.0497 17.7863 52.8894 17.7863 50.7168V22.6331C17.7863 22.2319 18.1011 21.9233 18.5023 21.9233H21.6254C22.0142 21.9233 22.3352 22.2319 22.3352 22.6331V50.7291C22.3352 55.6175 19.6688 58.4259 15.0335 58.4259C13.6077 58.4259 12.4843 58.4259 9.34884 56.8828L2.88035 53.1548C1.28175 52.229 0.294189 50.5007 0.294189 48.6552V20.2013C0.294189 18.3496 1.28175 16.6214 2.88035 15.7079L27.5631 1.46859C29.1247 0.585963 31.1985 0.585963 32.7477 1.46859L57.3996 15.7141C58.9921 16.6337 59.9858 18.3558 59.9858 20.2075V48.6614C59.9858 50.5069 58.9921 52.229 57.3996 53.1548L32.7477 67.3941C31.9577 67.8509 31.0627 68.0854 30.1492 68.0854" fill="#689F63"/>
<path d="M37.7683 48.4917C26.9792 48.4917 24.7171 43.5391 24.7171 39.3852C24.7171 38.9902 25.0356 38.6754 25.4312 38.6754H28.6161C28.9679 38.6754 29.2642 38.9316 29.3197 39.2791C29.8012 42.5244 31.2331 44.1613 37.7572 44.1613C42.9542 44.1613 45.1638 42.9873 45.1638 40.2314C45.1638 38.6452 44.5343 37.4663 36.461 36.6762C29.7086 36.0096 25.5362 34.5221 25.5362 29.1214C25.5362 24.1466 29.7333 21.1839 36.7634 21.1839C44.6577 21.1839 48.5709 23.9244 49.0647 29.8127C49.0832 30.0164 49.0091 30.2139 48.8733 30.362C48.7375 30.504 48.5462 30.5904 48.3487 30.5904H45.1453C44.812 30.5904 44.5219 30.3559 44.454 30.0349C43.6825 26.6217 41.8185 25.5292 36.7511 25.5292C31.0788 25.5292 30.4184 27.5043 30.4184 28.9856C30.4184 30.7818 31.1961 31.3064 38.8496 32.3186C46.4291 33.3247 50.0275 34.7443 50.0275 40.0709C50.0275 45.4408 45.5465 48.5207 37.7325 48.5207" fill="#689F63"/>
</svg>
