<svg width="61" height="68" viewBox="0 0 61 68" fill="none" xmlns="http://www.w3.org/2000/svg">
<path d="M30.1517 67.8918C29.2506 67.8918 28.3556 67.6555 27.5656 67.2006L19.3337 62.327C18.1041 61.6394 18.7041 61.3962 19.1096 61.2561C20.7489 60.6821 21.0816 60.5525 22.8315 59.5587C23.0154 59.4538 23.2561 59.4908 23.4444 59.6019L29.7684 63.3547C29.9968 63.4781 30.3208 63.4781 30.5325 63.3547L55.1906 49.1215C55.4189 48.9919 55.5671 48.7265 55.5671 48.4549V20.0009C55.5671 19.717 55.4189 19.464 55.1856 19.322L30.5375 5.10119C30.3091 4.9654 30.0067 4.9654 29.7783 5.10119L5.13507 19.322C4.8962 19.4578 4.74437 19.7232 4.74437 19.9948V48.4487C4.74437 48.7203 4.8925 48.9795 5.12704 49.1091L11.8795 53.01C15.5458 54.8432 17.7863 52.6829 17.7863 50.5103V22.4266C17.7863 22.0254 18.1011 21.7168 18.5023 21.7168H21.6254C22.0142 21.7168 22.3352 22.0254 22.3352 22.4266V50.5226C22.3352 55.411 19.6688 58.2194 15.0335 58.2194C13.6077 58.2194 12.4843 58.2194 9.34884 56.6763L2.88035 52.9483C1.28175 52.0224 0.294189 50.2942 0.294189 48.4487V19.9948C0.294189 18.1431 1.28175 16.4149 2.88035 15.5014L27.5631 1.26207C29.1247 0.379441 31.1985 0.379441 32.7477 1.26207L57.3996 15.5076C58.9921 16.4272 59.9858 18.1493 59.9858 20.0009V48.4549C59.9858 50.3004 58.9921 52.0224 57.3996 52.9483L32.7477 67.1876C31.9577 67.6443 31.0627 67.8789 30.1492 67.8789" fill="#689F63"/>
<path d="M37.7683 48.2852C26.9792 48.2852 24.7171 43.3326 24.7171 39.1787C24.7171 38.7837 25.0356 38.4689 25.4312 38.4689H28.6161C28.9679 38.4689 29.2642 38.725 29.3197 39.0725C29.8012 42.3179 31.2331 43.9548 37.7572 43.9548C42.9542 43.9548 45.1638 42.7808 45.1638 40.0249C45.1638 38.4386 44.5343 37.2597 36.461 36.4697C29.7086 35.8031 25.5362 34.3156 25.5362 28.9149C25.5362 23.9401 29.7333 20.9774 36.7634 20.9774C44.6577 20.9774 48.5709 23.7179 49.0647 29.6062C49.0832 29.8099 49.0091 30.0074 48.8733 30.1555C48.7375 30.2975 48.5462 30.3839 48.3487 30.3839H45.1453C44.812 30.3839 44.5219 30.1493 44.454 29.8284C43.6825 26.4151 41.8185 25.3227 36.7511 25.3227C31.0788 25.3227 30.4184 27.2978 30.4184 28.7791C30.4184 30.5752 31.1961 31.0999 38.8496 32.1121C46.4291 33.1182 50.0275 34.5378 50.0275 39.8644C50.0275 45.2343 45.5465 48.3142 37.7325 48.3142" fill="#689F63"/>
</svg>
