<svg width="86" height="85" viewBox="0 0 86 85" fill="none" xmlns="http://www.w3.org/2000/svg">
<g clip-path="url(#clip0_1985_2848)">
<path d="M10.9255 48.0439C9.00026 48.0439 8.45259 46.4242 8.45259 44.7606H10.1712C10.1712 45.2207 10.23 46.409 11.0011 46.409C11.579 46.409 11.8747 45.8882 11.8747 45.3842C11.8747 43.5116 8.36523 43.0211 8.36523 39.9164C8.36523 38.3708 9.19513 37.019 10.8533 37.019C12.7634 37.019 13.2825 38.6388 13.311 40.2586H11.5924C11.5924 39.7984 11.5488 38.654 10.8079 38.654C10.2753 38.654 10.0822 39.1731 10.0822 39.6198C10.0822 41.403 13.5916 42.0722 13.5916 45.1179C13.5916 46.7512 12.6424 48.0439 10.9255 48.0439ZM14.3173 47.8349V37.2263H18.6852V38.8613H16.2426V41.58H18.0485V43.3043H16.2426V46.2017H18.7894V47.8366H14.3173V47.8349ZM19.5588 47.8349V37.2263H21.484V46.2H23.9569V47.8349H19.5588ZM26.5037 38.8613V41.6997H28.266V43.424H26.5037V47.8366H24.5785V37.2263H28.8876V38.8613H26.5037ZM32.9615 47.8349L32.0577 43.2739H31.5991V47.8349H29.6587V37.2263H31.8359C33.8502 37.2263 34.8867 38.177 34.8867 40.2417C34.8867 41.1772 34.6347 42.3065 33.7612 42.8273L34.9019 47.8349H32.9615ZM31.8947 38.7719H31.5991V41.7283H31.9838C32.7532 41.7283 32.9615 40.8822 32.9615 40.2569C32.9615 39.5001 32.7985 38.7719 31.8947 38.7719ZM35.7889 47.8349V37.2263H37.7292V47.8349H35.7889ZM40.8237 47.8349H38.8397V37.2263H40.5129C43.9787 37.2263 44.0677 39.7967 44.0677 42.5306C44.0677 44.9982 44.0677 47.8349 40.8237 47.8349ZM40.7649 46.2017C42.2601 46.2017 42.0534 44.5819 42.0534 42.7245C42.0534 41.0895 42.4533 38.8613 40.7649 38.8613V46.2017ZM50.1391 47.8349H49.3243L49.0572 47.1371C48.7161 47.6428 48.1534 48.0439 47.5167 48.0439C44.8506 48.0439 44.7766 44.5229 44.7766 42.6065C44.7766 40.7946 45.0438 37.0207 47.5167 37.0207C49.9308 37.0207 50.0635 39.131 50.0635 41.017H48.3314L48.3465 40.3479C48.3465 39.8878 48.2877 38.654 47.6208 38.654C46.6884 38.654 46.7909 41.8935 46.7909 42.6217C46.7909 44.1959 46.6867 46.4107 47.7081 46.4107C48.5381 46.4107 48.5078 44.9847 48.4927 44.4353H47.7821V42.8896H50.1374V47.8349H50.1391ZM51.1605 47.8349V37.2263H55.5284V38.8613H53.084V41.58H54.8782V43.3043H53.0857V46.2017H55.6325V47.8366H51.1605V47.8349ZM58.4767 48.0439C56.5515 48.0439 55.9887 46.4242 56.0038 44.7606H57.7224C57.7224 45.3404 57.7812 46.409 58.5523 46.409C59.1302 46.409 59.4108 45.8882 59.4108 45.3842C59.4108 43.5116 55.9164 43.0211 55.9164 39.9164C55.9164 38.3708 56.7463 37.019 58.4045 37.019C60.3146 37.019 60.8186 38.6388 60.8622 40.2586H59.1285C59.1285 39.8726 59.2024 38.654 58.3591 38.654C57.8266 38.654 57.6334 39.1731 57.6334 39.6198C57.6334 41.403 61.1428 42.0722 61.1428 45.1179C61.1428 46.7512 60.1936 48.0439 58.4767 48.0439ZM68.0138 47.8349C67.1991 47.8349 66.5623 47.6124 66.0449 47.063C65.556 47.6428 64.8454 48.0439 64.0458 48.0439C62.4028 48.0439 61.6619 46.559 61.6619 45.369C61.6619 44.1352 62.2835 43.0666 63.2024 42.0402C62.7589 41.1182 62.4028 40.331 62.4028 39.2759C62.4028 37.909 63.3352 37.0173 64.6539 37.0173C66.0164 37.0173 66.7572 38.1315 66.7572 39.2304C66.7572 40.5974 66.1054 41.1468 65.3209 42.0688C65.5141 42.6031 65.8097 43.0936 66.0768 43.5992C66.2247 43.0936 66.3137 42.6031 66.3725 42.084L67.8526 42.411C67.7198 43.4358 67.4964 44.4605 67.0529 45.4129C67.32 45.8292 67.6459 46.0078 68.1331 46.1107V47.8349H68.0138ZM67.8946 46.3045C67.3771 46.1713 67.0512 45.873 66.7992 45.428C67.2142 44.5212 67.451 43.5706 67.5989 42.5896L66.5775 42.3671C66.4884 43.0059 66.3255 43.6009 66.134 44.1942C65.7644 43.4813 65.3192 42.7969 65.0521 42.025C65.8215 41.1182 66.5187 40.5687 66.5187 39.2321C66.5187 38.236 65.8517 37.2567 64.6522 37.2567C63.4527 37.2567 62.638 38.0438 62.638 39.2776C62.638 40.3479 63.0227 41.135 63.4679 42.0857C62.638 43.0076 61.8988 44.0611 61.8988 45.369C61.8988 46.4983 62.5792 47.8063 64.0458 47.8063C64.9042 47.8063 65.5409 47.3461 66.0298 46.6922C66.5623 47.3158 67.0663 47.5838 67.8962 47.599V46.3045H67.8946ZM65.3629 45.814C65.1697 46.1107 64.8589 46.4376 64.459 46.4376C63.7182 46.4376 63.3486 45.4129 63.3486 44.8027C63.3486 44.1487 63.5855 43.7779 64.0155 43.3313L65.3629 45.814ZM63.5855 44.8044C63.5855 45.428 63.866 46.2017 64.4893 46.2017C64.8152 46.2017 64.9479 45.964 65.0823 45.7854L63.9719 43.7206C63.7182 44.0173 63.5855 44.3577 63.5855 44.8044ZM64.6371 38.4146C65.1697 38.4146 65.3175 38.9051 65.3175 39.3652C65.3175 40.063 64.9025 40.5535 64.5178 41.0744C64.281 40.5249 63.9987 39.8709 63.9987 39.2759C64.0002 38.8916 64.1331 38.4146 64.6371 38.4146ZM65.0957 39.3669C65.0957 38.922 64.9479 38.654 64.6371 38.654C64.3566 38.654 64.2373 38.9068 64.2373 39.2776C64.2373 39.6788 64.4002 40.2131 64.5632 40.6294C64.8438 40.2586 65.0957 39.8574 65.0957 39.3669ZM71.7299 41.0609C71.7299 40.7187 71.7887 38.8478 71.152 38.8478C70.3826 38.8478 70.4699 42.0873 70.4699 42.4278C70.4699 45.6674 70.7505 46.2168 71.1218 46.2168C71.8912 46.2168 71.8475 44.2701 71.8475 43.7796H73.6686V43.8976C73.6837 45.6067 73.4754 48.0423 71.0915 48.0423C68.3229 48.0423 68.2927 44.2246 68.2927 42.4261C68.2927 40.7625 68.5296 37.0173 71.0915 37.0173C73.4754 37.0173 73.6535 39.3501 73.6383 41.0592V41.1789H71.7282V41.0609H71.7299ZM73.4183 40.9412C73.4031 39.2034 73.1663 37.2567 71.0932 37.2567C68.8118 37.2567 68.5313 40.6445 68.5313 42.4278C68.5313 44.3594 68.6052 47.8063 71.0932 47.8063C73.1663 47.8063 73.4334 45.7567 73.4485 44.0173H72.086C72.0709 44.6409 72.0709 46.4393 71.1234 46.4393C70.4716 46.4393 70.2347 45.4432 70.2347 42.4278C70.2347 41.6845 70.1457 38.6236 71.1537 38.6236C72.0121 38.6236 71.9685 40.4355 71.9685 40.9412H73.4183ZM76.3061 37.0477C78.1272 37.0477 78.4531 38.8748 78.4531 40.331C78.4531 41.7722 78.1272 43.5992 76.3061 43.5992C74.485 43.5992 74.1591 41.7722 74.1591 40.331C74.1591 38.8765 74.485 37.0477 76.3061 37.0477ZM76.6908 45.7112C76.0104 45.7112 75.7131 45.1162 75.2091 45.1162C74.942 45.1162 74.7051 45.2797 74.5287 45.5022L74.233 45.0707C74.6177 44.4622 75.1503 43.9414 75.8324 43.9414C76.5127 43.9414 76.795 44.5364 77.3124 44.5364C77.5795 44.5364 77.8013 44.3729 77.9793 44.1504L78.275 44.5819C77.9054 45.1752 77.3578 45.7112 76.6908 45.7112ZM76.3061 43.3633C77.9642 43.3633 78.2162 41.6255 78.2162 40.3327C78.2162 39.0248 77.9642 37.287 76.3061 37.287C74.6329 37.287 74.396 39.0248 74.396 40.3327C74.396 41.6238 74.6329 43.3633 76.3061 43.3633ZM77.9642 44.4774C77.7861 44.6561 77.5493 44.774 77.3124 44.774C76.7194 44.774 76.4539 44.1791 75.8324 44.1791C75.2847 44.1791 74.8109 44.5802 74.485 45.0707L74.5438 45.1752C74.7219 44.9965 74.9588 44.8785 75.2108 44.8785C75.7887 44.8785 76.0692 45.4735 76.6925 45.4735C77.2402 45.4735 77.7139 45.0572 78.0247 44.5819L77.9642 44.4774ZM76.884 40.3327C76.884 42.234 76.6774 42.5323 76.3061 42.5323C75.9802 42.5323 75.7282 42.2357 75.7282 40.3327C75.7282 39.4411 75.7584 38.8916 75.8324 38.5646C75.9365 38.1786 76.128 38.1197 76.3061 38.1197C76.7059 38.1182 76.884 38.6085 76.884 40.3327ZM76.3061 42.293C76.4842 42.293 76.6471 42.0991 76.6471 40.331C76.6471 39.7226 76.632 38.3556 76.3061 38.3556C75.9953 38.3556 75.9651 39.0399 75.9651 40.331C75.9651 41.9812 76.128 42.293 76.3061 42.293Z" fill="white"/>
</g>
<defs>
<clipPath id="clip0_1985_2848">
<rect width="70.7473" height="11.7146" fill="white" transform="translate(8.03564 36.6731)"/>
</clipPath>
</defs>
</svg>
