<svg width="67" height="72" viewBox="0 0 67 72" fill="none" xmlns="http://www.w3.org/2000/svg">
<g clip-path="url(#clip0_1949_171)">
<path fill-rule="evenodd" clip-rule="evenodd" d="M22.0458 36.7835C22.204 37.1042 22.5212 37.265 22.8376 37.265C23.1539 37.4258 23.4712 37.4258 23.7875 37.4258C24.1039 37.4258 24.4211 37.4258 24.5793 37.265C24.8956 37.1042 25.0538 36.9443 25.3711 36.6236L25.8456 35.6614C26.0038 35.3407 26.0038 34.8591 26.0038 34.2186C26.0038 33.737 26.0038 33.4172 25.8456 32.9356C25.6874 32.4541 25.6874 32.1343 25.3711 31.8135C25.2129 31.4928 24.8965 31.3329 24.7375 31.0113C24.4211 30.8514 24.1039 30.6906 23.7875 30.6906C23.3121 30.6906 22.9957 30.8514 22.6794 31.0113C22.363 31.1712 22.204 31.4919 21.8876 31.6527L21.4122 32.6149C21.254 32.9356 21.254 33.4163 21.254 33.8978C21.254 34.5393 21.254 35.0199 21.4122 35.3407L22.0458 36.7835ZM31.2281 49.291C31.7026 49.291 32.3362 49.291 32.8116 49.451C35.3451 44.3193 40.4112 40.9521 46.2691 40.6314V10.6463C46.2682 5.83542 35.9778 1.1853 23.4703 1.1853C10.8046 1.1853 0.672363 5.5147 0.672363 10.3256V53.6204C0.672363 57.9498 9.06373 62.1193 19.9868 62.7607C19.8287 62.1193 19.8287 61.4778 19.8287 60.8364C19.8287 54.5826 24.8948 49.291 31.2281 49.291ZM39.4604 40.4714H31.5444V28.1247H35.186V37.5858H39.4604V40.4714ZM23.4703 4.55251C32.4944 4.55251 39.7776 6.79761 39.7776 9.52336C39.7776 12.2491 32.4952 14.4942 23.4712 14.4942C14.4471 14.4942 7.16383 12.25 7.16383 9.52336C7.16383 6.79674 14.4462 4.55251 23.4703 4.55251ZM16.6625 37.5849C16.6625 37.9056 16.5043 38.2264 16.3461 38.5471C16.1879 38.8678 16.0297 39.1885 15.7125 39.3485C15.3961 39.6692 15.0789 39.8291 14.7626 39.9899C14.4462 40.1507 13.9708 40.3106 13.3372 40.4714C12.8627 40.6314 12.2291 40.6314 11.4373 40.6314H10.3292C10.0128 40.6314 9.69558 40.6314 9.37922 40.4714C9.06286 40.4714 8.74563 40.3106 8.58745 40.3106C8.27109 40.3106 8.11291 40.1498 7.95385 39.9899V36.6227C8.11203 36.7835 8.42927 36.9434 8.74563 37.1042C9.06198 37.265 9.22016 37.425 9.5374 37.5849C9.85463 37.7448 10.171 37.7457 10.4873 37.9056C10.8037 38.0656 11.1209 38.0656 11.4373 38.0656C11.7537 38.0656 11.9118 38.0656 12.0709 37.9056C12.2291 37.9056 12.3872 37.7448 12.3872 37.7448C12.5454 37.7448 12.5454 37.584 12.5454 37.4241V37.1034C12.5454 36.9426 12.5454 36.7826 12.3872 36.6218C12.2291 36.461 12.2291 36.3011 12.0709 36.3011C11.9127 36.1403 11.7545 36.1403 11.4373 35.9804C11.1201 35.8205 10.9619 35.8205 10.6455 35.6597C10.171 35.4989 9.69557 35.1781 9.22104 34.8583C8.90468 34.5375 8.58745 34.3776 8.27109 34.0569C7.95473 33.7362 7.79568 33.4154 7.79568 33.0947C7.6375 32.774 7.6375 32.2933 7.6375 31.9717C7.6375 31.3303 7.79568 30.8496 7.95385 30.3681C8.27021 29.8874 8.58745 29.4059 8.9038 29.0852C9.37834 28.7644 9.85375 28.4437 10.4873 28.2838C11.1209 28.1238 11.7537 27.9631 12.5454 27.9631H13.6536C13.9699 27.9631 14.2871 27.9631 14.6035 28.1239C14.9207 28.1239 15.0789 28.2838 15.3953 28.2838C15.5535 28.2838 15.8707 28.4437 16.0289 28.4437V31.651C15.8707 31.4911 15.7116 31.4911 15.3953 31.3303C15.2371 31.1703 14.9207 31.1703 14.6035 31.0095C14.2863 30.8487 14.129 30.8487 13.8117 30.8487H12.8618C12.3864 30.8487 12.07 30.8487 11.9118 31.0095C11.5955 31.1703 11.5955 31.3303 11.5955 31.651C11.5955 31.8118 11.5955 31.9717 11.7537 31.9717C11.7537 32.1325 11.9118 32.1325 12.07 32.2924C12.2282 32.4524 12.3864 32.4524 12.5446 32.6132C12.7027 32.774 13.0191 32.774 13.3363 32.9339C13.8109 33.0947 14.2863 33.4154 14.7617 33.5754C15.2362 33.8961 15.5535 34.056 15.8698 34.3776C16.1862 34.6992 16.3443 35.0191 16.6616 35.3398C16.8198 35.6605 16.9779 36.1412 16.9779 36.7826C16.6616 36.9434 16.6616 37.2642 16.6616 37.584L16.6625 37.5849ZM17.9288 36.9434C17.6042 36.1274 17.4427 35.2557 17.4534 34.3776C17.4534 33.4154 17.6115 32.4532 17.9288 31.6519C18.246 30.8505 18.7205 30.209 19.1951 29.5676C19.6696 28.9261 20.4614 28.6054 21.095 28.2847C21.8867 27.9639 22.6785 27.8031 23.6285 27.8031C24.5784 27.8031 25.3702 27.9631 26.0029 28.2847C26.7167 28.5789 27.3631 29.0154 27.9028 29.5676C28.3773 30.0482 28.8528 30.8505 29.1691 31.4919C29.4855 32.2933 29.6436 33.0956 29.6436 34.2177C29.6436 34.8591 29.6436 35.6605 29.3273 36.1421C29.1691 36.7835 28.8519 37.265 28.5355 37.7457C28.2192 38.2264 27.9028 38.7079 27.4274 39.0286C26.952 39.3493 26.6356 39.6701 26.0029 39.9908L30.1191 43.5188H25.3693L22.6776 40.6323C21.8867 40.6323 21.0941 40.3115 20.4614 40.1516C19.8278 39.8309 19.1951 39.3502 18.7197 38.8687C18.7197 38.3872 18.2442 37.7457 17.9279 36.9443L17.9288 36.9434Z" fill="#0078D7"/>
<path fill-rule="evenodd" clip-rule="evenodd" d="M66.2163 65.1657C66.2163 62.1192 63.8418 59.5534 60.8338 59.2327C60.992 58.2705 61.1502 57.4691 61.1502 56.5069C61.1502 48.6495 54.8177 42.2358 47.06 42.2358C41.2021 42.2358 35.9778 45.7638 33.9197 51.2154C33.1279 51.0546 32.3362 50.8946 31.3862 50.8946C25.8447 50.8946 21.4122 55.3848 21.4122 60.9971C21.4025 63.6301 22.4246 66.162 24.2594 68.0503C26.0943 69.9386 28.5959 71.0329 31.228 71.0987H62.1001V70.9388C64.4745 70.2974 66.2163 67.8923 66.2163 65.1657ZM60.8338 69.4951H31.3862C26.7947 69.4951 22.9949 65.6464 22.9949 60.9963C22.9949 56.3461 26.7947 52.4974 31.3862 52.4974C32.3362 52.4974 33.2861 52.6573 34.0779 52.978L34.8697 53.2988L35.186 52.4974C36.9277 47.3657 41.6775 43.8386 47.06 43.8386C54.026 43.8386 59.5675 49.6108 59.5675 56.5061C59.5675 57.6282 59.4093 58.7511 59.0929 59.8733L58.7766 61.1562L59.8847 60.9954H60.3601C62.7346 60.9954 64.6345 62.9197 64.6345 65.3248C64.6345 67.4091 63.0509 69.3334 60.8347 69.4942L60.8338 69.4951Z" fill="#0078D7"/>
</g>
<defs>
<clipPath id="clip0_1949_171">
<rect width="66.4178" height="70.7874" fill="white" transform="translate(0.235352 0.748291)"/>
</clipPath>
</defs>
</svg>
