<svg width="67" height="72" viewBox="0 0 67 72" fill="none" xmlns="http://www.w3.org/2000/svg">
<g clip-path="url(#clip0_1378_369)">
<path fill-rule="evenodd" clip-rule="evenodd" d="M22.0458 36.9903C22.204 37.311 22.5212 37.4718 22.8376 37.4718C23.1539 37.6326 23.4712 37.6326 23.7875 37.6326C24.1039 37.6326 24.4211 37.6326 24.5793 37.4718C24.8956 37.311 25.0538 37.1511 25.3711 36.8304L25.8456 35.8682C26.0038 35.5474 26.0038 35.0659 26.0038 34.4253C26.0038 33.9438 26.0038 33.624 25.8456 33.1424C25.6874 32.6609 25.6874 32.341 25.3711 32.0203C25.2129 31.6996 24.8965 31.5397 24.7375 31.2181C24.4211 31.0581 24.1039 30.8973 23.7875 30.8973C23.3121 30.8973 22.9957 31.0581 22.6794 31.2181C22.363 31.378 22.204 31.6987 21.8876 31.8595L21.4122 32.8217C21.254 33.1424 21.254 33.6231 21.254 34.1046C21.254 34.7461 21.254 35.2267 21.4122 35.5474L22.0458 36.9903ZM31.2281 49.4978C31.7026 49.4978 32.3362 49.4978 32.8116 49.6577C35.3451 44.5261 40.4112 41.1589 46.2691 40.8382V10.8531C46.2682 6.0422 35.9778 1.39207 23.4703 1.39207C10.8046 1.39207 0.672363 5.72147 0.672363 10.5324V53.8272C0.672363 58.1566 9.06373 62.3261 19.9868 62.9675C19.8287 62.3261 19.8287 61.6846 19.8287 61.0432C19.8287 54.7894 24.8948 49.4978 31.2281 49.4978ZM39.4604 40.6782H31.5444V28.3315H35.186V37.7925H39.4604V40.6782ZM23.4703 4.75928C32.4944 4.75928 39.7776 7.00438 39.7776 9.73013C39.7776 12.4559 32.4952 14.701 23.4712 14.701C14.4471 14.701 7.16383 12.4568 7.16383 9.73013C7.16383 7.00351 14.4462 4.75928 23.4703 4.75928ZM16.6625 37.7917C16.6625 38.1124 16.5043 38.4331 16.3461 38.7539C16.1879 39.0746 16.0297 39.3953 15.7125 39.5552C15.3961 39.876 15.0789 40.0359 14.7626 40.1967C14.4462 40.3575 13.9708 40.5174 13.3372 40.6782C12.8627 40.8381 12.2291 40.8382 11.4373 40.8382H10.3292C10.0128 40.8382 9.69558 40.8381 9.37922 40.6782C9.06286 40.6782 8.74563 40.5174 8.58745 40.5174C8.27109 40.5174 8.11291 40.3566 7.95385 40.1967V36.8295C8.11203 36.9903 8.42927 37.1502 8.74563 37.311C9.06198 37.4718 9.22016 37.6317 9.5374 37.7917C9.85463 37.9516 10.171 37.9525 10.4873 38.1124C10.8037 38.2723 11.1209 38.2723 11.4373 38.2723C11.7537 38.2723 11.9118 38.2723 12.0709 38.1124C12.2291 38.1124 12.3872 37.9516 12.3872 37.9516C12.5454 37.9516 12.5454 37.7908 12.5454 37.6309V37.3101C12.5454 37.1493 12.5454 36.9894 12.3872 36.8286C12.2291 36.6678 12.2291 36.5079 12.0709 36.5079C11.9127 36.3471 11.7545 36.3471 11.4373 36.1872C11.1201 36.0272 10.9619 36.0272 10.6455 35.8664C10.171 35.7056 9.69557 35.3849 9.22104 35.065C8.90468 34.7443 8.58745 34.5844 8.27109 34.2637C7.95473 33.9429 7.79568 33.6222 7.79568 33.3015C7.6375 32.9807 7.6375 32.5001 7.6375 32.1785C7.6375 31.537 7.79568 31.0564 7.95385 30.5748C8.27021 30.0942 8.58745 29.6127 8.9038 29.2919C9.37834 28.9712 9.85375 28.6505 10.4873 28.4905C11.1209 28.3306 11.7537 28.1698 12.5454 28.1698H13.6536C13.9699 28.1698 14.2871 28.1698 14.6035 28.3306C14.9207 28.3306 15.0789 28.4905 15.3953 28.4905C15.5535 28.4905 15.8707 28.6505 16.0289 28.6505V31.8578C15.8707 31.6978 15.7116 31.6978 15.3953 31.537C15.2371 31.3771 14.9207 31.3771 14.6035 31.2163C14.2863 31.0555 14.129 31.0555 13.8117 31.0555H12.8618C12.3864 31.0555 12.07 31.0555 11.9118 31.2163C11.5955 31.3771 11.5955 31.537 11.5955 31.8578C11.5955 32.0186 11.5955 32.1785 11.7537 32.1785C11.7537 32.3393 11.9118 32.3393 12.07 32.4992C12.2282 32.6591 12.3864 32.6591 12.5446 32.8199C12.7027 32.9807 13.0191 32.9807 13.3363 33.1407C13.8109 33.3015 14.2863 33.6222 14.7617 33.7821C15.2362 34.1029 15.5535 34.2628 15.8698 34.5844C16.1862 34.906 16.3443 35.2258 16.6616 35.5466C16.8198 35.8673 16.9779 36.348 16.9779 36.9894C16.6616 37.1502 16.6616 37.4709 16.6616 37.7908L16.6625 37.7917ZM17.9288 37.1502C17.6042 36.3342 17.4427 35.4625 17.4534 34.5844C17.4534 33.6222 17.6115 32.66 17.9288 31.8586C18.246 31.0572 18.7205 30.4158 19.1951 29.7743C19.6696 29.1329 20.4614 28.8122 21.095 28.4914C21.8867 28.1707 22.6785 28.0099 23.6285 28.0099C24.5784 28.0099 25.3702 28.1698 26.0029 28.4914C26.7167 28.7857 27.3631 29.2222 27.9028 29.7743C28.3773 30.255 28.8528 31.0572 29.1691 31.6987C29.4855 32.5001 29.6436 33.3023 29.6436 34.4245C29.6436 35.0659 29.6436 35.8673 29.3273 36.3488C29.1691 36.9903 28.8519 37.4718 28.5355 37.9525C28.2192 38.4331 27.9028 38.9147 27.4274 39.2354C26.952 39.5561 26.6356 39.8768 26.0029 40.1976L30.1191 43.7256H25.3693L22.6776 40.839C21.8867 40.839 21.0941 40.5183 20.4614 40.3584C19.8278 40.0376 19.1951 39.557 18.7197 39.0755C18.7197 38.5939 18.2442 37.9525 17.9279 37.1511L17.9288 37.1502Z" fill="#0078D7"/>
<path fill-rule="evenodd" clip-rule="evenodd" d="M66.2163 65.3725C66.2163 62.326 63.8418 59.7602 60.8338 59.4394C60.992 58.4773 61.1502 57.6759 61.1502 56.7137C61.1502 48.8563 54.8177 42.4426 47.06 42.4426C41.2021 42.4426 35.9778 45.9706 33.9197 51.4221C33.1279 51.2613 32.3362 51.1014 31.3862 51.1014C25.8447 51.1014 21.4122 55.5916 21.4122 61.2039C21.4025 63.8368 22.4246 66.3688 24.2594 68.2571C26.0943 70.1454 28.5959 71.2397 31.228 71.3055H62.1001V71.1456C64.4745 70.5041 66.2163 68.0991 66.2163 65.3725ZM60.8338 69.7019H31.3862C26.7947 69.7019 22.9949 65.8531 22.9949 61.203C22.9949 56.5529 26.7947 52.7042 31.3862 52.7042C32.3362 52.7042 33.2861 52.8641 34.0779 53.1848L34.8697 53.5055L35.186 52.7042C36.9277 47.5725 41.6775 44.0454 47.06 44.0454C54.026 44.0454 59.5675 49.8176 59.5675 56.7128C59.5675 57.8349 59.4093 58.9579 59.0929 60.08L58.7766 61.3629L59.8847 61.2021H60.3601C62.7346 61.2021 64.6345 63.1265 64.6345 65.5315C64.6345 67.6158 63.0509 69.5402 60.8347 69.701L60.8338 69.7019Z" fill="#0078D7"/>
</g>
<defs>
<clipPath id="clip0_1378_369">
<rect width="66.4178" height="70.7874" fill="white" transform="translate(0.235352 0.955002)"/>
</clipPath>
</defs>
</svg>
