<svg width="61" height="61" viewBox="0 0 61 61" fill="none" xmlns="http://www.w3.org/2000/svg">
<path fill-rule="evenodd" clip-rule="evenodd" d="M47.1121 9.45801C44.5813 9.45801 42.5296 11.5097 42.5296 14.0405C42.5296 16.5714 44.5813 18.623 47.1121 18.623C49.643 18.623 51.6947 16.5714 51.6947 14.0405C51.6947 11.5097 49.643 9.45801 47.1121 9.45801ZM38.7795 14.0405C38.7795 9.4386 42.5102 5.70801 47.1121 5.70801C51.7141 5.70801 55.4447 9.4386 55.4447 14.0405C55.4447 18.6424 51.7141 22.373 47.1121 22.373C42.5102 22.373 38.7795 18.6424 38.7795 14.0405Z" fill="#FF00D6"/>
<path fill-rule="evenodd" clip-rule="evenodd" d="M47.1121 26.1257C44.5813 26.1257 42.5296 28.1774 42.5296 30.7082C42.5296 33.2391 44.5813 35.2908 47.1121 35.2908C49.643 35.2908 51.6947 33.2391 51.6947 30.7082C51.6947 28.1774 49.643 26.1257 47.1121 26.1257ZM38.7795 30.7082C38.7795 26.1063 42.5102 22.3757 47.1121 22.3757C51.7141 22.3757 55.4447 26.1063 55.4447 30.7082C55.4447 35.3102 51.7141 39.0408 47.1121 39.0408C42.5102 39.0408 38.7795 35.3102 38.7795 30.7082Z" fill="white"/>
<path fill-rule="evenodd" clip-rule="evenodd" d="M47.1121 42.7934C44.5813 42.7934 42.5296 44.8451 42.5296 47.3759C42.5296 49.9068 44.5813 51.9584 47.1121 51.9584C49.643 51.9584 51.6947 49.9068 51.6947 47.3759C51.6947 44.8451 49.643 42.7934 47.1121 42.7934ZM38.7795 47.3759C38.7795 42.774 42.5102 39.0434 47.1121 39.0434C51.7141 39.0434 55.4447 42.774 55.4447 47.3759C55.4447 51.9778 51.7141 55.7084 47.1121 55.7084C42.5102 55.7084 38.7795 51.9778 38.7795 47.3759Z" fill="white"/>
<path fill-rule="evenodd" clip-rule="evenodd" d="M30.4447 9.45801C27.9138 9.45801 25.8621 11.5097 25.8621 14.0405C25.8621 16.5714 27.9138 18.623 30.4447 18.623C32.9755 18.623 35.0272 16.5714 35.0272 14.0405C35.0272 11.5097 32.9755 9.45801 30.4447 9.45801ZM22.1121 14.0405C22.1121 9.4386 25.8427 5.70801 30.4447 5.70801C35.0466 5.70801 38.7772 9.4386 38.7772 14.0405C38.7772 18.6424 35.0466 22.373 30.4447 22.373C25.8427 22.373 22.1121 18.6424 22.1121 14.0405Z" fill="white"/>
<path fill-rule="evenodd" clip-rule="evenodd" d="M30.4447 26.1257C27.9138 26.1257 25.8621 28.1774 25.8621 30.7082C25.8621 33.2391 27.9138 35.2908 30.4447 35.2908C32.9755 35.2908 35.0272 33.2391 35.0272 30.7082C35.0272 28.1774 32.9755 26.1257 30.4447 26.1257ZM22.1121 30.7082C22.1121 26.1063 25.8427 22.3757 30.4447 22.3757C35.0466 22.3757 38.7772 26.1063 38.7772 30.7082C38.7772 35.3102 35.0466 39.0408 30.4447 39.0408C25.8427 39.0408 22.1121 35.3102 22.1121 30.7082Z" fill="white"/>
<path fill-rule="evenodd" clip-rule="evenodd" d="M30.4447 42.7934C27.9138 42.7934 25.8621 44.8451 25.8621 47.3759C25.8621 49.9068 27.9138 51.9584 30.4447 51.9584C32.9755 51.9584 35.0272 49.9068 35.0272 47.3759C35.0272 44.8451 32.9755 42.7934 30.4447 42.7934ZM22.1121 47.3759C22.1121 42.774 25.8427 39.0434 30.4447 39.0434C35.0466 39.0434 38.7772 42.774 38.7772 47.3759C38.7772 51.9778 35.0466 55.7084 30.4447 55.7084C25.8427 55.7084 22.1121 51.9778 22.1121 47.3759Z" fill="white"/>
<path fill-rule="evenodd" clip-rule="evenodd" d="M13.7767 9.45801C11.2458 9.45801 9.19413 11.5097 9.19413 14.0405C9.19413 16.5714 11.2458 18.623 13.7767 18.623C16.3076 18.623 18.3592 16.5714 18.3592 14.0405C18.3592 11.5097 16.3076 9.45801 13.7767 9.45801ZM5.44409 14.0405C5.44409 9.4386 9.17472 5.70801 13.7767 5.70801C18.3786 5.70801 22.1093 9.4386 22.1093 14.0405C22.1093 18.6424 18.3786 22.373 13.7767 22.373C9.17472 22.373 5.44409 18.6424 5.44409 14.0405Z" fill="white"/>
<path fill-rule="evenodd" clip-rule="evenodd" d="M13.7767 26.1257C11.2458 26.1257 9.19413 28.1774 9.19413 30.7082C9.19413 33.2391 11.2458 35.2908 13.7767 35.2908C16.3076 35.2908 18.3592 33.2391 18.3592 30.7082C18.3592 28.1774 16.3076 26.1257 13.7767 26.1257ZM5.44409 30.7082C5.44409 26.1063 9.17472 22.3757 13.7767 22.3757C18.3786 22.3757 22.1093 26.1063 22.1093 30.7082C22.1093 35.3102 18.3786 39.0408 13.7767 39.0408C9.17472 39.0408 5.44409 35.3102 5.44409 30.7082Z" fill="white"/>
<path fill-rule="evenodd" clip-rule="evenodd" d="M13.7767 42.7934C11.2458 42.7934 9.19413 44.8451 9.19413 47.3759C9.19413 49.9068 11.2458 51.9584 13.7767 51.9584C16.3076 51.9584 18.3592 49.9068 18.3592 47.3759C18.3592 44.8451 16.3076 42.7934 13.7767 42.7934ZM5.44409 47.3759C5.44409 42.774 9.17472 39.0434 13.7767 39.0434C18.3786 39.0434 22.1093 42.774 22.1093 47.3759C22.1093 51.9778 18.3786 55.7084 13.7767 55.7084C9.17472 55.7084 5.44409 51.9778 5.44409 47.3759Z" fill="white"/>
</svg>
