<svg width="61" height="61" viewBox="0 0 61 61" fill="none" xmlns="http://www.w3.org/2000/svg">
<path fill-rule="evenodd" clip-rule="evenodd" d="M10.4443 30.7083C10.4443 27.9526 12.6886 25.7083 15.4443 25.7083C18.2 25.7083 20.4443 27.9526 20.4443 30.7083C20.4443 33.464 18.2 35.7083 15.4443 35.7083C12.6886 35.7083 10.4443 33.464 10.4443 30.7083ZM15.4488 30.7083C15.4496 30.7077 15.4502 30.7073 15.4507 30.7069C15.4517 30.7062 15.452 30.7062 15.4512 30.7065C15.4508 30.7067 15.4501 30.707 15.4493 30.7072C15.4489 30.7073 15.4484 30.7075 15.448 30.7076C15.4475 30.7071 15.447 30.7067 15.4465 30.7062C15.446 30.7057 15.4455 30.7052 15.4451 30.7047M15.448 30.709C15.4484 30.7092 15.4489 30.7093 15.4493 30.7094C15.4501 30.7097 15.4508 30.7099 15.4512 30.7101C15.452 30.7104 15.4517 30.7104 15.4507 30.7097C15.4502 30.7094 15.4496 30.7089 15.4488 30.7083M15.4451 30.712C15.4455 30.7115 15.446 30.711 15.4465 30.7105C15.447 30.7099 15.4475 30.7095 15.448 30.709M15.4451 30.712C15.4452 30.7124 15.4453 30.7129 15.4454 30.7133C15.4457 30.7141 15.4459 30.7147 15.4461 30.7151C15.4464 30.7159 15.4464 30.7157 15.4457 30.7147C15.4454 30.7142 15.4449 30.7135 15.4443 30.7128C15.4437 30.7135 15.4433 30.7142 15.4429 30.7147C15.4422 30.7157 15.4422 30.7159 15.4426 30.7151C15.4426 30.715 15.4427 30.7148 15.4428 30.7145C15.4429 30.7142 15.4431 30.7138 15.4432 30.7133C15.4434 30.7129 15.4435 30.7124 15.4436 30.712C15.4432 30.7115 15.4427 30.711 15.4422 30.7105C15.4417 30.7099 15.4412 30.7095 15.4407 30.709C15.4402 30.7092 15.4398 30.7093 15.4394 30.7094C15.4385 30.7097 15.4379 30.7099 15.4375 30.7101C15.4367 30.7104 15.4369 30.7104 15.438 30.7097C15.4382 30.7095 15.4385 30.7093 15.4389 30.7091C15.4392 30.7088 15.4395 30.7086 15.4398 30.7083" fill="white"/>
<path fill-rule="evenodd" clip-rule="evenodd" d="M10.4443 15.7083C10.4443 12.9526 12.6886 10.7083 15.4443 10.7083C18.2 10.7083 20.4443 12.9526 20.4443 15.7083C20.4443 18.464 18.2 20.7083 15.4443 20.7083C12.6886 20.7083 10.4443 18.464 10.4443 15.7083ZM15.4488 15.7083C15.4496 15.7077 15.4502 15.7073 15.4507 15.7069C15.4517 15.7062 15.452 15.7062 15.4512 15.7065C15.4508 15.7067 15.4501 15.707 15.4493 15.7072C15.4489 15.7073 15.4484 15.7075 15.448 15.7076C15.4475 15.7071 15.447 15.7067 15.4465 15.7062C15.446 15.7057 15.4455 15.7052 15.4451 15.7047M15.448 15.709C15.4484 15.7092 15.4489 15.7093 15.4493 15.7094C15.4501 15.7097 15.4508 15.7099 15.4512 15.7101C15.452 15.7104 15.4517 15.7104 15.4507 15.7097C15.4502 15.7094 15.4496 15.7089 15.4488 15.7083M15.4451 15.712C15.4455 15.7115 15.446 15.711 15.4465 15.7105C15.447 15.7099 15.4475 15.7095 15.448 15.709M15.4451 15.712C15.4452 15.7124 15.4453 15.7129 15.4454 15.7133C15.4457 15.7141 15.4459 15.7147 15.4461 15.7151C15.4464 15.7159 15.4464 15.7157 15.4457 15.7147C15.4454 15.7142 15.4449 15.7135 15.4443 15.7128C15.4437 15.7135 15.4433 15.7142 15.4429 15.7147C15.4422 15.7157 15.4422 15.7159 15.4426 15.7151C15.4426 15.715 15.4427 15.7148 15.4428 15.7145C15.4429 15.7142 15.4431 15.7138 15.4432 15.7133C15.4434 15.7129 15.4435 15.7124 15.4436 15.712C15.4432 15.7115 15.4427 15.711 15.4422 15.7105C15.4417 15.7099 15.4412 15.7095 15.4407 15.709C15.4402 15.7092 15.4398 15.7093 15.4394 15.7094C15.4385 15.7097 15.4379 15.7099 15.4375 15.7101C15.4367 15.7104 15.4369 15.7104 15.438 15.7097C15.4382 15.7095 15.4385 15.7093 15.4389 15.7091C15.4392 15.7088 15.4395 15.7086 15.4398 15.7083" fill="white"/>
<path fill-rule="evenodd" clip-rule="evenodd" d="M10.4443 45.7083C10.4443 42.9526 12.6886 40.7083 15.4443 40.7083C18.2 40.7083 20.4443 42.9526 20.4443 45.7083C20.4443 48.464 18.2 50.7083 15.4443 50.7083C12.6886 50.7083 10.4443 48.464 10.4443 45.7083ZM15.4488 45.7083C15.4496 45.7077 15.4502 45.7073 15.4507 45.7069C15.4517 45.7062 15.452 45.7062 15.4512 45.7065C15.4508 45.7067 15.4501 45.707 15.4493 45.7072C15.4489 45.7073 15.4484 45.7075 15.448 45.7076C15.4475 45.7071 15.447 45.7067 15.4465 45.7062C15.446 45.7057 15.4455 45.7052 15.4451 45.7047M15.448 45.709C15.4484 45.7092 15.4489 45.7093 15.4493 45.7094C15.4501 45.7097 15.4508 45.7099 15.4512 45.7101C15.452 45.7104 15.4517 45.7104 15.4507 45.7097C15.4502 45.7094 15.4496 45.7089 15.4488 45.7083M15.4451 45.712C15.4455 45.7115 15.446 45.711 15.4465 45.7105C15.447 45.7099 15.4475 45.7095 15.448 45.709M15.4451 45.712C15.4452 45.7124 15.4453 45.7129 15.4454 45.7133C15.4457 45.7141 15.4459 45.7147 15.4461 45.7151C15.4464 45.7159 15.4464 45.7157 15.4457 45.7147C15.4454 45.7142 15.4449 45.7135 15.4443 45.7128C15.4437 45.7135 15.4433 45.7142 15.4429 45.7147C15.4422 45.7157 15.4422 45.7159 15.4426 45.7151C15.4426 45.715 15.4427 45.7148 15.4428 45.7145C15.4429 45.7142 15.4431 45.7138 15.4432 45.7133C15.4434 45.7129 15.4435 45.7124 15.4436 45.712C15.4432 45.7115 15.4427 45.711 15.4422 45.7105C15.4417 45.7099 15.4412 45.7095 15.4407 45.709C15.4402 45.7092 15.4398 45.7093 15.4394 45.7094C15.4385 45.7097 15.4379 45.7099 15.4375 45.7101C15.4367 45.7104 15.4369 45.7104 15.438 45.7097C15.4382 45.7095 15.4385 45.7093 15.4389 45.7091C15.4392 45.7088 15.4395 45.7086 15.4398 45.7083" fill="#65FF74"/>
<path fill-rule="evenodd" clip-rule="evenodd" d="M25.4443 30.7083C25.4443 27.9526 27.6886 25.7083 30.4443 25.7083C33.2 25.7083 35.4443 27.9526 35.4443 30.7083C35.4443 33.464 33.2 35.7083 30.4443 35.7083C27.6886 35.7083 25.4443 33.464 25.4443 30.7083ZM30.4488 30.7083C30.4496 30.7077 30.4502 30.7073 30.4507 30.7069C30.4517 30.7062 30.452 30.7062 30.4512 30.7065C30.4508 30.7067 30.4501 30.707 30.4493 30.7072C30.4489 30.7073 30.4484 30.7075 30.448 30.7076C30.4475 30.7071 30.447 30.7067 30.4465 30.7062C30.446 30.7057 30.4455 30.7052 30.4451 30.7047M30.448 30.709C30.4484 30.7092 30.4489 30.7093 30.4493 30.7094C30.4501 30.7097 30.4508 30.7099 30.4512 30.7101C30.452 30.7104 30.4517 30.7104 30.4507 30.7097C30.4502 30.7094 30.4496 30.7089 30.4488 30.7083M30.4451 30.712C30.4455 30.7115 30.446 30.711 30.4465 30.7105C30.447 30.7099 30.4475 30.7095 30.448 30.709M30.4451 30.712C30.4452 30.7124 30.4453 30.7129 30.4454 30.7133C30.4457 30.7141 30.4459 30.7147 30.4461 30.7151C30.4464 30.7159 30.4464 30.7157 30.4457 30.7147C30.4454 30.7142 30.4449 30.7135 30.4443 30.7128C30.4437 30.7135 30.4433 30.7142 30.4429 30.7147C30.4422 30.7157 30.4422 30.7159 30.4426 30.7151C30.4426 30.715 30.4427 30.7148 30.4428 30.7145C30.4429 30.7142 30.4431 30.7138 30.4432 30.7133C30.4434 30.7129 30.4435 30.7124 30.4436 30.712C30.4432 30.7115 30.4427 30.711 30.4422 30.7105C30.4417 30.7099 30.4412 30.7095 30.4407 30.709C30.4402 30.7092 30.4398 30.7093 30.4394 30.7094C30.4385 30.7097 30.4379 30.7099 30.4375 30.7101C30.4367 30.7104 30.4369 30.7104 30.438 30.7097C30.4382 30.7095 30.4385 30.7093 30.4389 30.7091C30.4392 30.7088 30.4395 30.7086 30.4398 30.7083" fill="white"/>
<path fill-rule="evenodd" clip-rule="evenodd" d="M25.4443 15.7083C25.4443 12.9526 27.6886 10.7083 30.4443 10.7083C33.2 10.7083 35.4443 12.9526 35.4443 15.7083C35.4443 18.464 33.2 20.7083 30.4443 20.7083C27.6886 20.7083 25.4443 18.464 25.4443 15.7083ZM30.4488 15.7083C30.4496 15.7077 30.4502 15.7073 30.4507 15.7069C30.4517 15.7062 30.452 15.7062 30.4512 15.7065C30.4508 15.7067 30.4501 15.707 30.4493 15.7072C30.4489 15.7073 30.4484 15.7075 30.448 15.7076C30.4475 15.7071 30.447 15.7067 30.4465 15.7062C30.446 15.7057 30.4455 15.7052 30.4451 15.7047M30.448 15.709C30.4484 15.7092 30.4489 15.7093 30.4493 15.7094C30.4501 15.7097 30.4508 15.7099 30.4512 15.7101C30.452 15.7104 30.4517 15.7104 30.4507 15.7097C30.4502 15.7094 30.4496 15.7089 30.4488 15.7083M30.4451 15.712C30.4455 15.7115 30.446 15.711 30.4465 15.7105C30.447 15.7099 30.4475 15.7095 30.448 15.709M30.4451 15.712C30.4452 15.7124 30.4453 15.7129 30.4454 15.7133C30.4457 15.7141 30.4459 15.7147 30.4461 15.7151C30.4464 15.7159 30.4464 15.7157 30.4457 15.7147C30.4454 15.7142 30.4449 15.7135 30.4443 15.7128C30.4437 15.7135 30.4433 15.7142 30.4429 15.7147C30.4422 15.7157 30.4422 15.7159 30.4426 15.7151C30.4426 15.715 30.4427 15.7148 30.4428 15.7145C30.4429 15.7142 30.4431 15.7138 30.4432 15.7133C30.4434 15.7129 30.4435 15.7124 30.4436 15.712C30.4432 15.7115 30.4427 15.711 30.4422 15.7105C30.4417 15.7099 30.4412 15.7095 30.4407 15.709C30.4402 15.7092 30.4398 15.7093 30.4394 15.7094C30.4385 15.7097 30.4379 15.7099 30.4375 15.7101C30.4367 15.7104 30.4369 15.7104 30.438 15.7097C30.4382 15.7095 30.4385 15.7093 30.4389 15.7091C30.4392 15.7088 30.4395 15.7086 30.4398 15.7083" fill="white"/>
<path fill-rule="evenodd" clip-rule="evenodd" d="M25.4443 45.7083C25.4443 42.9526 27.6886 40.7083 30.4443 40.7083C33.2 40.7083 35.4443 42.9526 35.4443 45.7083C35.4443 48.464 33.2 50.7083 30.4443 50.7083C27.6886 50.7083 25.4443 48.464 25.4443 45.7083ZM30.4488 45.7083C30.4496 45.7077 30.4502 45.7073 30.4507 45.7069C30.4517 45.7062 30.452 45.7062 30.4512 45.7065C30.4508 45.7067 30.4501 45.707 30.4493 45.7072C30.4489 45.7073 30.4484 45.7075 30.448 45.7076C30.4475 45.7071 30.447 45.7067 30.4465 45.7062C30.446 45.7057 30.4455 45.7052 30.4451 45.7047M30.448 45.709C30.4484 45.7092 30.4489 45.7093 30.4493 45.7094C30.4501 45.7097 30.4508 45.7099 30.4512 45.7101C30.452 45.7104 30.4517 45.7104 30.4507 45.7097C30.4502 45.7094 30.4496 45.7089 30.4488 45.7083M30.4451 45.712C30.4455 45.7115 30.446 45.711 30.4465 45.7105C30.447 45.7099 30.4475 45.7095 30.448 45.709M30.4451 45.712C30.4452 45.7124 30.4453 45.7129 30.4454 45.7133C30.4457 45.7141 30.4459 45.7147 30.4461 45.7151C30.4464 45.7159 30.4464 45.7157 30.4457 45.7147C30.4454 45.7142 30.4449 45.7135 30.4443 45.7128C30.4437 45.7135 30.4433 45.7142 30.4429 45.7147C30.4422 45.7157 30.4422 45.7159 30.4426 45.7151C30.4426 45.715 30.4427 45.7148 30.4428 45.7145C30.4429 45.7142 30.4431 45.7138 30.4432 45.7133C30.4434 45.7129 30.4435 45.7124 30.4436 45.712C30.4432 45.7115 30.4427 45.711 30.4422 45.7105C30.4417 45.7099 30.4412 45.7095 30.4407 45.709C30.4402 45.7092 30.4398 45.7093 30.4394 45.7094C30.4385 45.7097 30.4379 45.7099 30.4375 45.7101C30.4367 45.7104 30.4369 45.7104 30.438 45.7097C30.4382 45.7095 30.4385 45.7093 30.4389 45.7091C30.4392 45.7088 30.4395 45.7086 30.4398 45.7083" fill="white"/>
<path fill-rule="evenodd" clip-rule="evenodd" d="M40.4443 30.7083C40.4443 27.9526 42.6886 25.7083 45.4443 25.7083C48.2 25.7083 50.4443 27.9526 50.4443 30.7083C50.4443 33.464 48.2 35.7083 45.4443 35.7083C42.6886 35.7083 40.4443 33.464 40.4443 30.7083ZM45.4488 30.7083C45.4496 30.7077 45.4502 30.7073 45.4507 30.7069C45.4517 30.7062 45.452 30.7062 45.4512 30.7065C45.4508 30.7067 45.4501 30.707 45.4493 30.7072C45.4489 30.7073 45.4484 30.7075 45.448 30.7076C45.4475 30.7071 45.447 30.7067 45.4465 30.7062C45.446 30.7057 45.4455 30.7052 45.4451 30.7047M45.448 30.709C45.4484 30.7092 45.4489 30.7093 45.4493 30.7094C45.4501 30.7097 45.4508 30.7099 45.4512 30.7101C45.452 30.7104 45.4517 30.7104 45.4507 30.7097C45.4502 30.7094 45.4496 30.7089 45.4488 30.7083M45.4451 30.712C45.4455 30.7115 45.446 30.711 45.4465 30.7105C45.447 30.7099 45.4475 30.7095 45.448 30.709M45.4451 30.712C45.4452 30.7124 45.4453 30.7129 45.4454 30.7133C45.4457 30.7141 45.4459 30.7147 45.4461 30.7151C45.4464 30.7159 45.4464 30.7157 45.4457 30.7147C45.4454 30.7142 45.4449 30.7135 45.4443 30.7128C45.4437 30.7135 45.4433 30.7142 45.4429 30.7147C45.4422 30.7157 45.4422 30.7159 45.4426 30.7151C45.4426 30.715 45.4427 30.7148 45.4428 30.7145C45.4429 30.7142 45.4431 30.7138 45.4432 30.7133C45.4434 30.7129 45.4435 30.7124 45.4436 30.712C45.4432 30.7115 45.4427 30.711 45.4422 30.7105C45.4417 30.7099 45.4412 30.7095 45.4407 30.709C45.4402 30.7092 45.4398 30.7093 45.4394 30.7094C45.4385 30.7097 45.4379 30.7099 45.4375 30.7101C45.4367 30.7104 45.4369 30.7104 45.438 30.7097C45.4382 30.7095 45.4385 30.7093 45.4389 30.7091C45.4392 30.7088 45.4395 30.7086 45.4398 30.7083" fill="#FF00D6"/>
<path fill-rule="evenodd" clip-rule="evenodd" d="M40.4443 15.7083C40.4443 12.9526 42.6886 10.7083 45.4443 10.7083C48.2 10.7083 50.4443 12.9526 50.4443 15.7083C50.4443 18.464 48.2 20.7083 45.4443 20.7083C42.6886 20.7083 40.4443 18.464 40.4443 15.7083ZM45.4488 15.7083L45.4507 15.7069L45.4493 15.7072L45.448 15.7076L45.4465 15.7062L45.4451 15.7047M45.448 15.709L45.4493 15.7094L45.4512 15.7101L45.4488 15.7083M45.4451 15.712L45.4465 15.7105L45.448 15.709M45.4451 15.712L45.4454 15.7133L45.4461 15.7151L45.4443 15.7128L45.4429 15.7147L45.4432 15.7133L45.4436 15.712L45.4422 15.7105L45.4407 15.709L45.4394 15.7094L45.4398 15.7083" fill="#FF00D6"/>
<path fill-rule="evenodd" clip-rule="evenodd" d="M40.4443 45.7083C40.4443 42.9526 42.6886 40.7083 45.4443 40.7083C48.2 40.7083 50.4443 42.9526 50.4443 45.7083C50.4443 48.464 48.2 50.7083 45.4443 50.7083C42.6886 50.7083 40.4443 48.464 40.4443 45.7083ZM45.4488 45.7083C45.4496 45.7077 45.4502 45.7073 45.4507 45.7069C45.4517 45.7062 45.452 45.7062 45.4512 45.7065C45.4508 45.7067 45.4501 45.707 45.4493 45.7072C45.4489 45.7073 45.4484 45.7075 45.448 45.7076C45.4475 45.7071 45.447 45.7067 45.4465 45.7062C45.446 45.7057 45.4455 45.7052 45.4451 45.7047M45.448 45.709C45.4484 45.7092 45.4489 45.7093 45.4493 45.7094C45.4501 45.7097 45.4508 45.7099 45.4512 45.7101C45.452 45.7104 45.4517 45.7104 45.4507 45.7097C45.4502 45.7094 45.4496 45.7089 45.4488 45.7083M45.4451 45.712C45.4455 45.7115 45.446 45.711 45.4465 45.7105C45.447 45.7099 45.4475 45.7095 45.448 45.709M45.4451 45.712C45.4452 45.7124 45.4453 45.7129 45.4454 45.7133C45.4457 45.7141 45.4459 45.7147 45.4461 45.7151C45.4464 45.7159 45.4464 45.7157 45.4457 45.7147C45.4454 45.7142 45.4449 45.7135 45.4443 45.7128C45.4437 45.7135 45.4433 45.7142 45.4429 45.7147C45.4422 45.7157 45.4422 45.7159 45.4426 45.7151C45.4426 45.715 45.4427 45.7148 45.4428 45.7145C45.4429 45.7142 45.4431 45.7138 45.4432 45.7133C45.4434 45.7129 45.4435 45.7124 45.4436 45.712C45.4432 45.7115 45.4427 45.711 45.4422 45.7105C45.4417 45.7099 45.4412 45.7095 45.4407 45.709C45.4402 45.7092 45.4398 45.7093 45.4394 45.7094C45.4385 45.7097 45.4379 45.7099 45.4375 45.7101C45.4367 45.7104 45.4369 45.7104 45.438 45.7097C45.4382 45.7095 45.4385 45.7093 45.4389 45.7091C45.4392 45.7088 45.4395 45.7086 45.4398 45.7083" fill="white"/>
</svg>
