<svg width="61" height="61" viewBox="0 0 61 61" fill="none" xmlns="http://www.w3.org/2000/svg">
<g clip-path="url(#clip0_1378_80)">
<path fill-rule="evenodd" clip-rule="evenodd" d="M14.7121 17.905C16.1186 16.4985 18.0263 15.7083 20.0154 15.7083H21.764C22.9283 15.7083 24.0767 15.9794 25.1181 16.5001C25.1181 16.5001 25.1181 16.5001 25.1181 16.5001L29.0624 18.4722C30.2973 19.0897 30.7979 20.5914 30.1804 21.8263C29.5629 23.0613 28.0613 23.5619 26.8263 22.9444L22.882 20.9723C22.5349 20.7987 22.1521 20.7083 21.764 20.7083H20.0154C19.3524 20.7083 18.7165 20.9717 18.2476 21.4406L16.1766 23.5116C15.7077 23.9805 15.4443 24.6163 15.4443 25.2794V38.0323C15.4443 38.8682 15.8621 39.6488 16.5575 40.1124L16.5576 40.1124L26.2247 46.5572L26.2249 46.5573C27.1459 47.1714 28.3613 47.1065 29.2119 46.3978L41.3439 36.2878C42.4046 35.4039 43.981 35.5472 44.8649 36.6079C45.7488 37.6685 45.6055 39.245 44.5448 40.1289L32.4128 50.2389C29.8613 52.3651 26.2148 52.5602 23.451 50.7173L13.7842 44.2727C11.6975 42.8818 10.4443 40.5399 10.4443 38.0323V25.2794C10.4443 23.2902 11.2345 21.3826 12.641 19.9761L14.7121 17.905Z" fill="white"/>
<path fill-rule="evenodd" clip-rule="evenodd" d="M33.1538 21.2879C33.1537 21.288 33.1539 21.2879 33.1538 21.2879L22.748 29.9596C22.1576 30.4515 22.1165 31.3448 22.6604 31.889C22.6603 31.8889 22.6604 31.889 22.6604 31.889C23.0766 32.305 23.7197 32.392 24.2314 32.1013C24.2314 32.1014 24.2315 32.1013 24.2314 32.1013L28.8697 29.4651C32.1571 27.5969 36.3217 28.4678 38.5845 31.4978C38.5845 31.4978 38.5845 31.4979 38.5845 31.4978L40.9413 34.6533C42.3803 36.5802 45.4443 35.5626 45.4443 33.1573V26.2986C45.4443 25.3515 44.9093 24.4859 44.0623 24.0624L37.882 20.9723C37.5349 20.7987 37.1521 20.7083 36.764 20.7083H34.7545C34.1698 20.7083 33.6034 20.9134 33.1538 21.2879ZM29.9532 17.4465C31.3011 16.3235 32.9998 15.7083 34.7545 15.7083H36.764C37.9284 15.7083 39.0767 15.9794 40.1181 16.5001M40.1181 16.5001L46.2983 19.5903C46.2983 19.5903 46.2983 19.5903 46.2983 19.5903C48.8392 20.8607 50.4443 23.4577 50.4443 26.2986V33.1573C50.4443 40.3725 41.2527 43.4264 36.9352 37.6452L34.5784 34.4897C33.8242 33.4798 32.4362 33.1893 31.3402 33.8121L26.7021 36.4483C24.2338 37.8509 21.1325 37.4319 19.125 35.4247C16.5026 32.8019 16.6973 28.4931 19.547 26.1185C19.547 26.1186 19.5471 26.1185 19.547 26.1185L29.9532 17.4465" fill="#FF00D6"/>
<path fill-rule="evenodd" clip-rule="evenodd" d="M2.94434 18.2083C4.32505 18.2083 5.44434 19.3276 5.44434 20.7083V43.2083C5.44434 44.589 4.32505 45.7083 2.94434 45.7083C1.56362 45.7083 0.444336 44.589 0.444336 43.2083V20.7083C0.444336 19.3276 1.56362 18.2083 2.94434 18.2083Z" fill="#141414"/>
<path fill-rule="evenodd" clip-rule="evenodd" d="M2.94434 18.2083C4.32505 18.2083 5.44434 19.3276 5.44434 20.7083V43.2083C5.44434 44.589 4.32505 45.7083 2.94434 45.7083C1.56362 45.7083 0.444336 44.589 0.444336 43.2083V20.7083C0.444336 19.3276 1.56362 18.2083 2.94434 18.2083Z" fill="white"/>
<path fill-rule="evenodd" clip-rule="evenodd" d="M57.9443 18.2083C59.325 18.2083 60.4443 19.3276 60.4443 20.7083V43.2083C60.4443 44.589 59.325 45.7083 57.9443 45.7083C56.5636 45.7083 55.4443 44.589 55.4443 43.2083V20.7083C55.4443 19.3276 56.5636 18.2083 57.9443 18.2083Z" fill="#FF00D6"/>
</g>
<defs>
<clipPath id="clip0_1378_80">
<rect width="60" height="60" fill="white" transform="translate(0.444336 0.708313)"/>
</clipPath>
</defs>
</svg>
