<svg width="68" height="65" viewBox="0 0 68 65" fill="none" xmlns="http://www.w3.org/2000/svg">
<g clip-path="url(#clip0_1949_494)">
<path d="M53.7649 50.5423L42.3494 31.3607L53.7649 12.1791L59.268 31.3607L53.7649 50.5423ZM28.3582 48.6705L14.0152 34.4599H36.8463L48.2618 53.6415L28.3582 48.6705ZM28.3582 13.9922L48.2037 9.02123L36.7882 28.2028H13.957L28.3582 13.9922ZM57.5118 -0.393799L31.5776 6.33158L27.7138 12.9396L19.9283 12.8809L0.9021 31.3607L19.9283 49.8405L27.7138 49.7818L31.5776 56.3898L57.5118 63.1739L64.478 37.9687L60.5555 31.4194L64.478 24.8694L57.5118 -0.393799Z" fill="white"/>
</g>
<defs>
<clipPath id="clip0_1949_494">
<rect width="66.4178" height="63.7961" fill="white" transform="translate(0.9021 0.244141)"/>
</clipPath>
</defs>
</svg>
