<svg width="86" height="86" viewBox="0 0 86 86" fill="none" xmlns="http://www.w3.org/2000/svg">
<path d="M41.954 70.3304C26.4772 70.3304 13.8757 57.7401 13.8757 42.2522C13.8757 26.7642 26.4772 14.174 41.954 14.174C57.4307 14.174 70.0322 26.7755 70.0322 42.2522C70.0322 57.7289 57.4307 70.3304 41.954 70.3304ZM41.954 14.8815C26.8591 14.8815 14.5833 27.1573 14.5833 42.2522C14.5833 57.3358 26.8591 69.6116 41.954 69.6116C57.0376 69.6116 69.3134 57.3358 69.3134 42.2522C69.3134 27.1573 57.0376 14.8815 41.954 14.8815Z" fill="white"/>
<path d="M41.9427 24.6078C51.669 24.6078 59.5759 32.5147 59.5759 42.241C59.5759 51.9673 51.669 59.8741 41.9427 59.8741C32.2165 59.8741 24.3096 51.9673 24.3096 42.241C24.3096 32.5147 32.2277 24.6078 41.9427 24.6078ZM41.9427 23.9003C31.8121 23.9003 23.6021 32.1103 23.6021 42.241C23.6021 52.3716 31.8121 60.5929 41.954 60.5929C52.0846 60.5929 60.3059 52.3828 60.3059 42.241C60.2947 32.1103 52.0846 23.9003 41.9427 23.9003Z" fill="white"/>
<path d="M25.9381 55.7859L26.5558 56.4822L25.3541 58.852L27.6453 57.5829L28.1619 58.0546L27.1623 60.4469L29.3412 59.0205L30.0825 59.5484L26.612 61.6149L26.0392 61.1432L27.0051 58.7959L24.7813 60.0089L24.2534 59.4922L25.9381 55.7859Z" fill="white"/>
<path d="M30.8126 60.0088L31.5202 60.4356L29.5997 63.6477L28.8921 63.2209L30.8126 60.0088Z" fill="white"/>
<path d="M32.5309 60.986L33.3395 61.3678L33.6877 63.1985L35.0916 62.0642L35.9227 62.3449L34.6424 65.8491L33.8786 65.602L34.7097 63.3108L33.1486 64.4003H33.1374L32.7555 62.5471L31.8008 64.7709L31.0596 64.434L32.5309 60.986Z" fill="white"/>
<path d="M37.0123 62.637C37.6749 62.783 38.2477 62.8841 38.6183 62.9514C39.0451 63.0076 39.3596 63.1761 39.5393 63.4232C39.6853 63.6141 39.7415 63.8387 39.7078 64.097V64.1083C39.6516 64.5238 39.4045 64.7709 39.1013 64.8383C39.5056 65.0629 39.7415 65.3549 39.6628 65.8491V65.8603C39.5618 66.5342 38.9665 66.8038 38.1242 66.6802C37.5289 66.5791 36.9224 66.4556 36.2822 66.3096L37.0123 62.637ZM38.2365 65.9502C38.5959 66.0064 38.8317 65.9053 38.8767 65.6357V65.6245C38.9103 65.3774 38.7307 65.1977 38.3376 65.1303C38.0343 65.0854 37.6637 65.018 37.3829 64.9506C37.3604 65.0742 37.2481 65.6582 37.2257 65.748C37.4503 65.8154 37.7648 65.8716 38.2365 65.9502ZM38.2365 64.434C38.5846 64.4901 38.843 64.4003 38.8767 64.1307V64.1195C38.9103 63.8724 38.7643 63.7152 38.4049 63.6478C38.0455 63.5804 37.7648 63.5242 37.6524 63.5018C37.63 63.6029 37.5177 64.1981 37.4952 64.2767C37.7198 64.3441 37.8883 64.3666 38.2365 64.434Z" fill="white"/>
<path d="M40.988 63.1985L41.8079 63.2097C41.8079 63.2097 41.763 66.0849 41.763 66.2085C42.2123 66.2085 42.9984 66.186 43.5937 66.1411C43.6049 66.3769 43.6386 66.8824 43.6386 66.8824C42.7514 66.9497 41.7181 66.961 40.9207 66.9385L40.988 63.1985Z" fill="white"/>
<path d="M44.2788 63.0974C45.1661 62.9851 45.986 62.8504 46.9519 62.6257C46.9519 62.6257 47.0866 63.2322 47.1091 63.3445C46.6935 63.4456 45.7501 63.6478 45.211 63.7152L45.3233 64.4677C45.8512 64.389 46.4352 64.2767 47.0417 64.1307L47.1989 64.8495C46.7272 64.9731 46.0084 65.0966 45.4469 65.1865L45.5592 65.9614C46.2555 65.8491 46.8845 65.7256 47.6257 65.5459L47.783 66.2647C46.8171 66.5005 45.8736 66.6465 44.8628 66.7925L44.2788 63.0974Z" fill="white"/>
<path d="M48.1086 62.3113L49.4339 61.8395C50.5346 61.4128 51.5791 61.8732 51.961 62.8616V62.8728C52.3428 63.8612 51.8824 64.9169 50.7817 65.3437C50.164 65.5908 49.7596 65.7143 49.3553 65.8379L48.1086 62.3113ZM50.5234 64.6361C51.1186 64.3891 51.4106 63.805 51.1748 63.1873V63.1761C50.9389 62.5584 50.3437 62.2888 49.7147 62.5359C49.7147 62.5359 49.3441 62.6819 49.1644 62.7381C49.2093 62.8616 49.9281 64.872 49.9281 64.872C49.9281 64.872 50.2314 64.7597 50.5234 64.6361Z" fill="white"/>
<path d="M52.7698 62.4572C52.1858 61.5587 52.4216 60.3682 53.3875 59.7393C54.3534 59.1103 55.5215 59.3799 56.1055 60.2784V60.2896C56.6895 61.1769 56.4537 62.3674 55.4878 62.9963C54.5107 63.6253 53.3426 63.3557 52.7698 62.4572ZM55.3867 60.7613C55.0273 60.211 54.3422 60.02 53.7919 60.3794C53.2303 60.7388 53.1292 61.424 53.4774 61.9743L53.4886 61.9855C53.8368 62.5246 54.5219 62.7156 55.0835 62.3562C55.6338 61.9967 55.7349 61.3116 55.3867 60.7613Z" fill="white"/>
<path d="M55.6001 58.1669L56.1617 57.6615L59.0144 58.0658L57.3409 56.4822L57.8801 55.8757L60.598 58.4477L60.1375 58.9756L57.1388 58.6049L58.7786 60.3346L58.1833 60.8737L55.6001 58.1669Z" fill="white"/>
<path d="M18.211 39.0962C18.1548 39.4107 18.1099 39.8038 18.0875 40.2081L17.335 40.1295C17.4248 39.085 17.5708 38.018 17.7842 37.0297L18.5367 37.1644C18.4693 37.5126 18.357 38.0292 18.3345 38.2763C18.4693 38.2988 21.2884 38.7031 21.2884 38.7031L21.1648 39.523C21.1648 39.523 18.4581 39.1299 18.211 39.0962Z" fill="white"/>
<path d="M19.9856 30.9085C20.3225 30.2683 20.9627 29.1901 21.4569 28.4152L22.0858 28.797C21.6928 29.3811 21.2884 30.0437 21.0189 30.5491L21.6815 30.9197C21.9286 30.4817 22.2431 29.9651 22.6025 29.3923L23.2314 29.7741C22.917 30.2683 22.5576 30.8187 22.3217 31.2904L23.0068 31.6722C23.209 31.2904 23.7144 30.4705 24.0513 29.9651L24.6803 30.3357C24.2423 30.9647 23.6133 32.0204 23.2539 32.728L19.9856 30.9085Z" fill="white"/>
<path d="M24.6802 27.2472C23.9165 26.4947 23.8604 25.3042 24.669 24.4843C25.1632 23.9789 25.6349 23.8441 26.1179 23.8441L26.174 24.6415C25.7809 24.664 25.4664 24.7539 25.1969 25.0234C24.7476 25.4727 24.8038 26.169 25.2643 26.6182L25.2755 26.6295C25.736 27.0787 26.4211 27.1461 26.8703 26.6856C27.1736 26.3824 27.2297 26.0791 27.2522 25.6748H27.9935C28.0159 26.2364 27.8924 26.7193 27.387 27.236C26.6233 28.0222 25.444 27.9997 24.6802 27.2472Z" fill="white"/>
<path d="M32.4187 19.4527L33.1263 19.1719L36.0689 22.1145L35.2265 22.384L34.5976 21.7326L33.1375 22.3503V23.2151L32.3625 23.5858L32.4187 19.4527ZM34.0472 21.171L33.1263 20.2276L33.115 21.5417L34.0472 21.171Z" fill="white"/>
<path d="M36.1025 18.2397L36.9786 18.0375L38.3039 19.4414L39.135 17.6893L40.0223 17.6219L40.494 21.3283L39.6741 21.3957L39.3708 18.9697L38.5173 20.7442H38.4948L37.1471 19.3403L37.6188 21.7214L36.8213 21.9123L36.1025 18.2397Z" fill="white"/>
<path d="M41.6843 17.5433L42.493 17.5546L43.2455 17.577C44.2114 17.622 44.6494 18.206 44.6157 18.936V18.9472C44.582 19.8121 43.8857 20.2052 43.0433 20.1827L42.4256 20.1602L42.3919 21.2834H41.572L41.6843 17.5433ZM43.1107 19.4527C43.5263 19.4639 43.7734 19.2393 43.7846 18.9248V18.9136C43.7958 18.5429 43.5712 18.3183 43.1556 18.2958L42.5042 18.2846L42.4593 19.4414L43.1107 19.4527Z" fill="white"/>
<path d="M64.7647 32.7505L65.0567 33.503L65.315 34.2106C65.6407 35.1203 65.2588 35.7492 64.5737 35.9963H64.5625C63.7426 36.2883 63.1249 35.7829 62.8216 35.008L62.6083 34.4352L61.5525 34.8283L61.238 34.0645L64.7647 32.7505ZM63.5292 34.7834C63.6752 35.1652 63.9672 35.3225 64.2705 35.2101H64.2817C64.6299 35.0866 64.7534 34.7834 64.6187 34.4015L64.3828 33.7838L63.2934 34.1769L63.5292 34.7834Z" fill="white"/>
<path d="M46.0645 17.8802L46.8732 18.0375L46.188 21.7101L45.3794 21.5641L46.0645 17.8802Z" fill="white"/>
<path d="M47.6483 20.0366C48.0077 19.0258 49.0859 18.4867 50.1753 18.8686C51.2647 19.2504 51.7589 20.3399 51.3995 21.3507V21.3619C51.0401 22.3615 49.9619 22.9006 48.8725 22.5187C47.783 22.1257 47.2889 21.0362 47.6483 20.0366ZM50.5796 21.0811C50.793 20.4634 50.5347 19.8008 49.9057 19.5761C49.2768 19.3515 48.6703 19.6997 48.4569 20.2949V20.3062C48.2435 20.9127 48.5131 21.5753 49.1308 21.7999C49.7597 22.0246 50.3662 21.6764 50.5796 21.0811Z" fill="white"/>
<path d="M53.32 20.3063L53.9826 20.6657L54.3195 23.5633L55.5662 21.6316L56.2401 22.092L54.2072 25.2256L53.6232 24.8325L53.3537 21.8787L52.1631 23.934L51.4556 23.5409L53.32 20.3063Z" fill="white"/>
<path d="M55.4429 25.5063L56.1954 25.3828C56.274 25.8096 56.42 26.1802 56.7457 26.461C57.004 26.6856 57.2399 26.7081 57.3859 26.5396L57.3971 26.5284C57.5319 26.3711 57.5094 26.2027 57.1388 25.6748C56.6895 25.0346 56.4649 24.5629 56.9479 23.9901V23.9789C57.3971 23.4622 58.1047 23.4735 58.6775 23.9789C59.093 24.3383 59.3289 24.7651 59.4187 25.248L58.6887 25.4389C58.5876 25.0458 58.4304 24.7314 58.1945 24.5292C57.9587 24.327 57.7341 24.327 57.6217 24.4618L57.6105 24.473C57.4533 24.664 57.5207 24.8212 57.9025 25.3715C58.3518 26.023 58.4978 26.5059 58.071 27.0001L58.0598 27.0113C57.5768 27.5729 56.8692 27.5167 56.2628 26.9888C55.8247 26.6294 55.5215 26.1016 55.4429 25.5063Z" fill="white"/>
<path d="M60.8786 26.3599L61.3953 26.9888L60.2272 27.8986L61.137 29.1452L62.3499 28.2916L62.8104 28.988L59.733 31.1219L59.2838 30.4368L60.5192 29.572L59.632 28.3703L58.4414 29.28L57.9136 28.651L60.8786 26.3599Z" fill="white"/>
<path d="M26.9939 22.5637L27.6565 22.0808L28.5101 23.2938L29.8579 22.3953L29.0829 21.1374L29.8017 20.7218L31.7672 23.9003L31.0484 24.3158L30.2622 23.0354L28.9369 23.9115L29.8017 25.1357L29.1503 25.6299L26.9939 22.5637Z" fill="white"/>
<path d="M18.1323 35.6369L18.357 34.8508L19.7721 35.3L20.2775 33.8512L18.8961 33.3233L19.2105 32.5596L22.7035 33.8849L22.389 34.6486L20.9851 34.1207L20.4909 35.5359L21.9285 35.9963L21.7039 36.7825L18.1323 35.6369Z" fill="white"/>
<path d="M63.6865 30.4818L64.0684 31.2118L60.7215 32.9078L60.3508 32.1777L63.6865 30.4818Z" fill="white"/>
<path d="M62.9676 37.344L63.6078 37.7371C63.3832 38.1078 63.2596 38.4896 63.3158 38.9164C63.3607 39.2534 63.5292 39.4331 63.7426 39.3994H63.7538C63.956 39.3657 64.0458 39.2309 64.1132 38.5795C64.1918 37.8045 64.3266 37.2879 65.0679 37.1868H65.0791C65.753 37.0857 66.2809 37.5687 66.3932 38.3212C66.4718 38.8603 66.3707 39.3432 66.1236 39.77L65.4497 39.4331C65.6294 39.0737 65.7193 38.7255 65.6744 38.411C65.6294 38.0965 65.461 37.9505 65.2813 37.9842H65.27C65.0229 38.0179 64.9668 38.1864 64.8994 38.8603C64.8096 39.6465 64.6074 40.1069 63.956 40.1968H63.9447C63.2035 40.2979 62.7093 39.8037 62.597 39.0063C62.5184 38.4447 62.6307 37.8494 62.9676 37.344Z" fill="white"/>
<path d="M43.3691 53.1016C43.0097 53.4722 42.5155 53.6968 41.9652 53.6968C41.4149 53.6968 40.9207 53.4722 40.5613 53.1016C40.3591 53.3823 40.2356 53.7305 40.2356 54.1011C40.2356 54.4718 40.3591 54.8199 40.5613 55.1007C40.9207 54.7301 41.4149 54.5055 41.9652 54.5055C42.5155 54.5055 43.0097 54.7301 43.3691 55.1007C43.5713 54.8199 43.6948 54.4718 43.6948 54.1011C43.6948 53.7305 43.5601 53.3823 43.3691 53.1016Z" fill="white"/>
<path d="M41.9539 53.2139C42.3807 53.2139 42.7514 53.0342 43.0209 52.7534C42.7289 52.5176 42.3583 52.3716 41.9539 52.3716C41.5496 52.3716 41.179 52.5176 40.8757 52.7534C41.1565 53.0342 41.5384 53.2139 41.9539 53.2139Z" fill="white"/>
<path d="M41.9539 54.9772C41.5271 54.9772 41.1565 55.1569 40.8757 55.4377C41.1677 55.6735 41.5384 55.8195 41.9539 55.8195C42.3583 55.8195 42.7289 55.6735 43.0321 55.4377C42.7626 55.1569 42.3807 54.9884 41.9539 54.9772Z" fill="white"/>
<path d="M34.0022 50.6419H36.5517C36.8774 50.3162 37.2031 49.9793 37.5288 49.6536H34.9569C34.6311 49.9905 34.3167 50.3162 34.0022 50.6419Z" fill="white"/>
<path d="M35.4849 49.1369H38.0344C38.3601 48.8 38.6858 48.463 38.9778 48.1486H36.4845C36.1475 48.4743 35.8218 48.8112 35.4849 49.1369Z" fill="white"/>
<path d="M33.4294 51.2597C33.1711 51.5404 33.0139 51.7426 33.5979 52.3154C34.1707 52.8994 34.3728 52.7422 34.6536 52.4839C34.7547 52.394 34.8558 52.2929 34.9569 52.2031C35.305 51.8774 35.6757 51.518 36.0463 51.1586H33.5305C33.4856 51.1923 33.4519 51.226 33.4294 51.2597Z" fill="white"/>
<path d="M39.528 47.5758L39.5729 47.5309C39.6628 47.441 39.6628 47.4298 39.7526 47.3399C39.8425 47.2389 39.8986 47.1827 39.8986 47.1041L38.8204 46.0259C38.7531 46.0259 38.6857 46.0708 38.5846 46.1607C38.4947 46.2505 38.4723 46.2617 38.3712 46.3516L38.3263 46.3965C37.9332 46.7671 37.4839 47.1939 37.0234 47.6432H39.4719C39.4831 47.6207 39.5056 47.5983 39.528 47.5758Z" fill="white"/>
<path d="M48.6253 51.911V49.3503C48.2996 49.0246 47.9627 48.6989 47.637 48.3732V50.9451C47.9739 51.2708 48.2996 51.5965 48.6253 51.911Z" fill="white"/>
<path d="M47.1317 50.4286V47.8791C46.7947 47.5534 46.4578 47.2277 46.1433 46.9357V49.429C46.4578 49.7547 46.7947 50.0917 47.1317 50.4286Z" fill="white"/>
<path d="M39.1686 40.7697L39.1799 39.6465H39.7976C39.8313 39.5567 39.8537 39.4556 39.8762 39.3658H39.1799V38.0966H40.011C40.011 37.9955 39.9997 37.9057 39.9997 37.8158H39.1799V36.5467H39.7639C39.7302 36.4569 39.7077 36.3558 39.674 36.2659H39.1799V35.3562C39.0451 35.1428 38.8878 34.9406 38.7081 34.7272L37.6299 34.716V33.694C37.5401 33.6153 37.439 33.5479 37.3492 33.4693V34.7048H36.0912V33.4469H37.3155C37.1807 33.3458 37.0459 33.2559 36.9111 33.1661H36.0912V32.7168C36.0014 32.6719 35.9003 32.6382 35.8105 32.5933V33.1661H34.5526V32.29C34.4627 32.2788 34.3616 32.2788 34.2718 32.2676V33.1661H33.0139V32.4585C32.924 32.4922 32.8229 32.5259 32.7331 32.5596V33.1661H31.7672C31.6661 33.2559 31.565 33.3458 31.464 33.4469C31.3741 33.5367 31.2843 33.6378 31.2056 33.7389L31.1944 34.716H30.5655C30.5205 34.8059 30.4868 34.9069 30.4531 34.9968H31.1607V36.2659H30.2622C30.2622 36.3558 30.2734 36.4569 30.2734 36.5467H31.1607V37.8158H30.5879C30.6216 37.9057 30.6665 38.0068 30.7115 38.0966H31.1719V38.9277C31.2618 39.0625 31.3516 39.2085 31.4527 39.3433V38.0966H32.7106V39.3658H31.464C31.5313 39.4556 31.61 39.5455 31.6773 39.6353L32.7106 39.6465V40.7135C32.924 40.8932 33.1374 41.0504 33.3508 41.1965H34.2605V41.6457C34.3504 41.6794 34.4515 41.7243 34.5413 41.758V41.1965H35.7992V41.9826C35.8891 41.9939 35.9902 41.9939 36.08 41.9939V41.1965H37.3379V41.8703C37.439 41.8479 37.5289 41.8142 37.6187 41.7917V41.1965H38.7306C38.8092 41.1291 38.8878 41.0617 38.9665 40.9831C39.0451 40.9157 39.1125 40.8483 39.1686 40.7697ZM32.7106 37.8158H31.4527V36.5467H32.7106V37.8158ZM32.7106 36.2659H31.4527V34.9968H32.7106V36.2659ZM32.7106 34.716H31.4527V33.4469H32.7106V34.716ZM34.2605 40.9157H33.0026V39.6465H34.2605V40.9157ZM34.2605 39.3658H33.0026V38.0966H34.2605V39.3658ZM34.2605 37.8158H33.0026V36.5467H34.2605V37.8158ZM34.2605 36.2659H33.0026V34.9968H34.2605V36.2659ZM34.2605 34.716H33.0026V33.4469H34.2605V34.716ZM35.7992 40.9157H34.5413V39.6465H35.7992V40.9157ZM34.5413 39.3658V38.0966H35.7992V39.3658H34.5413ZM34.5413 37.8158V36.5467H35.7992V37.8158H34.5413ZM34.5413 36.2659V34.9968H35.7992V36.2659H34.5413ZM34.5413 34.716V33.4469H35.7992V34.716H34.5413ZM37.3492 40.9157H36.0912V39.6465H37.3492V40.9157ZM37.3492 39.3658H36.0912V38.0966H37.3492V39.3658ZM37.3492 37.8158H36.0912V36.5467H37.3492V37.8158ZM37.3492 36.2659H36.0912V34.9968H37.3492V36.2659ZM38.8991 40.9157H37.6412V39.6465H38.8991V40.9157ZM38.8991 39.3658H37.6412V38.0966H38.8991V39.3658ZM38.8991 37.8158H37.6412V36.5467H38.8991V37.8158ZM38.8991 36.2659H37.6412V34.9968H38.8991V36.2659Z" fill="white"/>
<path d="M52.736 37.8158V36.5467H53.6233C53.6345 36.4568 53.6345 36.3558 53.6345 36.2659H52.7248V34.9968H53.4436C53.4099 34.9069 53.365 34.8058 53.3313 34.716H52.7248V33.7389C52.6349 33.6378 52.5563 33.5367 52.4552 33.4469C52.3541 33.3458 52.2531 33.2559 52.152 33.1773L51.1748 33.1661V32.5708C51.085 32.5259 50.9839 32.4922 50.8941 32.4697V33.1773H49.6362V32.2788C49.5463 32.2788 49.4452 32.29 49.3554 32.3013V33.1773H48.0975V32.6045C48.0076 32.6382 47.9065 32.6831 47.8167 32.7281V33.1773H46.9968C46.862 33.2672 46.7273 33.357 46.5813 33.4581H47.8055V34.7272H46.5476V33.4918C46.4577 33.5592 46.3679 33.6266 46.278 33.7052L46.2668 34.7272H45.1998C45.0201 34.9294 44.8629 35.1428 44.7281 35.3562V36.2771H44.2339C44.2002 36.367 44.1665 36.4681 44.1441 36.5579H44.7281V37.8271H43.9082C43.897 37.9169 43.897 38.018 43.897 38.1078H44.7281V39.377H44.0317C44.0542 39.4781 44.0879 39.5679 44.1104 39.6578H44.7281V40.7697C44.7955 40.8483 44.8629 40.9269 44.9302 40.9943C45.0089 41.0617 45.0763 41.1403 45.1549 41.1965H46.2668V41.7805C46.3566 41.8142 46.4577 41.8366 46.5476 41.8703V41.1965H47.8055V41.9939C47.9065 41.9939 47.9964 41.9826 48.0862 41.9826V41.1965H49.3441V41.758C49.434 41.7243 49.5351 41.6794 49.6249 41.6457V41.1965H50.5234C50.7368 41.0504 50.9502 40.8932 51.1636 40.7247L51.1748 39.6465H52.1969C52.2755 39.5567 52.3541 39.4556 52.4215 39.3658H51.1748V38.0966H52.4328V39.3433C52.5338 39.2085 52.6237 39.0737 52.7135 38.939V38.0966H53.174C53.2189 38.0068 53.2526 37.9057 53.2976 37.8158H52.736ZM46.2668 40.9157H45.0089V39.6465H46.2668V40.9157ZM46.2668 39.3658H45.0089V38.0966H46.2668V39.3658ZM46.2668 37.8158H45.0089V36.5467H46.2668V37.8158ZM46.2668 36.2659H45.0089V34.9968H46.2668V36.2659ZM46.5476 34.9968H47.8055V36.2659H46.5476V34.9968ZM47.8055 40.9157H46.5476V39.6465H47.8055V40.9157ZM47.8055 39.3658H46.5476V38.0966H47.8055V39.3658ZM47.8055 37.8158H46.5476V36.5467H47.8055V37.8158ZM49.3554 40.9157H48.0975V39.6465H49.3554V40.9157ZM49.3554 39.3658H48.0975V38.0966H49.3554V39.3658ZM49.3554 37.8158H48.0975V36.5467H49.3554V37.8158ZM49.3554 36.2659H48.0975V34.9968H49.3554V36.2659ZM49.3554 34.716H48.0975V33.4469H49.3554V34.716ZM50.8941 40.9157H49.6362V39.6465H50.8941V40.9157ZM50.8941 39.3658H49.6362V38.0966H50.8941V39.3658ZM50.8941 37.8158H49.6362V36.5467H50.8941V37.8158ZM50.8941 36.2659H49.6362V34.9968H50.8941V36.2659ZM50.8941 34.716H49.6362V33.4469H50.8941V34.716ZM52.444 37.8158H51.1861V36.5467H52.444V37.8158ZM52.444 36.2659H51.1861V34.9968H52.444V36.2659ZM52.444 34.716H51.1861V33.4469H52.444V34.716Z" fill="white"/>
<path d="M41.6508 42.3981C41.2914 41.758 41.1342 41.0841 41.0668 40.2193C41.0555 39.8823 41.0668 39.5117 41.1005 39.1074C41.2577 37.1194 40.8422 35.2213 38.5959 33.1885C35.4848 30.3807 32.4187 31.0321 30.7228 32.7392C29.0156 34.4464 28.3642 37.5013 31.172 40.6124C33.1936 42.8586 35.0917 43.2742 37.0909 43.1169C37.5065 43.0833 37.8659 43.072 38.2028 43.0833C39.1238 43.1506 39.8201 43.3191 40.494 43.7234L40.7411 43.4763C41.1342 43.0945 41.4262 42.7463 41.6508 42.3981ZM40.2581 38.7255C40.202 39.3882 39.9886 40.3653 39.1687 41.1852C38.3488 42.005 37.3717 42.2184 36.709 42.2746C34.9457 42.4318 33.4407 41.9264 32.0031 40.4214C29.4985 37.8158 29.4087 35.0978 31.2506 33.2559C33.0813 31.4139 35.8105 31.515 38.4162 34.0084C39.91 35.4572 40.4154 36.9622 40.2581 38.7255Z" fill="white"/>
<path d="M42.3022 45.2958L43.6837 46.711L44.6945 45.7002L43.3468 44.3749C43.0547 44.5883 42.7627 44.8466 42.437 45.1611L42.3022 45.2958Z" fill="white"/>
<path d="M49.2432 52.4838C49.524 52.7422 49.7261 52.8994 50.2989 52.3154C50.8829 51.7313 50.7257 51.5404 50.4674 51.2596C50.3775 51.1585 50.2765 51.0575 50.1866 50.9564C49.8609 50.6082 49.5015 50.2376 49.1421 49.8669V52.394C49.1758 52.4164 49.2095 52.4501 49.2432 52.4838Z" fill="white"/>
<path d="M45.5592 46.3853L45.5143 46.3404C45.4244 46.2505 45.4132 46.2505 45.3233 46.1607C45.2223 46.0708 45.1549 46.0259 45.0875 46.0259L44.0093 47.1041C44.0093 47.1715 44.0542 47.2389 44.1441 47.3399C44.2339 47.4298 44.2451 47.4523 44.335 47.5533L44.3799 47.5983C44.7618 47.9914 45.1773 48.4406 45.6266 48.9011V46.4527C45.6041 46.419 45.5817 46.4077 45.5592 46.3853Z" fill="white"/>
<path d="M42.0664 44.8016C43.2906 43.5774 44.1891 43.1843 45.6941 43.072C46.031 43.0608 46.4016 43.072 46.806 43.1057C48.8051 43.263 50.692 42.8474 52.7249 40.6011C55.5327 37.4901 54.8813 34.4239 53.1741 32.728C51.467 31.0208 48.4121 30.3694 45.301 33.1773C43.0547 35.1989 42.6392 37.097 42.7964 39.0961C42.8301 39.5117 42.8413 39.8711 42.8301 40.208C42.7178 41.713 42.3359 42.6003 41.1117 43.8358L39.2136 45.6889L40.2244 46.6997L42.0664 44.8016ZM43.6388 38.7255C43.4815 36.9622 43.9869 35.4572 45.4919 34.0084C48.0976 31.515 50.8155 31.4252 52.6575 33.2559C54.4994 35.0866 54.3983 37.8158 51.905 40.4214C50.4561 41.9264 48.9512 42.4318 47.1878 42.2746C46.5252 42.2184 45.5481 42.005 44.7282 41.1852C43.9083 40.3653 43.6949 39.3882 43.6388 38.7255Z" fill="white"/>
</svg>
