<svg width="75" height="45" viewBox="0 0 75 45" fill="none" xmlns="http://www.w3.org/2000/svg">
<g clip-path="url(#clip0_1350_290)">
<path d="M21.748 16.3243C21.748 17.2304 21.8457 17.9651 22.0168 18.5039C22.2123 19.0426 22.4566 19.6303 22.7987 20.2671C22.9209 20.463 22.9698 20.6589 22.9698 20.8303C22.9698 21.0752 22.8231 21.3201 22.5055 21.565L20.9661 22.5935C20.7461 22.7404 20.5262 22.8139 20.3307 22.8139C20.0864 22.8139 19.842 22.6915 19.5977 22.4711C19.2556 22.1037 18.9624 21.7119 18.718 21.3201C18.4737 20.9038 18.2293 20.4385 17.9605 19.8752C16.0546 22.1282 13.6599 23.2547 10.7766 23.2547C8.72401 23.2547 7.08685 22.667 5.88953 21.4915C4.6922 20.316 4.08132 18.7487 4.08132 16.7896C4.08132 14.7081 4.81438 13.0183 6.30493 11.7449C7.79548 10.4715 9.77473 9.83478 12.2916 9.83478C13.1224 9.83478 13.9776 9.90824 14.8817 10.0307C15.7858 10.1531 16.7143 10.349 17.6917 10.5694V8.78175C17.6917 6.92059 17.3008 5.62268 16.5433 4.86352C15.7614 4.10436 14.4419 3.73703 12.5603 3.73703C11.7051 3.73703 10.8254 3.83499 9.92134 4.05539C9.01724 4.27579 8.13757 4.54517 7.28234 4.88801C6.89137 5.05943 6.59815 5.15739 6.4271 5.20637C6.25606 5.25534 6.13388 5.27983 6.03614 5.27983C5.69405 5.27983 5.523 5.03494 5.523 4.52068V3.32072C5.523 2.9289 5.57187 2.63503 5.69405 2.46361C5.81622 2.29218 6.03614 2.12076 6.37823 1.94934C7.23347 1.50854 8.25974 1.1412 9.45707 0.847336C10.6544 0.52898 11.925 0.382047 13.269 0.382047C16.1768 0.382047 18.3026 1.04325 19.671 2.36565C21.0149 3.68805 21.6991 5.69615 21.6991 8.38993V16.3243H21.748ZM11.8273 20.0467C12.6337 20.0467 13.4644 19.8997 14.3441 19.6059C15.2238 19.312 16.0057 18.7732 16.6655 18.0386C17.0564 17.5733 17.3496 17.059 17.4963 16.4713C17.6429 15.8835 17.7406 15.1734 17.7406 14.3407V13.3122C17.032 13.1408 16.2745 12.9938 15.4926 12.8959C14.7106 12.7979 13.9532 12.749 13.1957 12.749C11.5585 12.749 10.3612 13.0673 9.55481 13.7285C8.74845 14.3897 8.35749 15.3203 8.35749 16.5447C8.35749 17.6957 8.65071 18.5528 9.26159 19.1406C9.84803 19.7528 10.7033 20.0467 11.8273 20.0467ZM31.4488 22.6915C31.0089 22.6915 30.7157 22.618 30.5202 22.4466C30.3248 22.2996 30.1537 21.9568 30.0071 21.4915L24.2648 2.56156C24.1182 2.07178 24.0449 1.75343 24.0449 1.582C24.0449 1.19018 24.2404 0.969781 24.6313 0.969781H27.026C27.4903 0.969781 27.8079 1.04325 27.979 1.21467C28.1745 1.3616 28.3211 1.70445 28.4677 2.16974L32.5728 18.3814L36.3847 2.16974C36.5069 1.67996 36.6535 1.3616 36.849 1.21467C37.0444 1.06774 37.3865 0.969781 37.8264 0.969781H39.7812C40.2455 0.969781 40.5631 1.04325 40.7586 1.21467C40.9541 1.3616 41.1251 1.70445 41.2229 2.16974L45.0836 18.5773L49.3109 2.16974C49.4575 1.67996 49.6286 1.3616 49.7996 1.21467C49.9951 1.06774 50.3128 0.969781 50.7526 0.969781H53.0251C53.416 0.969781 53.636 1.16569 53.636 1.582C53.636 1.70445 53.6115 1.82689 53.5871 1.97383C53.5627 2.12076 53.5138 2.31667 53.416 2.58605L47.5272 21.516C47.3805 22.0058 47.2095 22.3241 47.014 22.4711C46.8185 22.618 46.5009 22.716 46.0855 22.716H43.9841C43.5198 22.716 43.2021 22.6425 43.0066 22.4711C42.8112 22.2996 42.6401 21.9813 42.5424 21.4915L38.7549 5.69615L34.9919 21.467C34.8697 21.9568 34.7231 22.2752 34.5276 22.4466C34.3321 22.618 33.99 22.6915 33.5502 22.6915H31.4488ZM62.848 23.3527C61.5774 23.3527 60.3068 23.2057 59.085 22.9119C57.8633 22.618 56.9103 22.2996 56.275 21.9323C55.884 21.7119 55.6152 21.467 55.5175 21.2466C55.4197 21.0262 55.3709 20.7813 55.3709 20.5609V19.312C55.3709 18.7977 55.5664 18.5528 55.9329 18.5528C56.0795 18.5528 56.2261 18.5773 56.3727 18.6263C56.5193 18.6753 56.7392 18.7732 56.9836 18.8712C57.8144 19.2385 58.7185 19.5324 59.6715 19.7283C60.6489 19.9242 61.6019 20.0222 62.5793 20.0222C64.1187 20.0222 65.316 19.7528 66.1468 19.214C66.9776 18.6753 67.4174 17.8916 67.4174 16.8876C67.4174 16.2019 67.1975 15.6387 66.7577 15.1734C66.3179 14.7081 65.4871 14.2918 64.2897 13.8999L60.7466 12.7979C58.9628 12.2347 57.6433 11.4021 56.837 10.3001C56.0306 9.22255 55.6152 8.02259 55.6152 6.74917C55.6152 5.72063 55.8351 4.81454 56.275 4.0309C56.7148 3.24725 57.3013 2.56156 58.0343 2.02281C58.7674 1.45956 59.5982 1.04325 60.5756 0.749381C61.553 0.455514 62.5793 0.333069 63.6544 0.333069C64.192 0.333069 64.754 0.357558 65.2916 0.431025C65.8536 0.504491 66.3667 0.602447 66.8799 0.700403C67.3686 0.822847 67.8328 0.945292 68.2727 1.09223C68.7125 1.23916 69.0546 1.38609 69.299 1.53303C69.641 1.72894 69.8854 1.92485 70.032 2.14525C70.1786 2.34116 70.2519 2.61054 70.2519 2.95338V4.10436C70.2519 4.61863 70.0564 4.88801 69.6899 4.88801C69.4944 4.88801 69.1768 4.79005 68.7614 4.59414C67.3686 3.95743 65.8047 3.63907 64.0698 3.63907C62.677 3.63907 61.5774 3.85947 60.8199 4.32476C60.0624 4.79005 59.6715 5.50023 59.6715 6.50428C59.6715 7.18997 59.9158 7.77771 60.4045 8.243C60.8932 8.70829 61.7973 9.17357 63.0924 9.58989L66.5622 10.6919C68.3215 11.2551 69.5922 12.0388 70.3497 13.0428C71.1072 14.0469 71.4737 15.1979 71.4737 16.4713C71.4737 17.5243 71.2538 18.4794 70.8384 19.312C70.3985 20.1446 69.8121 20.8793 69.0546 21.467C68.2971 22.0792 67.393 22.52 66.3423 22.8384C65.2427 23.1812 64.0942 23.3527 62.848 23.3527Z" fill="white"/>
<path fill-rule="evenodd" clip-rule="evenodd" d="M67.4662 35.2543C59.427 41.2051 47.747 44.3642 37.7041 44.3642C23.6294 44.3642 10.9475 39.148 1.36894 30.4789C0.611446 29.7932 1.29563 28.8627 2.19974 29.4014C12.5603 35.4257 25.3399 39.0746 38.5594 39.0746C47.4782 39.0746 57.2767 37.2134 66.2933 33.3931C67.6373 32.7809 68.7857 34.2747 67.4662 35.2543Z" fill="#FF9900"/>
<path fill-rule="evenodd" clip-rule="evenodd" d="M70.8138 31.434C69.7876 30.1116 64.0208 30.7973 61.4063 31.1157C60.6243 31.2136 60.5022 30.5279 61.2108 30.0137C65.8046 26.7811 73.3551 27.7117 74.2348 28.7892C75.1144 29.8912 73.9904 37.4583 69.6898 41.0827C69.0301 41.6459 68.3947 41.352 68.688 40.6174C69.6654 38.193 71.8401 32.7319 70.8138 31.434Z" fill="#FF9900"/>
</g>
<defs>
<clipPath id="clip0_1350_290">
<rect width="74.2831" height="44.5699" fill="white" transform="translate(0.635986 0.0637817)"/>
</clipPath>
</defs>
</svg>
