<svg width="75" height="46" viewBox="0 0 75 46" fill="none" xmlns="http://www.w3.org/2000/svg">
<g clip-path="url(#clip0_1949_1008)">
<path d="M21.748 17.118C21.748 18.0241 21.8457 18.7587 22.0168 19.2975C22.2123 19.8363 22.4566 20.424 22.7987 21.0607C22.9209 21.2566 22.9698 21.4525 22.9698 21.6239C22.9698 21.8688 22.8231 22.1137 22.5055 22.3586L20.9661 23.3871C20.7461 23.5341 20.5262 23.6075 20.3307 23.6075C20.0864 23.6075 19.842 23.4851 19.5977 23.2647C19.2556 22.8974 18.9624 22.5055 18.718 22.1137C18.4737 21.6974 18.2293 21.2321 17.9605 20.6689C16.0546 22.9219 13.6599 24.0483 10.7766 24.0483C8.72401 24.0483 7.08685 23.4606 5.88953 22.2851C4.6922 21.1097 4.08132 19.5424 4.08132 17.5833C4.08132 15.5017 4.81438 13.812 6.30493 12.5386C7.79548 11.2651 9.77473 10.6284 12.2916 10.6284C13.1224 10.6284 13.9776 10.7019 14.8817 10.8243C15.7858 10.9468 16.7143 11.1427 17.6917 11.3631V9.57539C17.6917 7.71423 17.3008 6.41632 16.5433 5.65716C15.7614 4.898 14.4419 4.53067 12.5603 4.53067C11.7051 4.53067 10.8254 4.62863 9.92134 4.84903C9.01724 5.06943 8.13757 5.33881 7.28234 5.68165C6.89137 5.85307 6.59815 5.95103 6.4271 6.00001C6.25606 6.04898 6.13388 6.07347 6.03614 6.07347C5.69405 6.07347 5.523 5.82858 5.523 5.31432V4.11436C5.523 3.72254 5.57187 3.42867 5.69405 3.25725C5.81622 3.08582 6.03614 2.9144 6.37823 2.74298C7.23347 2.30218 8.25974 1.93484 9.45707 1.64098C10.6544 1.32262 11.925 1.17569 13.269 1.17569C16.1768 1.17569 18.3026 1.83689 19.671 3.15929C21.0149 4.48169 21.6991 6.48979 21.6991 9.18357V17.118H21.748ZM11.8273 20.8403C12.6337 20.8403 13.4644 20.6934 14.3441 20.3995C15.2238 20.1056 16.0057 19.5669 16.6655 18.8322C17.0564 18.3669 17.3496 17.8527 17.4963 17.2649C17.6429 16.6772 17.7406 15.967 17.7406 15.1344V14.1058C17.032 13.9344 16.2745 13.7875 15.4926 13.6895C14.7106 13.5916 13.9532 13.5426 13.1957 13.5426C11.5585 13.5426 10.3612 13.861 9.55481 14.5222C8.74845 15.1834 8.35749 16.1139 8.35749 17.3384C8.35749 18.4894 8.65071 19.3465 9.26159 19.9342C9.84803 20.5464 10.7033 20.8403 11.8273 20.8403ZM31.4488 23.4851C31.0089 23.4851 30.7157 23.4116 30.5202 23.2402C30.3248 23.0933 30.1537 22.7504 30.0071 22.2851L24.2648 3.3552C24.1182 2.86542 24.0449 2.54707 24.0449 2.37564C24.0449 1.98382 24.2404 1.76342 24.6313 1.76342H27.026C27.4903 1.76342 27.8079 1.83689 27.979 2.00831C28.1745 2.15524 28.3211 2.49809 28.4677 2.96338L32.5728 19.1751L36.3847 2.96338C36.5069 2.4736 36.6535 2.15524 36.849 2.00831C37.0444 1.86138 37.3865 1.76342 37.8264 1.76342H39.7812C40.2455 1.76342 40.5631 1.83689 40.7586 2.00831C40.9541 2.15524 41.1251 2.49809 41.2229 2.96338L45.0836 19.371L49.3109 2.96338C49.4575 2.4736 49.6286 2.15524 49.7996 2.00831C49.9951 1.86138 50.3128 1.76342 50.7526 1.76342H53.0251C53.416 1.76342 53.636 1.95933 53.636 2.37564C53.636 2.49809 53.6115 2.62053 53.5871 2.76747C53.5627 2.9144 53.5138 3.11031 53.416 3.37969L47.5272 22.3096C47.3805 22.7994 47.2095 23.1178 47.014 23.2647C46.8185 23.4116 46.5009 23.5096 46.0855 23.5096H43.9841C43.5198 23.5096 43.2021 23.4361 43.0066 23.2647C42.8112 23.0933 42.6401 22.7749 42.5424 22.2851L38.7549 6.48979L34.9919 22.2607C34.8697 22.7504 34.7231 23.0688 34.5276 23.2402C34.3321 23.4116 33.99 23.4851 33.5502 23.4851H31.4488ZM62.848 24.1463C61.5774 24.1463 60.3068 23.9994 59.085 23.7055C57.8633 23.4116 56.9103 23.0933 56.275 22.726C55.884 22.5056 55.6152 22.2607 55.5175 22.0403C55.4197 21.8199 55.3709 21.575 55.3709 21.3546V20.1056C55.3709 19.5914 55.5664 19.3465 55.9329 19.3465C56.0795 19.3465 56.2261 19.371 56.3727 19.4199C56.5193 19.4689 56.7392 19.5669 56.9836 19.6648C57.8144 20.0322 58.7185 20.326 59.6715 20.5219C60.6489 20.7179 61.6019 20.8158 62.5793 20.8158C64.1187 20.8158 65.316 20.5464 66.1468 20.0077C66.9776 19.4689 67.4174 18.6853 67.4174 17.6812C67.4174 16.9955 67.1975 16.4323 66.7577 15.967C66.3179 15.5017 65.4871 15.0854 64.2897 14.6936L60.7466 13.5916C58.9628 13.0283 57.6433 12.1957 56.837 11.0937C56.0306 10.0162 55.6152 8.81623 55.6152 7.54281C55.6152 6.51427 55.8351 5.60818 56.275 4.82454C56.7148 4.04089 57.3013 3.3552 58.0343 2.81645C58.7674 2.2532 59.5982 1.83689 60.5756 1.54302C61.553 1.24915 62.5793 1.12671 63.6544 1.12671C64.192 1.12671 64.754 1.1512 65.2916 1.22466C65.8536 1.29813 66.3667 1.39609 66.8799 1.49404C67.3686 1.61649 67.8328 1.73893 68.2727 1.88587C68.7125 2.0328 69.0546 2.17973 69.299 2.32667C69.641 2.52258 69.8854 2.71849 70.032 2.93889C70.1786 3.1348 70.2519 3.40418 70.2519 3.74702V4.898C70.2519 5.41227 70.0564 5.68165 69.6899 5.68165C69.4944 5.68165 69.1768 5.58369 68.7614 5.38778C67.3686 4.75107 65.8047 4.43271 64.0698 4.43271C62.677 4.43271 61.5774 4.65312 60.8199 5.1184C60.0624 5.58369 59.6715 6.29387 59.6715 7.29792C59.6715 7.98361 59.9158 8.57135 60.4045 9.03664C60.8932 9.50193 61.7973 9.96721 63.0924 10.3835L66.5622 11.4855C68.3215 12.0488 69.5922 12.8324 70.3497 13.8365C71.1072 14.8405 71.4737 15.9915 71.4737 17.2649C71.4737 18.3179 71.2538 19.273 70.8384 20.1056C70.3985 20.9383 69.8121 21.6729 69.0546 22.2607C68.2971 22.8729 67.393 23.3137 66.3423 23.632C65.2427 23.9749 64.0942 24.1463 62.848 24.1463Z" fill="white"/>
<path fill-rule="evenodd" clip-rule="evenodd" d="M67.4662 36.0479C59.427 41.9987 47.747 45.1578 37.7041 45.1578C23.6294 45.1578 10.9475 39.9417 1.36894 31.2726C0.611446 30.5869 1.29563 29.6563 2.19974 30.1951C12.5603 36.2193 25.3399 39.8682 38.5594 39.8682C47.4782 39.8682 57.2767 38.007 66.2933 34.1868C67.6373 33.5745 68.7857 35.0684 67.4662 36.0479Z" fill="#FF9900"/>
<path fill-rule="evenodd" clip-rule="evenodd" d="M70.8138 32.2277C69.7876 30.9053 64.0208 31.591 61.4063 31.9093C60.6243 32.0073 60.5022 31.3216 61.2108 30.8073C65.8046 27.5748 73.3551 28.5054 74.2348 29.5829C75.1144 30.6849 73.9904 38.2519 69.6898 41.8763C69.0301 42.4396 68.3947 42.1457 68.688 41.411C69.6654 38.9866 71.8401 33.5256 70.8138 32.2277Z" fill="#FF9900"/>
</g>
<defs>
<clipPath id="clip0_1949_1008">
<rect width="74.2831" height="44.5699" fill="white" transform="translate(0.635986 0.857178)"/>
</clipPath>
</defs>
</svg>
