<svg width="86" height="86" viewBox="0 0 86 86" fill="none" xmlns="http://www.w3.org/2000/svg">
<g clip-path="url(#clip0_1985_174)">
<path fill-rule="evenodd" clip-rule="evenodd" d="M56.1934 17.5094C56.1934 18.8038 55.736 20.5896 53.9039 20.5896C51.6931 20.5896 51.6931 18.1095 51.6931 17.5889C51.6931 17.083 51.6931 14.4295 53.9674 14.4295C56.0368 14.4295 56.1934 16.7198 56.1934 17.5094ZM51.7242 10.5928H50.2399V20.1315L50.2071 21.553H51.6429L51.6757 20.3523C51.8344 20.5896 52.0082 20.8583 52.4513 21.1583C53.1307 21.6168 53.84 21.6643 54.2189 21.6643C55.3086 21.6643 56.3669 21.2058 57.0001 20.3052C57.3962 19.7846 57.7573 18.9469 57.7573 17.4145C57.7573 15.6772 57.221 14.8879 56.8257 14.4298C56.0999 13.6081 55.1041 13.4187 54.3145 13.4187C52.5141 13.4187 51.9279 14.4145 51.7242 14.7773V10.5928ZM60.3162 17.8255C60.3162 17.1133 60.3162 14.6029 62.6844 14.6029C64.4384 14.6029 64.8651 16.0882 64.8651 17.5094C64.8651 18.0777 64.7866 19.2156 64.2178 19.9891C63.7123 20.6845 62.9216 20.7634 62.5434 20.7634C60.46 20.7634 60.3162 18.7881 60.3162 17.8255ZM58.8962 24.6007H60.3647V20.6685C60.7894 21.3635 61.6432 21.8527 62.795 21.8527C64.6924 21.8527 66.4122 20.5578 66.4122 17.6043C66.4122 14.666 64.7869 13.4972 63.0804 13.4972C62.4342 13.4972 61.1219 13.6866 60.3804 14.934L60.3484 13.6242H58.8477C58.8798 14.3817 58.8962 14.5718 58.8962 14.9186V24.6007ZM44.0773 24.6018C44.7095 25.5533 45.8435 27.3415 46.8037 29.5648C45.7197 30.7549 44.809 31.9842 44.0773 33.2249C43.3477 31.9838 42.4381 30.7546 41.3526 29.5648C42.3128 27.3415 43.4503 25.5515 44.0773 24.6018ZM44.0773 61.3187C44.8093 62.5584 45.7197 63.7862 46.8051 64.9781C45.8449 67.2046 44.7081 68.9935 44.0773 69.9422C43.4503 68.9914 42.3128 67.2046 41.3526 64.9781C42.4381 63.7862 43.3495 62.5608 44.0773 61.3187ZM36.3258 25.9688C37.2424 26.6478 38.9228 27.9392 40.5857 29.7019C39.9723 31.1907 39.5358 32.6565 39.2745 34.0731C38.1635 33.1565 36.8889 32.3129 35.4611 31.5665C35.6021 29.1464 36.0592 27.0777 36.3258 25.9688ZM48.8833 60.4729C49.9935 61.3895 51.2699 62.2304 52.6963 62.9788C52.5574 65.3975 52.0993 67.4655 51.8327 68.5772C50.9168 67.8958 49.2374 66.6051 47.5714 64.8434C48.1861 63.3522 48.6223 61.8878 48.8833 60.4729ZM29.5069 29.9057C30.5993 30.2298 32.6199 30.8673 34.786 31.957C34.7704 32.3052 34.7616 32.6537 34.7595 33.0023C34.7595 34.2309 34.8603 35.4015 35.0452 36.5103C33.6893 36.0299 32.2051 35.6743 30.6095 35.4615C29.9137 33.1401 29.636 31.0407 29.5069 29.9057ZM53.3986 61.5462C53.4002 60.3698 53.3047 59.1953 53.1132 58.0347C54.4681 58.5151 55.9551 58.8707 57.5483 59.0828C58.2447 61.4052 58.5221 63.5043 58.6509 64.6369C57.5549 64.3152 55.5364 63.676 53.3728 62.5891C53.3884 62.2417 53.397 61.8939 53.3986 61.5462ZM30.1088 36.0599C30.5958 37.5902 31.2012 38.9908 31.9102 40.242C30.472 40.2539 28.9521 40.4346 27.3834 40.7807C25.9347 38.8362 24.9553 36.958 24.4469 35.936C25.5844 35.8673 27.6991 35.7769 30.1088 36.0599ZM60.7751 53.7625C62.2238 55.7095 63.2039 57.5863 63.7123 58.6072C62.5741 58.6767 60.4583 58.7667 58.0493 58.4858C57.5633 56.9523 56.9555 55.5528 56.2489 54.3009C57.683 54.2925 59.205 54.1101 60.7751 53.7625ZM27.1164 41.5121C28.1 42.7898 29.1503 43.8993 30.2452 44.833C28.8966 45.3348 27.5289 46.0201 26.1688 46.8822C24.1437 45.5501 22.5816 44.123 21.7546 43.3344C22.7989 42.8812 24.7581 42.0717 27.1164 41.5121ZM61.99 47.6603C64.0134 48.9911 65.5751 50.4216 66.4045 51.2081C65.3584 51.6634 63.4 52.4722 61.0406 53.0305C60.0587 51.7563 59.0085 50.6453 57.9105 49.7123C59.2615 49.2095 60.6278 48.5232 61.99 47.6603ZM26.1688 47.6603C27.5289 48.5232 28.8966 49.2092 30.2452 49.7123C29.1492 50.6467 28.0986 51.7559 27.1164 53.0305C24.7581 52.4722 22.7989 51.6634 21.7546 51.2081C22.5816 50.4216 24.1433 48.9942 26.1688 47.6603ZM61.0406 41.5107C63.4 42.0714 65.3584 42.8791 66.4045 43.3344C65.5751 44.1209 64.013 45.5501 61.99 46.8822C60.6278 46.0201 59.2615 45.3344 57.9108 44.833C59.0085 43.8993 60.0587 42.7898 61.0406 41.5107ZM27.3837 53.7625C28.9524 54.1101 30.4716 54.2929 31.9106 54.3009C31.2016 55.5528 30.5958 56.9527 30.1091 58.4844C27.6995 58.7667 25.583 58.6767 24.4476 58.6072C24.956 57.5849 25.935 55.7095 27.3837 53.7625ZM63.7123 35.936C63.2039 36.958 62.2238 38.8362 60.7751 40.7807C59.205 40.4346 57.6819 40.2539 56.2486 40.242C56.9551 38.9908 57.5633 37.5902 58.049 36.0578C60.4579 35.7769 62.5741 35.8673 63.7123 35.936ZM35.0449 58.0347C34.8531 59.1953 34.7575 60.3698 34.7591 61.5462C34.7591 61.8878 34.772 62.2377 34.7856 62.5887C32.6182 63.6756 30.6011 64.3148 29.5065 64.6365C29.636 63.5039 29.9137 61.4049 30.6091 59.0825C32.2023 58.8707 33.6876 58.5151 35.0449 58.0347ZM58.6509 29.9057C58.5221 31.04 58.2447 33.1401 57.5483 35.4611C55.9569 35.6726 54.4681 36.0281 53.1132 36.51C53.2978 35.3994 53.3986 34.2298 53.3986 32.9992C53.3974 32.6515 53.3881 32.3039 53.3707 31.9566C55.5364 30.8673 57.5549 30.2298 58.6509 29.9057ZM39.2741 60.4729C39.5358 61.8878 39.9723 63.3543 40.5857 64.8431C38.9228 66.6048 37.2424 67.8954 36.3258 68.5755C36.0588 67.4631 35.6018 65.3972 35.4611 62.9785C36.8879 62.2304 38.1635 61.3895 39.2741 60.4729ZM51.8327 25.9675C52.0979 27.076 52.557 29.1464 52.6963 31.5669C51.2699 32.3129 49.9935 33.1565 48.8833 34.0735C48.6223 32.6565 48.1841 31.1911 47.5714 29.7023C49.2374 27.9381 50.9168 26.6478 51.8327 25.9675ZM41.0766 30.2487C42.1317 31.4329 43.0166 32.652 43.7061 33.8819C43.0874 35.0424 42.6314 36.2249 42.3393 37.4039C41.6614 36.3966 40.8289 35.4416 39.8512 34.5627C40.0773 33.1694 40.4908 31.7225 41.0766 30.2487ZM45.8191 57.1411C46.4984 58.1498 47.3292 59.1038 48.3093 59.9816C48.0825 61.3738 47.6652 62.8215 47.0811 64.2974C46.0264 63.109 45.1391 61.8913 44.452 60.661C45.0703 59.5019 45.5264 58.3208 45.8191 57.1411ZM35.4151 33.0023C35.4151 32.7713 35.427 32.5355 35.4339 32.2996C36.831 33.054 38.0801 33.8973 39.1482 34.8177C39.0396 35.584 38.9793 36.3404 38.9793 37.0798C38.9793 37.5941 39.0156 38.0962 39.0679 38.5927C38.0843 37.877 36.9761 37.2654 35.757 36.7734C35.5316 35.5948 35.4151 34.3306 35.4151 33.0023ZM49.1781 57.4642C49.1781 56.9488 49.1415 56.4495 49.0895 55.9485C50.0727 56.668 51.1823 57.2775 52.4014 57.7716C52.6258 58.9513 52.7402 60.2133 52.7402 61.5462C52.7402 61.7744 52.7308 62.0109 52.7252 62.2433C51.3261 61.491 50.0783 60.6481 49.0078 59.7266C49.1174 58.9593 49.1781 58.2028 49.1781 57.4642ZM30.8359 36.1607C32.4067 36.392 33.8673 36.7563 35.1859 37.2535C35.457 38.5424 35.8687 39.7392 36.4025 40.8327C35.2344 40.4939 33.9842 40.2989 32.6688 40.2521C31.9479 39.0421 31.3359 37.6656 30.8359 36.1607ZM51.7535 53.7119C52.9223 54.05 54.1701 54.2447 55.4872 54.2925C56.2109 55.5015 56.8208 56.8787 57.3225 58.385C55.751 58.1554 54.2901 57.7894 52.9705 57.2883C52.7008 56.0019 52.2884 54.8051 51.7535 53.7119ZM32.2933 40.8976C32.9898 42.0145 33.786 42.9998 34.6628 43.8463C33.4496 43.928 32.2092 44.1722 30.9573 44.5783C29.8663 43.6889 28.8188 42.6042 27.8324 41.3582C29.3875 41.04 30.8868 40.8791 32.2933 40.8976ZM57.2011 49.9646C58.2936 50.8554 59.3382 51.9408 60.3264 53.1865C58.7719 53.5054 57.2712 53.6669 55.8655 53.6477C55.1662 52.5295 54.3704 51.5441 53.4967 50.6976C54.7085 50.6153 55.9506 50.3728 57.2011 49.9646ZM30.8279 45.3149C31.8631 46.1258 32.9455 46.7793 34.0582 47.2748C32.9468 47.7639 31.8631 48.4182 30.8279 49.2294C29.4975 48.766 28.1412 48.1041 26.7923 47.2748C28.1409 46.4391 29.4975 45.7783 30.8279 45.3149ZM57.3302 45.3149C58.6631 45.7783 60.0158 46.4395 61.3658 47.272C60.0158 48.1041 58.6596 48.7657 57.3302 49.229C56.2943 48.4182 55.2102 47.7639 54.0985 47.2744C55.2112 46.7793 56.2943 46.1258 57.3302 45.3149ZM30.9577 49.9646C32.2078 50.3728 33.45 50.6153 34.6632 50.698C33.7863 51.5459 32.9901 52.5298 32.2937 53.6481C30.8858 53.6673 29.3865 53.5057 27.8331 53.1868C28.8188 51.9408 29.8663 50.8554 30.9577 49.9646ZM60.3264 41.3582C59.3382 42.6038 58.2936 43.6862 57.2011 44.5783C55.9506 44.1722 54.7081 43.9283 53.4967 43.8463C54.3704 42.9998 55.1662 42.0145 55.8655 40.8976C57.2716 40.8791 58.7719 41.04 60.3264 41.3582ZM36.4036 53.7119C35.8687 54.8051 35.4573 56.0015 35.1859 57.2883C33.8662 57.7894 32.405 58.155 30.8359 58.385C31.3359 56.8791 31.9479 55.5029 32.6691 54.2925C33.9845 54.2451 35.2347 54.05 36.4036 53.7119ZM57.3225 36.1597C56.8208 37.6656 56.2109 39.0421 55.4872 40.2521C54.1701 40.2989 52.922 40.4939 51.7535 40.8327C52.2884 39.7392 52.7008 38.5424 52.9705 37.2535C54.2915 36.7525 55.7531 36.3896 57.3225 36.1597ZM42.339 57.1411C42.6314 58.3208 43.0874 59.5019 43.7057 60.661C43.0162 61.8909 42.1317 63.1114 41.0763 64.2974C40.4904 62.8232 40.077 61.3766 39.8505 59.9816C40.8289 59.1024 41.6611 58.1498 42.339 57.1411ZM39.0679 55.9485C39.0156 56.4495 38.9793 56.9516 38.9793 57.4656C38.9793 58.2028 39.0396 58.9593 39.1475 59.7266C38.0791 60.6481 36.8306 61.491 35.4339 62.2433C35.427 62.0109 35.4151 61.7744 35.4151 61.5434C35.4151 60.2133 35.5316 58.9509 35.7567 57.7712C36.9761 57.2775 38.085 56.6683 39.0679 55.9485ZM47.0808 30.2473C47.6656 31.7228 48.0825 33.1694 48.3093 34.5606C47.3292 35.4416 46.4988 36.3966 45.8191 37.4036C45.5267 36.2253 45.0703 35.0442 44.452 33.8816C45.1391 32.6534 46.0264 31.4325 47.0808 30.2473ZM52.7221 32.2996C52.7308 32.5351 52.7406 32.7696 52.7406 32.9995C52.7406 34.3303 52.6261 35.5948 52.4018 36.7734C51.1826 37.2657 50.0731 37.8781 49.0898 38.5951C49.1415 38.0962 49.1785 37.5962 49.1785 37.0798C49.1785 36.3421 49.1178 35.584 49.0082 34.8156C50.0783 33.8973 51.3264 33.054 52.7221 32.2996ZM39.6366 37.0801C39.6366 36.5197 39.6809 35.9437 39.7465 35.3652C40.705 36.2776 41.5128 37.2626 42.1415 38.3055C42.0088 39.0457 41.9413 39.796 41.9398 40.548C41.9398 40.8725 41.9615 41.198 41.9862 41.5218C41.3587 40.6459 40.6242 39.8519 39.7996 39.1583C39.6912 38.4708 39.6367 37.776 39.6366 37.0801ZM46.2193 53.997C46.2193 53.6697 46.1963 53.3477 46.1708 53.0218C46.799 53.8978 47.5337 54.6923 48.3578 55.3871C48.4649 56.0577 48.5215 56.7493 48.5215 57.4642C48.5215 58.0263 48.4771 58.5989 48.4119 59.1795C47.4524 58.2663 46.645 57.2817 46.0152 56.2381C46.1471 55.4959 46.2193 54.7458 46.2193 53.997ZM35.9343 37.5665C37.1471 38.0951 38.2431 38.742 39.1928 39.5082C39.3812 40.5703 39.7015 41.6048 40.1464 42.5874C39.2577 41.9769 38.2953 41.4814 37.2821 41.1125C36.6935 40.0456 36.2441 38.8523 35.9343 37.5665ZM48.0103 51.9572C48.8998 52.5678 49.8629 53.0636 50.8766 53.4328C51.466 54.5001 51.914 55.6913 52.2252 56.9785C51.0103 56.4502 49.9129 55.8009 48.967 55.0357C48.7779 53.9736 48.4565 52.9394 48.0103 51.9572ZM33.1049 40.9377C34.4287 41.0201 35.6789 41.2539 36.831 41.6471C37.3709 42.5811 38.0258 43.4437 38.7804 44.2148C37.7336 43.9461 36.6639 43.8009 35.5777 43.8009C34.6628 43.0033 33.8362 42.0368 33.1049 40.9377ZM49.376 50.3299C50.423 50.6014 51.5001 50.74 52.5818 50.7423C53.497 51.5417 54.3208 52.504 55.0528 53.6087C53.7315 53.5263 52.4789 53.2911 51.3264 52.8958C50.7865 51.9621 50.1312 51.1 49.376 50.3299ZM35.3453 44.4649C36.1698 45.1556 37.0774 45.7405 38.047 46.206C36.9759 46.3133 35.9224 46.554 34.9109 46.9224C33.7748 46.4834 32.6649 45.8585 31.6 45.0707C32.8708 44.6973 34.1286 44.489 35.3453 44.4649ZM53.2447 47.6209C54.3829 48.0605 55.4914 48.6854 56.556 49.474C55.2856 49.848 54.0298 50.0567 52.8131 50.0783C51.987 49.3882 51.0782 48.8035 50.1076 48.3379C51.1823 48.2301 52.2318 47.9925 53.2447 47.6209ZM34.9109 47.6209C35.9231 47.9901 36.9774 48.2314 38.0494 48.3393C37.0791 48.804 36.1707 49.3882 35.3453 50.0783C34.1251 50.0567 32.8708 49.848 31.6004 49.474C32.6653 48.6854 33.7748 48.0605 34.9109 47.6209ZM52.8131 44.4649C54.0295 44.4887 55.2856 44.6973 56.556 45.0707C55.4921 45.8585 54.3826 46.4834 53.2447 46.9224C52.2332 46.5533 51.1794 46.3127 50.108 46.206C51.0792 45.7414 51.988 45.1565 52.8131 44.4649ZM38.7832 50.3313C38.0269 51.1003 37.3711 51.962 36.8313 52.8958C35.6792 53.2911 34.4291 53.5263 33.106 53.6087C33.8366 52.5068 34.6632 51.5417 35.578 50.7423C36.6642 50.742 37.734 50.5975 38.7832 50.3313ZM55.0525 40.9377C54.3205 42.0368 53.4967 43.0033 52.5815 43.8013C51.4918 43.8013 50.4213 43.9464 49.3756 44.2151C50.1305 43.4441 50.7858 42.5815 51.3261 41.6474C52.4785 41.2539 53.7311 41.0201 55.0525 40.9377ZM44.0773 53.3902C44.3695 54.428 44.7885 55.4258 45.325 56.3609C45.092 57.557 44.6673 58.7569 44.0773 59.9443C43.489 58.7573 43.0654 57.557 42.8303 56.3609C43.3692 55.427 43.7881 54.4289 44.0773 53.3902ZM41.9862 53.0218C41.9615 53.3477 41.9398 53.6697 41.9398 53.997C41.9398 54.7479 42.01 55.4963 42.1415 56.2384C41.5128 57.2817 40.705 58.2646 39.7465 59.1798C39.6792 58.5992 39.6366 58.0266 39.6366 57.4659C39.6366 56.7531 39.6935 56.0608 39.7996 55.3874C40.6233 54.6921 41.3578 53.8975 41.9862 53.0218ZM40.1464 51.9572C39.7017 52.9396 39.3814 53.9737 39.1928 55.0354C38.2452 55.8006 37.1485 56.4502 35.9343 56.9781C36.2445 55.691 36.6935 54.497 37.2818 53.4325C38.295 53.0633 39.2575 52.5676 40.1464 51.9572ZM44.0773 34.6018C44.6673 35.7867 45.092 36.9883 45.3264 38.1844C44.7884 39.1187 44.3688 40.1164 44.0773 41.1544C43.7885 40.1158 43.3695 39.1179 42.8303 38.1844C43.0654 36.9883 43.4894 35.7867 44.0773 34.6018ZM48.4116 35.3652C48.4771 35.9437 48.5211 36.5194 48.5211 37.0801C48.5211 37.7926 48.4646 38.4859 48.3589 39.1583C47.5342 39.8522 46.7992 40.6461 46.1708 41.5218C46.1959 41.198 46.2193 40.8725 46.2193 40.548C46.2193 39.7968 46.1471 39.0487 46.0148 38.3055C46.6446 37.2626 47.452 36.2776 48.4116 35.3652ZM52.2252 37.5665C51.9136 38.8523 51.466 40.0452 50.8766 41.1129C49.8628 41.4816 48.8997 41.9772 48.0103 42.5878C48.4565 41.6053 48.7779 40.5709 48.967 39.5086C49.9129 38.742 51.0099 38.0951 52.2252 37.5665Z" fill="white"/>
</g>
<defs>
<clipPath id="clip0_1985_174">
<rect width="67.2559" height="67.2559" fill="white" transform="translate(9.55127 6.63977)"/>
</clipPath>
</defs>
</svg>
