<svg width="43" height="42" viewBox="0 0 43 42" fill="none" xmlns="http://www.w3.org/2000/svg">
<path fill-rule="evenodd" clip-rule="evenodd" d="M5.2334 31.5C5.2334 30.3402 6.1736 29.4 7.3334 29.4H35.3334C36.4932 29.4 37.4334 30.3402 37.4334 31.5C37.4334 32.6598 36.4932 33.6 35.3334 33.6H7.3334C6.1736 33.6 5.2334 32.6598 5.2334 31.5Z" fill="white"/>
<path fill-rule="evenodd" clip-rule="evenodd" d="M5.2334 21C5.2334 19.8402 6.1736 18.9 7.3334 18.9H35.3334C36.4932 18.9 37.4334 19.8402 37.4334 21C37.4334 22.1598 36.4932 23.1 35.3334 23.1H7.3334C6.1736 23.1 5.2334 22.1598 5.2334 21Z" fill="white"/>
<path fill-rule="evenodd" clip-rule="evenodd" d="M5.2334 10.5C5.2334 9.34023 6.1736 8.40002 7.3334 8.40002H35.3334C36.4932 8.40002 37.4334 9.34023 37.4334 10.5C37.4334 11.6598 36.4932 12.6 35.3334 12.6H7.3334C6.1736 12.6 5.2334 11.6598 5.2334 10.5Z" fill="white"/>
</svg>
