<svg width="42" height="42" viewBox="0 0 42 42" fill="none" xmlns="http://www.w3.org/2000/svg">
<path fill-rule="evenodd" clip-rule="evenodd" d="M4.8999 31.5C4.8999 30.3402 5.8401 29.4 6.9999 29.4H34.9999C36.1597 29.4 37.0999 30.3402 37.0999 31.5C37.0999 32.6598 36.1597 33.6 34.9999 33.6H6.9999C5.8401 33.6 4.8999 32.6598 4.8999 31.5Z" fill="white"/>
<path fill-rule="evenodd" clip-rule="evenodd" d="M4.8999 21C4.8999 19.8402 5.8401 18.9 6.9999 18.9H34.9999C36.1597 18.9 37.0999 19.8402 37.0999 21C37.0999 22.1598 36.1597 23.1 34.9999 23.1H6.9999C5.8401 23.1 4.8999 22.1598 4.8999 21Z" fill="white"/>
<path fill-rule="evenodd" clip-rule="evenodd" d="M4.8999 10.5C4.8999 9.34023 5.8401 8.40002 6.9999 8.40002H34.9999C36.1597 8.40002 37.0999 9.34023 37.0999 10.5C37.0999 11.6598 36.1597 12.6 34.9999 12.6H6.9999C5.8401 12.6 4.8999 11.6598 4.8999 10.5Z" fill="white"/>
</svg>
