<svg width="61" height="69" viewBox="0 0 61 69" fill="none" xmlns="http://www.w3.org/2000/svg">
<g clip-path="url(#clip0_1350_89)">
<path d="M60.3265 20.8306C60.326 19.7103 60.0845 18.7203 59.5959 17.8709C59.1161 17.0352 58.3974 16.3349 57.4334 15.7812C49.4763 11.2305 41.5115 6.69373 33.557 2.13838C31.4125 0.910413 29.3332 0.955412 27.2047 2.20101C24.0375 4.05339 8.18059 13.0641 3.45544 15.7787C1.50949 16.8962 0.56259 18.6062 0.562122 20.8285C0.559082 29.9803 0.562122 39.132 0.559082 48.2838C0.559082 49.3795 0.790837 50.3505 1.25786 51.1872C1.73797 52.0479 2.46668 52.7675 3.45287 53.3337C8.17825 56.0482 24.0372 65.0582 27.2037 66.9113C29.3332 68.1576 31.4125 68.2022 33.5577 66.974C41.5125 62.4184 49.4777 57.8816 57.436 53.3309C58.4222 52.7649 59.1509 52.0449 59.631 51.1848C60.0973 50.348 60.3296 49.3772 60.3296 48.2812C60.3296 48.2812 60.3296 29.9826 60.3265 20.8306Z" fill="#A179DC"/>
<path d="M30.5358 34.467L1.25786 51.1872C1.73797 52.0479 2.46668 52.7675 3.45287 53.3337C8.17825 56.0482 24.0372 65.0582 27.2037 66.9113C29.3332 68.1576 31.4125 68.2022 33.5577 66.974C41.5125 62.4184 49.4777 57.8816 57.436 53.3309C58.4222 52.7649 59.1509 52.0449 59.631 51.1848L30.5358 34.467Z" fill="#280068"/>
<path d="M60.3265 20.8306C60.326 19.7103 60.0845 18.7203 59.5959 17.8709L30.5358 34.467L59.631 51.1848C60.0973 50.348 60.3296 49.3772 60.3296 48.2812C60.3296 48.2812 60.3296 29.9826 60.3265 20.8306Z" fill="#390091"/>
<path d="M47.7736 28.2166V31.342H50.9246V28.2166H52.5001V31.342H55.6512V32.9046H52.5001V36.0297H55.6512V37.5924H52.5001V40.7178H50.9246V37.5924H47.7736V40.7178H46.1981V37.5924H43.0473V36.0297H46.1981V32.9046H43.0473V31.342H46.1981V28.2166H47.7736ZM50.9246 32.9044H47.7736V36.0297H50.9246V32.9044Z" fill="white"/>
<path d="M30.6001 12.5207C38.8189 12.5207 45.9944 16.9478 49.8379 23.5283L49.8005 23.465L40.1304 28.9874C38.2253 25.788 34.7329 23.6288 30.7261 23.5842L30.5998 23.5835C24.4902 23.5835 19.5371 28.4963 19.5371 34.5561C19.5351 36.4661 20.0382 38.3432 20.9961 40.0001C22.903 43.3019 26.4879 45.5289 30.6001 45.5289C34.7378 45.5289 38.343 43.2736 40.24 39.9365L40.194 40.0165L49.8494 45.5644C46.048 52.0893 38.9706 56.5027 30.8475 56.5906L30.6001 56.592C22.3553 56.592 15.1595 52.1375 11.3256 45.5222C9.45397 42.2927 8.38312 38.5487 8.38312 34.5561C8.38312 22.3864 18.3299 12.5207 30.6001 12.5207Z" fill="white"/>
</g>
<defs>
<clipPath id="clip0_1350_89">
<rect width="60.3004" height="67.2917" fill="white" transform="translate(0.294189 0.910416)"/>
</clipPath>
</defs>
</svg>
