<svg width="61" height="68" viewBox="0 0 61 68" fill="none" xmlns="http://www.w3.org/2000/svg">
<g clip-path="url(#clip0_1949_307)">
<path d="M60.3265 20.6239C60.326 19.5035 60.0845 18.5136 59.5959 17.6641C59.1161 16.8284 58.3974 16.1281 57.4334 15.5745C49.4763 11.0238 41.5115 6.48697 33.557 1.93162C31.4125 0.703657 29.3332 0.748656 27.2047 1.99425C24.0375 3.84663 8.18059 12.8574 3.45544 15.5719C1.50949 16.6895 0.56259 18.3994 0.562122 20.6218C0.559082 29.7735 0.562122 38.9253 0.559082 48.077C0.559082 49.1728 0.790837 50.1437 1.25786 50.9804C1.73797 51.8412 2.46668 52.5607 3.45287 53.1269C8.17825 55.8415 24.0372 64.8515 27.2037 66.7046C29.3332 67.9509 31.4125 67.9954 33.5577 66.7672C41.5125 62.2116 49.4777 57.6748 57.436 53.1241C58.4222 52.5582 59.1509 51.8382 59.631 50.9781C60.0973 50.1412 60.3296 49.1705 60.3296 48.0745C60.3296 48.0745 60.3296 29.7759 60.3265 20.6239Z" fill="#A179DC"/>
<path d="M30.5358 34.2603L1.25786 50.9804C1.73797 51.8412 2.46668 52.5607 3.45287 53.1269C8.17825 55.8415 24.0372 64.8515 27.2037 66.7046C29.3332 67.9509 31.4125 67.9954 33.5577 66.7672C41.5125 62.2116 49.4777 57.6748 57.436 53.1241C58.4222 52.5582 59.1509 51.8382 59.631 50.9781L30.5358 34.2603Z" fill="#280068"/>
<path d="M60.3265 20.6239C60.326 19.5035 60.0845 18.5136 59.5959 17.6641L30.5358 34.2603L59.631 50.9781C60.0973 50.1412 60.3296 49.1705 60.3296 48.0745C60.3296 48.0745 60.3296 29.7759 60.3265 20.6239Z" fill="#390091"/>
<path d="M47.7736 28.0098V31.1352H50.9246V28.0098H52.5001V31.1352H55.6512V32.6979H52.5001V35.823H55.6512V37.3857H52.5001V40.511H50.9246V37.3857H47.7736V40.511H46.1981V37.3857H43.0473V35.823H46.1981V32.6979H43.0473V31.1352H46.1981V28.0098H47.7736ZM50.9246 32.6976H47.7736V35.823H50.9246V32.6976Z" fill="white"/>
<path d="M30.6001 12.3139C38.8189 12.3139 45.9944 16.741 49.8379 23.3216L49.8005 23.2582L40.1304 28.7806C38.2253 25.5813 34.7329 23.422 30.7261 23.3775L30.5998 23.3768C24.4902 23.3768 19.5371 28.2896 19.5371 34.3494C19.5351 36.2593 20.0382 38.1364 20.9961 39.7933C22.903 43.0952 26.4879 45.3222 30.6001 45.3222C34.7378 45.3222 38.343 43.0669 40.24 39.7298L40.194 39.8098L49.8494 45.3577C46.048 51.8825 38.9706 56.2959 30.8475 56.3838L30.6001 56.3852C22.3553 56.3852 15.1595 51.9308 11.3256 45.3154C9.45397 42.086 8.38312 38.342 8.38312 34.3494C8.38312 22.1796 18.3299 12.3139 30.6001 12.3139Z" fill="white"/>
</g>
<defs>
<clipPath id="clip0_1949_307">
<rect width="60.3004" height="67.2917" fill="white" transform="translate(0.294189 0.703613)"/>
</clipPath>
</defs>
</svg>
