<svg width="86" height="86" viewBox="0 0 86 86" fill="none" xmlns="http://www.w3.org/2000/svg">
<g clip-path="url(#clip0_1985_160)">
<path d="M34.4862 36.4469L34.1415 37.6484H32.1537L31.9315 38.3793H33.9117L33.5938 39.5044H31.583L31.0046 41.5287H29.0781L30.5335 36.4469H34.4862ZM35.4896 41.5287H33.5976L34.7045 37.6523H36.5927L35.4896 41.5287ZM36.9451 36.4163L36.7076 37.239H34.8194L35.053 36.4163H36.9451ZM40.2734 41.5287H38.4618L38.6073 41.0312L38.5882 41.0159C38.4182 41.2208 38.2034 41.3839 37.9604 41.4927C37.7173 41.6015 37.4525 41.6531 37.1864 41.6435C36.6425 41.6435 36.1944 41.3947 36.1944 40.8016C36.1944 40.2582 36.5889 39.0643 36.8148 38.6089C37.1481 37.9393 37.6268 37.5413 38.4043 37.5413C38.8754 37.5413 39.2163 37.7058 39.3886 38.0196L39.8444 36.4163H41.7365L40.2734 41.5287ZM38.3469 39.4125C38.2703 39.6345 38.1745 39.9062 38.1745 40.0631C38.1745 40.2238 38.2894 40.3309 38.4809 40.3309C38.7452 40.3309 38.8448 40.0133 38.9635 39.6689C39.0504 39.4623 39.1084 39.2447 39.1359 39.0222C39.1359 38.8577 39.021 38.7505 38.8295 38.7505C38.569 38.7505 38.4694 39.072 38.3469 39.4125ZM42.9008 39.8029C42.851 39.9751 42.7821 40.2123 42.7821 40.3845C42.7821 40.5605 42.8817 40.6524 43.0655 40.6524C43.4294 40.6524 43.5251 40.4687 43.6209 40.1472H45.4555C45.0916 41.2991 43.8813 41.6435 42.7897 41.6435C41.7441 41.6435 41.0164 41.4139 41.0164 40.4763C41.0164 39.8564 41.3343 38.8538 41.7365 38.3832C42.2957 37.7365 43.0655 37.5413 43.9311 37.5413C44.8044 37.5413 45.7695 37.6484 45.7695 38.7161C45.7695 39.0222 45.6278 39.5197 45.555 39.8067L42.9008 39.8029ZM43.9273 39.0796C43.9579 38.9878 44 38.873 44 38.7926C44 38.6166 43.889 38.498 43.6821 38.498C43.3106 38.498 43.2187 38.785 43.1344 39.0758L43.9273 39.0796ZM48.7646 36.4201L47.3016 41.5325H45.4133L46.8726 36.4201H48.7646ZM49.6532 41.5325H47.7612L48.868 37.6561H50.7563L49.6532 41.5325ZM51.1086 36.4201L50.8712 37.2466H48.983L49.2204 36.4201H51.1086ZM53.399 36.7836L53.1424 37.6599H53.9467L53.7016 38.5133H52.8973L52.4683 40.0095C52.4415 40.1013 52.384 40.2659 52.384 40.373C52.384 40.6792 52.6062 40.6792 52.8628 40.6792H53.0773L52.8322 41.5325H51.1699C50.6146 41.5325 50.3656 41.3488 50.3656 40.9432C50.3656 40.7557 50.4384 40.4955 50.515 40.2085L51.507 36.7798L53.399 36.7836Z" fill="white"/>
<path d="M57.4799 37.6767H59.4141L56.5722 41.821C55.8291 42.9039 55.4729 43.0264 54.1286 43.0264H53.6345L53.8337 42.0353H54.2128C54.5997 42.0353 54.8486 41.8631 54.8486 41.5493L54.841 41.4345L54.5269 37.6767H56.5032L56.216 40.2214L56.2275 40.2329L57.4799 37.6767ZM30.4128 43.7305L28.9574 48.8085H27.0309L28.4863 43.7305H30.4128ZM32.4007 44.9359L32.2513 45.4487L32.2666 45.464C32.4317 45.2664 32.6377 45.1069 32.8705 44.9966C33.1032 44.8862 33.3572 44.8277 33.6148 44.8249C34.2008 44.8249 34.6374 45.0813 34.6374 45.7012C34.6292 45.9795 34.5815 46.2552 34.4957 46.5201L33.8369 48.8161H31.964L32.5845 46.6387C32.6277 46.5111 32.656 46.3788 32.6688 46.2446C32.6688 46.1298 32.5768 46.038 32.4313 46.038C32.1594 46.038 32.0751 46.2714 32.0023 46.5201L31.3474 48.8161H29.4936L30.6005 44.9397H32.4007M35.0319 44.9359H36.9508L36.6444 47.7867L36.6558 47.7982L38.0002 44.9359H39.9152L37.5942 48.8085H35.074L35.0319 44.9359ZM41.0413 47.0865C40.9915 47.2587 40.9225 47.4921 40.9225 47.6643C40.9225 47.8441 41.0183 47.936 41.206 47.936C41.5698 47.936 41.6617 47.7485 41.7651 47.4309H43.5997C43.2359 48.5827 42.0218 48.9271 40.9302 48.9271C39.8808 48.9271 39.1569 48.6975 39.1569 47.7561C39.1569 47.1362 39.4748 46.1298 39.8769 45.6629C40.4361 45.0162 41.206 44.8211 42.0754 44.8211C42.9448 44.8211 43.9138 44.9282 43.9138 45.9959C43.9138 46.302 43.7683 46.7995 43.6993 47.0865H41.0413ZM42.0677 46.3594C42.0945 46.2676 42.1405 46.1528 42.1405 46.0762C42.1405 45.9002 42.0256 45.7854 41.8188 45.7854C41.4472 45.7854 41.3553 46.0686 41.2672 46.3594H42.0677ZM46.7212 46.1375C46.7442 46.0724 46.7787 45.9959 46.7787 45.9232C46.7787 45.7433 46.6561 45.6668 46.4914 45.6668C46.2846 45.6668 46.0663 45.8122 46.0663 46.038C46.0663 46.677 48.0694 46.0035 48.0694 47.2357C48.0694 48.3186 46.9779 48.9233 45.6373 48.9233C44.5649 48.9233 43.7108 48.7358 43.7108 47.9819C43.7108 47.8594 43.7376 47.7332 43.7683 47.6107H45.4458C45.4382 47.6758 45.419 47.7714 45.419 47.8174C45.419 48.0163 45.5378 48.0737 45.7254 48.0737C45.9361 48.0737 46.1314 47.9245 46.1314 47.6949C46.1314 47.1018 44.2279 47.6566 44.2279 46.4474C44.2279 45.3377 45.3539 44.8173 46.6829 44.8173C47.8396 44.8173 48.4065 45.0315 48.4065 45.7586C48.4065 45.8811 48.3873 45.9882 48.349 46.1375H46.7212ZM51.2216 44.0596L50.965 44.9359H51.7693L51.528 45.7931H50.7237L50.2947 47.2854C50.2679 47.3773 50.2104 47.5418 50.2104 47.649C50.2104 47.9551 50.4326 47.9551 50.6892 47.9551H50.9037L50.6624 48.8085H49.0001C48.4448 48.8085 48.1958 48.6248 48.1958 48.2192C48.1958 48.0316 48.2686 47.7714 48.3452 47.4844L49.3372 44.0557L51.2216 44.0596ZM56.6411 46.6311C56.6843 46.5034 56.7126 46.3711 56.7254 46.2369C56.7254 46.1221 56.6334 46.0303 56.4879 46.0303C56.216 46.0303 56.1317 46.2637 56.0589 46.5125L55.404 48.8085H53.6422L54.2626 46.6311C54.3059 46.5034 54.3341 46.3711 54.3469 46.2369C54.3469 46.1221 54.255 46.0303 54.1094 46.0303C53.8375 46.0303 53.7532 46.2637 53.6805 46.5125L53.0255 48.8085H51.1718L52.2787 44.9321H54.0826L53.9294 45.4448L53.9447 45.4601C54.1098 45.2625 54.3159 45.1031 54.5486 44.9927C54.7814 44.8824 55.0353 44.8238 55.2929 44.8211C55.7985 44.8211 56.193 45.0124 56.3041 45.4487L56.3194 45.464C56.4848 45.2667 56.6909 45.1075 56.9236 44.9973C57.1563 44.887 57.41 44.8282 57.6676 44.8249C58.2536 44.8249 58.6902 45.0813 58.6902 45.7012C58.682 45.9795 58.6342 46.2552 58.5485 46.5201L57.8935 48.8161H56.0168L56.6411 46.6311ZM60.5784 47.0865C60.5286 47.2587 60.4558 47.4921 60.4558 47.6643C60.4558 47.8441 60.5554 47.936 60.7431 47.936C61.107 47.936 61.1989 47.7485 61.2985 47.4309H63.1331C62.7692 48.5827 61.5551 48.9271 60.4673 48.9271C59.4179 48.9271 58.694 48.6975 58.694 47.7561C58.694 47.1362 59.0119 46.1298 59.4141 45.6629C59.9733 45.0162 60.7431 44.8211 61.6125 44.8211C62.4819 44.8211 63.451 44.9282 63.451 45.9959C63.451 46.302 63.3054 46.7995 63.2365 47.0865H60.5784ZM61.6049 46.3594C61.6317 46.2676 61.6776 46.1528 61.6776 46.0762C61.6776 45.9002 61.5627 45.7854 61.3559 45.7854C60.9844 45.7854 60.8925 46.0686 60.8044 46.3594H61.6049ZM66.0209 44.9359L65.8716 45.4487L65.8869 45.464C66.052 45.2664 66.258 45.1069 66.4907 44.9966C66.7235 44.8862 66.9774 44.8277 67.2351 44.8249C67.8211 44.8249 68.2577 45.0813 68.2577 45.7012C68.2494 45.9795 68.2017 46.2552 68.116 46.5201L67.461 48.8161H65.5843L66.2048 46.6387C66.248 46.5111 66.2763 46.3788 66.289 46.2446C66.289 46.1298 66.1971 46.038 66.0516 46.038C65.7796 46.038 65.6915 46.2714 65.6226 46.5201L64.9677 48.8161H63.1139L64.2208 44.9397H66.0209M71.1264 44.0596L70.8698 44.9359H71.6779L71.4366 45.7892H70.6323L70.1995 47.2854C70.1553 47.4023 70.127 47.5246 70.1153 47.649C70.1153 47.9551 70.3374 47.9551 70.594 47.9551H70.8085L70.5672 48.8085H68.905C68.3496 48.8085 68.1007 48.6248 68.1007 48.2192C68.1007 48.0316 68.1696 47.7714 68.25 47.4844L69.242 44.0557L71.1264 44.0596ZM74.1943 46.1375C74.2134 46.0724 74.2517 45.9959 74.2517 45.9232C74.2517 45.7433 74.1292 45.6668 73.9645 45.6668C73.7577 45.6668 73.5355 45.8122 73.5355 46.038C73.5355 46.677 75.5386 46.0035 75.5386 47.2357C75.5386 48.3186 74.4471 48.9233 73.1065 48.9233C72.0379 48.9233 71.18 48.7358 71.18 47.9819C71.18 47.8594 71.2068 47.7332 71.2375 47.6107H72.915C72.9074 47.6758 72.8882 47.7714 72.8882 47.8174C72.8882 48.0163 73.0108 48.0737 73.1946 48.0737C73.4091 48.0737 73.6006 47.9245 73.6006 47.6949C73.6006 47.1018 71.6971 47.6566 71.6971 46.4474C71.6971 45.3377 72.8231 44.8173 74.1521 44.8173C75.3088 44.8173 75.8795 45.0315 75.8795 45.7586C75.8795 45.8811 75.8604 45.9882 75.8221 46.1375H74.1943ZM14.6567 44.7821H18.0463L19.0383 45.4249H14.5074L12.7034 51.1152L12.4736 51.7083C10.2254 50.8358 8.14563 48.8192 7.27621 46.5538C6.34177 44.2543 6.35003 41.6799 7.29919 39.3865C8.18776 37.1211 10.3288 35.0738 12.6077 34.232C14.4001 33.4896 16.7977 33.4092 18.6975 33.9947C20.9742 34.6742 22.9133 36.1815 24.1323 38.2193C25.4728 40.4579 25.8443 43.2973 25.0324 45.8497C24.4905 47.6088 23.4356 49.1663 22.0028 50.3231L21.7538 49.9366L19.4979 46.1558L22.9833 48.0959C23.0024 48.0959 23.0139 48.0768 23.0024 48.0577L18.437 44.12L24.343 45.0193C24.3621 45.0193 24.3698 45.0117 24.3698 45.0002L24.3315 44.9696L18.7664 43.0218L24.5498 41.6251C24.5689 41.6251 24.5689 41.6059 24.5613 41.5945L18.6285 41.9809L22.876 38.7857L23.2744 38.4681C23.282 38.4489 23.2437 38.4375 23.2322 38.4566L18.8277 40.6914L18.0157 41.097L20.8959 36.0228C20.8959 36.0114 20.8959 35.9922 20.8768 36.0037L17.1156 40.4158L17.8357 34.6185C17.8357 34.607 17.8165 34.5955 17.7974 34.607L16.0624 40.2398L15.5798 38.4949L14.5495 34.4386C14.538 34.4271 14.5189 34.4195 14.5112 34.4386L14.538 34.9322L14.9248 40.4541L11.3476 35.8047C11.3399 35.7971 11.3284 35.8047 11.3208 35.8124L14.0248 40.9592L8.90781 38.1696C8.90015 38.1696 8.881 38.1811 8.881 38.1887L12.96 41.5332L13.4273 41.9197L7.62091 41.3075C7.60176 41.3151 7.60176 41.3342 7.62091 41.3457L13.2473 42.9912L7.65155 44.629C7.64744 44.6352 7.64524 44.6426 7.64524 44.65C7.64524 44.6575 7.64744 44.6648 7.65155 44.6711L13.4273 43.9976L8.89249 47.8472C8.88483 47.8472 8.87334 47.8663 8.89249 47.8778L8.95377 47.8587L12.5885 45.9568L13.4388 44.6022H14.4078L13.7337 44.1277L15.9819 40.5268L14.6567 44.7821ZM76.3583 46.1795C76.3577 45.838 76.493 45.5103 76.7344 45.2685C76.9757 45.0266 77.3033 44.8905 77.6452 44.89C77.987 44.8895 78.315 45.0246 78.5571 45.2658C78.7991 45.5069 78.9354 45.8342 78.9359 46.1757C78.9364 46.5172 78.8011 46.845 78.5598 47.0868C78.3184 47.3286 77.9908 47.4648 77.649 47.4653C77.4797 47.4656 77.3121 47.4325 77.1556 47.368C76.9992 47.3035 76.857 47.2089 76.7371 47.0895C76.495 46.8484 76.3588 46.5211 76.3583 46.1795ZM77.649 47.2357C77.9233 47.2357 78.1863 47.1268 78.3802 46.9331C78.5742 46.7393 78.6831 46.4765 78.6831 46.2025C78.6831 45.9285 78.5742 45.6657 78.3802 45.4719C78.1863 45.2782 77.9233 45.1693 77.649 45.1693C77.3747 45.1693 77.1117 45.2782 76.9178 45.4719C76.7238 45.6657 76.6149 45.9285 76.6149 46.2025C76.6149 46.4765 76.7238 46.7393 76.9178 46.9331C77.1117 47.1268 77.3747 47.2357 77.649 47.2357ZM77.1204 45.5137H77.8099C78.1737 45.5137 78.2426 45.7816 78.2426 45.9002C78.2426 46.0494 78.166 46.1795 78.032 46.2255C78.1431 46.2752 78.2043 46.3173 78.2043 46.5737C78.2043 46.7727 78.2044 46.8224 78.2656 46.8454V46.8798H77.9477C77.9233 46.7901 77.913 46.6972 77.9171 46.6043C77.9171 46.4206 77.9056 46.3479 77.6911 46.3479H77.3962V46.8836H77.1166L77.1204 45.5137ZM77.7333 46.1145C77.8826 46.1145 77.9554 46.0647 77.9554 45.9308C77.9554 45.8543 77.9248 45.751 77.7562 45.751H77.4V46.1145H77.7333Z" fill="white"/>
</g>
<defs>
<clipPath id="clip0_1985_160">
<rect width="72.2173" height="18.1003" fill="white" transform="translate(6.57739 33.6064)"/>
</clipPath>
</defs>
</svg>
