<svg width="86" height="86" viewBox="0 0 86 86" fill="none" xmlns="http://www.w3.org/2000/svg">
<path d="M16.8397 31.8607H19.3575V35.0824C18.4363 35.4884 17.5185 35.6914 16.6083 35.6914C15.3658 35.6914 14.3712 35.3293 13.6288 34.5941C12.8875 33.8578 12.5146 32.9471 12.5146 31.8717C12.5146 30.7349 12.9007 29.7902 13.6694 29.0363C14.4392 28.2814 15.4053 27.9061 16.5644 27.9061C16.9877 27.9061 17.3869 27.95 17.7674 28.0433C18.1479 28.142 18.6271 28.3066 19.2072 28.559V29.6673C18.3124 29.1406 17.423 28.8772 16.5425 28.8772C15.7222 28.8772 15.0314 29.1625 14.4699 29.7331C13.9084 30.3037 13.6277 30.995 13.6277 31.8179C13.6277 32.6848 13.9084 33.3871 14.4721 33.9357C15.0335 34.4843 15.7551 34.7587 16.6412 34.7587C17.071 34.7587 17.5842 34.6599 18.183 34.4624L18.2817 34.4295V32.8373H16.8353V31.8607H16.8397ZM20.9585 35.6058V28.0038H22.8403C23.5991 28.0038 24.2001 28.1936 24.6475 28.5744C25.0938 28.9551 25.3164 29.4698 25.3164 30.1215C25.3164 30.5627 25.2067 30.9445 24.9874 31.2671C24.7703 31.5853 24.4567 31.8267 24.0487 31.9913C24.29 32.1449 24.5225 32.3644 24.7527 32.6387C24.983 32.913 25.3043 33.3958 25.72 34.0762C25.9809 34.5041 26.1915 34.8333 26.3483 35.0527L26.7453 35.5904H25.4655L25.1388 35.0857C25.1278 35.0637 25.1059 35.0308 25.073 34.9869L24.8646 34.6797L24.5323 34.1201L24.1705 33.5275C23.9511 33.2115 23.7428 32.9679 23.5564 32.7814C23.3699 32.5948 23.2054 32.4632 23.0519 32.3787C22.8984 32.3018 22.6462 32.258 22.2953 32.258H22.0101V35.5805H20.9585V35.6058ZM22.3567 28.9277H22.0343V31.3275H22.451C22.9993 31.3275 23.3721 31.2803 23.5695 31.1848C23.7779 31.0915 23.9314 30.9489 24.0411 30.7591C24.1617 30.5681 24.2165 30.3509 24.2165 30.1084C24.2165 29.867 24.1617 29.653 24.0301 29.4588C23.9095 29.2722 23.734 29.1296 23.5037 29.0528C23.2734 28.976 22.9006 28.9321 22.3742 28.9321L22.3567 28.9277ZM27.571 28.0038H31.8258V28.9716H28.6457V31.2902H31.7195V32.2634H28.6457V34.6259H31.93V35.5915H27.571V28.0038ZM35.4699 27.9599H36.2243L39.5909 35.608H38.4943L37.4964 33.3498H34.2943L33.3501 35.6058H32.2469L35.471 27.9577L35.4699 27.9599ZM37.049 32.382L35.8372 29.63L34.7143 32.382H37.049ZM38.6719 27.9928H44.9401V28.9606H42.3193V35.6058H41.2446V28.9606H38.6676V27.9917L38.6719 27.9928ZM45.9556 28.0038H50.2104V28.9716H47.0303V31.2902H50.1029V32.2634H47.0303V34.6259H50.3124V35.5915H45.9556V28.0038ZM51.488 35.6058V28.0038H53.3686C54.1275 28.0038 54.7306 28.1936 55.1758 28.5744C55.6222 28.9551 55.8448 29.4698 55.8448 30.1215C55.8448 30.5627 55.7351 30.9445 55.5158 31.2671C55.2965 31.5853 54.985 31.8267 54.576 31.9913C54.8172 32.1449 55.0508 32.3644 55.28 32.6387C55.5103 32.913 55.8316 33.3958 56.245 34.0762C56.5082 34.5041 56.7166 34.8333 56.8756 35.0527L57.2725 35.5904H55.995L55.6682 35.0857C55.6572 35.0637 55.6353 35.0308 55.6024 34.9869L55.3941 34.6797L55.0629 34.131L54.701 33.5385C54.4795 33.2203 54.2733 32.9789 54.0913 32.7923C53.9071 32.6058 53.7404 32.4741 53.5912 32.3863C53.441 32.3029 53.191 32.2656 52.8401 32.2656H52.5593V35.5805H51.4847L51.488 35.6058ZM52.885 28.9277H52.5626V31.3275H52.9717C53.5167 31.3275 53.8895 31.2803 54.0902 31.1848C54.2942 31.0915 54.4521 30.9489 54.5639 30.7591C54.678 30.5681 54.7339 30.3509 54.7339 30.1084C54.7339 29.867 54.6703 29.653 54.5475 29.4588C54.4203 29.2722 54.2448 29.1296 54.0167 29.0528C53.7864 28.976 53.4114 28.9321 52.885 28.9321V28.9277ZM18.2356 45.1523V46.5459H12.5146V38.9417H14.3844V45.1523H18.2356ZM23.2636 38.8429C24.5422 38.8429 25.5774 39.2347 26.3691 40.017C27.1609 40.7961 27.5568 41.7068 27.5568 42.7449C27.5568 43.7983 27.1554 44.709 26.3527 45.4815C25.5412 46.2529 24.5214 46.6402 23.2603 46.6402C21.9882 46.6402 20.9464 46.2562 20.1569 45.4859C19.3564 44.7178 18.9506 43.8049 18.9506 42.7449C18.9506 41.7025 19.3454 40.7917 20.1349 40.0126C20.9245 39.2336 21.9663 38.844 23.2493 38.844L23.2636 38.8429ZM23.2636 45.0645C23.972 45.0645 24.5444 44.8506 24.9775 44.4237C25.4118 43.998 25.6267 43.4384 25.6267 42.7449C25.6267 42.0492 25.4118 41.4885 24.9775 41.066C24.5444 40.6403 23.972 40.4274 23.2636 40.4274C22.5508 40.4274 21.9761 40.6392 21.5419 41.0638C21.1076 41.4885 20.8883 42.0492 20.8883 42.746C20.8883 43.4373 21.1076 44.0078 21.5419 44.4248C21.9761 44.8528 22.5508 45.0722 23.2636 45.0722V45.0645ZM36.5105 38.9417V46.5459H34.9314L30.7906 41.6739V46.5459H28.9198V38.9417H30.6338L34.6408 43.5876V38.9428H36.5116L36.5105 38.9417ZM38.1861 38.9417H41.4979C42.7754 38.9417 43.7843 39.2961 44.53 40.0061C45.2724 40.7138 45.6431 41.63 45.6431 42.7558C45.6431 43.9343 45.2658 44.8593 44.5135 45.5353C43.7602 46.2046 42.6855 46.5448 41.2895 46.5448H38.1883V38.9428L38.1861 38.9417ZM40.0569 40.3352V45.1523H41.2742C42.067 45.1523 42.6713 44.9274 43.0912 44.4885C43.5102 44.0386 43.7196 43.457 43.7196 42.7438C43.7196 41.9976 43.5069 41.4051 43.0836 40.9771C42.6559 40.5492 42.0495 40.3298 41.2523 40.3298H40.0569V40.3352ZM50.9978 38.8429C52.2764 38.8429 53.3116 39.2347 54.1033 40.017C54.8951 40.7961 55.2899 41.7068 55.2899 42.7449C55.2899 43.7983 54.8896 44.709 54.0869 45.4815C53.2864 46.2529 52.2556 46.6402 50.9978 46.6402C49.7279 46.6402 48.6927 46.2562 47.8944 45.4859C47.0939 44.7178 46.6947 43.8049 46.6947 42.7449C46.6947 41.7025 47.0895 40.7917 47.879 40.0126C48.6686 39.2336 49.7104 38.844 50.9934 38.844L50.9978 38.8429ZM50.9978 45.0645C51.7062 45.0645 52.2786 44.8506 52.7129 44.4237C53.146 43.998 53.362 43.4384 53.362 42.7449C53.362 42.0492 53.1427 41.4885 52.7041 41.066C52.2654 40.6403 51.6952 40.4274 50.9824 40.4274C50.2696 40.4274 49.6994 40.6392 49.2607 41.0638C48.8221 41.4885 48.6028 42.0492 48.6028 42.746C48.6028 43.4373 48.8111 44.0078 49.2498 44.4248C49.6775 44.8528 50.2587 45.0722 50.9715 45.0722L50.9978 45.0645ZM64.2447 38.9417V46.5459H62.6656L58.5249 41.6739V46.5459H56.6573V38.9417H58.3713L62.3772 43.5898V38.9428L64.2447 38.9417ZM15.7398 49.6224H16.4942L19.8608 57.2704H18.7576L17.7575 55.0133H14.5554L13.6189 57.2693H12.5146L15.7387 49.6213L15.7398 49.6224ZM17.3189 54.0444L16.1038 51.2946L14.9809 54.0466H17.3167L17.3189 54.0444ZM25.6827 49.6662H26.7617V53.9819C26.7617 54.5634 26.7179 55.0067 26.6301 55.303C26.5424 55.6102 26.4437 55.8516 26.3121 56.0492C26.1805 56.2467 26.038 56.4222 25.8515 56.5868C25.2594 57.1135 24.4808 57.3659 23.5158 57.3659C22.5398 57.3659 21.7502 57.1135 21.1581 56.5978C20.9826 56.4442 20.8291 56.2576 20.7085 56.0711C20.5878 55.8736 20.4782 55.6322 20.4014 55.3469C20.3247 55.0616 20.2808 54.6117 20.2808 53.9972V49.6728H21.3555V53.9852C21.3555 54.6984 21.4322 55.1955 21.5967 55.4775C21.7612 55.7518 22.0025 55.9789 22.3314 56.1468C22.6604 56.3158 23.0442 56.3992 23.4939 56.3992C24.1299 56.3992 24.6453 56.2313 25.051 55.8944C25.2594 55.7112 25.4129 55.4994 25.5039 55.2514C25.5917 55.0034 25.6399 54.5821 25.6399 53.983V49.6706L25.6827 49.6662ZM27.6127 49.6553H33.8798V50.6242H31.2655V57.2693H30.1842V50.6242H27.6127V49.6553ZM40.1853 49.6662H41.2599V57.2704H40.1853V53.9588H35.9688V57.2682H34.8941V49.6673H35.9688V52.9537H40.1853V49.6662ZM46.5971 49.5565C47.7573 49.5565 48.7223 49.9296 49.4921 50.6736C50.2663 51.4175 50.6512 52.3491 50.6512 53.4716C50.6512 54.5909 50.263 55.5192 49.4834 56.2543C48.7048 56.9895 47.7178 57.356 46.5335 57.356C45.404 57.356 44.4609 56.9884 43.7043 56.2543C42.9476 55.5192 42.5748 54.5974 42.5748 53.4925C42.5748 52.3623 42.9476 51.4186 43.7043 50.6834C44.4609 49.9373 45.415 49.5642 46.5774 49.5642L46.5971 49.5565ZM46.641 50.5913C45.7812 50.5913 45.0761 50.8634 44.5245 51.4076C43.9707 51.9563 43.6933 52.6476 43.6933 53.4925C43.6933 54.3154 43.9674 54.9958 44.5157 55.5444C45.064 56.093 45.7659 56.3674 46.5993 56.3674C47.4327 56.3674 48.1345 56.093 48.6938 55.5334C49.2531 54.9738 49.5272 54.2935 49.5272 53.4596C49.5272 52.6585 49.2421 51.9782 48.6828 51.4296C48.1236 50.8809 47.4327 50.6066 46.6212 50.6066L46.641 50.5913ZM52.0034 57.2693V49.6673H53.884C54.6451 49.6673 55.2471 49.8572 55.6934 50.2379C56.1386 50.6187 56.3602 51.1333 56.3602 51.7851C56.3602 52.2262 56.2505 52.6081 56.0334 52.9307C55.8141 53.2489 55.5015 53.4903 55.0936 53.6549C55.3348 53.8085 55.5673 54.028 55.7976 54.3023C56.0279 54.5766 56.3492 55.0594 56.7648 55.7397C57.017 56.1677 57.2254 56.4968 57.3899 56.7163L57.7847 57.254H56.5016L56.1726 56.7492C56.1617 56.7273 56.1398 56.6944 56.1069 56.6505L55.8985 56.3542L55.5586 55.7946L55.1967 55.202C54.9664 54.8838 54.769 54.6315 54.5826 54.4559C54.3962 54.2694 54.2317 54.1377 54.0781 54.0499C53.9246 53.9621 53.6724 53.9182 53.3215 53.9182H53.0364V57.2441H51.9639L52.0034 57.2693ZM53.4004 50.5913H53.0824V52.991H53.4882C54.0365 52.991 54.4093 52.9438 54.6067 52.8484C54.815 52.7551 54.9686 52.6125 55.0892 52.4226C55.2098 52.2317 55.2647 52.0144 55.2647 51.7719C55.2647 51.5305 55.2098 51.3166 55.0782 51.1223C54.9576 50.9358 54.7821 50.7932 54.5519 50.7163C54.3216 50.6395 53.9487 50.5956 53.4224 50.5956L53.4004 50.5913ZM58.6312 49.6673H59.7059V57.2693H58.6312V49.6673ZM60.7367 49.6564H67.0093V50.6242H64.3884V57.2693H63.3137V50.6242H60.7367V49.6564ZM72.5362 49.6673H73.8411L71.0667 53.2467V57.2704H69.9701V53.2467L67.2067 49.6673H68.5007L70.5184 52.2866L72.5581 49.6673H72.5362Z" fill="white"/>
</svg>
