<svg width="63" height="14" viewBox="0 0 63 14" fill="none" xmlns="http://www.w3.org/2000/svg">
<path d="M39.6584 4.29593C40.0183 4.29593 40.3128 4.26317 40.6072 4.29593C40.7054 4.29593 40.8362 4.45972 40.8689 4.55799C41.3924 6.19592 41.9486 7.89935 42.472 9.53727C42.5047 9.66831 42.5702 9.76658 42.6029 9.99589C42.93 9.0459 43.1918 8.22694 43.4862 7.3097C43.8134 6.35971 44.1078 5.37695 44.435 4.45972C44.4677 4.29593 44.5658 4.19765 44.7621 4.23041C45.0893 4.23041 45.4819 4.13213 45.7109 4.26317C45.9399 4.3942 45.9726 4.7873 46.0708 5.11489C46.5615 6.58902 47.085 8.0959 47.5757 9.57003C47.6084 9.66831 47.6739 9.73382 47.7066 9.93038C47.7393 9.76658 47.8047 9.66831 47.8374 9.53727C48.3609 7.89935 48.9171 6.19592 49.4078 4.49248C49.506 4.23041 49.5714 4.13213 49.8658 4.16489C50.0949 4.19765 50.3239 4.16489 50.5856 4.16489C50.5529 4.29593 50.5529 4.3942 50.4874 4.49248C49.7677 6.62177 49.0152 8.78383 48.2955 10.9459C48.1973 11.208 48.0665 11.3062 47.8047 11.3062C47.0195 11.3062 47.0195 11.3062 46.7905 10.5528C46.2671 8.98038 45.7109 7.37522 45.2202 5.83557C45.1875 5.7373 45.122 5.67178 45.0893 5.47523C44.7621 6.42522 44.5004 7.24418 44.206 8.0959C43.8788 9.07866 43.5516 10.0614 43.2245 11.0442C43.1263 11.2735 43.0609 11.3717 42.8319 11.3717C41.9813 11.3717 41.9813 11.3717 41.7196 10.5855C41.098 8.62004 40.4436 6.65453 39.7893 4.68903C39.7566 4.59075 39.6912 4.42696 39.6584 4.29593Z" fill="white"/>
<path d="M32.7554 6.19585C32.7554 6.35964 32.7554 6.55619 32.7554 6.71999C32.7554 8.16136 32.7554 9.56997 32.7554 11.0113C32.7554 11.3389 32.7227 11.6337 32.6572 11.8958C32.4936 12.6165 32.0356 13.1079 31.3159 13.3372C30.3344 13.5993 29.3529 13.6648 28.3714 13.3699C27.6517 13.2062 27.2264 12.6165 27.1609 11.9286C27.4227 11.9286 27.6844 11.9286 27.9461 11.9286C28.0443 11.9286 28.1097 12.0268 28.1097 12.0596C28.2733 12.5182 28.6986 12.682 29.1239 12.7148C29.5819 12.7475 30.0727 12.7475 30.498 12.682C31.2504 12.551 31.643 12.0596 31.7085 11.2406C31.7085 11.0113 31.7085 10.782 31.7085 10.4544C30.9887 11.4372 30.0727 11.5355 29.0257 11.4044C28.3714 11.3062 27.7498 11.0113 27.3245 10.4217C26.5393 9.40618 26.7029 7.66998 27.5862 6.81826C28.4696 6.03206 30.5634 5.73723 31.6757 6.94929C31.6757 6.68723 31.6757 6.45792 31.6757 6.22861C32.1338 6.19585 32.3955 6.19585 32.7554 6.19585ZM27.9461 8.71825C27.9461 9.83204 28.6986 10.5855 29.8764 10.5527C30.9887 10.5527 31.8066 9.79928 31.8066 8.71825C31.8066 7.60446 31.0541 6.85102 29.8764 6.85102C28.6986 6.88378 27.9461 7.60446 27.9461 8.71825Z" fill="white"/>
<path d="M17.7713 11.339C17.4114 11.339 17.117 11.339 16.7571 11.339C16.7571 8.98035 16.7571 6.6545 16.7571 4.2959C17.0842 4.2959 17.4114 4.2959 17.7713 4.2959C17.7713 5.24589 17.7713 6.13037 17.7713 7.11312C19.3744 7.11312 20.9774 7.11312 22.5805 7.11312C22.5805 6.16313 22.5805 5.27865 22.5805 4.36142C22.9404 4.36142 23.3003 4.36142 23.5947 4.36142C23.5947 6.72002 23.5947 9.04587 23.5947 11.4045C23.2676 11.4045 22.9404 11.4045 22.6132 11.4045C22.6132 11.2734 22.6132 11.1752 22.6132 11.0441C22.6132 10.1597 22.6132 9.27518 22.6132 8.42346C22.6132 8.19415 22.5151 8.09588 22.2861 8.09588C20.912 8.09588 19.4725 8.09588 18.0984 8.09588C17.8694 8.09588 17.7713 8.12863 17.7713 8.42346C17.7713 9.30794 17.7713 10.1597 17.7713 11.0441C17.7713 11.0769 17.7713 11.1752 17.7713 11.339Z" fill="white"/>
<path d="M62.8868 9.07861C61.2837 9.07861 59.7134 9.07861 58.1757 9.07861C58.2084 9.83206 58.6992 10.4217 59.5171 10.651C60.2695 10.8803 61.2837 10.6183 61.6436 9.93033C61.6763 9.89757 61.7745 9.7993 61.8726 9.7993C62.1343 9.7993 62.3961 9.7993 62.7232 9.7993C62.6905 9.89757 62.6905 9.96309 62.6251 10.0614C62.1671 10.9131 61.48 11.4045 60.5313 11.5027C60.0078 11.5355 59.4516 11.5027 58.9282 11.3717C57.685 11.0114 56.9979 9.99585 57.0634 8.52172C57.0961 7.30966 57.9467 6.29415 59.1899 6.13035C59.7788 6.03208 60.335 6.03208 60.9239 6.16311C62.2325 6.39242 63.0177 7.63724 62.8868 9.07861ZM61.8399 8.25965C61.8072 7.30966 60.9566 6.75276 59.8769 6.81828C58.9936 6.85104 58.2411 7.57173 58.2739 8.25965C59.4189 8.25965 60.6294 8.25965 61.8399 8.25965Z" fill="white"/>
<path d="M34.9146 11.339C34.5874 11.339 34.293 11.339 33.9658 11.339C33.9658 8.98035 33.9658 6.6545 33.9658 4.2959C34.293 4.2959 34.5874 4.2959 34.9146 4.2959C34.9146 5.14762 34.9146 6.03209 34.9146 6.88381C34.9473 6.88381 35.0127 6.88381 35.0127 6.88381C35.8633 5.90106 36.943 5.8683 38.0553 6.16313C38.7096 6.32692 39.1349 6.88381 39.1349 7.6045C39.1677 8.81656 39.1349 9.96311 39.1349 11.1752C39.1349 11.2079 39.1349 11.2734 39.1022 11.339C38.7751 11.339 38.4806 11.339 38.1535 11.339C38.1535 11.2079 38.1535 11.1097 38.1535 10.9786C38.1535 9.99586 38.1535 9.04587 38.1535 8.09588C38.1535 7.44071 37.8917 7.01485 37.172 6.88381C36.8121 6.85106 36.4522 6.85106 36.0924 6.88381C35.3399 7.04761 34.9473 7.6045 34.8819 8.35794C34.8819 9.20966 34.8819 10.0941 34.8819 10.9459C34.9146 11.0769 34.9146 11.2079 34.9146 11.339Z" fill="white"/>
<path d="M53.3335 6.19588C53.6607 6.19588 53.9551 6.19588 54.2823 6.19588C54.2823 6.45795 54.2823 6.78553 54.2823 7.0476L54.315 7.08036C54.8384 6.22864 55.5909 5.86829 56.5724 6.06485C56.5724 6.42519 56.5724 6.72001 56.5724 7.0476C56.2452 7.0476 55.9508 7.0476 55.6236 7.0476C54.8711 7.08036 54.3477 7.63725 54.2495 8.32518C54.2168 9.1769 54.2168 10.0286 54.2168 10.8803C54.2168 11.0114 54.2168 11.1424 54.2168 11.339C53.8897 11.339 53.5952 11.339 53.2681 11.339C53.3335 9.60276 53.3335 7.93208 53.3335 6.19588Z" fill="white"/>
<path d="M51.1416 6.1958C51.4688 6.1958 51.7632 6.1958 52.0904 6.1958C52.0904 7.932 52.0904 9.63543 52.0904 11.3716C51.7632 11.3716 51.4688 11.3716 51.1416 11.3716C51.1416 9.60268 51.1416 7.932 51.1416 6.1958Z" fill="white"/>
<path d="M24.969 11.339C24.969 9.60276 24.969 7.89932 24.969 6.22864C25.2962 6.22864 25.5906 6.22864 25.9178 6.22864C25.9178 7.96483 25.9178 9.66827 25.9178 11.339C25.5906 11.339 25.2962 11.339 24.969 11.339Z" fill="white"/>
<path d="M51.1416 5.27857C51.1416 4.91823 51.1416 4.6234 51.1416 4.26306C51.4688 4.26306 51.7632 4.26306 52.0904 4.26306C52.0904 4.59065 52.0904 4.91823 52.0904 5.27857C51.7632 5.27857 51.4688 5.27857 51.1416 5.27857Z" fill="white"/>
<path d="M24.969 4.26306C25.2962 4.26306 25.5906 4.26306 25.9178 4.26306C25.9178 4.6234 25.9178 4.91823 25.9178 5.27857C25.5906 5.27857 25.2962 5.27857 24.969 5.27857C24.969 4.91823 24.969 4.6234 24.969 4.26306Z" fill="white"/>
<path d="M11.7842 11.3389C11.6206 11.5027 11.4571 11.6993 11.2935 11.863C11.1299 11.6337 10.9336 11.4044 10.77 11.2406C10.9009 11.1096 11.0317 10.9786 11.228 10.8475C11.3916 10.9458 11.5879 11.1424 11.7842 11.3389Z" fill="white"/>
<path d="M0.889893 10.1924C1.1189 10.0614 1.34792 9.93035 1.60964 9.79932C1.70779 9.96311 1.83866 10.1269 1.9368 10.3235C1.70779 10.4545 1.54421 10.651 1.28248 10.8148C1.1189 10.5855 1.02076 10.4217 0.889893 10.1924Z" fill="white"/>
<path d="M13.2239 6.0321C13.3875 6.78555 13.3548 6.81831 12.5042 6.68727C12.5042 6.52348 12.5042 6.32693 12.4714 6.09762C12.7332 6.13038 12.9949 6.09762 13.2239 6.0321Z" fill="white"/>
<path d="M3.70341 11.9613C3.57254 12.1906 3.44168 12.4199 3.24538 12.6165C3.0818 12.4854 2.88551 12.3544 2.65649 12.2234C2.82007 11.9941 3.01637 11.8303 3.17995 11.601C3.37625 11.6992 3.50711 11.8303 3.70341 11.9613Z" fill="white"/>
<path d="M8.05469 0.43042C8.2837 0.463178 8.51271 0.528695 8.70901 0.594212C8.64358 0.889038 8.57815 1.08559 8.51271 1.38041C8.34913 1.34766 8.15284 1.28214 7.98926 1.24938C8.02197 0.954555 8.02197 0.758004 8.05469 0.43042Z" fill="white"/>
<path d="M9.78861 1.02C9.65774 1.24931 9.55959 1.47862 9.42873 1.74069C9.26515 1.64241 9.06885 1.60965 8.90527 1.51138C9.00342 1.24931 9.06885 1.02 9.167 0.757935C9.39601 0.823451 9.55959 0.921727 9.78861 1.02Z" fill="white"/>
<path d="M9.854 1.93724C9.98487 1.67517 10.1157 1.44586 10.2466 1.21655C10.4102 1.34759 10.6065 1.44586 10.8355 1.60965C10.6719 1.83896 10.5083 2.06827 10.3447 2.26482C10.1484 2.16655 10.0176 2.03551 9.854 1.93724Z" fill="white"/>
<path d="M11.1626 3.05103C10.999 2.92 10.8355 2.78897 10.7046 2.65793C10.8682 2.42862 11.0645 2.26483 11.228 2.03552C11.3916 2.19931 11.5552 2.39587 11.7188 2.55966C11.5879 2.75621 11.3589 2.92 11.1626 3.05103Z" fill="white"/>
<path d="M12.5039 3.73899C12.2422 3.87002 12.0459 4.00105 11.7842 4.13209C11.686 3.9683 11.5552 3.8045 11.457 3.60795C11.686 3.44416 11.9151 3.28037 12.1114 3.11658C12.2749 3.31313 12.4058 3.50968 12.5039 3.73899Z" fill="white"/>
<path d="M7.92385 12.6493C7.95656 12.9114 8.022 13.1407 8.05471 13.4355C7.8257 13.4683 7.59669 13.4683 7.33496 13.5338C7.33496 13.2717 7.33496 13.0424 7.33496 12.7476C7.53126 12.6821 7.69484 12.6821 7.92385 12.6493Z" fill="white"/>
<path d="M1.08621 4.65619C1.0535 4.81998 0.988066 5.01653 0.922634 5.24584C0.660906 5.21308 0.431894 5.14757 0.170166 5.08205C0.202882 4.85274 0.30103 4.62343 0.333746 4.42688C0.595474 4.4924 0.79177 4.59067 1.08621 4.65619Z" fill="white"/>
<path d="M9.23242 12.2562C9.396 12.1579 9.5923 12.0924 9.75588 11.9941C9.88674 12.2234 10.0176 12.4528 10.1485 12.7148C9.91946 12.8131 9.75588 12.8786 9.52687 13.0424C9.396 12.7476 9.29785 12.5183 9.23242 12.2562Z" fill="white"/>
<path d="M12.1116 4.75446C12.3733 4.65619 12.6023 4.59067 12.864 4.42688C12.9622 4.65619 12.9949 4.8855 13.0931 5.08205C12.8313 5.18032 12.6023 5.21308 12.3406 5.31136C12.2424 5.11481 12.2097 4.91826 12.1116 4.75446Z" fill="white"/>
<path d="M0.857204 7.34241C0.88992 7.57172 0.88992 7.73551 0.955352 7.93206C0.693624 7.96482 0.464612 8.03033 0.202884 8.09585C0.170168 7.86654 0.170168 7.63723 0.104736 7.44068C0.301032 7.44068 0.595476 7.37517 0.857204 7.34241Z" fill="white"/>
<path d="M12.864 9.60277C12.7332 9.83208 12.635 9.99588 12.5042 10.2252C12.2752 10.0942 12.0461 9.96312 11.8499 9.76657C11.948 9.60277 12.0134 9.40622 12.1116 9.24243C12.3733 9.37347 12.6023 9.47174 12.864 9.60277Z" fill="white"/>
<path d="M2.46024 2.16651C2.32938 2.29755 2.23123 2.42858 2.06765 2.62513C1.83864 2.46134 1.67506 2.29755 1.44604 2.13375C1.60962 1.96996 1.77321 1.77341 1.90407 1.60962C2.03493 1.80617 2.23123 2.00272 2.46024 2.16651Z" fill="white"/>
<path d="M12.3733 8.2597C12.406 8.03039 12.4714 7.89935 12.5042 7.67004C12.7332 7.7028 12.9949 7.7028 13.2566 7.76832C13.2239 7.99763 13.1585 8.22694 13.1258 8.489C12.8967 8.42349 12.635 8.35797 12.3733 8.2597Z" fill="white"/>
<path d="M5.24122 12.551C5.4048 12.5838 5.60109 12.6493 5.83011 12.6821C5.79739 12.9441 5.73196 13.1734 5.69924 13.4683C5.47023 13.4355 5.24122 13.3372 5.04492 13.3045C5.07764 13.0424 5.17579 12.8131 5.24122 12.551Z" fill="white"/>
<path d="M7.66213 1.18383C7.43312 1.18383 7.30225 1.18383 7.07324 1.15107C7.07324 0.889003 7.07324 0.626936 7.07324 0.364868C7.30225 0.364868 7.46583 0.397627 7.72756 0.397627C7.69485 0.659694 7.69485 0.921761 7.66213 1.18383Z" fill="white"/>
<path d="M10.2466 9.83203C10.4756 10.0613 10.6392 10.1924 10.8682 10.4217C10.7373 10.5527 10.541 10.651 10.4102 10.782C10.2793 10.6182 10.083 10.4217 9.91943 10.1924C10.0176 10.0613 10.1484 9.96306 10.2466 9.83203Z" fill="white"/>
<path d="M8.38186 2.16651C8.28371 2.42858 8.251 2.69065 8.15285 2.95271C7.98927 2.91996 7.82569 2.91996 7.66211 2.85444C7.69483 2.59237 7.76026 2.3303 7.79297 2.06824C8.02198 2.06824 8.18557 2.13375 8.38186 2.16651Z" fill="white"/>
<path d="M7.53127 2.82172C7.36769 2.82172 7.20411 2.82172 7.07324 2.82172C7.07324 2.55966 7.07324 2.29759 7.07324 2.03552C7.23682 2.03552 7.43312 2.03552 7.66213 2.03552C7.56398 2.29759 7.53127 2.55966 7.53127 2.82172Z" fill="white"/>
<path d="M11.1301 6.75269C11.1301 6.5889 11.0974 6.42511 11.0974 6.29408C11.3591 6.26132 11.5882 6.1958 11.8826 6.1958C11.8826 6.42511 11.9153 6.5889 11.9153 6.78545C11.6536 6.75269 11.3919 6.75269 11.1301 6.75269Z" fill="white"/>
<path d="M9.42872 2.62524C9.5923 2.75628 9.75588 2.85455 9.91946 2.98559C9.75588 3.2149 9.5923 3.4442 9.42872 3.608C9.29786 3.50972 9.167 3.4442 9.03613 3.34593C9.167 3.0511 9.29786 2.82179 9.42872 2.62524Z" fill="white"/>
<path d="M10.6065 4.8527C10.5083 4.72167 10.4429 4.59064 10.3447 4.39409C10.5737 4.26305 10.7373 4.0665 10.9663 3.90271C11.0645 4.0665 11.1953 4.23029 11.2935 4.39409C11.0318 4.6234 10.8028 4.72167 10.6065 4.8527Z" fill="white"/>
<path d="M2.49294 9.30786C2.59109 9.4389 2.65653 9.56993 2.75467 9.76648C2.52566 9.93027 2.36208 10.0941 2.10035 10.2579C2.00221 10.0941 1.93677 9.93027 1.77319 9.76648C2.03492 9.56993 2.26393 9.4389 2.49294 9.30786Z" fill="white"/>
<path d="M1.15161 7.93211C1.1189 7.7028 1.1189 7.53901 1.05347 7.40798C1.70779 7.17867 1.90408 7.27694 1.90408 7.80108C1.64235 7.83384 1.41334 7.8666 1.15161 7.93211Z" fill="white"/>
<path d="M11.7842 8.12864C11.5225 8.03037 11.2935 7.99761 11.0317 7.89934C11.0645 7.73554 11.1299 7.57175 11.1299 7.40796C11.3916 7.44072 11.6206 7.50623 11.8824 7.53899C11.8824 7.73554 11.8496 7.93209 11.7842 8.12864Z" fill="white"/>
<path d="M10.6392 3.60791C10.4102 3.7717 10.2466 3.96825 10.0176 4.13204C9.91944 4.00101 9.85401 3.86998 9.69043 3.73894C9.82129 3.57515 10.0176 3.3786 10.1812 3.14929C10.3775 3.31308 10.5083 3.47688 10.6392 3.60791Z" fill="white"/>
<path d="M2.75466 3.18205C2.52565 3.01826 2.36207 2.85447 2.13306 2.69067C2.26392 2.52688 2.39478 2.36309 2.52565 2.23206C2.68923 2.46136 2.88552 2.62516 3.11454 2.82171C2.98367 2.9855 2.88553 3.05102 2.75466 3.18205Z" fill="white"/>
<path d="M7.89114 12.2562C7.66212 12.2889 7.53126 12.2889 7.30225 12.3544C7.30225 12.0924 7.30225 11.8303 7.30225 11.5682C7.43311 11.5682 7.56397 11.5355 7.76027 11.47C7.79299 11.6993 7.8257 11.9613 7.89114 12.2562Z" fill="white"/>
<path d="M3.37622 11.339C3.5398 11.1097 3.7361 10.8803 3.89968 10.7166C4.03054 10.8148 4.1614 10.8803 4.29227 11.0441C4.1614 11.2734 4.03054 11.5028 3.83424 11.6993C3.70338 11.6338 3.57252 11.47 3.37622 11.339Z" fill="white"/>
<path d="M1.83865 5.50796C1.57692 5.4752 1.34791 5.37693 1.08618 5.34417C1.1189 5.18038 1.18433 4.98383 1.24976 4.75452C1.51149 4.85279 1.7405 4.91831 2.00223 5.01658C1.90408 5.21313 1.90408 5.34417 1.83865 5.50796Z" fill="white"/>
<path d="M11.3589 9.53723C11.1299 9.4062 10.9009 9.20965 10.7046 9.07861C10.8027 8.91482 10.8355 8.81655 10.9336 8.62C11.1626 8.75103 11.3916 8.8493 11.6534 8.98034C11.5225 9.17689 11.4571 9.34068 11.3589 9.53723Z" fill="white"/>
<path d="M9.16701 10.8475C9.29787 11.0768 9.42874 11.3062 9.5596 11.5682C9.39602 11.6665 9.19972 11.732 9.03614 11.8303C8.938 11.5682 8.87256 11.3389 8.70898 11.0768C8.87256 10.9786 9.00343 10.9458 9.16701 10.8475Z" fill="white"/>
<path d="M5.33936 12.1907C5.4375 11.9286 5.50294 11.6993 5.60108 11.4373C5.73195 11.47 5.86281 11.5355 6.05911 11.5355C6.02639 11.7976 5.96096 12.0597 5.92824 12.3217C5.69923 12.289 5.53565 12.2562 5.33936 12.1907Z" fill="white"/>
<path d="M10.9666 5.7373C10.9338 5.5735 10.8684 5.40971 10.8357 5.24592C11.0647 5.14764 11.3264 5.08213 11.5554 4.91833C11.6536 5.14764 11.6863 5.27868 11.719 5.50799C11.49 5.60626 11.2283 5.63902 10.9666 5.7373Z" fill="white"/>
<path d="M8.57814 2.19934C8.74172 2.29762 8.93801 2.33037 9.10159 2.42865C8.97073 2.65796 8.87258 2.88727 8.74172 3.14933C8.61085 3.11658 8.47999 3.0183 8.28369 2.98554C8.41456 2.75623 8.5127 2.52693 8.57814 2.19934Z" fill="white"/>
<path d="M8.5127 4.23033C8.64356 3.96826 8.77442 3.73895 8.90529 3.50964C9.03615 3.60792 9.16702 3.67344 9.29788 3.77171C9.1343 4.00102 8.97072 4.23033 8.80714 4.39412C8.74171 4.36136 8.64356 4.26309 8.5127 4.23033Z" fill="white"/>
<path d="M7.04053 2.98547C7.17139 2.98547 7.30226 2.98547 7.49855 3.01823C7.46584 3.2803 7.46584 3.54237 7.4004 3.80443C7.26954 3.80443 7.17139 3.80443 7.04053 3.80443C7.04053 3.54237 7.04053 3.2803 7.04053 2.98547Z" fill="white"/>
<path d="M4.42311 4.03381C4.58669 4.26312 4.78298 4.42691 4.94656 4.62346C4.84842 4.72174 4.8157 4.78726 4.68484 4.95105C4.45582 4.78726 4.29224 4.62346 4.06323 4.45967C4.1941 4.29588 4.25953 4.16485 4.42311 4.03381Z" fill="white"/>
<path d="M9.52688 3.90271C9.62503 4.03374 9.69046 4.16478 9.78861 4.29581C9.62503 4.4596 9.42873 4.6234 9.19972 4.81995C9.10157 4.72167 9.03614 4.65615 8.93799 4.55788C9.167 4.36133 9.3633 4.16478 9.52688 3.90271Z" fill="white"/>
<path d="M3.9651 8.98029C3.86695 8.84926 3.80152 8.71823 3.70337 8.58719C3.93238 8.45616 4.16139 8.32513 4.42312 8.19409C4.52127 8.29237 4.55398 8.35788 4.65213 8.52168C4.42312 8.68547 4.19411 8.8165 3.9651 8.98029Z" fill="white"/>
<path d="M5.04469 10.0613C4.91383 9.93029 4.78296 9.83201 4.6521 9.73374C4.81568 9.50443 5.01198 9.34064 5.14284 9.11133C5.24099 9.2096 5.30642 9.24236 5.47 9.34064C5.30642 9.56995 5.17556 9.79925 5.04469 10.0613Z" fill="white"/>
<path d="M8.87259 10.1596C8.70901 10.2579 8.61086 10.2906 8.41456 10.3889C8.31641 10.1268 8.25098 9.89754 8.0874 9.63547C8.21827 9.60271 8.31641 9.50444 8.44728 9.47168C8.57814 9.66823 8.74172 9.86478 8.87259 10.1596Z" fill="white"/>
<path d="M7.89113 3.90279C7.76026 3.87003 7.66211 3.87003 7.53125 3.80451C7.56397 3.54245 7.6294 3.28038 7.6294 3.01831C7.79298 3.05107 7.95656 3.11659 8.12014 3.11659C8.02199 3.41141 7.95656 3.64072 7.89113 3.90279Z" fill="white"/>
<path d="M9.396 5.08207C9.62501 4.91828 9.85402 4.75449 10.0503 4.5907C10.1485 4.72173 10.2139 4.85277 10.312 4.9838C10.083 5.11483 9.85402 5.24587 9.59229 5.3769C9.55958 5.27863 9.49414 5.14759 9.396 5.08207Z" fill="white"/>
<path d="M9.88696 7.63724C9.91968 7.50621 9.91968 7.37517 9.98511 7.24414C10.2468 7.2769 10.4759 7.34242 10.7376 7.37517C10.7049 7.53897 10.7049 7.70276 10.6394 7.86655C10.3777 7.80103 10.1487 7.70276 9.88696 7.63724Z" fill="white"/>
<path d="M10.4102 8.42345C10.312 8.58725 10.2793 8.68552 10.1812 8.88207C9.95216 8.75104 9.72315 8.62 9.52686 8.42345C9.625 8.29242 9.65772 8.19414 9.69044 8.06311C9.98488 8.19414 10.1812 8.32518 10.4102 8.42345Z" fill="white"/>
<path d="M8.93799 9.11131C9.03614 9.01304 9.10157 8.94752 9.19972 8.84924C9.3633 9.01304 9.59231 9.20959 9.78861 9.37338C9.65774 9.50441 9.55959 9.60269 9.46145 9.73372C9.26515 9.53717 9.13428 9.30786 8.93799 9.11131Z" fill="white"/>
<path d="M7.17139 9.83207C7.26954 9.83207 7.33497 9.79932 7.49855 9.79932C7.53126 10.0614 7.5967 10.2907 7.62941 10.5855C7.46583 10.5855 7.30225 10.6183 7.13867 10.6183C7.17139 10.3562 7.17139 10.0941 7.17139 9.83207Z" fill="white"/>
<path d="M9.88672 6.03204C9.85401 5.90101 9.78858 5.80273 9.75586 5.6717C9.98487 5.57343 10.2139 5.50791 10.4756 5.34412C10.5083 5.47515 10.5738 5.6717 10.6392 5.80273C10.3775 5.90101 10.1485 5.96653 9.88672 6.03204Z" fill="white"/>
<path d="M8.02197 3.96829C8.12012 3.70622 8.18555 3.47691 8.2837 3.21484C8.41456 3.2476 8.54543 3.31312 8.74172 3.37864C8.61086 3.6407 8.51271 3.87001 8.38185 4.09932C8.25099 4.09932 8.12012 4.0338 8.02197 3.96829Z" fill="white"/>
<path d="M3.37622 7.57174C3.34351 7.40795 3.34351 7.24416 3.27808 7.08037C3.5398 7.08037 3.80153 7.04761 4.06326 7.04761C4.06326 7.17864 4.06326 7.27692 4.09598 7.40795C3.86696 7.47347 3.60524 7.50623 3.37622 7.57174Z" fill="white"/>
<path d="M4.2598 5.73721C4.22708 5.86824 4.16165 5.96652 4.16165 6.09755C3.89992 6.06479 3.67091 5.99928 3.40918 5.93376C3.4419 5.76997 3.50733 5.60617 3.54004 5.44238C3.80177 5.54066 3.99807 5.63893 4.2598 5.73721Z" fill="white"/>
<path d="M6.32082 10.5528C6.15724 10.52 5.99366 10.4545 5.83008 10.4545C5.92823 10.1924 5.99366 9.96312 6.09181 9.70105C6.22267 9.73381 6.32082 9.73381 6.45168 9.79933C6.41897 10.0286 6.35353 10.2907 6.32082 10.5528Z" fill="white"/>
<path d="M10.7373 6.3269C10.7373 6.4907 10.7373 6.65449 10.77 6.78552C10.5083 6.78552 10.2793 6.78552 10.0176 6.78552C10.0176 6.68725 10.0176 6.55621 9.98486 6.42518C10.2466 6.39242 10.4756 6.35966 10.7373 6.3269Z" fill="white"/>
</svg>
