<svg width="71" height="16" viewBox="0 0 71 16" fill="none" xmlns="http://www.w3.org/2000/svg">
<path d="M25.3376 9.4893H19.9722V13.191H18.7944V5.32898H19.9722V8.47379H25.3376V5.32898H26.5154V13.191H25.3376V9.4893Z" fill="white"/>
<path d="M28.0205 5.26343H29.1329V6.47549H28.0205V5.26343ZM28.0205 7.42548H29.1329V13.2237H28.0205V7.42548Z" fill="white"/>
<path d="M35.676 8.27719C35.2179 7.62202 34.3346 7.29443 33.3859 7.29443C31.8482 7.29443 30.2124 8.14615 30.2124 10.2754C30.2124 12.4047 31.8482 13.2565 33.3859 13.2565C34.1383 13.2565 35.0217 13.0927 35.6433 12.1754H35.676V13.0272C35.676 13.9772 35.0871 14.7634 33.5167 14.7634C32.4698 14.7634 31.7828 14.5668 31.5865 13.8134H30.4741C30.7031 15.4185 32.1426 15.6151 33.3859 15.6151C35.7741 15.6151 36.7556 14.7634 36.7556 12.6996V7.42547H35.6433L35.676 8.27719ZM35.676 10.2754C35.676 11.4548 34.8908 12.3065 33.5494 12.3065C32.2081 12.3065 31.4229 11.4548 31.4229 10.2754C31.4229 9.09615 32.2081 8.21167 33.5494 8.21167C34.8581 8.21167 35.676 9.09615 35.676 10.2754Z" fill="white"/>
<path d="M38.0642 5.26343H39.1766V8.30996H39.2093C39.7327 7.491 40.6488 7.22893 41.4667 7.22893C42.8735 7.22893 43.8877 7.81858 43.8877 9.25996V13.191H42.7753V9.48926C42.7753 8.63755 42.2519 8.14617 41.0741 8.14617C40.0599 8.14617 39.1766 8.73582 39.1766 9.88237V13.2237H38.0642V5.26343Z" fill="white"/>
<path d="M50.5617 6.67207H50.529L48.3698 13.191H47.0611L44.4766 5.32898H45.7525L47.7482 11.7169H47.7809L49.9074 5.32898H51.2815L53.4407 11.7169H53.4735L55.4691 5.32898H56.6796L54.0296 13.191H52.7537L50.5617 6.67207Z" fill="white"/>
<path d="M57.3013 5.26343H58.4136V6.47549H57.3013V5.26343ZM57.3013 7.42548H58.4136V13.2237H57.3013V7.42548Z" fill="white"/>
<path d="M59.7549 7.42555H60.8672V8.47382H60.8999C61.4234 7.55659 62.1759 7.229 62.8956 7.229C63.1573 7.229 63.3209 7.229 63.5172 7.29452V8.47382C63.2555 8.40831 63.0265 8.37555 62.732 8.37555C61.6197 8.37555 60.8672 9.03072 60.8672 10.2755V13.2238H59.7549V7.42555Z" fill="white"/>
<path d="M70.4858 10.6359V10.5048C70.4858 8.11348 68.8827 7.229 67.3451 7.229C65.0877 7.229 63.9753 8.63762 63.9753 10.3083C63.9753 11.979 65.0877 13.4203 67.3451 13.4203C68.4901 13.4203 69.7661 12.8635 70.3222 11.4548H69.1445C68.7519 12.2738 67.9013 12.4704 67.2797 12.4704C66.2982 12.4704 65.2185 11.8152 65.1531 10.6359H70.4858ZM65.1858 9.78416C65.3494 8.73589 66.2655 8.14624 67.2797 8.14624C68.3266 8.14624 69.1445 8.73589 69.308 9.78416H65.1858Z" fill="white"/>
<path d="M8.29248 1.82373V0.906494C8.55421 0.906494 8.81594 0.939253 9.07766 0.939253L8.97952 1.85649C8.7505 1.82373 8.52149 1.82373 8.29248 1.82373Z" fill="white"/>
<path d="M10.321 2.18404L10.6155 1.29956C10.8772 1.39784 11.1062 1.49611 11.3352 1.62714L10.9426 2.44611C10.7464 2.34783 10.5501 2.24955 10.321 2.18404Z" fill="white"/>
<path d="M9.27417 1.922L9.40503 1.00476C9.66676 1.03752 9.92849 1.10304 10.1575 1.16855L9.89577 2.05303C9.73219 1.98751 9.50318 1.95475 9.27417 1.922Z" fill="white"/>
<path d="M9.73218 3.88753L10.0266 3.00305C10.2229 3.06857 10.4519 3.16684 10.6482 3.26512L10.2556 4.08408C10.0593 4.01856 9.89576 3.95305 9.73218 3.88753Z" fill="white"/>
<path d="M8.26001 3.69092V2.77368C8.48902 2.77368 8.71803 2.77368 8.94705 2.80644L8.81618 3.72368C8.61989 3.69092 8.45631 3.69092 8.26001 3.69092Z" fill="white"/>
<path d="M8.97949 3.72375L9.11036 2.80652C9.33937 2.83928 9.56838 2.87204 9.76468 2.93755L9.50295 3.85479C9.33937 3.78927 9.17579 3.75651 8.97949 3.72375Z" fill="white"/>
<path d="M8.26001 4.77197V3.85474C8.45631 3.85474 8.61989 3.85474 8.81618 3.88749L8.68532 4.80473C8.55445 4.77197 8.39087 4.77197 8.26001 4.77197Z" fill="white"/>
<path d="M9.3396 4.96846L9.63404 4.08398C9.79762 4.1495 9.9612 4.21502 10.1248 4.31329L9.73219 5.13225C9.60133 5.06674 9.47046 5.00122 9.3396 4.96846Z" fill="white"/>
<path d="M8.78345 4.80469L8.91431 3.88745C9.11061 3.92021 9.27419 3.95297 9.47048 4.01848L9.20876 4.90296C9.07789 4.8702 8.94703 4.83745 8.78345 4.80469Z" fill="white"/>
<path d="M12.4148 3.49445L13.0037 2.80652C13.2 3.00307 13.3963 3.16686 13.5599 3.36341L12.8728 3.95306C12.742 3.82203 12.5784 3.65824 12.4148 3.49445Z" fill="white"/>
<path d="M11.3679 2.67548L11.8259 1.88928C12.055 2.02032 12.284 2.18411 12.4803 2.3479L11.9241 3.06859C11.7605 2.93755 11.5642 2.80652 11.3679 2.67548Z" fill="white"/>
<path d="M11.2698 4.7392L11.8587 4.05127C12.0222 4.21506 12.1858 4.37885 12.3494 4.54265L11.6624 5.1323C11.5315 5.00126 11.4006 4.87023 11.2698 4.7392Z" fill="white"/>
<path d="M10.5173 4.21504L10.9426 3.42883C11.1389 3.52711 11.3352 3.65814 11.4988 3.82193L10.9426 4.54262C10.8118 4.41159 10.6482 4.31331 10.5173 4.21504Z" fill="white"/>
<path d="M10.4519 5.62372L11.0408 4.93579C11.1717 5.06682 11.3025 5.19786 11.4334 5.32889L10.7463 5.91854C10.6482 5.82027 10.5501 5.72199 10.4519 5.62372Z" fill="white"/>
<path d="M9.92847 5.23054L10.3865 4.44434C10.5501 4.54261 10.7137 4.64089 10.8445 4.77192L10.2883 5.45985C10.1575 5.36157 10.0266 5.29605 9.92847 5.23054Z" fill="white"/>
<path d="M14.4104 9.09607L15.2937 9.2271C15.261 9.48917 15.1956 9.75124 15.1302 10.0133L14.2468 9.75124C14.3123 9.55469 14.3777 9.32538 14.4104 9.09607Z" fill="white"/>
<path d="M13.9524 5.8203L14.803 5.45996C14.9012 5.68927 14.9993 5.95134 15.0647 6.21341L14.1487 6.47547C14.116 6.24616 14.0505 6.04961 13.9524 5.8203Z" fill="white"/>
<path d="M4.53031 13.8789L4.03957 14.6651C3.81056 14.5013 3.61426 14.3375 3.41797 14.1737L4.00686 13.453C4.17044 13.6168 4.33402 13.7478 4.53031 13.8789Z" fill="white"/>
<path d="M2.69827 3.46165L2.01123 2.872C2.17481 2.67545 2.33839 2.4789 2.53469 2.28235L3.15629 2.93752C2.99271 3.10131 2.82913 3.2651 2.69827 3.46165Z" fill="white"/>
<path d="M9.27419 14.6322L9.43777 15.5494C9.17605 15.5822 8.91432 15.615 8.65259 15.615L8.61987 14.6977C8.81617 14.6977 9.04518 14.6977 9.27419 14.6322Z" fill="white"/>
<path d="M12.4475 13.0271C12.6111 12.8961 12.7747 12.7323 12.9382 12.5685L13.5926 13.1909C13.429 13.3874 13.2327 13.584 13.0364 13.7478L12.4475 13.0271Z" fill="white"/>
<path d="M1.45487 9.42372L0.571537 9.62027C0.506105 9.35821 0.473389 9.09614 0.473389 8.83407L1.38944 8.76855C1.38944 8.96511 1.42215 9.19441 1.45487 9.42372Z" fill="white"/>
<path d="M13.2654 4.50985L13.9851 3.98572C14.1487 4.21503 14.2796 4.44434 14.4104 4.67364L13.6253 5.0995C13.5271 4.90295 13.3962 4.7064 13.2654 4.50985Z" fill="white"/>
<path d="M14.345 7.39271L15.2283 7.29443C15.261 7.5565 15.261 7.81857 15.261 8.08064H14.345C14.4104 7.85133 14.3777 7.62202 14.345 7.39271Z" fill="white"/>
<path d="M13.9524 10.865L14.7703 11.2581C14.6722 11.4874 14.5413 11.7167 14.3777 11.946L13.6252 11.4546C13.7561 11.2909 13.8543 11.0943 13.9524 10.865Z" fill="white"/>
<path d="M11.3025 13.9116L11.7278 14.7306C11.4988 14.8616 11.2698 14.9599 11.0081 15.0582L10.6809 14.2064C10.9099 14.1082 11.1062 14.0099 11.3025 13.9116Z" fill="white"/>
<path d="M6.9512 14.6978L6.78762 15.5822C6.5259 15.5495 6.26417 15.4512 6.03516 15.3857L6.3296 14.5012C6.49318 14.5995 6.72219 14.665 6.9512 14.6978Z" fill="white"/>
<path d="M2.53446 12.0444L1.782 12.5685C1.61842 12.3392 1.48755 12.1099 1.3894 11.8806L2.17459 11.4547C2.30545 11.684 2.4036 11.8806 2.53446 12.0444Z" fill="white"/>
<path d="M1.42215 6.40996L0.538818 6.21341C0.60425 5.95134 0.669682 5.68927 0.76783 5.45996L1.61845 5.78755C1.5203 5.95134 1.45487 6.18065 1.42215 6.40996Z" fill="white"/>
<path d="M5.18461 12.8305L4.72658 13.6167C4.53029 13.4857 4.36671 13.3546 4.17041 13.2236L4.7593 12.5029C4.89016 12.634 5.05374 12.7322 5.18461 12.8305Z" fill="white"/>
<path d="M2.56717 9.19434L1.68384 9.39089C1.65113 9.16159 1.61841 8.93228 1.58569 8.70297L2.50174 8.63745C2.50174 8.834 2.53446 9.03055 2.56717 9.19434Z" fill="white"/>
<path d="M3.51614 4.11679L2.79639 3.5599C2.92725 3.36335 3.09083 3.19956 3.25441 3.03577L3.87601 3.69094C3.74515 3.82197 3.61429 3.98576 3.51614 4.11679Z" fill="white"/>
<path d="M12.4802 6.37719L13.3308 6.01685C13.429 6.2134 13.4944 6.44271 13.5271 6.67201L12.6438 6.90132C12.6111 6.73753 12.5457 6.57374 12.4802 6.37719Z" fill="white"/>
<path d="M11.4988 11.9134C11.6296 11.7823 11.7605 11.6513 11.8914 11.5203L12.5457 12.1427C12.4148 12.3065 12.2512 12.4703 12.055 12.6013L11.4988 11.9134Z" fill="white"/>
<path d="M12.8728 8.83398L13.7561 8.96502C13.7234 9.19433 13.6907 9.42364 13.6253 9.62019L12.7419 9.35812C12.8074 9.19433 12.8401 8.99778 12.8728 8.83398Z" fill="white"/>
<path d="M9.0779 13.3219L9.24148 14.2391C9.01247 14.2719 8.78346 14.3047 8.58716 14.3047L8.52173 13.3547C8.71802 13.3547 8.91432 13.3219 9.0779 13.3219Z" fill="white"/>
<path d="M11.9568 5.49264L12.7093 4.96851C12.8401 5.16506 12.971 5.36161 13.0691 5.55816L12.2839 5.98402C12.1531 5.78747 12.0549 5.62367 11.9568 5.49264Z" fill="white"/>
<path d="M12.8074 7.52369L13.7234 7.42542C13.7561 7.65472 13.7561 7.88403 13.7561 8.11334H12.8401C12.8401 7.91679 12.8401 7.72024 12.8074 7.52369Z" fill="white"/>
<path d="M12.6111 10.1771L13.429 10.5702C13.3308 10.7668 13.2327 10.9633 13.1018 11.1599L12.3494 10.6685C12.4475 10.5047 12.5129 10.3409 12.6111 10.1771Z" fill="white"/>
<path d="M10.6482 12.634L11.0735 13.453C10.8772 13.5513 10.6809 13.6495 10.4846 13.7478L10.1575 12.8961C10.3211 12.7978 10.4846 12.7323 10.6482 12.634Z" fill="white"/>
<path d="M7.21292 13.4202L7.01662 14.3375C6.78761 14.3047 6.59132 14.2392 6.3623 14.1737L6.65675 13.2892C6.85304 13.3219 7.01662 13.3875 7.21292 13.4202Z" fill="white"/>
<path d="M3.51615 11.3892L2.76368 11.9461C2.63282 11.7495 2.53467 11.553 2.43652 11.3564L3.22171 10.9305C3.31986 11.0943 3.418 11.2581 3.51615 11.3892Z" fill="white"/>
<path d="M2.46903 6.67191L1.58569 6.47536C1.61841 6.24605 1.68384 6.0495 1.78199 5.82019L2.63261 6.14777C2.56717 6.31157 2.53446 6.47536 2.46903 6.67191Z" fill="white"/>
<path d="M5.70803 6.01681L4.98828 5.45992C5.08643 5.29612 5.21729 5.16509 5.34816 5.03406L5.96976 5.68923C5.87161 5.7875 5.77347 5.91853 5.70803 6.01681Z" fill="white"/>
<path d="M5.05374 8.80123L4.17041 8.99778C4.1377 8.83398 4.10498 8.63743 4.10498 8.44088L5.02103 8.37537C4.98831 8.5064 5.02103 8.63743 5.05374 8.80123Z" fill="white"/>
<path d="M10.4192 10.6685C10.5173 10.5702 10.6155 10.4719 10.7136 10.3737L11.368 10.9961C11.2371 11.1271 11.1062 11.2581 10.9754 11.3892L10.4192 10.6685Z" fill="white"/>
<path d="M11.3025 6.86848L12.1531 6.54089C12.2185 6.70469 12.284 6.90124 12.3167 7.06503L11.4334 7.29434C11.4006 7.13054 11.3679 6.99951 11.3025 6.86848Z" fill="white"/>
<path d="M8.81593 11.4219L8.97951 12.3391C8.78322 12.3719 8.61964 12.4046 8.42334 12.4046L8.39062 11.4874C8.5542 11.4874 8.68507 11.4546 8.81593 11.4219Z" fill="white"/>
<path d="M11.5315 8.60474L12.4148 8.73577C12.3821 8.93232 12.3494 9.09611 12.3167 9.29266L11.4333 9.0306C11.4661 8.89956 11.4988 8.76853 11.5315 8.60474Z" fill="white"/>
<path d="M6.4932 10.9634L6.03517 11.7496C5.87159 11.6513 5.74073 11.553 5.57715 11.422L6.16604 10.7013C6.26418 10.7996 6.39505 10.8651 6.4932 10.9634Z" fill="white"/>
<path d="M10.9426 6.18063L11.6951 5.65649C11.7932 5.82029 11.8914 5.98408 11.9895 6.14787L11.2044 6.57373C11.1062 6.40994 11.0081 6.2789 10.9426 6.18063Z" fill="white"/>
<path d="M11.5315 7.68751L12.4148 7.58923C12.4475 7.78578 12.4475 7.94958 12.4475 8.14613H11.5315C11.5642 7.98233 11.5642 7.8513 11.5315 7.68751Z" fill="white"/>
<path d="M11.2698 9.52197L12.0877 9.91507C12.0222 10.0789 11.9241 10.2427 11.826 10.4065L11.0735 9.91507C11.1389 9.78404 11.2043 9.65301 11.2698 9.52197Z" fill="white"/>
<path d="M9.89577 11.0616L10.3211 11.8806C10.1575 11.9789 9.99391 12.0444 9.83033 12.1099L9.50317 11.2582C9.63404 11.1927 9.7649 11.1272 9.89577 11.0616Z" fill="white"/>
<path d="M7.63821 11.4219L7.47463 12.3064C7.27833 12.2736 7.11475 12.2409 6.95117 12.1754L7.24562 11.2909C7.37648 11.3564 7.50734 11.3892 7.63821 11.4219Z" fill="white"/>
<path d="M5.57719 10.0461L4.82472 10.5702C4.72657 10.4064 4.62842 10.2426 4.53027 10.0788L5.31546 9.65295C5.41361 9.81675 5.51175 9.91502 5.57719 10.0461Z" fill="white"/>
<path d="M5.05374 7.35985L4.17041 7.1633C4.20313 6.96674 4.26856 6.80295 4.33399 6.63916L5.18461 6.96674C5.15189 7.06502 5.08646 7.22881 5.05374 7.35985Z" fill="white"/>
</svg>
