<svg width="9" height="5" viewBox="0 0 9 5" fill="none" xmlns="http://www.w3.org/2000/svg">
<path d="M3.94227 4.02201C3.71326 4.02201 3.51696 4.02201 3.25523 4.02201C3.15708 3.26857 3.05894 2.48237 2.96079 1.72892V1.76168C2.73178 2.48237 2.53548 3.20305 2.27375 3.92374C2.27375 3.9565 2.24104 4.02201 2.17561 4.02201C2.07746 4.02201 2.04474 4.02201 1.94659 4.02201C1.71758 3.26857 1.48857 2.48237 1.22684 1.69617C1.12869 2.44961 1.09598 3.23581 0.932399 4.02201C0.703387 4.02201 0.507089 4.02201 0.245361 4.02201C0.376225 2.94099 0.539806 1.85996 0.67067 0.778931H0.703388C0.9324 0.778931 1.16141 0.778931 1.42314 0.778931C1.45586 0.778931 1.45586 0.77893 1.52129 0.811689C1.71758 1.40134 1.9466 2.05651 2.07746 2.67892C2.07746 2.67892 2.07746 2.71168 2.11017 2.71168C2.11017 2.67892 2.14289 2.6134 2.14289 2.58064C2.33919 1.99099 2.50277 1.4341 2.69906 0.811689C2.69906 0.77893 2.73178 0.778931 2.79721 0.778931C3.02622 0.778931 3.25523 0.778931 3.51696 0.778931C3.54968 0.778931 3.54968 0.77893 3.54968 0.811689C3.5824 1.17203 3.64783 1.53237 3.68054 1.89272C3.71326 2.25306 3.77869 2.6134 3.81141 2.90823C3.81141 3.23581 3.87684 3.59615 3.94227 4.02201C3.94227 3.9565 3.94227 3.9565 3.94227 4.02201Z" fill="white"/>
<path d="M5.02175 4.02201C4.79274 4.02201 4.59644 4.02201 4.33472 4.02201C4.33472 2.94099 4.33472 1.85996 4.33472 0.778931H4.36743C4.72731 0.778931 5.08719 0.778931 5.44706 0.778931C5.74151 0.778931 6.00323 0.877206 6.19953 1.10651C6.33039 1.30307 6.42854 1.53237 6.39583 1.79444C6.39583 2.02375 6.29768 2.2203 6.16681 2.38409C6.03595 2.58064 5.80694 2.67892 5.61064 2.71168C5.47978 2.74444 5.3162 2.74444 5.18533 2.74444C5.15262 2.74444 5.05447 2.74444 5.05447 2.74444C5.05447 2.74444 5.02175 2.77719 5.02175 2.84271C5.02175 3.20305 5.02175 3.59615 5.02175 3.9565C5.02175 3.92374 5.02175 3.9565 5.02175 4.02201ZM5.02175 2.15478C5.15262 2.15478 5.25077 2.15478 5.34891 2.15478C5.47978 2.15478 5.70879 1.95823 5.70879 1.79444C5.7415 1.59789 5.61064 1.4341 5.41435 1.36858C5.28348 1.33582 5.18533 1.33582 5.05447 1.33582C5.02175 1.33582 5.02175 1.33582 5.02175 1.36858C5.02175 1.59789 5.02175 1.8272 5.02175 2.08927C5.02175 2.12203 5.02175 2.12202 5.02175 2.15478Z" fill="white"/>
<path d="M6.65771 3.56334C6.78858 3.36679 6.98488 3.203 7.08302 3.03921C7.18117 3.07197 7.21388 3.17024 7.27932 3.17024C7.41018 3.26852 7.50833 3.30128 7.63919 3.30128C7.83549 3.33403 8.0645 3.10473 8.0645 2.87542C8.0645 2.77714 7.96635 2.74438 7.93364 2.67887C7.80277 2.58059 7.70463 2.54783 7.57376 2.48232C7.47562 2.44956 7.4429 2.44956 7.37747 2.38404C6.95216 2.25301 6.78858 1.82715 6.85401 1.46681C6.95216 1.00819 7.21389 0.680604 7.70463 0.615087C7.99907 0.582328 8.2608 0.615086 8.48981 0.74612C8.58796 0.778878 8.68611 0.877154 8.78425 0.942671C8.65339 1.0737 8.58796 1.17198 8.45709 1.30301C8.42438 1.33577 8.35894 1.43405 8.32623 1.43405C8.29351 1.43405 8.19537 1.40129 8.19537 1.33577C8.0645 1.30301 7.99907 1.20474 7.86821 1.20474C7.73734 1.20474 7.67191 1.2375 7.63919 1.33577C7.60648 1.4668 7.60648 1.53232 7.63919 1.66336C7.67191 1.69611 7.77006 1.79439 7.77006 1.79439C7.90092 1.89266 7.99907 1.92542 8.12993 1.92542C8.2608 2.0237 8.45709 2.05646 8.58796 2.22025C8.91512 2.58059 8.94783 3.07197 8.62067 3.46507C8.29351 3.89093 7.73734 4.02196 7.18117 3.79265C6.98487 3.82541 6.82129 3.69438 6.65771 3.56334Z" fill="white"/>
</svg>
