<svg width="23" height="5" viewBox="0 0 23 5" fill="none" xmlns="http://www.w3.org/2000/svg">
<path d="M0.951661 0.811367C1.14796 0.778608 1.40969 0.74585 1.70413 0.74585C2.09672 0.74585 2.39117 0.844125 2.55475 1.00792C2.71833 1.13895 2.81647 1.36826 2.81647 1.66309C2.81647 1.95791 2.71832 2.15446 2.58746 2.31825C2.39116 2.54756 2.03129 2.64584 1.6387 2.64584C1.50783 2.64584 1.40968 2.64584 1.31154 2.61308V3.8579H0.918945V0.811367H0.951661ZM1.34425 2.31825C1.4424 2.35101 1.54055 2.35101 1.67141 2.35101C2.16215 2.35101 2.4566 2.1217 2.4566 1.69584C2.4566 1.30274 2.16215 1.10619 1.73685 1.10619C1.57327 1.10619 1.4424 1.10619 1.37697 1.13895V2.31825H1.34425Z" fill="white"/>
<path d="M5.23738 2.74408C5.23738 3.56304 4.68121 3.92338 4.12504 3.92338C3.53615 3.92338 3.07812 3.49752 3.07812 2.77684C3.07812 2.02339 3.56887 1.59753 4.19047 1.59753C4.81207 1.59753 5.23738 2.05615 5.23738 2.74408ZM3.50343 2.77684C3.50343 3.26821 3.79788 3.62856 4.19047 3.62856C4.58306 3.62856 4.87751 3.26821 4.87751 2.77684C4.87751 2.41649 4.68121 1.92512 4.22319 1.92512C3.69973 1.89236 3.50343 2.35098 3.50343 2.77684Z" fill="white"/>
<path d="M5.89162 1.66309L6.18606 2.77687C6.25149 3.03894 6.31692 3.26825 6.34964 3.49756C6.41507 3.26825 6.48051 3.03894 6.54594 2.80963L6.90581 1.66309H7.23297L7.56013 2.77687C7.65828 3.03894 7.691 3.26825 7.75643 3.49756C7.78914 3.26825 7.85458 3.03894 7.92001 2.77687L8.24717 1.66309H8.63976L7.92001 3.89066H7.56013L7.23297 2.84239C7.16754 2.58032 7.10211 2.38377 7.03668 2.1217C6.97125 2.38377 6.90581 2.61308 6.84038 2.84239L6.4805 3.89066H6.12063L5.46631 1.66309H5.89162Z" fill="white"/>
<path d="M9.26149 2.84231C9.26149 3.3992 9.62136 3.62851 10.014 3.62851C10.3084 3.62851 10.472 3.563 10.6356 3.53024L10.701 3.82506C10.5701 3.89058 10.3084 3.9561 9.94853 3.9561C9.26149 3.9561 8.8689 3.49748 8.8689 2.84231C8.8689 2.18714 9.26149 1.63025 9.91581 1.63025C10.6356 1.63025 10.8319 2.25266 10.8319 2.67852C10.8319 2.77679 10.8319 2.80955 10.8319 2.87507H9.26149V2.84231ZM10.4393 2.54748C10.4393 2.28542 10.3411 1.89232 9.88309 1.89232C9.4905 1.89232 9.2942 2.25266 9.26149 2.54748H10.4393Z" fill="white"/>
<path d="M11.3552 2.35098C11.3552 2.08891 11.3552 1.8596 11.3225 1.66305H11.6824V2.08891H11.7151C11.8132 1.79408 12.0423 1.59753 12.3367 1.59753C12.3694 1.59753 12.4021 1.59753 12.4349 1.59753V1.99063C12.4021 1.99063 12.3367 1.99063 12.304 1.99063C12.0095 1.99063 11.8133 2.21994 11.7478 2.51477C11.7478 2.58029 11.7151 2.6458 11.7151 2.71132V3.89062H11.3225V2.35098H11.3552Z" fill="white"/>
<path d="M13.0237 2.84231C13.0237 3.3992 13.3836 3.62851 13.7762 3.62851C14.0706 3.62851 14.2342 3.563 14.3978 3.53024L14.4632 3.82506C14.3323 3.89058 14.0706 3.9561 13.7107 3.9561C13.0237 3.9561 12.6311 3.49748 12.6311 2.84231C12.6311 2.18714 13.0237 1.63025 13.678 1.63025C14.3978 1.63025 14.5941 2.25266 14.5941 2.67852C14.5941 2.77679 14.5941 2.80955 14.5941 2.87507H13.0237V2.84231ZM14.2015 2.54748C14.2015 2.28542 14.1033 1.89232 13.6453 1.89232C13.2527 1.89232 13.0564 2.25266 13.0237 2.54748H14.2015Z" fill="white"/>
<path d="M16.9825 0.614746V3.30094C16.9825 3.49749 16.9825 3.7268 17.0152 3.85783H16.6553L16.6226 3.46473C16.4918 3.72679 16.23 3.89059 15.8702 3.89059C15.3467 3.89059 14.9214 3.43197 14.9214 2.7768C14.9214 2.02336 15.3794 1.5975 15.9029 1.5975C16.23 1.5975 16.459 1.76129 16.5572 1.92508V0.614746H16.9825ZM16.5899 2.54749C16.5899 2.48198 16.5899 2.41646 16.5572 2.3837C16.4918 2.12163 16.2627 1.92508 15.9683 1.92508C15.543 1.92508 15.314 2.28543 15.314 2.7768C15.314 3.23542 15.543 3.59576 15.9683 3.59576C16.23 3.59576 16.4918 3.43197 16.5572 3.10439C16.5572 3.03887 16.5899 3.00611 16.5899 2.94059V2.54749Z" fill="white"/>
<path d="M18.6182 3.89054C18.6182 3.72675 18.6509 3.5302 18.6509 3.33365V0.647461H19.0435V2.05607C19.1743 1.79401 19.4361 1.66297 19.7959 1.66297C20.3521 1.66297 20.7447 2.12159 20.7447 2.80952C20.7447 3.59572 20.254 3.98882 19.7632 3.98882C19.4361 3.98882 19.1743 3.85779 19.0108 3.56296L18.978 3.9233H18.6182V3.89054ZM19.0435 2.97331C19.0435 3.03883 19.0435 3.07158 19.0762 3.10434C19.1416 3.39917 19.4033 3.56296 19.6651 3.56296C20.0904 3.56296 20.3521 3.23538 20.3521 2.71124C20.3521 2.25262 20.1231 1.89228 19.6978 1.89228C19.4361 1.89228 19.1743 2.08883 19.0762 2.38366C19.0762 2.41642 19.0435 2.48193 19.0435 2.54745V2.97331Z" fill="white"/>
<path d="M21.3662 1.66309L21.857 2.97342C21.9224 3.10446 21.9551 3.30101 21.9878 3.43204C22.0205 3.30101 22.086 3.13721 22.1187 2.97342L22.544 1.66309H22.9693L22.3804 3.23549C22.086 3.98893 21.8897 4.38203 21.628 4.61134C21.4317 4.77514 21.2354 4.84065 21.1372 4.87341L21.0391 4.54583C21.1372 4.51307 21.2681 4.44755 21.3989 4.34928C21.4971 4.251 21.6607 4.11997 21.7261 3.89066C21.7588 3.8579 21.7588 3.82514 21.7588 3.79238C21.7588 3.75962 21.7588 3.72687 21.7261 3.69411L20.9082 1.66309H21.3662Z" fill="white"/>
</svg>
