<svg width="85" height="85" viewBox="0 0 85 85" fill="none" xmlns="http://www.w3.org/2000/svg">
<g clip-path="url(#clip0_1985_2662)">
<path d="M32.3376 41.4893H26.9722V45.191H25.7944V37.329H26.9722V40.4738H32.3376V37.329H33.5154V45.191H32.3376V41.4893Z" fill="white"/>
<path d="M35.0205 37.2634H36.1329V38.4755H35.0205V37.2634ZM35.0205 39.4255H36.1329V45.2237H35.0205V39.4255Z" fill="white"/>
<path d="M42.676 40.2772C42.2179 39.622 41.3346 39.2944 40.3859 39.2944C38.8482 39.2944 37.2124 40.1462 37.2124 42.2754C37.2124 44.4047 38.8482 45.2565 40.3859 45.2565C41.1383 45.2565 42.0217 45.0927 42.6433 44.1754H42.676V45.0272C42.676 45.9772 42.0871 46.7634 40.5167 46.7634C39.4698 46.7634 38.7828 46.5668 38.5865 45.8134H37.4741C37.7031 47.4185 39.1426 47.6151 40.3859 47.6151C42.7741 47.6151 43.7556 46.7634 43.7556 44.6996V39.4255H42.6433L42.676 40.2772ZM42.676 42.2754C42.676 43.4548 41.8908 44.3065 40.5494 44.3065C39.2081 44.3065 38.4229 43.4548 38.4229 42.2754C38.4229 41.0961 39.2081 40.2117 40.5494 40.2117C41.8581 40.2117 42.676 41.0961 42.676 42.2754Z" fill="white"/>
<path d="M45.0642 37.2634H46.1766V40.31H46.2093C46.7327 39.491 47.6488 39.2289 48.4667 39.2289C49.8735 39.2289 50.8877 39.8186 50.8877 41.26V45.191H49.7753V41.4893C49.7753 40.6375 49.2519 40.1462 48.0741 40.1462C47.0599 40.1462 46.1766 40.7358 46.1766 41.8824V45.2237H45.0642V37.2634Z" fill="white"/>
<path d="M57.5617 38.6721H57.529L55.3698 45.191H54.0611L51.4766 37.329H52.7525L54.7482 43.7169H54.7809L56.9074 37.329H58.2815L60.4407 43.7169H60.4735L62.4691 37.329H63.6796L61.0296 45.191H59.7537L57.5617 38.6721Z" fill="white"/>
<path d="M64.3013 37.2634H65.4136V38.4755H64.3013V37.2634ZM64.3013 39.4255H65.4136V45.2237H64.3013V39.4255Z" fill="white"/>
<path d="M66.7549 39.4256H67.8672V40.4738H67.8999C68.4234 39.5566 69.1759 39.229 69.8956 39.229C70.1573 39.229 70.3209 39.229 70.5172 39.2945V40.4738C70.2555 40.4083 70.0265 40.3755 69.732 40.3755C68.6197 40.3755 67.8672 41.0307 67.8672 42.2755V45.2238H66.7549V39.4256Z" fill="white"/>
<path d="M77.4858 42.6359V42.5048C77.4858 40.1135 75.8827 39.229 74.3451 39.229C72.0877 39.229 70.9753 40.6376 70.9753 42.3083C70.9753 43.979 72.0877 45.4203 74.3451 45.4203C75.4901 45.4203 76.7661 44.8635 77.3222 43.4548H76.1445C75.7519 44.2738 74.9013 44.4704 74.2797 44.4704C73.2982 44.4704 72.2185 43.8152 72.1531 42.6359H77.4858ZM72.1858 41.7842C72.3494 40.7359 73.2655 40.1462 74.2797 40.1462C75.3266 40.1462 76.1445 40.7359 76.308 41.7842H72.1858Z" fill="white"/>
<path d="M15.2925 33.8237V32.9065C15.5542 32.9065 15.8159 32.9393 16.0777 32.9393L15.9795 33.8565C15.7505 33.8237 15.5215 33.8237 15.2925 33.8237Z" fill="white"/>
<path d="M17.321 34.184L17.6155 33.2996C17.8772 33.3978 18.1062 33.4961 18.3352 33.6271L17.9426 34.4461C17.7464 34.3478 17.5501 34.2496 17.321 34.184Z" fill="white"/>
<path d="M16.2742 33.922L16.405 33.0048C16.6668 33.0375 16.9285 33.103 17.1575 33.1686L16.8958 34.053C16.7322 33.9875 16.5032 33.9548 16.2742 33.922Z" fill="white"/>
<path d="M16.7322 35.8875L17.0266 35.0031C17.2229 35.0686 17.4519 35.1668 17.6482 35.2651L17.2556 36.0841C17.0593 36.0186 16.8958 35.953 16.7322 35.8875Z" fill="white"/>
<path d="M15.26 35.6909V34.7737C15.489 34.7737 15.718 34.7737 15.947 34.8064L15.8162 35.7237C15.6199 35.6909 15.4563 35.6909 15.26 35.6909Z" fill="white"/>
<path d="M15.9795 35.7238L16.1104 34.8065C16.3394 34.8393 16.5684 34.872 16.7647 34.9376L16.5029 35.8548C16.3394 35.7893 16.1758 35.7565 15.9795 35.7238Z" fill="white"/>
<path d="M15.26 36.772V35.8547C15.4563 35.8547 15.6199 35.8547 15.8162 35.8875L15.6853 36.8047C15.5545 36.772 15.3909 36.772 15.26 36.772Z" fill="white"/>
<path d="M16.3396 36.9685L16.634 36.084C16.7976 36.1495 16.9612 36.215 17.1248 36.3133L16.7322 37.1323C16.6013 37.0667 16.4705 37.0012 16.3396 36.9685Z" fill="white"/>
<path d="M15.7834 36.8047L15.9143 35.8875C16.1106 35.9202 16.2742 35.953 16.4705 36.0185L16.2088 36.903C16.0779 36.8702 15.947 36.8374 15.7834 36.8047Z" fill="white"/>
<path d="M19.4148 35.4944L20.0037 34.8065C20.2 35.0031 20.3963 35.1669 20.5599 35.3634L19.8728 35.9531C19.742 35.822 19.5784 35.6582 19.4148 35.4944Z" fill="white"/>
<path d="M18.3679 34.6755L18.8259 33.8893C19.055 34.0203 19.284 34.1841 19.4803 34.3479L18.9241 35.0686C18.7605 34.9376 18.5642 34.8065 18.3679 34.6755Z" fill="white"/>
<path d="M18.2698 36.7392L18.8587 36.0513C19.0222 36.2151 19.1858 36.3789 19.3494 36.5426L18.6624 37.1323C18.5315 37.0013 18.4006 36.8702 18.2698 36.7392Z" fill="white"/>
<path d="M17.5173 36.215L17.9426 35.4288C18.1389 35.5271 18.3352 35.6581 18.4988 35.8219L17.9426 36.5426C17.8118 36.4116 17.6482 36.3133 17.5173 36.215Z" fill="white"/>
<path d="M17.4519 37.6237L18.0408 36.9358C18.1717 37.0668 18.3025 37.1979 18.4334 37.3289L17.7463 37.9185C17.6482 37.8203 17.5501 37.722 17.4519 37.6237Z" fill="white"/>
<path d="M16.9285 37.2305L17.3865 36.4443C17.5501 36.5426 17.7137 36.6409 17.8445 36.7719L17.2883 37.4598C17.1575 37.3616 17.0266 37.2961 16.9285 37.2305Z" fill="white"/>
<path d="M21.4104 41.0961L22.2937 41.2271C22.261 41.4892 22.1956 41.7512 22.1302 42.0133L21.2468 41.7512C21.3123 41.5547 21.3777 41.3254 21.4104 41.0961Z" fill="white"/>
<path d="M20.9524 37.8203L21.803 37.46C21.9012 37.6893 21.9993 37.9513 22.0647 38.2134L21.1487 38.4755C21.116 38.2462 21.0505 38.0496 20.9524 37.8203Z" fill="white"/>
<path d="M11.5303 45.8789L11.0396 46.6651C10.8106 46.5013 10.6143 46.3375 10.418 46.1737L11.0069 45.453C11.1704 45.6168 11.334 45.7478 11.5303 45.8789Z" fill="white"/>
<path d="M9.69827 35.4617L9.01123 34.872C9.17481 34.6754 9.33839 34.4789 9.53469 34.2823L10.1563 34.9375C9.99271 35.1013 9.82913 35.2651 9.69827 35.4617Z" fill="white"/>
<path d="M16.2742 46.6322L16.4378 47.5494C16.176 47.5822 15.9143 47.615 15.6526 47.615L15.6199 46.6977C15.8162 46.6977 16.0452 46.6977 16.2742 46.6322Z" fill="white"/>
<path d="M19.4475 45.0271C19.6111 44.8961 19.7747 44.7323 19.9382 44.5685L20.5926 45.1909C20.429 45.3874 20.2327 45.584 20.0364 45.7478L19.4475 45.0271Z" fill="white"/>
<path d="M8.45487 41.4237L7.57154 41.6203C7.5061 41.3582 7.47339 41.0961 7.47339 40.8341L8.38944 40.7686C8.38944 40.9651 8.42215 41.1944 8.45487 41.4237Z" fill="white"/>
<path d="M20.2654 36.5099L20.9851 35.9857C21.1487 36.215 21.2796 36.4443 21.4104 36.6736L20.6253 37.0995C20.5271 36.903 20.3962 36.7064 20.2654 36.5099Z" fill="white"/>
<path d="M21.345 39.3927L22.2283 39.2944C22.261 39.5565 22.261 39.8186 22.261 40.0806H21.345C21.4104 39.8513 21.3777 39.622 21.345 39.3927Z" fill="white"/>
<path d="M20.9524 42.865L21.7703 43.2581C21.6722 43.4874 21.5413 43.7167 21.3777 43.946L20.6252 43.4546C20.7561 43.2909 20.8543 43.0943 20.9524 42.865Z" fill="white"/>
<path d="M18.3025 45.9116L18.7278 46.7306C18.4988 46.8616 18.2698 46.9599 18.0081 47.0582L17.6809 46.2064C17.9099 46.1082 18.1062 46.0099 18.3025 45.9116Z" fill="white"/>
<path d="M13.9512 46.6978L13.7876 47.5822C13.5259 47.5495 13.2642 47.4512 13.0352 47.3857L13.3296 46.5012C13.4932 46.5995 13.7222 46.665 13.9512 46.6978Z" fill="white"/>
<path d="M9.53446 44.0444L8.782 44.5685C8.61842 44.3392 8.48755 44.1099 8.3894 43.8806L9.17459 43.4547C9.30545 43.684 9.4036 43.8806 9.53446 44.0444Z" fill="white"/>
<path d="M8.42215 38.41L7.53882 38.2134C7.60425 37.9513 7.66968 37.6893 7.76783 37.46L8.61845 37.7875C8.5203 37.9513 8.45487 38.1806 8.42215 38.41Z" fill="white"/>
<path d="M12.1846 44.8305L11.7266 45.6167C11.5303 45.4857 11.3667 45.3546 11.1704 45.2236L11.7593 44.5029C11.8902 44.634 12.0537 44.7322 12.1846 44.8305Z" fill="white"/>
<path d="M9.56717 41.1943L8.68384 41.3909C8.65113 41.1616 8.61841 40.9323 8.58569 40.703L9.50174 40.6375C9.50174 40.834 9.53446 41.0306 9.56717 41.1943Z" fill="white"/>
<path d="M10.5161 36.1168L9.79639 35.5599C9.92725 35.3634 10.0908 35.1996 10.2544 35.0358L10.876 35.6909C10.7452 35.822 10.6143 35.9858 10.5161 36.1168Z" fill="white"/>
<path d="M19.4802 38.3772L20.3308 38.0168C20.429 38.2134 20.4944 38.4427 20.5271 38.672L19.6438 38.9013C19.6111 38.7375 19.5457 38.5737 19.4802 38.3772Z" fill="white"/>
<path d="M18.4988 43.9134C18.6296 43.7823 18.7605 43.6513 18.8914 43.5203L19.5457 44.1427C19.4148 44.3065 19.2512 44.4703 19.055 44.6013L18.4988 43.9134Z" fill="white"/>
<path d="M19.8728 40.834L20.7561 40.965C20.7234 41.1943 20.6907 41.4236 20.6253 41.6202L19.7419 41.3581C19.8074 41.1943 19.8401 40.9978 19.8728 40.834Z" fill="white"/>
<path d="M16.0779 45.3219L16.2415 46.2391C16.0125 46.2719 15.7835 46.3047 15.5872 46.3047L15.5217 45.3547C15.718 45.3547 15.9143 45.3219 16.0779 45.3219Z" fill="white"/>
<path d="M18.9568 37.4926L19.7093 36.9685C19.8401 37.1651 19.971 37.3616 20.0691 37.5582L19.2839 37.984C19.1531 37.7875 19.0549 37.6237 18.9568 37.4926Z" fill="white"/>
<path d="M19.8074 39.5237L20.7234 39.4254C20.7561 39.6547 20.7561 39.884 20.7561 40.1133H19.8401C19.8401 39.9168 19.8401 39.7202 19.8074 39.5237Z" fill="white"/>
<path d="M19.6111 42.1771L20.429 42.5702C20.3308 42.7668 20.2327 42.9633 20.1018 43.1599L19.3494 42.6685C19.4475 42.5047 19.5129 42.3409 19.6111 42.1771Z" fill="white"/>
<path d="M17.6482 44.634L18.0735 45.453C17.8772 45.5513 17.6809 45.6495 17.4846 45.7478L17.1575 44.8961C17.3211 44.7978 17.4846 44.7323 17.6482 44.634Z" fill="white"/>
<path d="M14.2129 45.4202L14.0166 46.3375C13.7876 46.3047 13.5913 46.2392 13.3623 46.1737L13.6567 45.2892C13.853 45.3219 14.0166 45.3875 14.2129 45.4202Z" fill="white"/>
<path d="M10.5162 43.3892L9.76368 43.9461C9.63282 43.7495 9.53467 43.553 9.43652 43.3564L10.2217 42.9305C10.3199 43.0943 10.418 43.2581 10.5162 43.3892Z" fill="white"/>
<path d="M9.46903 38.6719L8.58569 38.4754C8.61841 38.246 8.68384 38.0495 8.78199 37.8202L9.63261 38.1478C9.56717 38.3116 9.53446 38.4754 9.46903 38.6719Z" fill="white"/>
<path d="M12.708 38.0168L11.9883 37.4599C12.0864 37.2961 12.2173 37.1651 12.3482 37.0341L12.9698 37.6892C12.8716 37.7875 12.7735 37.9185 12.708 38.0168Z" fill="white"/>
<path d="M12.0537 40.8012L11.1704 40.9978C11.1377 40.834 11.105 40.6374 11.105 40.4409L12.021 40.3754C11.9883 40.5064 12.021 40.6374 12.0537 40.8012Z" fill="white"/>
<path d="M17.4192 42.6685C17.5173 42.5702 17.6155 42.4719 17.7136 42.3737L18.368 42.9961C18.2371 43.1271 18.1062 43.2581 17.9754 43.3892L17.4192 42.6685Z" fill="white"/>
<path d="M18.3025 38.8685L19.1531 38.5409C19.2185 38.7047 19.284 38.9012 19.3167 39.065L18.4334 39.2943C18.4006 39.1305 18.3679 38.9995 18.3025 38.8685Z" fill="white"/>
<path d="M15.8159 43.4219L15.9795 44.3391C15.7832 44.3719 15.6196 44.4046 15.4233 44.4046L15.3906 43.4874C15.5542 43.4874 15.6851 43.4546 15.8159 43.4219Z" fill="white"/>
<path d="M18.5315 40.6047L19.4148 40.7358C19.3821 40.9323 19.3494 41.0961 19.3167 41.2927L18.4333 41.0306C18.4661 40.8996 18.4988 40.7685 18.5315 40.6047Z" fill="white"/>
<path d="M13.4932 42.9634L13.0352 43.7496C12.8716 43.6513 12.7407 43.553 12.5771 43.422L13.166 42.7013C13.2642 42.7996 13.395 42.8651 13.4932 42.9634Z" fill="white"/>
<path d="M17.9426 38.1806L18.6951 37.6565C18.7932 37.8203 18.8914 37.9841 18.9895 38.1479L18.2044 38.5737C18.1062 38.4099 18.0081 38.2789 17.9426 38.1806Z" fill="white"/>
<path d="M18.5315 39.6875L19.4148 39.5892C19.4475 39.7858 19.4475 39.9496 19.4475 40.1461H18.5315C18.5642 39.9823 18.5642 39.8513 18.5315 39.6875Z" fill="white"/>
<path d="M18.2698 41.522L19.0877 41.9151C19.0222 42.0789 18.9241 42.2427 18.826 42.4065L18.0735 41.9151C18.1389 41.784 18.2043 41.653 18.2698 41.522Z" fill="white"/>
<path d="M16.8958 43.0616L17.3211 43.8806C17.1575 43.9789 16.9939 44.0444 16.8303 44.1099L16.5032 43.2582C16.634 43.1927 16.7649 43.1272 16.8958 43.0616Z" fill="white"/>
<path d="M14.6382 43.4219L14.4746 44.3064C14.2783 44.2736 14.1148 44.2409 13.9512 44.1754L14.2456 43.2909C14.3765 43.3564 14.5073 43.3892 14.6382 43.4219Z" fill="white"/>
<path d="M12.5772 42.0461L11.8247 42.5702C11.7266 42.4064 11.6284 42.2426 11.5303 42.0788L12.3155 41.653C12.4136 41.8167 12.5118 41.915 12.5772 42.0461Z" fill="white"/>
<path d="M12.0537 39.3598L11.1704 39.1633C11.2031 38.9667 11.2686 38.803 11.334 38.6392L12.1846 38.9667C12.1519 39.065 12.0865 39.2288 12.0537 39.3598Z" fill="white"/>
<path d="M70.9423 51.022C70.7133 51.022 70.517 51.022 70.2552 51.022C70.1571 50.2686 70.0589 49.4824 69.9608 48.7289V48.7617C69.7318 49.4824 69.5355 50.2031 69.2738 50.9237C69.2738 50.9565 69.241 51.022 69.1756 51.022C69.0775 51.022 69.0447 51.022 68.9466 51.022C68.7176 50.2686 68.4886 49.4824 68.2268 48.6962C68.1287 49.4496 68.096 50.2358 67.9324 51.022C67.7034 51.022 67.5071 51.022 67.2454 51.022C67.3762 49.941 67.5398 48.86 67.6707 47.7789H67.7034C67.9324 47.7789 68.1614 47.7789 68.4231 47.7789C68.4559 47.7789 68.4559 47.7789 68.5213 47.8117C68.7176 48.4013 68.9466 49.0565 69.0775 49.6789C69.0775 49.6789 69.0775 49.7117 69.1102 49.7117C69.1102 49.6789 69.1429 49.6134 69.1429 49.5806C69.3392 48.991 69.5028 48.4341 69.6991 47.8117C69.6991 47.7789 69.7318 47.7789 69.7972 47.7789C70.0262 47.7789 70.2552 47.7789 70.517 47.7789C70.5497 47.7789 70.5497 47.7789 70.5497 47.8117C70.5824 48.172 70.6478 48.5324 70.6805 48.8927C70.7133 49.2531 70.7787 49.6134 70.8114 49.9082C70.8114 50.2358 70.8768 50.5962 70.9423 51.022C70.9423 50.9565 70.9423 50.9565 70.9423 51.022Z" fill="white"/>
<path d="M72.0218 51.022C71.7927 51.022 71.5964 51.022 71.3347 51.022C71.3347 49.941 71.3347 48.86 71.3347 47.7789H71.3674C71.7273 47.7789 72.0872 47.7789 72.4471 47.7789C72.7415 47.7789 73.0032 47.8772 73.1995 48.1065C73.3304 48.3031 73.4285 48.5324 73.3958 48.7944C73.3958 49.0238 73.2977 49.2203 73.1668 49.3841C73.036 49.5806 72.8069 49.6789 72.6106 49.7117C72.4798 49.7444 72.3162 49.7444 72.1853 49.7444C72.1526 49.7444 72.0545 49.7444 72.0545 49.7444C72.0545 49.7444 72.0218 49.7772 72.0218 49.8427C72.0218 50.2031 72.0218 50.5962 72.0218 50.9565C72.0218 50.9237 72.0218 50.9565 72.0218 51.022ZM72.0218 49.1548C72.1526 49.1548 72.2508 49.1548 72.3489 49.1548C72.4798 49.1548 72.7088 48.9582 72.7088 48.7944C72.7415 48.5979 72.6106 48.4341 72.4143 48.3686C72.2835 48.3358 72.1853 48.3358 72.0545 48.3358C72.0218 48.3358 72.0218 48.3358 72.0218 48.3686C72.0218 48.5979 72.0218 48.8272 72.0218 49.0893C72.0218 49.122 72.0218 49.122 72.0218 49.1548Z" fill="white"/>
<path d="M73.6577 50.5633C73.7886 50.3668 73.9849 50.203 74.083 50.0392C74.1812 50.072 74.2139 50.1702 74.2793 50.1702C74.4102 50.2685 74.5083 50.3013 74.6392 50.3013C74.8355 50.334 75.0645 50.1047 75.0645 49.8754C75.0645 49.7771 74.9664 49.7444 74.9336 49.6789C74.8028 49.5806 74.7046 49.5478 74.5738 49.4823C74.4756 49.4496 74.4429 49.4496 74.3775 49.384C73.9522 49.253 73.7886 48.8271 73.854 48.4668C73.9522 48.0082 74.2139 47.6806 74.7046 47.6151C74.9991 47.5823 75.2608 47.6151 75.4898 47.7461C75.588 47.7789 75.6861 47.8772 75.7843 47.9427C75.6534 48.0737 75.588 48.172 75.4571 48.303C75.4244 48.3358 75.3589 48.434 75.3262 48.434C75.2935 48.434 75.1954 48.4013 75.1954 48.3358C75.0645 48.303 74.9991 48.2047 74.8682 48.2047C74.7373 48.2047 74.6719 48.2375 74.6392 48.3358C74.6065 48.4668 74.6065 48.5323 74.6392 48.6634C74.6719 48.6961 74.7701 48.7944 74.7701 48.7944C74.9009 48.8927 74.9991 48.9254 75.1299 48.9254C75.2608 49.0237 75.4571 49.0565 75.588 49.2202C75.9151 49.5806 75.9478 50.072 75.6207 50.4651C75.2935 50.8909 74.7373 51.022 74.1812 50.7927C73.9849 50.8254 73.8213 50.6944 73.6577 50.5633Z" fill="white"/>
<path d="M43.9517 47.8114C44.148 47.7786 44.4097 47.7458 44.7041 47.7458C45.0967 47.7458 45.3912 47.8441 45.5547 48.0079C45.7183 48.139 45.8165 48.3683 45.8165 48.6631C45.8165 48.9579 45.7183 49.1545 45.5875 49.3183C45.3912 49.5476 45.0313 49.6458 44.6387 49.6458C44.5078 49.6458 44.4097 49.6458 44.3115 49.6131V50.8579H43.9189V47.8114H43.9517ZM44.3443 49.3183C44.4424 49.351 44.5405 49.351 44.6714 49.351C45.1622 49.351 45.4566 49.1217 45.4566 48.6958C45.4566 48.3027 45.1622 48.1062 44.7368 48.1062C44.5733 48.1062 44.4424 48.1062 44.377 48.139V49.3183H44.3443Z" fill="white"/>
<path d="M48.2374 49.7441C48.2374 50.563 47.6812 50.9234 47.125 50.9234C46.5361 50.9234 46.0781 50.4975 46.0781 49.7768C46.0781 49.0234 46.5689 48.5975 47.1905 48.5975C47.8121 48.5975 48.2374 49.0562 48.2374 49.7441ZM46.5034 49.7768C46.5034 50.2682 46.7979 50.6286 47.1905 50.6286C47.5831 50.6286 47.8775 50.2682 47.8775 49.7768C47.8775 49.4165 47.6812 48.9251 47.2232 48.9251C46.6997 48.8924 46.5034 49.351 46.5034 49.7768Z" fill="white"/>
<path d="M48.8916 48.6631L49.1861 49.7769C49.2515 50.0389 49.3169 50.2682 49.3496 50.4976C49.4151 50.2682 49.4805 50.0389 49.5459 49.8096L49.9058 48.6631H50.233L50.5601 49.7769C50.6583 50.0389 50.691 50.2682 50.7564 50.4976C50.7891 50.2682 50.8546 50.0389 50.92 49.7769L51.2472 48.6631H51.6398L50.92 50.8907H50.5601L50.233 49.8424C50.1675 49.5803 50.1021 49.3838 50.0367 49.1217C49.9712 49.3838 49.9058 49.6131 49.8404 49.8424L49.4805 50.8907H49.1206L48.4663 48.6631H48.8916Z" fill="white"/>
<path d="M52.2615 49.8423C52.2615 50.3992 52.6214 50.6285 53.014 50.6285C53.3084 50.6285 53.472 50.563 53.6356 50.5302L53.701 50.8251C53.5701 50.8906 53.3084 50.9561 52.9485 50.9561C52.2615 50.9561 51.8689 50.4975 51.8689 49.8423C51.8689 49.1871 52.2615 48.6302 52.9158 48.6302C53.6356 48.6302 53.8319 49.2527 53.8319 49.6785C53.8319 49.7768 53.8319 49.8096 53.8319 49.8751H52.2615V49.8423ZM53.4393 49.5475C53.4393 49.2854 53.3411 48.8923 52.8831 48.8923C52.4905 48.8923 52.2942 49.2527 52.2615 49.5475H53.4393Z" fill="white"/>
<path d="M54.3552 49.351C54.3552 49.0889 54.3552 48.8596 54.3225 48.6631H54.6824V49.0889H54.7151C54.8132 48.7941 55.0423 48.5975 55.3367 48.5975C55.3694 48.5975 55.4021 48.5975 55.4349 48.5975V48.9906C55.4021 48.9906 55.3367 48.9906 55.304 48.9906C55.0095 48.9906 54.8133 49.2199 54.7478 49.5148C54.7478 49.5803 54.7151 49.6458 54.7151 49.7113V50.8906H54.3225V49.351H54.3552Z" fill="white"/>
<path d="M56.0237 49.8423C56.0237 50.3992 56.3836 50.6285 56.7762 50.6285C57.0706 50.6285 57.2342 50.563 57.3978 50.5302L57.4632 50.8251C57.3323 50.8906 57.0706 50.9561 56.7107 50.9561C56.0237 50.9561 55.6311 50.4975 55.6311 49.8423C55.6311 49.1871 56.0237 48.6302 56.678 48.6302C57.3978 48.6302 57.5941 49.2527 57.5941 49.6785C57.5941 49.7768 57.5941 49.8096 57.5941 49.8751H56.0237V49.8423ZM57.2015 49.5475C57.2015 49.2854 57.1033 48.8923 56.6453 48.8923C56.2527 48.8923 56.0564 49.2527 56.0237 49.5475H57.2015Z" fill="white"/>
<path d="M59.9825 47.6147V50.3009C59.9825 50.4975 59.9825 50.7268 60.0152 50.8578H59.6553L59.6226 50.4647C59.4918 50.7268 59.23 50.8906 58.8702 50.8906C58.3467 50.8906 57.9214 50.432 57.9214 49.7768C57.9214 49.0234 58.3794 48.5975 58.9029 48.5975C59.23 48.5975 59.459 48.7613 59.5572 48.9251V47.6147H59.9825ZM59.5899 49.5475C59.5899 49.482 59.5899 49.4165 59.5572 49.3837C59.4918 49.1216 59.2627 48.9251 58.9683 48.9251C58.543 48.9251 58.314 49.2854 58.314 49.7768C58.314 50.2354 58.543 50.5958 58.9683 50.5958C59.23 50.5958 59.4918 50.432 59.5572 50.1044C59.5572 50.0389 59.5899 50.0061 59.5899 49.9406V49.5475Z" fill="white"/>
<path d="M61.6182 50.8905C61.6182 50.7268 61.6509 50.5302 61.6509 50.3337V47.6475H62.0435V49.0561C62.1743 48.794 62.4361 48.663 62.7959 48.663C63.3521 48.663 63.7447 49.1216 63.7447 49.8095C63.7447 50.5957 63.254 50.9888 62.7632 50.9888C62.4361 50.9888 62.1743 50.8578 62.0108 50.563L61.978 50.9233H61.6182V50.8905ZM62.0435 49.9733C62.0435 50.0388 62.0435 50.0716 62.0762 50.1043C62.1416 50.3992 62.4033 50.563 62.6651 50.563C63.0904 50.563 63.3521 50.2354 63.3521 49.7112C63.3521 49.2526 63.1231 48.8923 62.6978 48.8923C62.4361 48.8923 62.1743 49.0888 62.0762 49.3837C62.0762 49.4164 62.0435 49.4819 62.0435 49.5474V49.9733Z" fill="white"/>
<path d="M64.3662 48.6631L64.857 49.9734C64.9224 50.1045 64.9551 50.301 64.9878 50.432C65.0205 50.301 65.086 50.1372 65.1187 49.9734L65.544 48.6631H65.9693L65.3804 50.2355C65.086 50.9889 64.8897 51.382 64.628 51.6113C64.4317 51.7751 64.2354 51.8407 64.1372 51.8734L64.0391 51.5458C64.1372 51.5131 64.2681 51.4476 64.3989 51.3493C64.4971 51.251 64.6607 51.12 64.7261 50.8907C64.7588 50.8579 64.7588 50.8251 64.7588 50.7924C64.7588 50.7596 64.7588 50.7269 64.7261 50.6941L63.9082 48.6631H64.3662Z" fill="white"/>
</g>
<defs>
<clipPath id="clip0_1985_2662">
<rect width="70.0122" height="19.2947" fill="white" transform="translate(7.47339 32.906)"/>
</clipPath>
</defs>
</svg>
