<svg width="86" height="86" viewBox="0 0 86 86" fill="none" xmlns="http://www.w3.org/2000/svg">
<path d="M46.6003 38.8475V34.3474H47.4992V38.8159H46.6003V38.8475ZM48.477 38.8475V34.3474H49.3916L50.7163 37.3317L51.899 34.3474H52.8137V38.8159H51.9305V36.3054L50.874 38.8633H50.5586L49.3758 36.3054V38.8475H48.477ZM53.7914 38.8475V34.3474H55.1949C55.4314 34.3474 55.6365 34.379 55.8257 34.3948C56.0149 34.4264 56.1884 34.4737 56.3776 34.5527C56.6142 34.6632 56.7719 34.8211 56.8823 35.0264C56.9927 35.2316 57.04 35.4685 57.04 35.7211C57.04 35.8474 57.0084 35.9896 56.9927 36.1159C56.9611 36.2422 56.9138 36.3843 56.835 36.479L56.5984 36.7948C56.488 36.9054 56.3934 36.9527 56.2515 37.0001C56.0938 37.0475 55.9361 37.1106 55.7784 37.1264C55.6207 37.158 55.463 37.158 55.2738 37.158H54.6745V38.7686H53.8072V38.8475H53.7914ZM54.6587 36.4317H55.1634C55.2895 36.4317 55.3999 36.4317 55.5103 36.4001C55.6207 36.3685 55.6995 36.3685 55.7784 36.3211C55.9045 36.2738 55.9834 36.1948 56.0465 36.0843C56.1569 35.879 56.1569 35.6264 56.0465 35.4211C55.9992 35.3106 55.8888 35.2316 55.7626 35.1843C55.6838 35.1527 55.6049 35.1369 55.5261 35.1369C55.4472 35.1053 55.3368 35.1053 55.2107 35.1053H54.6903L54.6587 36.4317ZM57.6708 38.8475V34.3474H60.7301V35.1685H58.5696V36.1948H60.3674V37.0159H58.5696V38.0422H60.8878V38.8633H57.6708V38.8475ZM61.5186 38.8475V34.3474H63.3321C63.5214 34.3474 63.6948 34.379 63.8841 34.3948C64.0733 34.4421 64.231 34.5053 64.3887 34.6001C64.5464 34.7106 64.6568 34.8369 64.7514 34.9948C64.8618 35.1527 64.8776 35.3895 64.8776 35.658C64.8776 35.8159 64.846 35.9738 64.8303 36.1317C64.783 36.2896 64.7199 36.4159 64.641 36.5264C64.5622 36.6527 64.4518 36.7633 64.3256 36.8422C64.1995 36.9527 64.0418 37.0001 63.8525 37.0475L64.988 38.7844H63.9629L62.859 37.1264H62.3544V38.7844H61.5186V38.8475ZM62.4017 36.3843H63.0798C63.3952 36.3843 63.6318 36.3369 63.7895 36.2264C63.9472 36.1159 63.9945 35.958 63.9945 35.7843C63.9945 35.579 63.9156 35.4211 63.7895 35.3106C63.6633 35.2001 63.4268 35.1527 63.0798 35.1527H62.4017C62.4017 35.1369 62.4017 36.3843 62.4017 36.3843ZM65.6188 38.8475V34.3474H66.5176V38.8159H65.6188V38.8475ZM66.9592 38.8475L68.8043 34.379H69.4351L71.3117 38.8475H70.3339L69.9712 37.9475H68.2523L67.8896 38.8475H66.9592ZM68.5204 37.1738H69.6874L69.1039 35.6895L68.5204 37.1738ZM71.7375 38.8475V34.3474H72.6363V38.0264H74.8757V38.8475H71.7375ZM47.6254 45.9687L46.6003 41.5002H47.4992L48.0512 44.1687L48.9185 41.5002H49.4705L50.3378 44.1687L50.8897 41.5002H51.7886L50.7636 45.9687H50.1801L49.1551 42.9529L48.1616 45.9687H47.6254ZM51.4732 45.9687L53.3183 41.5002H53.9491L55.8257 45.9687H54.8322L54.4695 45.0687H52.7506L52.3879 45.9687H51.4732ZM53.0344 44.295H54.1856L53.6022 42.8108L53.0344 44.295ZM56.2357 45.9687V41.4686H58.065C58.2542 41.4686 58.4277 41.5002 58.617 41.516C58.8062 41.5634 58.9639 41.6265 59.1216 41.7213C59.2793 41.8318 59.3897 41.9581 59.4843 42.116C59.5947 42.2739 59.6105 42.5108 59.6105 42.7792C59.6105 42.9371 59.5789 43.095 59.5631 43.2529C59.5158 43.4108 59.4528 43.5371 59.3739 43.6476C59.2951 43.7739 59.1847 43.8845 59.0585 43.9634C58.9324 44.0739 58.7747 44.1213 58.5854 44.1687L59.7208 45.9056H58.6958L57.5919 44.2476H57.0873V45.9056H56.2515L56.2357 45.9687ZM57.1346 43.5055H57.8127C58.1281 43.5055 58.3646 43.4581 58.5223 43.3476C58.68 43.2371 58.7273 43.0792 58.7273 42.9055C58.7273 42.7002 58.6485 42.5423 58.5223 42.4318C58.3962 42.3213 58.1596 42.2739 57.8127 42.2739H57.1346V43.5055ZM46.6003 52.9163V48.4162H47.515L48.8397 51.4004L50.0224 48.4162H50.937V52.8847H50.0382V50.3741L48.9658 52.9163H48.6504L47.4677 50.3583V52.9005H46.6003V52.9163ZM52.7979 51.2741C52.7979 51.5425 52.8767 51.7478 53.0344 51.9373C53.1921 52.1268 53.3971 52.2057 53.7125 52.2057C53.9964 52.2057 54.2329 52.1268 54.3906 51.9373C54.5483 51.7478 54.6272 51.5425 54.6272 51.2741V48.4162H55.5261V51.3531C55.5261 51.6215 55.4788 51.8268 55.3999 52.032C55.2895 52.2373 55.1949 52.3952 55.0057 52.5373C54.848 52.6636 54.643 52.7742 54.4222 52.8531C54.2172 52.9321 53.9806 52.9636 53.7125 52.9636C53.476 52.9636 53.2394 52.9321 53.0029 52.8531C52.7979 52.7742 52.5771 52.6636 52.4194 52.5373C52.2617 52.411 52.1356 52.2215 52.0252 52.032C51.9148 51.8268 51.899 51.6057 51.899 51.3531V48.4162H52.7979V51.2741ZM56.7719 51.7162C56.8823 51.8741 57.0084 52.0004 57.1977 52.111C57.3869 52.1899 57.5604 52.2373 57.7812 52.2373C58.0177 52.2373 58.2069 52.1899 58.3331 52.111C58.4593 52.032 58.5381 51.9057 58.5381 51.7636C58.5381 51.6531 58.5066 51.5741 58.4908 51.5268C58.4593 51.4478 58.412 51.4004 58.3331 51.3215C58.2543 51.2741 58.1439 51.1952 58.0177 51.132C57.8915 51.0846 57.7023 51.0057 57.5131 50.9425C57.3238 50.8636 57.1504 50.8162 56.9927 50.7373C56.835 50.6583 56.7088 50.5794 56.5984 50.4688C56.488 50.3583 56.3934 50.232 56.3303 50.1057C56.283 49.9794 56.2515 49.8215 56.2515 49.632C56.2515 49.4425 56.283 49.2846 56.3619 49.1267C56.4092 48.9688 56.5196 48.8425 56.6457 48.732C56.7719 48.6214 56.9296 48.5425 57.1504 48.4635C57.3396 48.4162 57.5761 48.3846 57.8285 48.3846C58.0335 48.3846 58.2543 48.4162 58.412 48.4319C58.5697 48.4793 58.7273 48.5425 58.8535 48.5898C58.9797 48.6688 59.0901 48.7477 59.1689 48.8267C59.2478 48.9372 59.3266 49.0162 59.4054 49.1109L58.7431 49.5846C58.6327 49.4583 58.5381 49.3162 58.3962 49.2372C58.27 49.1267 58.0492 49.1109 57.8127 49.1109C57.5762 49.1109 57.4184 49.1583 57.2923 49.2372C57.1819 49.3162 57.1031 49.4267 57.1031 49.553C57.1031 49.7109 57.1819 49.8372 57.3396 49.9478C57.4973 50.0583 57.7023 50.153 58.0177 50.2636C58.2543 50.3425 58.4435 50.4215 58.617 50.532C58.8062 50.6109 58.9324 50.7215 59.0427 50.8478C59.1531 50.9583 59.2478 51.0846 59.3108 51.2425C59.3581 51.4004 59.3897 51.5583 59.3897 51.7636C59.3897 51.9689 59.3424 52.1899 59.2635 52.3478C59.1847 52.5057 59.0585 52.632 58.9008 52.7426C58.7431 52.8531 58.5696 52.932 58.3804 52.9794C58.1754 53.0268 57.9862 53.0584 57.7812 53.0584C56.9611 53.0584 56.4092 52.7899 56.0622 52.2373L56.7719 51.7162ZM60.0836 52.9163V48.4162H63.1429V49.2372H60.9824V50.2636H62.7802V51.0846H60.9824V52.111H63.3006V52.9321H60.0836V52.9163ZM64.7987 51.2741C64.7987 51.5425 64.8776 51.7478 65.0353 51.9373C65.193 52.1268 65.398 52.2057 65.7134 52.2057C65.9972 52.2057 66.2338 52.1268 66.3915 51.9373C66.5492 51.7478 66.628 51.5425 66.628 51.2741V48.4162H67.5269V51.3531C67.5269 51.6215 67.4796 51.8268 67.4008 52.032C67.2904 52.2373 67.1957 52.3952 67.0065 52.5373C66.8488 52.6636 66.6438 52.7742 66.423 52.8531C66.218 52.9321 65.9815 52.9636 65.7134 52.9636C65.4768 52.9636 65.2403 52.9321 65.0037 52.8531C64.7987 52.7742 64.578 52.6636 64.4203 52.5373C64.2626 52.411 64.1364 52.2215 64.026 52.032C63.9156 51.8268 63.8999 51.6057 63.8999 51.3531V48.4162H64.7987V51.2741ZM68.4416 52.9163V48.4162H69.3562L70.6809 51.4004L71.8636 48.4162H72.7783V52.8847H71.8794V50.3741L70.807 52.9163H70.4916L69.3089 50.3583V52.9005H68.4416V52.9163ZM74.1029 51.7162C74.2133 51.8741 74.3395 52.0004 74.5287 52.111C74.718 52.1899 74.8914 52.2373 75.1122 52.2373C75.3488 52.2373 75.538 52.1899 75.6641 52.111C75.7903 52.032 75.8692 51.9057 75.8692 51.7636C75.8692 51.6531 75.8376 51.5741 75.8218 51.5268C75.7903 51.4478 75.743 51.4004 75.6641 51.3215C75.5853 51.2741 75.4749 51.1952 75.3488 51.132C75.2226 51.0846 75.0334 51.0057 74.8441 50.9425C74.6549 50.8636 74.4814 50.8162 74.3237 50.7373C74.166 50.6583 74.0399 50.5794 73.9295 50.4688C73.8191 50.3583 73.7245 50.232 73.6614 50.1057C73.6141 49.9794 73.5825 49.8215 73.5825 49.632C73.5825 49.4425 73.6141 49.2846 73.6929 49.1267C73.7402 48.9688 73.8506 48.8425 73.9768 48.732C74.1029 48.6214 74.2606 48.5425 74.4814 48.4635C74.6706 48.4162 74.9072 48.3846 75.1595 48.3846C75.3645 48.3846 75.5853 48.4162 75.743 48.4319C75.9007 48.4793 76.0584 48.5425 76.1846 48.5898C76.3107 48.6688 76.4211 48.7477 76.4999 48.8267C76.5788 48.9372 76.6576 49.0162 76.7365 49.1109L76.0742 49.5846C75.9638 49.4583 75.8692 49.3162 75.7272 49.2372C75.6011 49.1267 75.3803 49.1109 75.1437 49.1109C74.9072 49.1109 74.7495 49.1583 74.6233 49.2372C74.513 49.3162 74.4341 49.4267 74.4341 49.553C74.4341 49.7109 74.513 49.8372 74.6707 49.9478C74.8283 50.0583 75.0334 50.153 75.3488 50.2636C75.5853 50.3425 75.7745 50.4215 75.948 50.532C76.1372 50.6109 76.2634 50.7215 76.3738 50.8478C76.4842 50.9583 76.5788 51.0846 76.6419 51.2425C76.6892 51.4004 76.7207 51.5583 76.7207 51.7636C76.7207 51.9689 76.6734 52.1899 76.5946 52.3478C76.5157 52.5057 76.3896 52.632 76.2319 52.7426C76.0742 52.8531 75.9007 52.932 75.7115 52.9794C75.5064 53.0268 75.3172 53.0584 75.1122 53.0584C74.2922 53.0584 73.7402 52.7899 73.3933 52.2373L74.1029 51.7162Z" fill="white"/>
<path d="M20.932 36.6841L22.2416 40.9079L23.6384 36.6841H25.1808L26.5776 40.9079L27.9454 36.6841H30.2734L31.7867 31.8528H17.0907L18.604 36.6841H20.932ZM17.3235 34.6011H10.2229V53.0585H23.1437L17.3526 34.7458L17.3235 34.6011ZM17.5563 47.6197H14.9954V39.4325H17.5854L17.5563 47.6197ZM31.5539 34.6011L25.6755 53.0585H43.7471V34.6011H31.5539ZM40.1095 47.6197H37.7233V43.5984L35.8317 47.6775H35.1624L33.2708 43.5984V47.6197H30.8845V39.4325H33.5036L35.4825 43.9456L37.4613 39.4325H40.0804L40.1095 47.6197Z" fill="white"/>
<path d="M24.4741 40.4061L23.0217 44.91H21.2788L22.9636 50.2071H26.0136L27.6983 44.91H25.9555L24.4741 40.4061Z" fill="white"/>
</svg>
