<svg width="68" height="68" viewBox="0 0 68 68" fill="none" xmlns="http://www.w3.org/2000/svg">
<g clip-path="url(#clip0_1949_185)">
<path d="M24.5715 52.6251C24.5715 52.6251 21.9849 54.1981 26.3694 54.6481C31.6476 55.321 34.4591 55.2096 40.3009 54.0866C41.475 54.8056 42.7167 55.4078 44.0083 55.8846C30.8653 61.5035 14.2338 55.5481 24.5715 52.6251ZM22.8892 45.3219C22.8892 45.3219 20.0797 47.4563 24.4621 47.9084C30.1924 48.4699 34.6862 48.5813 42.4416 47.0105C43.1959 47.7754 44.1193 48.3524 45.1375 48.6949C29.2945 53.4137 11.5421 49.1428 22.8892 45.3219ZM53.9001 58.1283C53.9001 58.1283 55.8095 59.7013 51.7657 60.9378C44.2375 63.1879 20.1933 63.8608 13.4515 60.9378C11.0921 59.9284 15.5859 58.4669 17.0264 58.2419C18.4879 57.9054 19.2764 57.9054 19.2764 57.9054C16.6899 56.1075 2.0855 61.6128 11.8617 63.1836C38.7153 67.566 60.8501 61.2742 53.8833 58.1283H53.9001ZM25.7869 37.6801C25.7869 37.6801 13.5398 40.6031 21.4045 41.6124C24.7754 42.0624 31.4037 41.9489 37.584 41.501C42.6393 41.051 47.6988 40.1551 47.6988 40.1551C47.6988 40.1551 45.9008 40.9416 44.6644 41.7281C32.1944 44.9875 8.25951 43.526 15.1149 40.1551C20.9566 37.3457 25.789 37.6843 25.789 37.6843L25.7869 37.6801ZM47.6988 49.9272C60.2823 43.4083 54.4406 37.1207 50.3947 37.9051C49.3853 38.1301 48.9332 38.3551 48.9332 38.3551C48.9332 38.3551 49.2696 37.6822 50.0561 37.4572C58.0344 34.6477 64.3262 45.8834 47.4696 50.2636C47.4696 50.2636 47.581 50.1522 47.6946 49.9272H47.6988ZM27.0276 67.6796C39.1611 68.466 57.7021 67.2296 58.15 61.4971C58.15 61.4971 57.2521 63.7472 48.1509 65.4295C37.8132 67.3389 25.0046 67.1118 17.4764 65.8795C17.4764 65.8795 19.0493 67.2275 27.0276 67.6796Z" fill="#4E7896"/>
<path d="M40.078 0.602295C40.078 0.602295 47.0448 7.68054 33.4498 18.3547C22.5506 27.0059 30.9789 31.9497 33.4498 37.5686C27.0444 31.8383 22.4391 26.7809 25.585 22.0642C30.1903 15.0953 42.8874 11.7454 40.078 0.602295ZM36.5031 32.8498C39.7626 36.5571 35.6052 39.928 35.6052 39.928C35.6052 39.928 43.9199 35.6592 40.099 30.3768C36.6167 25.3215 33.9166 22.8485 48.5252 14.4223C48.5252 14.4223 25.4925 20.1527 36.5031 32.8498Z" fill="#F58219"/>
</g>
<defs>
<clipPath id="clip0_1949_185">
<rect width="67.2917" height="67.2917" fill="white" transform="translate(0.131836 0.600098)"/>
</clipPath>
</defs>
</svg>
