<svg width="67" height="68" viewBox="0 0 67 68" fill="none" xmlns="http://www.w3.org/2000/svg">
<g clip-path="url(#clip0_1350_164)">
<path d="M32.6515 1.38083C29.9356 1.39341 27.342 1.62426 25.0598 2.02673C18.337 3.21047 17.1164 5.68813 17.1164 10.2574V16.2919H33.0033V18.3034H11.1542C6.53699 18.3034 2.49406 21.0693 1.22948 26.3311C-0.22919 32.3622 -0.293891 36.1257 1.22948 42.4232C2.35878 47.1108 5.0557 50.4508 9.67287 50.4508H15.1352V43.2167C15.1352 37.9905 19.6722 33.3806 25.0598 33.3806H40.9282C45.3454 33.3806 48.8717 29.7558 48.8717 25.3345V10.2574C48.8717 5.96631 45.2395 2.74289 40.9282 2.02673C38.1991 1.57395 35.3674 1.36825 32.6515 1.38083ZM24.06 6.23431C25.701 6.23431 27.0411 7.59175 27.0411 9.26082C27.0411 10.924 25.701 12.2689 24.06 12.2689C22.4131 12.2689 21.0789 10.924 21.0789 9.26082C21.0789 7.59175 22.4131 6.23431 24.06 6.23431Z" fill="url(#paint0_linear_1350_164)"/>
<path d="M50.8529 18.3036V25.3347C50.8529 30.7858 46.2159 35.3739 40.9282 35.3739H25.0598C20.7132 35.3739 17.1164 39.0815 17.1164 43.4199V58.4971C17.1164 62.7882 20.8602 65.3121 25.0598 66.5432C30.0887 68.0169 34.9112 68.2833 40.9282 66.5432C44.9278 65.389 48.8716 63.0663 48.8716 58.4971V52.4625H33.0033V50.451H56.8151C61.4323 50.451 63.1528 47.2412 64.7585 42.4234C66.4172 37.4635 66.3466 32.6938 64.7585 26.3312C63.6175 21.7502 61.4382 18.3036 56.8151 18.3036H50.8529ZM41.9281 56.4856C43.575 56.4856 44.9092 57.8305 44.9092 59.4936C44.9092 61.1627 43.575 62.5201 41.9281 62.5201C40.2871 62.5201 38.947 61.1627 38.947 59.4936C38.947 57.8305 40.2871 56.4856 41.9281 56.4856Z" fill="url(#paint1_linear_1350_164)"/>
</g>
<defs>
<linearGradient id="paint0_linear_1350_164" x1="0.111084" y1="1.38029" x2="49.5098" y2="43.5611" gradientUnits="userSpaceOnUse">
<stop stop-color="#5A9FD4"/>
<stop offset="1" stop-color="#306998"/>
</linearGradient>
<linearGradient id="paint1_linear_1350_164" x1="41.5464" y1="58.9863" x2="28.4619" y2="40.5896" gradientUnits="userSpaceOnUse">
<stop stop-color="#FFD43B"/>
<stop offset="1" stop-color="#FFE873"/>
</linearGradient>
<clipPath id="clip0_1350_164">
<rect width="66" height="67" fill="white" transform="translate(0.111084 0.952494)"/>
</clipPath>
</defs>
</svg>
