<svg width="61" height="68" viewBox="0 0 61 68" fill="none" xmlns="http://www.w3.org/2000/svg">
<path d="M30.191 67.5001C29.2899 67.5001 28.3949 67.2637 27.6049 66.8088L19.373 61.9353C18.1435 61.2477 18.7434 61.0045 19.1489 60.8644C20.7883 60.2903 21.1209 60.1607 22.8708 59.167C23.0547 59.0621 23.2954 59.0991 23.4837 59.2102L29.8077 62.9629C30.0361 63.0864 30.3601 63.0864 30.5718 62.9629L55.2299 48.7298C55.4583 48.6002 55.6064 48.3348 55.6064 48.0632V19.6092C55.6064 19.3253 55.4583 19.0722 55.2249 18.9303L30.5768 4.70947C30.3484 4.57368 30.046 4.57368 29.8176 4.70947L5.17437 18.9303C4.93551 19.0661 4.78367 19.3315 4.78367 19.603V48.057C4.78367 48.3286 4.9318 48.5878 5.16635 48.7174L11.9188 52.6183C15.5851 54.4514 17.8256 52.2911 17.8256 50.1185V22.0349C17.8256 21.6337 18.1404 21.3251 18.5416 21.3251H21.6647C22.0536 21.3251 22.3745 21.6337 22.3745 22.0349V50.1309C22.3745 55.0193 19.7081 57.8276 15.0728 57.8276C13.647 57.8276 12.5236 57.8276 9.38815 56.2846L2.91966 52.5566C1.32105 51.6307 0.333496 49.9025 0.333496 48.057V19.603C0.333496 17.7514 1.32105 16.0232 2.91966 15.1097L27.6024 0.870345C29.164 -0.012283 31.2378 -0.012283 32.7871 0.870345L57.4389 15.1158C59.0314 16.0355 60.0251 17.7576 60.0251 19.6092V48.0632C60.0251 49.9087 59.0314 51.6307 57.4389 52.5566L32.7871 66.7959C31.997 67.2526 31.102 67.4872 30.1886 67.4872" fill="#689F63"/>
<path d="M37.8075 47.8935C27.0185 47.8935 24.7563 42.9409 24.7563 38.787C24.7563 38.3919 25.0748 38.0772 25.4705 38.0772H28.6553C29.0072 38.0772 29.3034 38.3333 29.359 38.6808C29.8404 41.9262 31.2724 43.563 37.7964 43.563C42.9934 43.563 45.2031 42.3891 45.2031 39.6332C45.2031 38.0469 44.5735 36.868 36.5002 36.078C29.7478 35.4114 25.5754 33.9239 25.5754 28.5232C25.5754 23.5484 29.7725 20.5857 36.8027 20.5857C44.697 20.5857 48.6102 23.3262 49.1039 29.2145C49.1224 29.4181 49.0484 29.6157 48.9126 29.7638C48.7768 29.9058 48.5855 29.9922 48.3879 29.9922H45.1846C44.8513 29.9922 44.5612 29.7576 44.4933 29.4367C43.7217 26.0234 41.8577 24.9309 36.7903 24.9309C31.1181 24.9309 30.4576 26.9061 30.4576 28.3874C30.4576 30.1835 31.2353 30.7081 38.8889 31.7204C46.4684 32.7265 50.0668 34.1461 50.0668 39.4727C50.0668 44.8425 45.5858 47.9225 37.7717 47.9225" fill="#689F63"/>
</svg>
