<svg width="47" height="43" viewBox="0 0 47 43" fill="none" xmlns="http://www.w3.org/2000/svg">
<path fill-rule="evenodd" clip-rule="evenodd" d="M5.82812 6.6313C5.82812 5.69584 6.60642 4.9375 7.5665 4.9375H17.9967C18.9568 4.9375 19.7351 5.69584 19.7351 6.6313V13.4065C19.7351 14.342 18.9568 15.1003 17.9967 15.1003H7.5665C6.60642 15.1003 5.82812 14.342 5.82812 13.4065V6.6313ZM9.30487 8.3251V11.7127H16.2584V8.3251H9.30487Z" fill="white"/>
<path fill-rule="evenodd" clip-rule="evenodd" d="M5.82812 30.7011C5.82812 29.7657 6.59445 29.0073 7.53975 29.0073H21.2328C22.1781 29.0073 22.9444 29.7657 22.9444 30.7011V37.4763C22.9444 38.4118 22.1781 39.1701 21.2328 39.1701H7.53975C6.59445 39.1701 5.82812 38.4118 5.82812 37.4763V30.7011ZM9.25138 32.3949V35.7825H19.5211V32.3949H9.25138Z" fill="white"/>
<path fill-rule="evenodd" clip-rule="evenodd" d="M12.7815 18.488C12.7815 17.5033 13.5448 16.7051 14.4864 16.7051H38.3556C39.2972 16.7051 40.0606 17.5033 40.0606 18.488V25.6198C40.0606 26.6045 39.2972 27.4028 38.3556 27.4028H14.4864C13.5448 27.4028 12.7815 26.6045 12.7815 25.6198V18.488ZM16.1914 20.271V23.8369H36.6507V20.271H16.1914Z" fill="#69F977"/>
</svg>
