<svg width="47" height="47" viewBox="0 0 47 47" fill="none" xmlns="http://www.w3.org/2000/svg">
<g clip-path="url(#clip0_1350_267)">
<path d="M35.4027 27.7471L19.3027 11.6471L26.3944 4.3638C28.5027 2.25547 31.5694 1.10547 34.4444 1.10547C37.3194 1.10547 40.1944 2.25547 42.4944 4.3638C44.7944 6.47214 45.9444 9.34714 45.9444 12.4138C45.9444 15.4805 44.7944 18.3555 42.6861 20.4638L35.4027 27.7471ZM24.8611 11.6471L35.4027 22.1888L39.8111 17.7805C41.3444 16.2471 42.1111 14.5221 42.1111 12.4138C42.1111 10.4971 41.3444 8.58047 39.8111 7.04713C36.9361 4.17213 32.1444 4.17213 29.0777 7.04713L24.8611 11.6471Z" fill="white"/>
<path d="M11.2527 47.2805C8.186 47.2805 5.311 46.1305 3.20267 44.0221C1.09434 41.9138 -0.0556641 39.0388 -0.0556641 35.9721C-0.0556641 32.9055 1.09434 30.0305 3.20267 27.9221L10.486 20.6388L14.3193 24.4721L19.686 19.1055L22.3693 21.7888L17.0027 27.1555L20.0693 30.2221L25.436 24.8555L28.1193 27.5388L22.7527 32.9055L26.586 36.7388L19.4943 44.0221C17.1943 45.9388 14.3193 47.2805 11.2527 47.2805ZM10.486 26.0055L6.07767 30.4138C4.54434 31.9471 3.77767 33.8638 3.77767 35.7805C3.77767 37.6971 4.54434 39.6138 6.07767 41.1471C8.95267 44.0221 13.936 44.0221 16.811 41.1471L21.2193 36.5471L10.486 26.0055Z" fill="#FF00D6"/>
</g>
<defs>
<clipPath id="clip0_1350_267">
<rect width="46" height="46" fill="white" transform="translate(0.444336 0.62793)"/>
</clipPath>
</defs>
</svg>
