<svg width="47" height="47" viewBox="0 0 47 47" fill="none" xmlns="http://www.w3.org/2000/svg">
<g clip-path="url(#clip0_1949_565)">
<path d="M35.4027 27.8419L19.3027 11.7419L26.3944 4.45853C28.5027 2.3502 31.5694 1.2002 34.4444 1.2002C37.3194 1.2002 40.1944 2.3502 42.4944 4.45853C44.7944 6.56686 45.9444 9.44186 45.9444 12.5085C45.9444 15.5752 44.7944 18.4502 42.6861 20.5585L35.4027 27.8419ZM24.8611 11.7419L35.4027 22.2835L39.8111 17.8752C41.3444 16.3419 42.1111 14.6169 42.1111 12.5085C42.1111 10.5919 41.3444 8.67519 39.8111 7.14186C36.9361 4.26686 32.1444 4.26686 29.0777 7.14186L24.8611 11.7419Z" fill="white"/>
<path d="M11.2527 47.3752C8.186 47.3752 5.311 46.2252 3.20267 44.1169C1.09434 42.0085 -0.0556641 39.1335 -0.0556641 36.0669C-0.0556641 33.0002 1.09434 30.1252 3.20267 28.0169L10.486 20.7335L14.3193 24.5669L19.686 19.2002L22.3693 21.8835L17.0027 27.2502L20.0693 30.3169L25.436 24.9502L28.1193 27.6335L22.7527 33.0002L26.586 36.8335L19.4943 44.1169C17.1943 46.0335 14.3193 47.3752 11.2527 47.3752ZM10.486 26.1002L6.07767 30.5085C4.54434 32.0419 3.77767 33.9585 3.77767 35.8752C3.77767 37.7919 4.54434 39.7085 6.07767 41.2419C8.95267 44.1169 13.936 44.1169 16.811 41.2419L21.2193 36.6419L10.486 26.1002Z" fill="#FF00D6"/>
</g>
<defs>
<clipPath id="clip0_1949_565">
<rect width="46" height="46" fill="white" transform="translate(0.444336 0.722656)"/>
</clipPath>
</defs>
</svg>
