<svg width="47" height="47" viewBox="0 0 47 47" fill="none" xmlns="http://www.w3.org/2000/svg">
<g clip-path="url(#clip0_4_492)">
<path d="M35.4027 27.835L19.3027 11.735L26.3944 4.45169C28.5027 2.34336 31.5694 1.19336 34.4444 1.19336C37.3194 1.19336 40.1944 2.34336 42.4944 4.45169C44.7944 6.56003 45.9444 9.43503 45.9444 12.5017C45.9444 15.5684 44.7944 18.4434 42.6861 20.5517L35.4027 27.835ZM24.8611 11.735L35.4027 22.2767L39.8111 17.8684C41.3444 16.335 42.1111 14.61 42.1111 12.5017C42.1111 10.585 41.3444 8.66836 39.8111 7.13503C36.9361 4.26003 32.1444 4.26003 29.0777 7.13503L24.8611 11.735Z" fill="white"/>
<path d="M11.2527 47.3684C8.186 47.3684 5.311 46.2184 3.20267 44.11C1.09434 42.0017 -0.0556641 39.1267 -0.0556641 36.06C-0.0556641 32.9934 1.09434 30.1184 3.20267 28.01L10.486 20.7267L14.3193 24.56L19.686 19.1934L22.3693 21.8767L17.0027 27.2434L20.0693 30.31L25.436 24.9434L28.1193 27.6267L22.7527 32.9934L26.586 36.8267L19.4943 44.11C17.1943 46.0267 14.3193 47.3684 11.2527 47.3684ZM10.486 26.0934L6.07767 30.5017C4.54434 32.035 3.77767 33.9517 3.77767 35.8684C3.77767 37.785 4.54434 39.7017 6.07767 41.235C8.95267 44.11 13.936 44.11 16.811 41.235L21.2193 36.635L10.486 26.0934Z" fill="#FF00D6"/>
</g>
<defs>
<clipPath id="clip0_4_492">
<rect width="46" height="46" fill="white" transform="translate(0.444336 0.71582)"/>
</clipPath>
</defs>
</svg>
