<svg width="47" height="42" viewBox="0 0 47 42" fill="none" xmlns="http://www.w3.org/2000/svg">
<path fill-rule="evenodd" clip-rule="evenodd" d="M5.82812 5.91719C5.82812 4.98173 6.60642 4.22339 7.5665 4.22339H17.9967C18.9568 4.22339 19.7351 4.98173 19.7351 5.91719V12.6924C19.7351 13.6278 18.9568 14.3862 17.9967 14.3862H7.5665C6.60642 14.3862 5.82812 13.6278 5.82812 12.6924V5.91719ZM9.30487 7.61099V10.9986H16.2584V7.61099H9.30487Z" fill="white"/>
<path fill-rule="evenodd" clip-rule="evenodd" d="M5.82812 29.987C5.82812 29.0516 6.59445 28.2932 7.53975 28.2932H21.2328C22.1781 28.2932 22.9444 29.0516 22.9444 29.987V36.7622C22.9444 37.6977 22.1781 38.456 21.2328 38.456H7.53975C6.59445 38.456 5.82812 37.6977 5.82812 36.7622V29.987ZM9.25138 31.6808V35.0684H19.5211V31.6808H9.25138Z" fill="white"/>
<path fill-rule="evenodd" clip-rule="evenodd" d="M12.7815 17.7739C12.7815 16.7892 13.5448 15.991 14.4864 15.991H38.3556C39.2972 15.991 40.0606 16.7892 40.0606 17.7739V24.9057C40.0606 25.8904 39.2972 26.6886 38.3556 26.6886H14.4864C13.5448 26.6886 12.7815 25.8904 12.7815 24.9057V17.7739ZM16.1914 19.5569V23.1228H36.6507V19.5569H16.1914Z" fill="#69F977"/>
</svg>
