<svg width="66" height="59" viewBox="0 0 66 59" fill="none" xmlns="http://www.w3.org/2000/svg">
<g clip-path="url(#clip0_1350_170)">
<path d="M33.111 35.4221C36.3374 35.4221 38.953 32.7959 38.953 29.5564C38.953 26.3168 36.3374 23.6907 33.111 23.6907C29.8846 23.6907 27.2691 26.3168 27.2691 29.5564C27.2691 32.7959 29.8846 35.4221 33.111 35.4221Z" fill="#61DAFB"/>
<path fill-rule="evenodd" clip-rule="evenodd" d="M5.10777 25.8498C3.68374 27.1405 3.07488 28.395 3.07488 29.5563C3.07488 30.7175 3.68374 31.972 5.10777 33.2627C6.53194 34.5536 8.66609 35.7762 11.4146 36.8299C16.9028 38.9339 24.5732 40.2629 33.1111 40.2629C41.6489 40.2629 49.3194 38.9339 54.8076 36.8299C57.5561 35.7762 59.6902 34.5536 61.1144 33.2627C62.5384 31.972 63.1473 30.7175 63.1473 29.5563C63.1473 28.395 62.5384 27.1405 61.1144 25.8498C59.6902 24.5589 57.5561 23.3363 54.8076 22.2826C49.3194 20.1786 41.6489 18.8496 33.1111 18.8496C24.5732 18.8496 16.9028 20.1786 11.4146 22.2826C8.66609 23.3363 6.53194 24.5589 5.10777 25.8498ZM10.4761 19.8346C16.3334 17.5891 24.3364 16.2278 33.1111 16.2278C41.8858 16.2278 49.8888 17.5891 55.7461 19.8346C58.6703 20.9556 61.1268 22.3225 62.8751 23.9072C64.6236 25.492 65.7691 27.3989 65.7691 29.5563C65.7691 31.7136 64.6236 33.6205 62.8751 35.2053C61.1268 36.79 58.6703 38.1569 55.7461 39.278C49.8888 41.5234 41.8858 42.8847 33.1111 42.8847C24.3364 42.8847 16.3334 41.5234 10.4761 39.278C7.55191 38.1569 5.09538 36.79 3.34706 35.2053C1.59859 33.6205 0.453125 31.7136 0.453125 29.5563C0.453125 27.3989 1.59859 25.492 3.34706 23.9072C5.09538 22.3225 7.55191 20.9556 10.4761 19.8346Z" fill="#61DAFB"/>
<path fill-rule="evenodd" clip-rule="evenodd" d="M22.2987 3.35086C20.4724 2.75766 19.0885 2.85675 18.091 3.43502C17.0934 4.0133 16.316 5.16713 15.9145 7.05173C15.5131 8.93595 15.5257 11.4037 15.9912 14.3214C16.9208 20.147 19.6103 27.4826 23.8798 34.9077C28.1493 42.3327 33.1317 48.3392 37.6916 52.0603C39.9753 53.924 42.0976 55.1688 43.9235 55.7618C45.7497 56.355 47.1336 56.256 48.1312 55.6777C49.1287 55.0994 49.9061 53.9456 50.3076 52.061C50.709 50.1768 50.6965 47.709 50.2309 44.7913C49.3013 38.9657 46.6118 31.6301 42.3423 24.205C38.0728 16.78 33.0905 10.7735 28.5305 7.05237C26.2468 5.18874 24.1245 3.94395 22.2987 3.35086ZM30.1847 5.0144C35.049 8.98389 40.2238 15.2612 44.6105 22.8901C48.9973 30.5191 51.8242 38.1575 52.8158 44.3719C53.3108 47.4744 53.3601 50.2932 52.8675 52.6053C52.3751 54.9171 51.3028 56.8695 49.438 57.9505C47.5733 59.0315 45.3532 58.9877 43.113 58.26C40.8724 57.5322 38.4658 56.08 36.0374 54.0983C31.1731 50.1288 25.9984 43.8515 21.6116 36.2226C17.2248 28.5936 14.3979 20.9552 13.4063 14.7408C12.9113 11.6383 12.862 8.81955 13.3546 6.50738C13.8471 4.19559 14.9193 2.24322 16.7841 1.16222C18.6488 0.0812198 20.8689 0.125038 23.1091 0.852706C25.3497 1.58049 27.7563 3.03272 30.1847 5.0144Z" fill="#61DAFB"/>
<path fill-rule="evenodd" clip-rule="evenodd" d="M50.3077 7.05164C49.9062 5.16704 49.1288 4.01321 48.1312 3.43493C47.1337 2.85666 45.7498 2.75757 43.9235 3.35077C42.0976 3.94386 39.9754 5.18865 37.6917 7.05228C33.1317 10.7734 28.1494 16.7799 23.8799 24.2049C19.6104 31.63 16.9208 38.9656 15.9913 44.7913C15.5257 47.7089 15.5132 50.1767 15.9146 52.0609C16.316 53.9455 17.0935 55.0993 18.091 55.6776C19.0886 56.2559 20.4725 56.355 22.2987 55.7618C24.1246 55.1687 26.2468 53.9239 28.5306 52.0602C33.0905 48.3391 38.0729 42.3326 42.3424 34.9076C46.6119 27.4826 49.3014 20.1469 50.231 14.3213C50.6965 11.4036 50.709 8.93586 50.3077 7.05164ZM52.8158 14.7407C51.8242 20.9552 48.9973 28.5935 44.6106 36.2225C40.2238 43.8514 35.0491 50.1287 30.1848 54.0982C27.7564 56.0799 25.3497 57.5321 23.1092 58.2599C20.869 58.9876 18.6489 59.0314 16.7841 57.9504C14.9194 56.8694 13.8471 54.917 13.3546 52.6052C12.8621 50.2931 12.9113 47.4743 13.4064 44.3718C14.398 38.1574 17.2249 30.519 21.6117 22.8901C25.9984 15.2611 31.1732 8.9838 36.0375 5.01431C38.4659 3.03263 40.8725 1.5804 43.1131 0.852614C45.3533 0.124946 47.5733 0.0811286 49.4381 1.16213C51.3029 2.24313 52.3751 4.1955 52.8676 6.50729C53.3601 8.81946 53.3109 11.6383 52.8158 14.7407Z" fill="#61DAFB"/>
</g>
<defs>
<clipPath id="clip0_1350_170">
<rect width="65.5439" height="58.5526" fill="white" transform="translate(0.339111 0.280014)"/>
</clipPath>
</defs>
</svg>
