<svg width="66" height="59" viewBox="0 0 66 59" fill="none" xmlns="http://www.w3.org/2000/svg">
<g clip-path="url(#clip0_1949_2219)">
<path d="M33.111 35.2153C36.3374 35.2153 38.953 32.5891 38.953 29.3496C38.953 26.11 36.3374 23.4839 33.111 23.4839C29.8846 23.4839 27.2691 26.11 27.2691 29.3496C27.2691 32.5891 29.8846 35.2153 33.111 35.2153Z" fill="#61DAFB"/>
<path fill-rule="evenodd" clip-rule="evenodd" d="M5.10777 25.643C3.68374 26.9337 3.07488 28.1882 3.07488 29.3495C3.07488 30.5107 3.68374 31.7652 5.10777 33.056C6.53194 34.3468 8.66609 35.5694 11.4146 36.6231C16.9028 38.7271 24.5732 40.0561 33.1111 40.0561C41.6489 40.0561 49.3194 38.7271 54.8076 36.6231C57.5561 35.5694 59.6902 34.3468 61.1144 33.056C62.5384 31.7652 63.1473 30.5107 63.1473 29.3495C63.1473 28.1882 62.5384 26.9337 61.1144 25.643C59.6902 24.3521 57.5561 23.1295 54.8076 22.0758C49.3194 19.9718 41.6489 18.6428 33.1111 18.6428C24.5732 18.6428 16.9028 19.9718 11.4146 22.0758C8.66609 23.1295 6.53194 24.3521 5.10777 25.643ZM10.4761 19.6278C16.3334 17.3823 24.3364 16.021 33.1111 16.021C41.8858 16.021 49.8888 17.3823 55.7461 19.6278C58.6703 20.7488 61.1268 22.1158 62.8751 23.7004C64.6236 25.2852 65.7691 27.1921 65.7691 29.3495C65.7691 31.5068 64.6236 33.4137 62.8751 34.9985C61.1268 36.5832 58.6703 37.9501 55.7461 39.0712C49.8888 41.3167 41.8858 42.6779 33.1111 42.6779C24.3364 42.6779 16.3334 41.3167 10.4761 39.0712C7.55191 37.9501 5.09538 36.5832 3.34706 34.9985C1.59859 33.4137 0.453125 31.5068 0.453125 29.3495C0.453125 27.1921 1.59859 25.2852 3.34706 23.7004C5.09538 22.1158 7.55191 20.7488 10.4761 19.6278Z" fill="#61DAFB"/>
<path fill-rule="evenodd" clip-rule="evenodd" d="M22.2987 3.14408C20.4724 2.55087 19.0885 2.64996 18.091 3.22824C17.0934 3.80651 16.316 4.96034 15.9145 6.84495C15.5131 8.72917 15.5257 11.197 15.9912 14.1146C16.9208 19.9402 19.6103 27.2759 23.8798 34.7009C28.1493 42.126 33.1317 48.1324 37.6916 51.8535C39.9753 53.7172 42.0976 54.962 43.9235 55.5551C45.7497 56.1483 47.1336 56.0492 48.1312 55.4709C49.1287 54.8926 49.9061 53.7388 50.3076 51.8542C50.709 49.97 50.6965 47.5022 50.2309 44.5846C49.3013 38.7589 46.6118 31.4233 42.3423 23.9982C38.0728 16.5732 33.0905 10.5667 28.5305 6.84558C26.2468 4.98195 24.1245 3.73716 22.2987 3.14408ZM30.1847 4.80761C35.049 8.7771 40.2238 15.0544 44.6105 22.6834C48.9973 30.3123 51.8242 37.9507 52.8158 44.1651C53.3108 47.2676 53.3601 50.0864 52.8675 52.3985C52.3751 54.7103 51.3028 56.6627 49.438 57.7437C47.5733 58.8247 45.3532 58.7809 43.113 58.0532C40.8724 57.3254 38.4658 55.8732 36.0374 53.8915C31.1731 49.922 25.9984 43.6448 21.6116 36.0158C17.2248 28.3868 14.3979 20.7485 13.4063 14.534C12.9113 11.4316 12.862 8.61276 13.3546 6.30059C13.8471 3.9888 14.9193 2.03643 16.7841 0.955433C18.6488 -0.125567 20.8689 -0.0817496 23.1091 0.645919C25.3497 1.37371 27.7563 2.82594 30.1847 4.80761Z" fill="#61DAFB"/>
<path fill-rule="evenodd" clip-rule="evenodd" d="M50.3077 6.84485C49.9062 4.96025 49.1288 3.80642 48.1312 3.22815C47.1337 2.64987 45.7498 2.55078 43.9235 3.14399C42.0976 3.73707 39.9754 4.98186 37.6917 6.84549C33.1317 10.5666 28.1494 16.5731 23.8799 23.9981C19.6104 31.4232 16.9208 38.7588 15.9913 44.5845C15.5257 47.5021 15.5132 49.9699 15.9146 51.8541C16.316 53.7387 17.0935 54.8925 18.091 55.4708C19.0886 56.0491 20.4725 56.1482 22.2987 55.555C24.1246 54.9619 26.2468 53.7171 28.5306 51.8535C33.0905 48.1323 38.0729 42.1259 42.3424 34.7008C46.6119 27.2758 49.3014 19.9401 50.231 14.1145C50.6965 11.1969 50.709 8.72907 50.3077 6.84485ZM52.8158 14.5339C51.8242 20.7484 48.9973 28.3867 44.6106 36.0157C40.2238 43.6447 35.0491 49.9219 30.1848 53.8914C27.7564 55.8731 25.3497 57.3253 23.1092 58.0531C20.869 58.7808 18.6489 58.8246 16.7841 57.7436C14.9194 56.6626 13.8471 54.7102 13.3546 52.3984C12.8621 50.0863 12.9113 47.2675 13.4064 44.1651C14.398 37.9506 17.2249 30.3123 21.6117 22.6833C25.9984 15.0543 31.1732 8.77701 36.0375 4.80752C38.4659 2.82585 40.8725 1.37362 43.1131 0.645827C45.3533 -0.0818412 47.5733 -0.125659 49.4381 0.955342C51.3029 2.03634 52.3751 3.98871 52.8676 6.3005C53.3601 8.61267 53.3109 11.4315 52.8158 14.5339Z" fill="#61DAFB"/>
</g>
<defs>
<clipPath id="clip0_1949_2219">
<rect width="65.5439" height="58.5526" fill="white" transform="translate(0.339111 0.0732422)"/>
</clipPath>
</defs>
</svg>
