<svg width="85" height="86" viewBox="0 0 85 86" fill="none" xmlns="http://www.w3.org/2000/svg">
<g clip-path="url(#clip0_1949_344)">
<path d="M40.4502 20.6143C40.5226 20.6079 40.5972 20.5994 40.6696 20.593C44.1215 20.0326 47.5926 19.941 51.0786 20.1711C52.2882 20.463 53.4977 20.7527 54.7073 21.0446C56.4514 21.8521 58.2551 22.5615 59.5881 24.038C59.5306 24.2468 59.405 24.3938 59.1921 24.4598C59.158 24.0763 58.9599 23.9464 58.5681 23.9101C57.974 23.8569 57.3884 23.7013 56.7985 23.5842C56.4578 23.516 56.1511 23.4116 56.3449 22.9599C56.6047 22.357 56.2406 21.8542 55.508 21.9352C54.9863 21.9927 54.5284 22.21 54.2175 21.5325C54.1025 21.2811 53.7533 21.3749 53.666 21.688C53.5041 22.2654 53.0931 22.504 52.6417 22.1759C52.0113 21.7179 52.9121 21.5687 52.9675 21.1938C51.1808 20.3607 49.4879 20.2478 47.8652 21.7285C48.3656 21.9671 48.8341 21.9799 49.2259 21.7434C50.1161 21.2087 50.7847 21.6795 51.4364 22.1717C51.6855 22.3591 51.8708 22.6958 52.203 22.6872C52.9973 22.6681 52.9377 23.0942 52.7524 23.6204C52.0284 23.3456 51.3193 23.0239 50.5782 22.8023C46.1701 21.4835 41.8514 21.8095 37.5903 23.4926C36.8875 23.7717 36.549 24.1488 36.5788 24.8795C36.2593 25.4675 36.2061 26.0726 36.4595 26.6989L36.5042 26.7501L36.468 26.8076C36.0613 26.5903 35.3692 26.667 35.3713 26.0108C35.3713 24.6281 35.0562 23.2071 35.7291 21.8798C37.2347 21.2002 38.8999 21.1235 40.4502 20.6143Z" fill="white"/>
<path d="M62.8953 28.2947C62.9293 28.431 62.9613 28.5674 62.9953 28.7059C62.5481 28.7613 62.3671 29.3727 61.8582 29.3173C61.6793 28.8465 62.0988 28.6292 62.1584 28.2926C62.2266 28.2372 62.2926 28.1818 62.3607 28.1285C62.3416 28.1093 62.3203 28.088 62.3011 28.0689C62.2458 28.137 62.1925 28.2052 62.1371 28.2712C61.494 28.3053 61.2406 27.9517 61.313 27.3637C61.4344 26.3794 60.9574 25.785 60.1269 25.3844C59.7138 25.1842 59.3347 24.9392 59.1963 24.4598C59.4071 24.3938 59.5328 24.2489 59.5902 24.038C60.9957 25.2204 61.9796 26.733 62.8974 28.2947H62.8953Z" fill="white"/>
<path d="M30.6758 49.5826C30.6268 49.5953 30.6055 49.6273 30.6098 49.6763C29.66 50.9972 29.956 52.2989 30.7546 53.5325C31.8917 55.288 33.5549 56.5173 35.1754 57.7828C36.1316 58.5306 37.1836 59.1676 38.0843 60.2606C37.0302 60.3522 36.4936 59.5703 35.744 59.3807C35.5545 59.2529 35.365 59.1229 35.1776 58.9951C34.5579 58.4944 33.9488 57.9767 33.2269 57.6209C32.0876 56.5067 30.9483 55.3924 29.8091 54.2782L29.7878 54.2526C29.3683 53.5474 28.9487 52.8422 28.5292 52.137C28.0224 49.5485 28.4227 48.7005 30.7929 47.3029C31.1762 47.0771 31.5467 46.83 31.9237 46.5913C33.4697 46.0119 34.675 44.8401 36.1614 44.1541C36.0656 44.5035 35.5119 44.7144 35.8313 45.3024C36.287 44.872 36.6831 44.4843 37.2602 44.3756C37.4689 44.3373 37.6478 44.1306 37.5456 43.8941C37.4285 43.6236 37.2049 43.7173 37.026 43.8537C36.7662 44.0518 36.4915 44.1945 36.1529 44.1562C36.8897 43.3274 37.98 42.9141 38.6614 42.0193L38.67 42.0001C39.147 41.8425 39.3471 41.378 39.6943 41.0755C41.5895 39.5735 43.0056 37.7051 43.7318 35.3956C44.4303 33.1778 43.5977 31.2326 41.5618 29.9586C40.8719 29.3195 40.0158 28.9828 39.1342 28.7549C38.474 28.5844 38.2654 28.2052 38.3654 27.6002C38.4719 26.9482 38.9958 27.0292 39.4451 27.0611C41.4 27.2039 43.0461 27.9666 44.2855 29.524C44.5304 30.0971 44.7753 30.6702 45.0202 31.2454C45.3417 32.9328 45.3013 34.5988 44.7199 36.2329C44.1066 37.9586 42.9631 39.3583 41.9217 40.822C40.1457 42.6265 38.2313 44.2691 36.1891 45.7668C34.9433 46.4976 33.6869 47.2113 32.4582 47.9698C31.7725 48.3937 31.0889 48.8433 30.6779 49.5826H30.6758Z" fill="white"/>
<path d="M47.2518 58.1004C46.6918 59.2849 46.6258 60.5376 46.6897 61.8244C46.7386 62.796 47.1943 63.2774 48.1484 63.1688C49.0832 63.0623 49.2259 63.482 49.2366 64.315C49.2515 65.3206 48.6318 65.1565 48.0547 65.1544C47.1006 65.1523 45.9103 65.4719 45.2629 65.0181C44.6389 64.5792 45.2373 63.3222 45.0947 62.4039C44.8583 60.8934 45.2629 59.3872 45.4993 57.8894C46.1615 55.7419 47.0815 53.7307 48.5615 52.0093C49.0875 51.3595 49.6135 50.7076 50.1395 50.0578C50.1948 50.0578 50.2225 50.0279 50.2225 49.9725C51.9006 48.2298 53.5637 46.4764 54.9351 44.4716C56.3875 42.8205 57.2669 40.8689 57.9058 38.7917C58.1784 38.3592 58.2359 37.865 58.3232 37.3771C58.8151 34.6074 58.6277 31.8761 57.8462 29.1789C58.2678 29.1789 58.7001 29.1235 59.1111 29.1917C59.5114 29.2578 59.6946 29.6285 59.3177 29.8586C58.4147 30.4104 58.6256 31.2945 58.8087 31.9464C59.2389 33.4911 59.3368 34.9632 58.7938 36.4908C58.6511 36.8892 58.5638 37.4687 58.9088 37.8053C59.2878 38.1739 59.3837 37.2322 59.8905 37.4921C59.5498 38.1377 59.4305 39.0815 58.7171 39.2562C57.6865 39.5076 57.7312 40.3832 57.6119 40.9669C57.5182 41.425 56.3087 42.2985 57.7908 42.6799C57.8589 42.6969 57.8568 43.0037 57.8824 43.1763C57.9718 43.8026 57.7631 44.3566 57.465 44.8892L57.4607 44.8934C56.9688 44.8402 56.7154 45.1214 56.4428 45.4964C56.1617 45.8862 55.804 46.5297 55.2758 45.6625C55.1161 45.4005 54.8947 45.5454 54.7541 45.7073C54.5007 45.9992 54.2558 46.3038 54.045 46.6277C53.8831 46.8748 53.5531 47.1582 53.8874 47.4586C54.1366 47.6823 54.5688 47.6844 54.769 47.4522C55.3142 46.8173 55.6443 47.1603 56.0276 47.8463C56.3001 46.4253 57.0732 46.6703 57.8802 47.0154C57.7929 47.1368 57.7056 47.2583 57.6183 47.3797C57.5331 47.433 57.4458 47.4884 57.3606 47.5416C56.9752 47.7952 56.5919 48.0487 56.2064 48.3022L56.1894 48.315C55.9722 48.3491 55.7955 48.4364 55.723 48.6623L55.6783 48.6708C55.163 48.7901 54.7413 49.05 54.4496 49.5017L54.407 49.5251C53.7277 49.7765 53.1953 50.2175 52.7652 50.7949C52.7652 50.7949 52.7417 50.8141 52.7396 50.8141C52.4755 50.7906 52.303 50.8865 52.2839 51.1741L52.2562 51.1763C49.9585 53.0277 48.1484 55.2306 47.2497 58.0961L47.2518 58.1004Z" fill="white"/>
<path d="M27.6562 32.7965C28.5762 32.136 29.3662 31.2838 30.4629 30.8769C30.7206 30.781 30.8612 30.5786 30.8633 30.3081C30.8676 28.9254 31.8471 28.2202 32.9268 28.0157C34.9115 27.6407 35.2118 26.4157 35.1138 24.739C35.0648 23.9017 35.1926 23.0516 35.2671 22.2079C35.2884 21.9693 35.4865 21.8628 35.7314 21.8777C35.0563 23.205 35.3736 24.6239 35.3715 26.0087C35.3715 26.6649 36.0636 26.5904 36.4682 26.8055C36.5065 27.4276 36.4682 28.0412 36.3212 28.6484C36.2595 28.6335 36.2105 28.6527 36.1764 28.7059C35.6228 28.7272 35.0797 28.7954 34.6006 29.1129C34.5537 29.0852 34.5133 29.0958 34.4835 29.1406C33.9681 29.1278 33.5656 29.4495 33.1099 29.6135C32.3902 29.8734 31.9557 30.2825 32.4029 31.1177C32.4732 31.2497 32.4114 31.4543 32.4114 31.6268C31.7982 31.9656 31.1827 32.3043 30.5694 32.6431C29.7176 33.131 28.6486 33.5379 28.4676 34.5712C28.2994 35.5406 27.6988 35.9027 27.0217 36.3288C26.5787 36.6079 26.1592 36.9211 25.729 37.2172C24.9667 37.5219 24.4684 38.1951 23.7763 38.5999C23.3525 38.8599 22.9798 39.1645 22.7967 39.6524C24.019 40.1893 24.2767 40.9563 23.5825 41.9384C22.9436 42.8417 23.0274 43.684 23.8338 44.4652H23.8316C24.9582 46.1376 26.6724 46.2292 27.7031 44.7443C28.2376 43.9752 29.0766 43.826 29.9625 43.9475C30.3437 43.9986 30.7675 44.0369 30.9229 44.4694C31.0848 44.9147 30.595 45.0298 30.4267 45.311C30.3309 45.3387 30.2351 45.3685 30.1393 45.3962L30.0967 45.4047C29.4429 45.4175 28.9105 45.6114 28.4271 46.1248C26.8236 47.8314 25.2222 47.8441 23.4611 46.2569C23.0991 45.931 22.7158 45.6284 22.341 45.3152C22.1685 44.9722 21.9577 44.642 21.832 44.282C21.3231 42.8119 19.8878 41.5826 20.6352 39.7781C20.6757 39.7376 20.6885 39.6886 20.6757 39.6332C20.9249 39.646 21.0611 39.4841 21.1783 39.3009C22.3112 37.5091 23.9615 36.2841 25.7738 35.3041C26.7725 34.7629 27.2602 33.9789 27.5157 32.9563C27.5604 32.903 27.6073 32.8497 27.652 32.7965H27.6562ZM22.7775 40.8263C22.5688 41.0905 22.3814 41.3248 22.1962 41.5592C22.0365 41.7595 21.6468 41.9555 22.013 42.2239C22.2814 42.4199 22.5454 42.1493 22.7243 41.9278C22.9777 41.6103 23.1012 41.263 22.7775 40.8242V40.8263ZM35.7825 27.0591C35.5929 27.074 35.4609 27.1315 35.4567 27.2892C35.4545 27.3573 35.5589 27.483 35.6228 27.4894C35.7995 27.5065 35.9677 27.4362 35.9571 27.221C35.9528 27.1571 35.8293 27.1017 35.7825 27.0612V27.0591Z" fill="white"/>
<path d="M57.4672 44.8891C57.7632 44.3565 57.9719 43.8026 57.8846 43.1762C57.8612 43.0036 57.8612 42.6969 57.793 42.6798C56.3109 42.3006 57.5204 41.425 57.6141 40.9669C57.7334 40.3831 57.6887 39.5075 58.7194 39.2561C59.4349 39.0814 59.552 38.1376 59.8927 37.4921C59.3838 37.2321 59.2901 38.1738 58.911 37.8052C58.566 37.4686 58.6533 36.8891 58.796 36.4907C59.3412 34.9632 59.2432 33.491 58.8109 31.9464C58.6299 31.2945 58.4191 30.4082 59.3199 29.8585C59.6968 29.6284 59.5137 29.2577 59.1133 29.1917C58.7023 29.1235 58.27 29.1789 57.8484 29.1789V29.1491C57.9485 26.8993 57.5694 26.3049 56.0191 25.54C56.707 24.8263 56.6537 24.3874 55.6486 24.1318C54.7116 23.8931 53.7959 23.3776 52.7652 23.6247H52.7525C52.9399 23.0942 52.9974 22.6681 52.2031 22.6894C51.8687 22.6979 51.6856 22.3613 51.4364 22.1738C50.7848 21.6838 50.1161 21.2109 49.226 21.7456C48.8342 21.9821 48.3657 21.9693 47.8652 21.7307C49.4901 20.25 51.183 20.3629 52.9675 21.1959C52.9122 21.5709 52.0114 21.72 52.6417 22.1781C53.0932 22.5062 53.5021 22.2676 53.666 21.6902C53.7533 21.377 54.1047 21.2854 54.2176 21.5347C54.5263 22.2143 54.9842 21.997 55.5081 21.9374C56.2406 21.8543 56.6048 22.3592 56.345 22.9621C56.1512 23.4138 56.4578 23.5182 56.7985 23.5864C57.3863 23.7035 57.974 23.8591 58.5682 23.9123C58.9621 23.9485 59.158 24.0785 59.1921 24.462C59.3327 24.9413 59.7096 25.1885 60.1248 25.3866C60.9575 25.7871 61.4324 26.3816 61.311 27.3658C61.2386 27.9517 61.492 28.3054 62.1351 28.2734L62.1564 28.2947C62.0989 28.6314 61.6772 28.8487 61.8561 29.3195C62.3651 29.3728 62.5461 28.7634 62.9933 28.708L62.9997 28.7294C62.9869 29.1832 62.9997 29.6242 63.2297 30.046C63.4959 30.5296 63.5321 31.075 63.2701 31.5523C62.9102 32.2084 63.0678 32.4108 63.7833 32.3363C63.9303 32.3214 64.0964 32.4726 64.2518 32.5451C64.2646 32.7198 64.2774 32.8945 64.2902 33.0692C64.1283 34.0108 64.1688 35.0548 63.7514 35.8622C63.2978 36.74 63.6662 36.7421 64.2859 36.8039C64.2774 36.8742 64.2689 36.9467 64.2603 37.017C63.6982 37.4473 63.8706 38.0545 63.8706 38.6212C63.8472 38.7235 63.8238 38.8279 63.8004 38.9301C63.3148 38.8598 62.7058 38.4252 62.5674 39.3562C62.3502 39.4031 61.9903 39.2753 61.9626 39.5778C61.9307 39.9293 62.3246 39.9059 62.5674 39.9954C62.4567 40.1978 62.7612 40.7453 62.1713 40.5408C61.4387 40.2873 61.6176 40.9967 61.4515 41.2439C61.1789 41.6487 61.5218 41.8574 61.9285 41.9086L61.9328 41.9128C62.0158 42.062 62.0968 42.2132 62.1798 42.3624V42.3581C60.9724 42.6521 60.8553 44.5589 59.2858 44.3182C58.8663 45.2428 57.9187 45.8905 57.8825 47.0132L57.8761 47.0196C57.069 46.6745 56.296 46.4295 56.0234 47.8505C55.638 47.1645 55.31 46.8215 54.7649 47.4564C54.5647 47.6886 54.1324 47.6865 53.8832 47.4628C53.5489 47.1624 53.8811 46.879 54.0408 46.6319C54.2516 46.308 54.4965 46.0034 54.7499 45.7115C54.8905 45.5496 55.1141 45.4047 55.2717 45.6668C55.7977 46.536 56.1554 45.8905 56.4387 45.5006C56.7091 45.1256 56.9646 44.8444 57.4566 44.8977C57.4566 45.181 57.4566 45.4622 57.4566 45.7456C57.3863 45.8159 57.1457 45.7626 57.2841 45.9842L57.4608 45.7477C57.9676 45.4644 57.9676 45.1789 57.4608 44.8934L57.4672 44.8891ZM62.6078 36.9957C62.9528 37.0511 62.9677 36.8146 62.972 36.6058C62.9826 36.2138 62.8293 35.9091 62.4013 35.8644C62.0882 35.8324 61.8178 35.9943 61.8114 36.3203C61.8008 36.8401 62.3331 36.7933 62.6057 36.9935L62.6078 36.9957ZM54.126 23.0686C54.1814 23.0452 54.2346 23.0218 54.29 23.0005C54.2623 22.9515 54.2431 22.8705 54.2048 22.8599C54.1579 22.8471 54.0962 22.8961 54.0408 22.9174C54.0685 22.9664 54.0962 23.0175 54.126 23.0708V23.0686ZM60.2058 43.336C60.193 43.3637 60.1653 43.3957 60.1717 43.417C60.1781 43.4361 60.2228 43.4447 60.2505 43.4574C60.2633 43.4297 60.2909 43.3978 60.2846 43.3765C60.2782 43.3573 60.2334 43.3488 60.2079 43.336H60.2058ZM57.7036 26.0002C57.7164 25.9725 57.744 25.9427 57.7377 25.9214C57.7313 25.9022 57.6887 25.8958 57.6631 25.883C57.6503 25.9086 57.6227 25.9405 57.6312 25.9618C57.6376 25.981 57.6802 25.9895 57.7057 26.0002H57.7036Z" fill="white"/>
<path d="M36.6171 26.5563C36.5639 26.6053 36.5127 26.6522 36.4595 26.7012C36.2082 26.0748 36.2615 25.4697 36.5788 24.8817C36.5937 25.3036 36.6107 25.7275 36.6256 26.1494C36.6213 26.2857 36.6192 26.4221 36.615 26.5584L36.6171 26.5563Z" fill="white"/>
<path d="M62.1841 42.3624C62.1011 42.2133 62.0201 42.062 61.9371 41.9129C61.9605 41.8639 61.9839 41.8149 62.0095 41.7659C61.9839 41.8127 61.9584 41.8617 61.9328 41.9086C61.5261 41.8575 61.1832 41.6487 61.4558 41.2439C61.6219 40.9968 61.443 40.2852 62.1756 40.5408C62.7655 40.7454 62.4609 40.1957 62.5717 39.9954H62.5738C62.8208 39.9102 63.2127 39.9294 63.1807 39.5757C63.153 39.2689 62.7931 39.3946 62.5738 39.3563C62.7122 38.4231 63.3213 38.8578 63.8068 38.9281C63.8068 39.0751 63.8068 39.2199 63.8089 39.3669C63.2382 40.3491 62.9869 41.506 62.1841 42.3624Z" fill="white"/>
<path d="M64.254 32.5429C64.0964 32.4683 63.9324 32.3192 63.7855 32.3341C63.07 32.4087 62.9145 32.2063 63.2723 31.5501C63.5342 31.0728 63.498 30.5274 63.2318 30.0438C62.9997 29.622 62.989 29.181 63.0018 28.7272C63.6662 29.9181 64.173 31.1623 64.2561 32.545L64.254 32.5429Z" fill="white"/>
<path d="M64.2901 36.7997C63.6704 36.7379 63.302 36.7379 63.7556 35.858C64.173 35.0506 64.1325 34.0045 64.2943 33.0649C64.65 34.3091 64.5712 35.5534 64.2901 36.7997Z" fill="white"/>
<path d="M63.8749 38.619C63.8749 38.0523 63.7003 37.4451 64.2646 37.0148C64.2859 37.5857 64.1815 38.1269 63.8749 38.619Z" fill="white"/>
<path d="M62.1372 28.2692C62.1926 28.201 62.2458 28.1328 62.3012 28.0668C62.3203 28.0859 62.3416 28.1073 62.3608 28.1264C62.2927 28.1818 62.2266 28.2351 62.1585 28.2905L62.1372 28.2692Z" fill="white"/>
<path d="M36.1487 44.1562C36.4873 44.1924 36.762 44.0497 37.0218 43.8537C37.2006 43.7174 37.4242 43.6236 37.5414 43.8942C37.6436 44.1307 37.4647 44.3373 37.256 44.3757C36.6789 44.4822 36.2828 44.8699 35.8271 45.3024C35.5055 44.7144 36.0613 44.5035 36.1572 44.1541L36.1487 44.1562Z" fill="white"/>
<path d="M22.7795 40.8263C23.1032 41.2652 22.9797 41.6124 22.7263 41.9299C22.5495 42.1515 22.2855 42.422 22.015 42.226C21.6488 41.9576 22.0406 41.7616 22.1982 41.5613C22.3834 41.327 22.5708 41.0905 22.7795 40.8284V40.8263Z" fill="white"/>
<path d="M35.7846 27.059C35.8314 27.0995 35.9549 27.157 35.9592 27.2188C35.9699 27.434 35.8016 27.5043 35.6249 27.4872C35.561 27.4809 35.4566 27.3552 35.4588 27.287C35.463 27.1315 35.5972 27.0718 35.7846 27.0569V27.059Z" fill="white"/>
<path d="M57.8889 47.0133C57.9251 45.8905 58.8727 45.2428 59.2923 44.3182C60.8638 44.5611 60.9788 42.6522 62.1863 42.3582C61.6539 43.5193 60.7382 44.3992 59.9588 45.3771C59.8374 45.5006 59.716 45.6242 59.5947 45.7478C59.0261 46.1696 58.4575 46.5914 57.891 47.0133H57.8889Z" fill="white"/>
<path d="M57.8485 29.1491C57.5972 28.7528 57.3438 28.3566 57.0925 27.9603C56.4856 26.6863 55.5933 25.6572 54.4306 24.8604C53.8748 24.4471 53.319 24.0338 52.7632 23.6226C53.7939 23.3755 54.7096 23.8932 55.6465 24.1297C56.6517 24.3853 56.7049 24.8242 56.0171 25.5379C57.5695 26.3028 57.9464 26.8993 57.8463 29.147L57.8485 29.1491Z" fill="white"/>
<path d="M62.6079 36.9957C62.3354 36.7954 61.803 36.8423 61.8136 36.3224C61.82 35.9965 62.0883 35.8346 62.4035 35.8665C62.8315 35.9091 62.9827 36.2159 62.9742 36.6079C62.97 36.8167 62.9551 37.0532 62.6101 36.9978L62.6079 36.9957Z" fill="white"/>
<path d="M62.5717 39.9953C62.3311 39.9059 61.9371 39.9293 61.9669 39.5778C61.9946 39.2731 62.3524 39.4031 62.5717 39.3562C62.5717 39.5693 62.5717 39.7802 62.5717 39.9932H62.5696L62.5717 39.9953Z" fill="white"/>
<path d="M57.4672 44.8892C57.9719 45.1746 57.9719 45.4601 57.4672 45.7435H57.4651C57.4651 45.458 57.4651 45.1746 57.4651 44.8934L57.4693 44.8892H57.4672Z" fill="white"/>
<path d="M54.126 23.0686C54.0961 23.0153 54.0685 22.9663 54.0408 22.9152C54.0961 22.8939 54.1579 22.8449 54.2047 22.8577C54.2431 22.8683 54.2622 22.9493 54.2899 22.9983C54.2346 23.0217 54.1813 23.0452 54.126 23.0665V23.0686Z" fill="white"/>
<path d="M60.2058 43.3361C60.2335 43.3488 60.2761 43.3574 60.2825 43.3765C60.2889 43.3978 60.2612 43.4298 60.2484 43.4575C60.2208 43.4447 60.1782 43.4383 60.1696 43.417C60.1633 43.3957 60.1909 43.3638 60.2037 43.3361H60.2058Z" fill="white"/>
<path d="M57.7037 26.0023C57.6781 25.9895 57.6355 25.9831 57.6291 25.964C57.6227 25.9448 57.6504 25.9128 57.6611 25.8851C57.6866 25.8979 57.7292 25.9043 57.7356 25.9235C57.742 25.9448 57.7143 25.9746 57.7015 26.0023H57.7037Z" fill="white"/>
<path d="M57.4672 45.7455L57.2905 45.982C57.152 45.7605 57.3927 45.8137 57.463 45.7434L57.4651 45.7455H57.4672Z" fill="white"/>
<path d="M62.5737 39.9932C62.5737 39.7802 62.5737 39.5693 62.5737 39.3562C62.7952 39.3967 63.153 39.2689 63.1806 39.5756C63.2126 39.9293 62.8208 39.9101 62.5737 39.9932Z" fill="white"/>
<path d="M61.9329 41.9086C61.9584 41.8617 61.984 41.8127 62.0095 41.7659C61.9861 41.8149 61.9627 41.8639 61.9371 41.9129L61.9329 41.9086Z" fill="white"/>
<path d="M32.5114 33.5528C33.1225 33.2886 33.7273 33.0074 34.3491 32.7667C34.7005 32.6303 35.1562 32.4002 35.3606 32.9052C35.531 33.327 35.0881 33.4932 34.7963 33.6806C34.6792 33.7573 34.5493 33.817 34.4258 33.8852C33.9211 34.0258 33.4228 34.1962 32.9117 34.2964C32.6029 34.356 32.1983 34.7587 31.9811 34.3326C31.798 33.9725 32.2792 33.785 32.5114 33.5528Z" fill="white"/>
</g>
<defs>
<clipPath id="clip0_1949_344">
<rect width="44.1022" height="45.2048" fill="white" transform="translate(20.4287 20.0542)"/>
</clipPath>
</defs>
</svg>
