<svg width="86" height="85" viewBox="0 0 86 85" fill="none" xmlns="http://www.w3.org/2000/svg">
<g clip-path="url(#clip0_1985_387)">
<path d="M16.7528 29.782C12.4711 29.782 9.04688 34.1619 9.04688 39.5886C9.04687 45.0154 12.4711 49.4248 16.7528 49.4248C20.9425 49.4248 24.4597 44.9777 24.4597 39.5886C24.4597 34.1996 20.9342 29.782 16.7528 29.782ZM16.8036 30.3307C20.2239 30.3307 23.0205 34.5177 23.0205 39.5424C23.0205 44.6509 20.2323 48.755 16.8036 48.755C13.3748 48.755 10.5811 44.6593 10.5811 39.5424C10.5811 34.5177 13.3748 30.3307 16.8036 30.3307ZM16.4936 32.1147C13.9388 32.2152 12.0445 35.0454 11.9399 36.8836C11.9315 36.9921 11.9736 37.0988 12.0534 37.1728L17.0121 42.1976V47.105C19.5836 47.0045 21.5155 44.1151 21.5657 42.2936V42.2807C21.5654 42.1778 21.523 42.08 21.4485 42.0091L16.4936 37.0305V32.1147ZM17.0121 32.1184V37.0887H21.3526C21.4121 37.0926 21.4704 37.0703 21.5122 37.0277C21.554 36.9851 21.5753 36.9265 21.5703 36.867H21.5657C21.4779 35.0413 19.5543 32.2147 17.0121 32.1184ZM12.1494 42.1218C12.087 42.1163 12.0255 42.1412 11.9842 42.1883C11.9469 42.231 11.9328 42.2878 11.9399 42.3435C12.0403 44.1692 13.9555 46.9792 16.4936 47.0755V42.1218H12.1494Z" fill="white"/>
<path d="M31.1916 31.7164C27.5664 31.7164 26.0485 34.0065 26.0485 36.3431C26.0485 38.9517 28.2565 39.6391 29.2349 39.8694L32.295 40.577C34.7536 41.1591 35.4814 41.6569 35.4814 43.2229C35.4814 45.3585 33.0273 45.7358 31.568 45.7358C29.653 45.7358 27.4452 44.9445 27.4452 42.2354H25.5549C25.5549 43.6297 25.8181 44.8813 27.0725 46.0287C27.7373 46.6275 28.8203 47.4653 31.5883 47.4653C34.1515 47.4653 37.4427 46.4855 37.4427 42.943C37.4427 40.5646 35.9875 39.3997 34.0515 38.9391L29.782 37.9598C28.9081 37.7379 28.0135 37.3193 28.0135 36.0631C28.0135 33.7936 30.1752 33.4376 31.4296 33.4376C33.1147 33.4376 35.03 34.1661 35.1346 36.4816L37.0202 36.4899C36.9366 34.8443 36.4183 31.7164 31.1916 31.7164ZM56.7228 31.7377C51.8515 31.7377 49.6442 35.8453 49.6442 39.4925C49.6442 41.0794 49.7062 43.6416 51.9976 45.8106C52.7879 46.5476 54.0384 47.4856 56.5974 47.4856C58.5178 47.5286 60.3458 46.6629 61.5311 45.1492L61.5938 47.0883H63.3208V39.0823H56.7643V40.8283H61.4056C61.4056 42.4321 61.0755 43.7675 59.7626 44.8101C58.8842 45.4754 57.802 45.8144 56.7016 45.7691C52.7251 45.7691 51.7264 42.641 51.7264 39.5968C51.7264 35.6775 53.9341 33.5299 56.6186 33.5299C58.266 33.5299 60.4526 34.0739 61.0966 36.6784H63.0533C62.6142 33.3202 59.5118 31.7377 56.7228 31.7377ZM42.7741 32.1183L37.154 47.0883H39.2445L40.8045 42.7287H46.7963L48.2724 47.0883H50.48L45.0657 32.1183H42.7741ZM64.7387 32.1183V47.0883H75.7732V45.2961H66.7582V40.2916H74.9411V38.4956H66.7582V33.9106H75.6265V32.1183H64.7387ZM43.8193 34.3503H43.8608L46.0685 40.9364H41.4235L43.8193 34.3503Z" fill="white"/>
<path d="M48.3267 53.5992H48.9455V51.694H50.3672C50.7506 51.7492 51.138 51.6239 51.4168 51.3546C51.6955 51.0853 51.8344 50.702 51.793 50.3163C51.793 49.4538 51.2912 48.9387 50.3672 48.9387H48.3267V53.5992ZM48.9455 49.4621H50.1581C50.8564 49.4621 51.1742 49.7636 51.1742 50.2996C51.1742 50.8356 50.8564 51.1622 50.1581 51.1371H48.9455V49.4621ZM54.9792 50.2242H54.4273V52.1294C54.4599 52.4077 54.3679 52.6861 54.1758 52.8898C53.9837 53.0935 53.7113 53.2014 53.4321 53.1846C53.2475 53.1997 53.0655 53.1334 52.9338 53.0031C52.802 52.8727 52.7336 52.6913 52.7464 52.5063V50.2242H52.1902V52.4435C52.1902 53.1679 52.462 53.6787 53.3485 53.6787C53.801 53.7045 54.2278 53.4664 54.444 53.0674V53.6034H54.9667L54.9792 50.2242ZM58.2323 51.8991C58.2323 52.5565 57.9772 53.2056 57.2204 53.2056C56.4636 53.2056 56.1583 52.5942 56.1583 51.9285C56.1583 51.2627 56.4469 50.6723 57.187 50.6723C57.9271 50.6723 58.2281 51.2878 58.2281 51.9285L58.2323 51.8991ZM55.6231 53.6452H56.1751V53.193C56.428 53.5382 56.835 53.7357 57.2622 53.7206C58.2908 53.7206 58.801 52.9167 58.801 51.9661C58.801 51.0156 58.2867 50.1907 57.2497 50.1907C56.8186 50.1491 56.4016 50.3571 56.1751 50.7267V48.9848H55.6231V53.6452ZM59.3111 53.6452H59.8672V48.9429H59.3111V53.6452ZM60.5195 53.6452H61.0756V50.2703H60.5195V53.6452ZM61.0756 48.9848H60.5195V49.6631H61.0756V48.9848ZM61.523 52.5817C61.5565 53.4191 62.1962 53.7248 62.9489 53.7248C63.6346 53.7248 64.3831 53.4652 64.3831 52.6612C64.3831 52.008 63.8353 51.8238 63.2834 51.7023C62.7314 51.5809 62.1837 51.5139 62.1837 51.1161C62.1837 50.7183 62.5684 50.6974 62.8987 50.6974C63.229 50.6974 63.643 50.8356 63.6806 51.2627H64.2409C64.1949 50.4252 63.6012 50.2075 62.8611 50.2075C62.2757 50.2075 61.6067 50.488 61.6067 51.1664C61.6067 51.8447 62.1586 52.0038 62.7064 52.1211C63.2541 52.2383 63.806 52.3179 63.806 52.7492C63.806 53.1805 63.3377 53.2516 62.9907 53.2516C62.5349 53.2516 62.1042 53.0967 62.0833 52.5984L61.523 52.5817ZM64.8138 53.6452H65.3657V51.74C65.333 51.4618 65.4251 51.1834 65.6172 50.9797C65.8093 50.776 66.0816 50.668 66.3609 50.6848C66.5455 50.6697 66.7274 50.736 66.8592 50.8664C66.991 50.9967 67.0594 51.1781 67.0466 51.3632V53.6452H67.586V51.426C67.586 50.7016 67.3142 50.1949 66.4278 50.1949C65.9935 50.1678 65.5816 50.3903 65.3657 50.7686V48.9848H64.8138V53.6452ZM68.2508 53.6452H68.807V50.2703H68.2508V53.6452ZM68.807 48.9848H68.2508V49.6631H68.807V48.9848ZM69.4467 53.6452H69.9986V51.74C69.966 51.4618 70.0581 51.1834 70.2501 50.9797C70.4422 50.776 70.7146 50.668 70.9938 50.6848C71.1784 50.6697 71.3604 50.736 71.4922 50.8664C71.6239 50.9967 71.6923 51.1781 71.6795 51.3632V53.6452H72.2315V51.426C72.2315 50.7016 71.9597 50.1949 71.0733 50.1949C70.6198 50.1699 70.1928 50.4098 69.9777 50.8104V50.2745H69.4551L69.4467 53.6452ZM74.2218 53.193C73.4943 53.193 73.2726 52.5147 73.2726 51.9075C73.2726 51.3004 73.5612 50.6806 74.2678 50.6806C74.9745 50.6806 75.2253 51.2962 75.2253 51.8866C75.2253 52.477 74.9536 53.193 74.2218 53.193ZM75.7731 50.2619H75.2504V50.7183C75.0479 50.3572 74.6602 50.1404 74.2469 50.1572C73.0803 50.1572 72.6914 51.1412 72.6914 51.9368C72.6914 52.858 73.1932 53.6452 74.1967 53.6452C74.6361 53.6654 75.0465 53.4263 75.2462 53.0339V53.2307C75.2462 53.9886 74.9577 54.512 74.2344 54.512C73.8706 54.512 73.3981 54.3696 73.3605 53.9635H72.8127C72.8461 54.7004 73.5737 54.9559 74.2093 54.9559C75.2713 54.9559 75.7731 54.3948 75.7731 53.2809V50.2619Z" fill="white"/>
</g>
<defs>
<clipPath id="clip0_1985_387">
<rect width="67.0721" height="25.5425" fill="white" transform="translate(9.04688 29.7821)"/>
</clipPath>
</defs>
</svg>
