<svg width="86" height="86" viewBox="0 0 86 86" fill="none" xmlns="http://www.w3.org/2000/svg">
<g clip-path="url(#clip0_1985_23)">
<path d="M48.4576 32.7464C48.4008 31.8941 48.1735 31.0418 47.7189 30.3031L43.8551 23.5415C43.571 23.0301 43.3437 22.4619 43.2301 21.8937L43.0596 22.1778C42.0937 23.8256 42.0937 25.9279 43.0596 27.5758L46.1848 32.9737C47.1507 34.6215 47.1507 36.7239 46.1848 38.3717L46.0143 38.6558C45.9007 38.0876 45.6734 37.5194 45.3893 37.008L42.5483 32.0646L40.73 28.8826C40.4459 28.3712 40.2186 27.803 40.105 27.2348L39.9345 27.5189C38.9685 29.1667 38.9685 31.2123 39.9345 32.9169L43.0596 38.3149C44.0256 39.9627 44.0256 42.065 43.0596 43.7128L42.8892 43.9969C42.7755 43.4287 42.5483 42.8605 42.2642 42.3491L38.3435 35.5875C37.8321 34.6783 37.6049 33.6556 37.6049 32.6328C33.4569 33.7124 30.5591 36.042 30.5591 38.7126C30.5591 42.4628 36.1275 45.4743 43.0028 45.4743C49.8781 45.4743 55.4466 42.4628 55.4466 38.7126C55.5034 36.1557 52.6623 33.826 48.4576 32.7464Z" fill="white"/>
</g>
<g clip-path="url(#clip1_1985_23)">
<path d="M7.42822 62.6159C7.46647 61.9657 7.54296 61.545 7.7342 61.0095C8.61387 61.4302 9.76127 61.6215 10.6027 61.6215C12.0561 61.6215 12.8975 61.1625 12.8975 60.2063C12.8975 59.2884 12.2855 58.8677 10.8322 58.2175L10.029 57.9115C8.53737 57.2613 7.54296 56.4199 7.54296 54.7753C7.54296 52.9777 8.8051 51.8303 11.3294 51.8303C12.362 51.8303 13.3182 51.9833 14.1979 52.2893C14.1596 52.9012 14.0449 53.3984 13.8919 53.8574C13.0505 53.5514 12.0178 53.3984 11.2911 53.3984C9.91425 53.3984 9.30231 53.9339 9.30231 54.7753C9.30231 55.5785 9.91425 56.0757 11.0234 56.5347L11.8648 56.8789C13.8537 57.7203 14.6951 58.6382 14.6951 60.1681C14.6951 61.9657 13.3182 63.2278 10.6409 63.2278C9.3788 63.2278 8.3079 63.0366 7.42822 62.6159ZM23.1476 55.0813V62.9601H21.5412L21.4647 62.0039C21.0058 62.6924 20.3556 63.1513 19.2464 63.1513C17.1811 63.1513 15.766 61.6215 15.766 58.9824C15.766 56.2287 17.2576 54.6223 20.1644 54.6223C21.3118 54.6606 22.2679 54.7753 23.1476 55.0813ZM21.4265 61.1625V56.2287C21.0823 56.1522 20.6616 56.1522 20.1644 56.1522C18.3668 56.1522 17.5253 57.2613 17.5253 59.0207C17.5253 60.6271 18.1755 61.7744 19.7054 61.7744C20.4321 61.7362 20.9675 61.5067 21.4265 61.1625ZM32.0208 57.6821V62.9601H30.2997V57.988C30.2997 56.7259 29.879 56.1522 28.1579 56.1522C27.7372 56.1522 27.2782 56.1904 26.781 56.2669V62.9601H25.0599V55.0813C26.1691 54.8136 27.393 54.6223 28.1961 54.6223C31.1029 54.6606 32.0208 55.7697 32.0208 57.6821ZM36.8399 61.698C37.3371 61.698 37.8343 61.6215 38.1785 61.4685C38.1403 61.9274 38.0638 62.4629 37.9873 62.9218C37.5283 63.1131 36.9929 63.1896 36.5339 63.1896C34.8511 63.1896 33.7802 62.4246 33.7802 60.5123V52.2128C34.3156 52.0216 34.9658 51.9451 35.5013 51.9451V54.9283H38.255C38.2168 55.4638 38.1785 55.961 38.102 56.4199H35.5013V60.2828C35.5013 61.2772 35.9985 61.698 36.8399 61.698ZM46.1338 55.0813V62.9601H44.5275L44.451 62.0039C43.992 62.6924 43.3418 63.1513 42.2327 63.1513C40.1673 63.1513 38.7522 61.6215 38.7522 58.9824C38.7522 56.2287 40.2438 54.6223 43.1506 54.6223C44.298 54.6606 45.2159 54.7753 46.1338 55.0813ZM44.3745 61.1625V56.2287C44.0303 56.1522 43.6095 56.1522 43.1123 56.1522C41.3147 56.1522 40.4733 57.2613 40.4733 59.0207C40.4733 60.6271 41.1235 61.7744 42.6534 61.7744C43.3801 61.7362 43.9538 61.5067 44.3745 61.1625ZM55.007 57.6821V62.9601H53.2477V57.988C53.2477 56.7259 52.827 56.1522 51.1059 56.1522C50.6852 56.1522 50.2262 56.1904 49.729 56.2669V62.9601H48.0079V55.0813C49.1171 54.8136 50.341 54.6223 51.1441 54.6223C54.0509 54.6606 55.007 55.7697 55.007 57.6821ZM63.7655 51.9451V62.9601H62.1592L62.0827 61.9657C61.6237 62.6924 60.9735 63.1513 59.8261 63.1513C57.7608 63.1513 56.3457 61.6215 56.3457 58.9824C56.3457 56.2287 57.8373 54.6223 60.744 54.6223C61.203 54.6223 61.6237 54.6606 62.0444 54.7371V52.1363C62.5799 51.9833 63.1918 51.9451 63.7655 51.9451ZM62.0444 61.1625V56.3052C61.5855 56.2287 61.1265 56.1522 60.6675 56.1522C58.9464 56.1522 58.1433 57.2231 58.1433 59.0207C58.1433 60.6271 58.7935 61.7744 60.3233 61.7744C61.0118 61.7362 61.5855 61.5067 62.0444 61.1625ZM72.4858 59.5944H66.94C67.1695 61.0095 67.9727 61.6597 69.5408 61.6597C70.4969 61.6597 71.4531 61.4685 72.2945 61.0478C72.218 61.5067 72.1415 62.1187 72.0268 62.6159C71.2236 62.9601 70.4204 63.1131 69.4643 63.1131C66.5575 63.1131 65.1806 61.5067 65.1806 58.8295C65.1806 56.4964 66.2516 54.6223 69.0053 54.6223C71.4913 54.6223 72.5622 56.2287 72.5622 58.2175C72.5622 58.753 72.5623 59.1354 72.4858 59.5944ZM66.94 58.141H70.8412C70.8412 56.8406 70.1527 56.0757 68.9671 56.0757C67.7049 56.1139 67.0547 56.8024 66.94 58.141ZM78.567 54.7371C78.567 55.2725 78.4905 55.8845 78.414 56.2287C77.9933 56.1904 77.6108 56.1522 77.1136 56.1522C76.6929 56.1522 76.2722 56.1904 75.8515 56.2287V62.9601H74.1304V55.0813C74.8571 54.8136 76.1192 54.6223 77.0754 54.6223C77.5726 54.6606 78.1845 54.6606 78.567 54.7371Z" fill="white"/>
</g>
<defs>
<clipPath id="clip0_1985_23">
<rect width="24.8735" height="23.5806" fill="white" transform="translate(30.5591 21.8938)"/>
</clipPath>
<clipPath id="clip1_1985_23">
<rect width="71.1148" height="15.8724" fill="white" transform="translate(7.43848 47.5465)"/>
</clipPath>
</defs>
</svg>
