<svg width="86" height="85" viewBox="0 0 86 85" fill="none" xmlns="http://www.w3.org/2000/svg">
<g clip-path="url(#clip0_1985_186)">
<path d="M51.9826 13.6571C52.4099 13.9043 52.8499 14.1344 53.2643 14.402C56.3931 16.4258 58.5431 19.2447 59.9629 22.6555C60.04 22.8407 60.1246 23.0216 60.282 23.1907C60.6472 22.2392 60.3762 21.2814 60.3773 20.3342C60.3795 19.356 60.3773 18.3778 60.4651 17.2916C60.6546 17.5142 60.8356 17.7443 61.0348 17.9572C63.3219 20.4113 64.6957 23.3244 65.3231 26.595C65.8521 29.3541 65.9377 32.1324 65.6658 34.9343C65.3606 38.0861 64.5404 41.0592 62.7833 43.7144C62.1772 44.6316 61.4138 45.4439 60.7157 46.3001C60.6429 46.3889 60.5315 46.4467 60.3805 46.5644C60.3805 45.5231 60.3795 44.5524 60.3805 43.5817C60.3816 42.6345 60.6386 41.6778 60.2842 40.7199C58.5474 44.7932 56.059 48.1623 51.9676 50.2449V47.0599C46.1203 50.3284 40.2986 50.3391 34.433 47.0578V50.2481C30.3653 48.1762 27.8543 44.8274 26.1958 40.7263C26.1433 40.7231 26.0908 40.721 26.0394 40.7178C26.003 40.9125 25.9323 41.1073 25.9356 41.301C25.9602 42.8518 25.9987 44.4015 26.0319 45.9522C26.0362 46.1278 26.0319 46.3043 26.0319 46.6115C25.8317 46.4349 25.7021 46.3365 25.5908 46.2198C22.8282 43.3334 21.3249 39.8594 20.8602 35.9253C20.6932 34.5147 20.5411 33.087 20.5668 31.6711C20.6289 28.2496 21.1129 24.8998 22.6869 21.7929C23.4418 20.3032 24.399 18.9579 25.5597 17.7571C25.6807 17.6319 25.8178 17.5227 26.0019 17.3579V23.1693C26.0533 23.1832 26.1047 23.1971 26.1561 23.211C26.2461 23.0408 26.3521 22.8782 26.4238 22.7005C27.8447 19.2244 30.0419 16.3797 33.2295 14.342C33.6161 14.0948 34.024 13.884 34.4223 13.6571C34.4577 13.6571 34.4941 13.6571 34.5294 13.6571C34.4652 14.6973 34.4009 15.7376 34.327 16.932C40.2858 13.5918 46.1171 13.5843 52.0704 16.932C51.9998 15.7355 51.9377 14.6963 51.8756 13.656C51.9109 13.656 51.9473 13.656 51.9826 13.656V13.6571Z" fill="white"/>
<path d="M15.363 31.5299C15.4134 31.2014 15.4862 30.8749 15.5108 30.5453C15.7132 27.8066 16.3139 25.2006 17.9949 22.9456C18.0902 22.8172 18.1962 22.6952 18.3065 22.5785C18.4618 22.4137 18.6267 22.2564 18.8815 22.0006C18.4211 28.6778 18.4136 35.234 18.874 41.7891C18.8323 41.8148 18.7916 41.8415 18.7498 41.8672C18.3579 41.3792 17.9232 40.9201 17.5827 40.3989C16.4102 38.6009 15.8759 36.5835 15.6168 34.4762C15.5397 33.8502 15.4476 33.2262 15.363 32.6001C15.363 32.2438 15.363 31.8863 15.363 31.5299Z" fill="white"/>
<path d="M71.0419 32.2791C70.9948 32.4642 70.9091 32.6494 70.907 32.8345C70.8781 34.8851 70.4583 36.8532 69.6949 38.7539C69.1959 39.9943 68.3318 41.2593 67.5181 41.8512C67.9903 35.2393 67.9849 28.6906 67.5181 22.0327C68.5899 22.9553 69.2216 24.0351 69.7024 25.2049C70.4744 27.081 70.8695 29.0395 70.9027 31.0719C70.907 31.3319 70.9937 31.5909 71.0419 31.851V32.2791Z" fill="white"/>
<path d="M67.2943 71.4493C66.9346 71.3551 66.563 71.2909 66.2171 71.1593C65.3595 70.8339 64.8295 70.1243 64.8723 69.3516C64.9215 68.4698 65.4248 67.909 66.2279 67.6072C67.1305 67.2679 68.0289 67.2743 68.9422 67.62C69.1938 67.7153 69.5129 67.635 69.832 67.635V69.0295C69.5665 68.8294 69.3662 68.7373 69.2517 68.5822C68.8244 67.9989 67.9882 67.7217 67.1262 67.9379C66.5105 68.0931 66.1561 68.5094 66.0437 69.128C65.9313 69.7412 66.2311 70.3908 66.7525 70.6841C67.3222 71.0041 68.3565 70.9795 68.7291 70.5867C68.8673 70.4411 68.9444 70.1725 68.9272 69.9713C68.9176 69.8621 68.6531 69.7712 68.4978 69.6813C68.3726 69.6085 68.2377 69.5518 68.107 69.4876C68.1274 69.434 68.1488 69.3795 68.1691 69.326H70.74C70.5965 69.4961 70.5237 69.6577 70.4488 69.6588C69.9337 69.6631 69.9541 70.0023 69.9669 70.3587C69.9776 70.6402 69.9691 70.9227 69.9691 71.3401C69.6735 71.2053 69.4744 71.1154 69.2613 71.018C68.8309 71.1475 68.3297 71.2984 67.8286 71.4504H67.2933L67.2943 71.4493Z" fill="white"/>
<path d="M23.8218 71.4494C23.5648 71.3905 23.3047 71.3391 23.0509 71.2696C22.235 71.047 21.9641 70.7013 21.9523 69.8633C21.9437 69.2629 21.9512 68.6625 21.9512 68.0621C21.9063 68.0867 21.8613 68.1113 21.8174 68.1349C21.6311 68.0022 21.4448 67.8695 21.2595 67.7368C21.4929 67.6747 21.7242 67.573 21.9598 67.5591C22.4395 67.5313 22.9224 67.5366 23.4021 67.5612C23.5456 67.5687 23.6826 67.6832 23.8229 67.7485C23.6848 67.8352 23.5488 67.9251 23.4064 68.0054C23.3625 68.03 23.3036 68.0279 23.1922 68.0503C23.1922 68.8316 23.1655 69.6236 23.2136 70.4123C23.2243 70.5804 23.4963 70.85 23.6676 70.8672C24.1484 70.9132 24.6624 70.9271 25.1185 70.7976C25.3305 70.7377 25.5372 70.3299 25.5746 70.057C25.6475 69.5326 25.5896 68.9911 25.6014 68.457C25.6078 68.1584 25.5275 67.984 25.1828 67.9893C25.096 67.9904 25.0061 67.8384 24.9183 67.7571C25.0189 67.6886 25.1164 67.5655 25.2192 67.5612C25.7171 67.5409 26.2171 67.5409 26.715 67.5612C26.821 67.5655 26.9216 67.6832 27.0255 67.7496C26.9227 67.8341 26.8178 67.9904 26.7161 67.9893C26.3542 67.9851 26.3092 68.1884 26.3167 68.4709C26.3285 68.898 26.3231 69.326 26.3349 69.7531C26.3638 70.804 26.0404 71.184 24.975 71.352C24.8744 71.368 24.778 71.4162 24.6806 71.4504H23.824L23.8218 71.4494Z" fill="white"/>
<path d="M45.3461 63.4558C45.6898 62.7077 45.965 62.057 46.2916 61.432C46.3751 61.2725 46.6117 61.113 46.7895 61.0991C47.3206 61.0552 47.8592 61.0702 48.3924 61.0938C48.5048 61.0991 48.6108 61.2425 48.72 61.3228C48.6183 61.3892 48.5209 61.5058 48.4149 61.5133C48.1172 61.5336 48.0144 61.6738 48.0198 61.9585C48.0315 62.5996 48.0059 63.2428 48.0444 63.8817C48.053 64.0198 48.2618 64.1525 48.3913 64.2734C48.4963 64.3719 48.6194 64.4489 48.735 64.5356L48.6526 64.7101C47.962 64.7101 47.2713 64.7165 46.5807 64.7015C46.4918 64.6994 46.4051 64.5859 46.3173 64.5238C46.4019 64.4414 46.4875 64.359 46.571 64.2756C46.6888 64.1589 46.9019 64.0455 46.9073 63.9224C46.9405 63.2364 46.9233 62.5471 46.7991 61.8258C46.4479 62.6071 46.101 63.3894 45.7444 64.1675C45.6266 64.4254 45.5902 64.7208 45.1566 64.7315C44.7165 64.7422 44.6223 64.4821 44.4917 64.1889C44.1437 63.4119 43.7914 62.636 43.3288 61.8729C43.3288 62.6017 43.3192 63.3305 43.3427 64.0583C43.3449 64.1332 43.5408 64.2006 43.6436 64.2756C43.7421 64.3462 43.8364 64.4232 43.9316 64.4971C43.8342 64.5677 43.7389 64.6962 43.6383 64.7004C43.1757 64.7229 42.711 64.7229 42.2484 64.7004C42.1456 64.6951 42.0482 64.5688 41.9486 64.4982C42.0439 64.4232 42.1403 64.2852 42.2345 64.2863C42.5525 64.2916 42.6382 64.1289 42.6371 63.856C42.635 63.2321 42.6275 62.6081 42.6414 61.9853C42.6532 61.4972 42.3084 61.5208 41.8833 61.3913C41.9925 61.2885 42.0985 61.1826 42.212 61.0852C42.2324 61.067 42.2816 61.0809 42.317 61.082C42.9401 61.0884 43.695 60.8829 44.1501 61.1633C44.5966 61.4384 44.7401 62.2068 45.0142 62.7601C45.1084 62.9506 45.1962 63.1433 45.345 63.4558H45.3461Z" fill="white"/>
<path d="M48.2981 71.0127C48.4191 70.9206 48.5454 70.744 48.6611 70.7505C49.1151 70.7793 49.2018 70.56 49.1836 70.1683C49.159 69.6171 49.1622 69.0627 49.1836 68.5105C49.1965 68.1605 49.1129 67.9732 48.7146 67.9893C48.5958 67.9946 48.4694 67.8384 48.3473 67.757C48.4651 67.6885 48.5818 67.5633 48.7018 67.5601C49.4331 67.5419 50.1644 67.5441 50.8957 67.5622C50.9942 67.5644 51.0885 67.7003 51.1848 67.7752C51.1067 67.8501 51.0381 67.9721 50.9482 67.9925C50.2147 68.1562 50.2137 68.1498 50.3036 69.0648H52.6957C52.6957 68.8701 52.6828 68.6785 52.6989 68.4901C52.731 68.1177 52.5715 67.9839 52.201 67.9882C52.0596 67.9893 51.9172 67.8373 51.7748 67.756C51.9129 67.6875 52.05 67.5644 52.1903 67.5601C52.8681 67.5398 53.5458 67.559 54.2236 67.5483C54.5384 67.543 54.6648 67.6436 54.5299 67.9561C54.0238 68.026 53.7711 68.3264 53.7718 68.8572C53.7718 69.3035 53.7889 69.7498 53.7653 70.1939C53.7461 70.5642 53.836 70.7719 54.26 70.7505C54.3618 70.7451 54.472 70.9024 54.578 70.9848C54.4753 71.0512 54.3735 71.1743 54.2686 71.1764C53.5373 71.1935 52.806 71.1935 52.0746 71.1764C51.9729 71.1743 51.8733 71.0458 51.7727 70.9763C51.8284 70.9003 51.8701 70.7783 51.9419 70.7558C52.1689 70.6852 52.5618 70.713 52.61 70.591C52.7267 70.2967 52.685 69.9392 52.7107 69.5636H50.2929C50.2833 69.7348 50.2811 69.9071 50.2629 70.0784C50.2147 70.5171 50.2972 70.8157 50.8486 70.7494C50.9514 70.7365 51.0756 70.8896 51.1891 70.9666C51.0713 71.0394 50.9557 71.1732 50.8368 71.1764C50.0359 71.1957 49.2339 71.186 48.4319 71.186L48.2981 71.0137V71.0127Z" fill="white"/>
<path d="M27.6348 67.8159C27.7622 67.7282 27.8896 67.5644 28.0181 67.5634C29.1402 67.558 30.2624 67.5751 31.3835 67.603C31.5912 67.6083 31.8428 67.6383 31.9938 67.7581C32.209 67.9294 32.481 68.1916 32.4863 68.4195C32.4917 68.6432 32.2037 68.884 32.0195 69.0948C31.9488 69.1751 31.8096 69.1955 31.6383 69.2704C31.8396 69.3346 32.0109 69.3389 32.0998 69.4266C32.3236 69.6492 32.6138 69.8825 32.6855 70.1619C32.7915 70.5696 32.4981 70.88 32.1073 71.0009C31.7721 71.1037 31.4134 71.1711 31.0633 71.1796C30.0836 71.2032 29.1038 71.1978 28.1241 71.1775C27.9774 71.1743 27.8339 71.0288 27.6883 70.9496C27.8232 70.8778 27.9592 70.7441 28.0941 70.7462C28.4496 70.7505 28.5599 70.606 28.547 70.2646C28.5256 69.7134 28.5106 69.158 28.5503 68.609C28.5835 68.1434 28.44 67.9358 27.9603 68.0096C27.8939 68.0203 27.8221 67.9947 27.7525 67.9861C27.714 67.9294 27.6744 67.8727 27.6358 67.8149L27.6348 67.8159ZM29.6446 69.5326V70.7109C30.0932 70.7109 30.514 70.7248 30.9327 70.7066C31.2614 70.6927 31.5184 70.5664 31.5387 70.1768C31.5601 69.7691 31.3032 69.5786 30.9637 69.5433C30.5451 69.4994 30.1178 69.5326 29.6435 69.5326H29.6446ZM29.6392 69.1302C30.1617 69.0949 30.6264 69.097 31.0751 69.0124C31.225 68.9846 31.4413 68.7288 31.4338 68.5865C31.4252 68.4046 31.2432 68.1081 31.0954 68.0803C30.6222 67.9925 30.1307 68.0075 29.6392 67.9818V69.1302Z" fill="white"/>
<path d="M16.0408 64.7615V63.2964C16.2689 63.4441 16.4906 63.5072 16.557 63.6442C16.9296 64.4126 18.7991 64.5849 19.4437 64.1558C19.5422 64.0905 19.6536 63.869 19.6172 63.8112C19.5219 63.6635 19.3602 63.4933 19.2017 63.4644C18.5892 63.3542 17.9661 63.3049 17.3493 63.2161C16.3685 63.0748 15.8995 62.7024 15.8984 62.0849C15.8974 61.5198 16.3878 61.0906 17.3075 60.9504C17.7562 60.8819 18.2263 60.9023 18.6813 60.9408C19.2092 60.9858 19.7307 61.0949 20.311 61.1848V62.3289C20.1108 62.2144 19.8934 62.1662 19.8227 62.0378C19.4458 61.3561 17.7648 61.2223 17.0988 61.584C16.9938 61.6407 16.8578 61.8591 16.8867 61.9008C16.9745 62.0303 17.1234 62.1748 17.2679 62.1994C17.8997 62.3064 18.5389 62.3642 19.1739 62.4563C20.1011 62.5911 20.5915 62.9999 20.6044 63.6271C20.6172 64.2178 20.1397 64.6973 19.2403 64.7968C18.5999 64.8675 17.9393 64.7669 17.2893 64.7273C16.996 64.7102 16.694 64.3837 16.4156 64.7861C16.3813 64.8354 16.1886 64.7744 16.0419 64.7626L16.0408 64.7615Z" fill="white"/>
<path d="M31.7625 63.3274C31.7625 62.8447 31.7475 62.4894 31.7668 62.1373C31.7871 61.7499 31.7443 61.4534 31.2378 61.5048C31.1725 61.5112 31.0922 61.3646 31.0183 61.2886C31.1019 61.2201 31.1832 61.096 31.2689 61.0928C31.8032 61.0746 32.3396 61.0681 32.8729 61.096C32.9853 61.1013 33.0892 61.2661 33.1823 61.4406C32.4349 61.3774 32.4638 61.8098 32.4746 62.2711C32.4938 63.0684 32.4799 63.8668 32.4799 64.6588C32.027 64.7904 31.7047 64.6727 31.3867 64.3741C30.6093 63.6453 29.7998 62.9496 28.8918 62.1405C28.8918 62.8554 28.8747 63.4473 28.91 64.0359C28.9154 64.1236 29.1659 64.1921 29.2955 64.2799C29.4186 64.3634 29.5311 64.4608 29.6488 64.5528C29.6178 64.5978 29.5878 64.6427 29.5568 64.6887H27.4377C27.6294 64.4886 27.7258 64.2981 27.8318 64.2927C28.1573 64.2778 28.2108 64.1087 28.2076 63.84C28.199 63.2343 28.1969 62.6275 28.2098 62.0217C28.2162 61.6985 28.1177 61.5166 27.76 61.5059C27.668 61.5027 27.5802 61.3614 27.4902 61.2833C27.593 61.2158 27.6915 61.1003 27.8007 61.0885C28.6895 60.9997 29.5043 61.0671 30.15 61.8483C30.5847 62.3738 31.1607 62.7837 31.7646 63.3263L31.7625 63.3274Z" fill="white"/>
<path d="M63.1184 69.7702V68.1167C63.0499 68.0696 63.0242 68.045 62.9931 68.0311C62.8079 67.9487 62.6216 67.8695 62.4353 67.7892C62.6334 67.71 62.8261 67.5816 63.0306 67.5612C63.4011 67.5238 63.7791 67.5355 64.1517 67.5602C64.2813 67.5687 64.4055 67.6757 64.5318 67.7378C64.414 67.8266 64.3016 67.9262 64.1742 67.999C64.1035 68.0396 64.0082 68.0353 63.8915 68.0567V71.1112C63.4771 71.2567 63.1623 71.2011 62.8497 70.9078C62.1344 70.2389 61.3924 69.6 60.6589 68.9504C60.5583 68.8616 60.448 68.7824 60.2563 68.6315C60.2563 69.2875 60.2349 69.8494 60.2734 70.408C60.282 70.5258 60.5079 70.6328 60.6418 70.7345C60.751 70.8169 60.8709 70.8843 60.9866 70.9581C60.857 71.0341 60.7317 71.169 60.5979 71.1765C60.1546 71.2043 59.707 71.2021 59.2627 71.1765C59.147 71.17 59.0389 71.033 58.9286 70.9571C59.026 70.8843 59.1213 70.7516 59.2198 70.7484C59.5036 70.7398 59.586 70.6114 59.5817 70.3481C59.571 69.707 59.5689 69.066 59.5817 68.4249C59.5882 68.1285 59.4757 68.0139 59.177 68.0022C59.0678 67.9979 58.9639 67.8502 58.8579 67.7678C58.9746 67.6961 59.0881 67.5719 59.2091 67.5623C59.5635 67.5345 59.9244 67.5206 60.2756 67.5634C60.5026 67.5912 60.7585 67.679 60.9298 67.8245C61.6472 68.4324 62.3379 69.0724 63.1163 69.7713L63.1184 69.7702Z" fill="white"/>
<path d="M56.0677 64.7946V63.2856C56.3011 63.4387 56.5291 63.5039 56.5923 63.6441C56.9392 64.4136 58.8698 64.5913 59.4748 64.1525C59.5701 64.0829 59.675 63.8667 59.6365 63.8025C59.5455 63.6538 59.3848 63.4825 59.2264 63.4526C58.6492 63.3434 58.0614 63.2985 57.48 63.2086C57.1834 63.1625 56.8407 63.1476 56.6137 62.986C56.3364 62.789 56.0634 62.4851 55.9595 62.1704C55.8214 61.7488 56.1116 61.3699 56.4981 61.2372C57.0442 61.0499 57.631 60.8808 58.2006 60.883C58.9019 60.8862 59.6022 61.0745 60.341 61.188V62.3599C60.1162 62.2229 59.9427 62.1683 59.8463 62.0495C59.3281 61.417 57.8237 61.1387 57.1363 61.585C57.026 61.6567 56.9071 61.8579 56.935 61.9607C56.966 62.0741 57.1513 62.1993 57.2862 62.2218C57.8654 62.3192 58.4533 62.3674 59.0336 62.4615C59.3656 62.5161 59.751 62.5429 59.9973 62.7312C60.2778 62.9464 60.5777 63.3209 60.5948 63.6409C60.6098 63.9299 60.3217 64.3537 60.0487 64.5153C59.2092 65.0076 58.283 64.9862 57.3547 64.7443C57.0527 64.6662 56.7315 64.3987 56.4339 64.7882C56.3953 64.8396 56.2326 64.7957 56.0698 64.7957L56.0677 64.7946Z" fill="white"/>
<path d="M43.1104 71.1989V69.7627C43.3149 69.8783 43.5162 69.9264 43.603 70.0527C44.0902 70.7644 45.7188 71.1101 46.4105 70.6135C46.5101 70.5418 46.6225 70.3706 46.6 70.2743C46.5711 70.149 46.4287 69.981 46.3098 69.9585C45.8034 69.8601 45.2873 69.8162 44.7776 69.737C44.4446 69.6856 44.1105 69.6278 43.7861 69.539C43.316 69.4106 42.9991 69.1248 42.9734 68.6036C42.9466 68.0653 43.2967 67.7913 43.7304 67.619C44.5763 67.284 45.4372 67.299 46.2959 67.5816C46.4137 67.6201 46.5283 67.6972 46.6471 67.7046C47.3795 67.7549 47.3806 67.7507 47.3217 68.5587C47.3185 68.6101 47.2938 68.6593 47.2435 68.8316C47.0765 68.7224 46.9073 68.6625 46.8152 68.5426C46.3419 67.9273 44.7155 67.6404 44.1073 68.0964C44.0131 68.167 43.9199 68.3468 43.9467 68.4399C43.9756 68.5394 44.1416 68.6432 44.2615 68.6625C44.7883 68.7492 45.3226 68.7909 45.8494 68.8808C46.2156 68.9429 46.631 68.9707 46.9191 69.1687C47.206 69.3656 47.4577 69.7295 47.5498 70.0677C47.6643 70.4883 47.3474 70.8094 46.9715 70.9924C46.1492 71.3937 45.2883 71.4087 44.4146 71.1893C44.088 71.1069 43.7646 70.8704 43.4402 71.2171C43.3963 71.2642 43.2411 71.2086 43.1083 71.1989H43.1104Z" fill="white"/>
<path d="M24.0757 65.059C23.4847 64.8353 22.7855 64.693 22.2287 64.3334C21.1579 63.6409 21.19 62.1009 22.2704 61.4181C23.4375 60.6807 24.6882 60.6432 25.9228 61.2811C26.5738 61.6182 26.9335 62.1897 26.9143 62.9271C26.8939 63.6805 26.5192 64.2713 25.8221 64.5624C25.3081 64.7775 24.7449 64.8738 24.0768 65.059H24.0757ZM24.1721 64.3987C25.1304 64.4029 25.7589 63.8175 25.7643 62.9164C25.7696 62.011 25.1422 61.3913 24.2096 61.3828C23.2748 61.3731 22.6227 61.9832 22.6131 62.8768C22.6034 63.7811 23.233 64.3954 24.1721 64.3997V64.3987Z" fill="white"/>
<path d="M51.9634 61.5155C51.4077 61.4203 51.2974 61.6953 51.3274 62.1555C51.3595 62.6521 51.3242 63.154 51.3381 63.6528C51.352 64.1654 51.6101 64.4469 52.1197 64.4897C52.4013 64.5132 52.6937 64.5111 52.972 64.4629C53.4496 64.3805 53.7301 64.1044 53.7141 63.58C53.7002 63.1348 53.6894 62.6874 53.7184 62.2433C53.7494 61.7745 53.6991 61.4128 53.0406 61.5102C53.0277 61.4609 53.0149 61.4117 53.002 61.3625C53.108 61.2694 53.2108 61.1013 53.3211 61.0949C53.8372 61.066 54.3555 61.0703 54.8716 61.0928C54.969 61.0971 55.0611 61.2362 55.1564 61.3133C55.0557 61.3817 54.9529 61.5091 54.8534 61.507C54.4989 61.4995 54.4443 61.6878 54.4529 61.9821C54.4679 62.5162 54.4668 63.0513 54.4582 63.5864C54.4475 64.236 54.1627 64.7134 53.5395 64.7776C52.7215 64.8611 51.8756 64.8525 51.0608 64.738C50.4204 64.6492 50.1624 64.1964 50.1463 63.5372C50.1346 63.0203 50.1356 62.5033 50.1463 61.9864C50.1517 61.691 50.0767 61.5102 49.733 61.507C49.6345 61.507 49.536 61.3775 49.4375 61.3068C49.5328 61.2319 49.627 61.0949 49.7255 61.0917C50.3851 61.0725 51.0458 61.0703 51.7043 61.0939C51.8231 61.0981 51.9356 61.2523 52.0512 61.3368C52.0212 61.3957 51.9912 61.4556 51.9613 61.5145L51.9634 61.5155Z" fill="white"/>
<path d="M17.7133 69.5294C17.7133 69.8184 17.7315 70.0153 17.709 70.2079C17.6651 70.5986 17.8108 70.7655 18.2144 70.7473C18.3269 70.742 18.4468 70.879 18.5624 70.9507C18.4553 71.0299 18.3493 71.1754 18.2391 71.1776C17.527 71.1979 16.8139 71.1968 16.1008 71.1754C15.9873 71.1722 15.877 71.0309 15.7656 70.9539C15.8823 70.8811 15.998 70.7473 16.1147 70.7473C16.4712 70.7473 16.5751 70.5889 16.5644 70.2539C16.5451 69.6664 16.5473 69.0778 16.5644 68.4913C16.574 68.1638 16.4895 67.9926 16.12 68C16.0044 68.0022 15.8855 67.8363 15.7678 67.7475C15.8909 67.6822 16.014 67.5613 16.1382 67.5602C17.2957 67.5559 18.4554 67.5473 19.6118 67.5934C20.3538 67.6223 20.6889 67.9883 20.6643 68.5983C20.6397 69.1976 20.2746 69.508 19.5293 69.5273C18.9458 69.5422 18.3611 69.5305 17.7122 69.5305L17.7133 69.5294ZM17.7369 69.1741C18.2337 69.1505 18.7134 69.1709 19.1706 69.081C19.3269 69.0499 19.5304 68.7374 19.5261 68.5598C19.5207 68.38 19.3012 68.0803 19.1428 68.0568C18.6834 67.9883 18.2069 68.0322 17.7379 68.0322V69.1741H17.7369Z" fill="white"/>
<path d="M69.8919 63.5329C69.7388 64.0873 69.3918 64.4961 68.8468 64.7016C67.8425 65.0794 66.8509 65.0131 65.913 64.4908C65.2759 64.1365 64.915 63.5875 64.9397 62.8362C64.9632 62.1106 65.3316 61.5915 65.9633 61.2673C66.6957 60.8916 67.4698 60.7503 68.29 60.9259C68.7965 61.034 69.3062 61.1228 69.8726 61.2309V62.4905C69.6477 62.3589 69.4218 62.3065 69.3597 62.1759C68.9464 61.3133 67.4613 61.2309 66.8317 61.5755C66.2706 61.8816 65.9933 62.5023 66.1186 63.2215C66.2256 63.839 66.7492 64.327 67.4131 64.3838C68.1744 64.448 68.8672 64.3281 69.3383 63.6186C69.4207 63.4944 69.6338 63.4569 69.7869 63.3799C69.8223 63.4313 69.8576 63.4826 69.8929 63.5351L69.8919 63.5329Z" fill="white"/>
<path d="M35.04 64.7122C35.2264 64.4864 35.2949 64.358 35.402 64.2852C35.5315 64.1964 35.8174 64.1578 35.8196 64.0915C35.8281 63.7843 35.8592 63.4087 35.7028 63.1807C35.342 62.6563 34.8987 62.1822 34.4415 61.7348C34.2723 61.569 33.9725 61.5347 33.6641 61.4148C33.5549 61.1837 33.6759 61.0767 33.9896 61.0809C34.5421 61.0874 35.0947 61.0713 35.6461 61.0895C35.8024 61.0949 35.9555 61.1826 36.1097 61.2329C36.0166 61.3699 35.9223 61.5058 35.7842 61.707C36.0176 61.9853 36.2971 62.3203 36.6237 62.7109C36.9428 62.347 37.2394 62.0088 37.4974 61.7134C37.3561 61.5272 37.2447 61.3817 37.1344 61.2361C37.3068 61.1848 37.476 61.1002 37.6505 61.0906C38.0414 61.0681 38.4354 61.0681 38.8251 61.0927C38.9515 61.1013 39.0704 61.2158 39.1924 61.2811C39.0864 61.3603 38.9858 61.4512 38.8712 61.5165C38.6667 61.6332 38.4118 61.6931 38.2512 61.8515C37.8968 62.1993 37.5595 62.5739 37.2704 62.9774C37.1098 63.2032 37.0274 63.5018 36.9695 63.779C36.9085 64.069 36.9781 64.3098 37.3754 64.2895C37.4632 64.2852 37.5585 64.4286 37.6505 64.5046C37.551 64.5731 37.4535 64.6994 37.3529 64.7026C36.644 64.7197 35.9352 64.7122 35.039 64.7122H35.04Z" fill="white"/>
<path d="M33.509 67.8203C33.6343 67.7304 33.7564 67.5666 33.8838 67.5623C34.6323 67.5377 35.3818 67.5399 36.1302 67.5613C36.2373 67.5645 36.3412 67.7143 36.4461 67.7967C36.3433 67.8642 36.2352 67.9979 36.1388 67.9894C35.6195 67.9434 35.5038 68.197 35.5253 68.6615C35.5563 69.3336 35.5338 70.0078 35.5338 70.6735C37.5747 70.8522 37.6967 70.7313 37.8873 69.6364C38.0308 69.6236 38.1839 69.6108 38.3799 69.5936V71.1423H33.614C33.508 70.8929 33.5347 70.7077 33.8827 70.7388C34.3614 70.7816 34.4534 70.5312 34.4277 70.1213C34.401 69.6953 34.4224 69.2661 34.4224 68.8381C34.4224 68.3087 34.159 68.0197 33.6322 67.9712C33.5915 67.9209 33.5497 67.8706 33.509 67.8213V67.8203Z" fill="white"/>
<path d="M57.3727 68.0568V70.5675C57.6425 70.727 57.846 70.8469 58.0494 70.9667C57.8074 71.0395 57.5687 71.1583 57.3224 71.1765C56.862 71.2107 56.3962 71.2022 55.9336 71.1765C55.7934 71.169 55.6595 71.0459 55.5225 70.9764C55.6488 70.895 55.7709 70.8062 55.9026 70.7356C55.9615 70.7045 56.0396 70.7088 56.1606 70.6895V68.0429C56.0118 68.0311 55.8801 68.045 55.7687 68.0033C55.6745 67.968 55.606 67.8674 55.5257 67.7957C55.6145 67.7143 55.7013 67.5666 55.7934 67.5634C56.4165 67.542 57.0408 67.5367 57.6629 67.5602C57.7946 67.5645 57.9209 67.7047 58.0494 67.7817C57.9177 67.8599 57.7914 67.9466 57.6533 68.0108C57.5783 68.045 57.4851 68.0397 57.3716 68.0568H57.3727Z" fill="white"/>
<path d="M61.5851 61.3517C61.706 61.2618 61.8238 61.1002 61.948 61.0949C62.5519 61.0681 63.158 61.0692 63.7619 61.0927C63.8947 61.0981 64.0232 61.2351 64.1538 61.3111C64.0371 61.3817 63.9214 61.5123 63.8047 61.5133C63.4739 61.5166 63.4342 61.6953 63.4385 61.9618C63.4492 62.5846 63.4535 63.2064 63.4407 63.8293C63.4342 64.129 63.5028 64.3002 63.8518 64.2917C63.9536 64.2895 64.0585 64.4447 64.1624 64.5282C64.0563 64.5902 63.9525 64.7026 63.8454 64.7048C63.2051 64.7219 62.5637 64.7219 61.9245 64.7037C61.8238 64.7005 61.7264 64.5763 61.6279 64.5078C61.7189 64.4319 61.8131 64.2874 61.902 64.2906C62.2618 64.3056 62.3089 64.1086 62.3035 63.8197C62.2928 63.3038 62.2843 62.7869 62.3057 62.2721C62.3249 61.8066 62.3389 61.3817 61.6129 61.5144C61.6033 61.4609 61.5936 61.4063 61.584 61.3528L61.5851 61.3517Z" fill="white"/>
<path d="M41.8682 71.1882C41.139 71.1882 40.4088 71.1967 39.6796 71.1786C39.5768 71.1764 39.4761 71.0491 39.3755 70.9795C39.4644 70.8982 39.5586 70.743 39.6421 70.7483C40.0586 70.7772 40.1025 70.5525 40.094 70.2175C40.0768 69.5079 40.0886 68.7973 40.0886 68.2333C39.7909 68.016 39.5961 67.8737 39.4023 67.7314C39.6378 67.6714 39.8702 67.5719 40.1079 67.559C40.6058 67.5323 41.1069 67.5409 41.6059 67.5612C41.7129 67.5655 41.8147 67.6832 41.9185 67.7485C41.8189 67.8373 41.7183 68.0011 41.6198 68C41.2868 67.9957 41.1797 68.1316 41.1893 68.4495C41.2086 69.0734 41.2108 69.6974 41.2065 70.3213C41.2054 70.6071 41.3039 70.7355 41.6112 70.7483C41.7322 70.7537 41.8468 70.9303 41.9635 71.0277C41.9314 71.0812 41.9003 71.1336 41.8682 71.1871V71.1882Z" fill="white"/>
</g>
<defs>
<clipPath id="clip0_1985_186">
<rect width="55.679" height="57.7923" fill="white" transform="translate(15.363 13.6572)"/>
</clipPath>
</defs>
</svg>
