<svg width="40" height="40" viewBox="0 0 40 40" fill="none" xmlns="http://www.w3.org/2000/svg">
<g clip-path="url(#clip0_174_17)">
<path d="M14.6086 30.8603C14.6086 30.8603 13.1095 31.7719 15.6506 32.0327C18.7097 32.4227 20.3392 32.3581 23.7249 31.7073C24.4053 32.124 25.125 32.473 25.8735 32.7493C18.2563 36.0058 8.61724 32.5543 14.6086 30.8603ZM13.6336 26.6275C13.6336 26.6275 12.0054 27.8646 14.5452 28.1266C17.8663 28.452 20.4708 28.5166 24.9655 27.6062C25.4027 28.0495 25.9379 28.3839 26.528 28.5824C17.3459 31.3173 7.05724 28.842 13.6336 26.6275ZM31.6065 34.0497C31.6065 34.0497 32.7131 34.9614 30.3695 35.678C26.0064 36.982 12.0712 37.372 8.16386 35.678C6.79642 35.093 9.40089 34.246 10.2357 34.1155C11.0828 33.9205 11.5398 33.9205 11.5398 33.9205C10.0407 32.8785 1.57652 36.0692 7.24249 36.9796C22.8059 39.5195 35.6345 35.873 31.5968 34.0497H31.6065ZM15.313 22.1986C15.313 22.1986 8.21505 23.8927 12.7732 24.4777C14.7268 24.7385 18.5683 24.6727 22.1502 24.4131C25.0801 24.1523 28.0124 23.6331 28.0124 23.6331C28.0124 23.6331 26.9704 24.0889 26.2538 24.5447C19.0266 26.4338 5.15477 25.5867 9.12789 23.6331C12.5136 22.0048 15.3143 22.201 15.3143 22.201L15.313 22.1986ZM28.0124 29.2966C35.3054 25.5185 31.9197 21.8744 29.5749 22.329C28.9899 22.4594 28.7278 22.5898 28.7278 22.5898C28.7278 22.5898 28.9228 22.1998 29.3786 22.0694C34.0026 20.4412 37.6491 26.953 27.8796 29.4916C27.8796 29.4916 27.9442 29.427 28.01 29.2966H28.0124ZM16.0321 39.5853C23.0643 40.0411 33.81 39.3245 34.0696 36.0022C34.0696 36.0022 33.5492 37.3062 28.2745 38.2812C22.2831 39.3879 14.8597 39.2562 10.4965 38.542C10.4965 38.542 11.4082 39.3233 16.0321 39.5853Z" fill="white"/>
<path d="M23.5956 0.709595C23.5956 0.709595 27.6333 4.81191 19.7541 10.9983C13.4373 16.0122 18.3221 18.8775 19.7541 22.134C16.0418 18.8129 13.3727 15.8818 15.196 13.1482C17.865 9.10922 25.2239 7.16775 23.5956 0.709595ZM21.5237 19.3991C23.4128 21.5478 21.0033 23.5014 21.0033 23.5014C21.0033 23.5014 25.8223 21.0274 23.6078 17.9659C21.5895 15.036 20.0247 13.6028 28.4913 8.71922C28.4913 8.71922 15.1424 12.0403 21.5237 19.3991Z" fill="white"/>
</g>
<defs>
<clipPath id="clip0_174_17">
<rect width="39" height="39" fill="white" transform="translate(0.444336 0.708313)"/>
</clipPath>
</defs>
</svg>
