<svg width="40" height="44" viewBox="0 0 40 44" fill="none" xmlns="http://www.w3.org/2000/svg">
<g clip-path="url(#clip0_174_51)">
<path fill-rule="evenodd" clip-rule="evenodd" d="M13.5825 22.598C13.6754 22.7928 13.8617 22.8905 14.0475 22.8905C14.2332 22.9882 14.4195 22.9882 14.6053 22.9882C14.791 22.9882 14.9773 22.9882 15.0702 22.8905C15.2559 22.7928 15.3488 22.6957 15.5351 22.5009L15.8137 21.9164C15.9066 21.7216 15.9066 21.429 15.9066 21.0399C15.9066 20.7474 15.9066 20.5531 15.8137 20.2606C15.7209 19.9681 15.7209 19.7738 15.5351 19.579C15.4422 19.3842 15.2565 19.287 15.1631 19.0917C14.9773 18.9945 14.791 18.8968 14.6053 18.8968C14.3261 18.8968 14.1403 18.9945 13.9546 19.0917C13.7688 19.1888 13.6754 19.3836 13.4896 19.4813L13.2105 20.0658C13.1176 20.2606 13.1176 20.5526 13.1176 20.8451C13.1176 21.2347 13.1176 21.5267 13.2105 21.7216L13.5825 22.598ZM18.9743 30.1957C19.2529 30.1957 19.625 30.1957 19.9041 30.2929C21.3918 27.1757 24.3665 25.1302 27.8062 24.9354V6.72092C27.8057 3.79851 21.7633 0.973785 14.419 0.973785C6.98178 0.973785 1.03223 3.60369 1.03223 6.52609V32.8256C1.03223 35.4555 5.95957 37.9883 12.3735 38.3779C12.2806 37.9883 12.2806 37.5986 12.2806 37.209C12.2806 33.4101 15.2554 30.1957 18.9743 30.1957ZM23.8082 24.8383H19.16V17.3382H21.2984V23.0853H23.8082V24.8388V24.8383ZM14.419 3.01921C19.7178 3.01921 23.9945 4.383 23.9945 6.03876C23.9945 7.69453 19.7184 9.05832 14.4195 9.05832C9.12062 9.05832 4.84396 7.69506 4.84396 6.03876C4.84396 4.38246 9.12011 3.01921 14.419 3.01921ZM10.4215 23.0848C10.4215 23.2796 10.3286 23.4745 10.2357 23.6693C10.1428 23.8641 10.0499 24.0589 9.86367 24.1561C9.67791 24.3509 9.49163 24.4481 9.30587 24.5457C9.12011 24.6434 8.84095 24.7406 8.46891 24.8383C8.19027 24.9354 7.81823 24.9354 7.35331 24.9354H6.70262C6.51686 24.9354 6.33058 24.9354 6.14482 24.8383C5.95906 24.8383 5.77278 24.7406 5.6799 24.7406C5.49413 24.7406 5.40125 24.6429 5.30786 24.5457V22.5003C5.40074 22.598 5.58702 22.6952 5.77278 22.7928C5.95854 22.8905 6.05142 22.9877 6.2377 23.0848C6.42398 23.182 6.60974 23.1825 6.7955 23.2796C6.98127 23.3768 7.16754 23.3768 7.35331 23.3768C7.53907 23.3768 7.63195 23.3768 7.72535 23.2796C7.81823 23.2796 7.91111 23.182 7.91111 23.182C8.00399 23.182 8.00399 23.0843 8.00399 22.9871V22.7923C8.00399 22.6946 8.00399 22.5975 7.91111 22.4998C7.81823 22.4021 7.81823 22.305 7.72535 22.305C7.63246 22.2073 7.53958 22.2073 7.35331 22.1101C7.16703 22.013 7.07415 22.013 6.88838 21.9153C6.60974 21.8176 6.33058 21.6228 6.05194 21.4285C5.86617 21.2337 5.6799 21.1365 5.49413 20.9417C5.30837 20.7469 5.21498 20.5521 5.21498 20.3572C5.1221 20.1624 5.1221 19.8704 5.1221 19.6751C5.1221 19.2854 5.21498 18.9934 5.30786 18.7009C5.49362 18.409 5.6799 18.1165 5.86566 17.9216C6.14431 17.7268 6.42346 17.532 6.7955 17.4348C7.16754 17.3377 7.53907 17.24 8.00399 17.24H8.65467C8.84044 17.24 9.02671 17.24 9.21248 17.3377C9.39875 17.3377 9.49163 17.4348 9.6774 17.4348C9.77028 17.4348 9.95656 17.532 10.0494 17.532V19.4802C9.95656 19.3831 9.86316 19.3831 9.6774 19.2854C9.58452 19.1883 9.39875 19.1883 9.21248 19.0906C9.0262 18.9929 8.93383 18.9929 8.74756 18.9929H8.18975C7.91059 18.9929 7.72483 18.9929 7.63195 19.0906C7.44619 19.1883 7.44619 19.2854 7.44619 19.4802C7.44619 19.5779 7.44619 19.6751 7.53907 19.6751C7.53907 19.7728 7.63195 19.7728 7.72483 19.8699C7.81771 19.967 7.91059 19.967 8.00348 20.0647C8.09636 20.1624 8.28212 20.1624 8.4684 20.2596C8.74704 20.3572 9.0262 20.5521 9.30536 20.6492C9.584 20.844 9.77028 20.9412 9.95604 21.1365C10.1418 21.3319 10.2347 21.5262 10.421 21.721C10.5138 21.9158 10.6067 22.2078 10.6067 22.5975C10.421 22.6952 10.421 22.89 10.421 23.0843L10.4215 23.0848ZM11.165 22.6952C10.9744 22.1995 10.8796 21.67 10.8859 21.1365C10.8859 20.5521 10.9788 19.9676 11.165 19.4808C11.3513 18.994 11.63 18.6043 11.9086 18.2147C12.1873 17.825 12.6522 17.6302 13.0242 17.4354C13.4891 17.2405 13.9541 17.1428 14.5119 17.1428C15.0697 17.1428 15.5346 17.24 15.9061 17.4354C16.3252 17.6141 16.7048 17.8793 17.0217 18.2147C17.3004 18.5066 17.5795 18.994 17.7653 19.3836C17.951 19.8704 18.0439 20.3578 18.0439 21.0394C18.0439 21.429 18.0439 21.9158 17.8582 22.2084C17.7653 22.598 17.579 22.8905 17.3932 23.1825C17.2075 23.4745 17.0217 23.767 16.7426 23.9618C16.4634 24.1566 16.2776 24.3515 15.9061 24.5463L18.3231 26.6894H15.5341L13.9535 24.9359C13.4891 24.9359 13.0237 24.7411 12.6522 24.644C12.2801 24.4491 11.9086 24.1572 11.6294 23.8647C11.6294 23.5721 11.3503 23.1825 11.1645 22.6957L11.165 22.6952Z" fill="white"/>
<path fill-rule="evenodd" clip-rule="evenodd" d="M39.5191 39.8388C39.5191 37.9883 38.1248 36.4296 36.3585 36.2348C36.4514 35.6503 36.5443 35.1635 36.5443 34.579C36.5443 29.806 32.826 25.91 28.2706 25.91C24.831 25.91 21.7633 28.0531 20.5548 31.3647C20.0899 31.267 19.625 31.1698 19.0672 31.1698C15.8132 31.1698 13.2105 33.8974 13.2105 37.3066C13.2048 38.906 13.8049 40.4441 14.8824 41.5911C15.9598 42.7382 17.4287 43.4029 18.9743 43.4429H36.4514H37.1021V43.3457C38.4963 42.9561 39.5191 41.4951 39.5191 39.8388ZM36.3585 42.4688H19.0672C16.371 42.4688 14.1398 40.1308 14.1398 37.3061C14.1398 34.4814 16.371 32.1434 19.0672 32.1434C19.625 32.1434 20.1828 32.2406 20.6477 32.4354L21.1126 32.6302L21.2984 32.1434C22.3211 29.0262 25.1101 26.8836 28.2706 26.8836C32.361 26.8836 35.615 30.39 35.615 34.5785C35.615 35.2601 35.5221 35.9423 35.3363 36.6239L35.1506 37.4032L35.8012 37.3056H36.0804C37.4746 37.3056 38.5903 38.4745 38.5903 39.9355C38.5903 41.2016 37.6604 42.3705 36.359 42.4682L36.3585 42.4688Z" fill="white"/>
</g>
<defs>
<clipPath id="clip0_174_51">
<rect width="39" height="43" fill="white" transform="translate(0.775635 0.708313)"/>
</clipPath>
</defs>
</svg>
