<svg width="40" height="49" viewBox="0 0 40 49" fill="none" xmlns="http://www.w3.org/2000/svg">
<g clip-path="url(#clip0_174_58)">
<path d="M20.1408 0.208641C18.5248 0.216232 16.9815 0.355568 15.6236 0.598488C11.6234 1.31296 10.8971 2.8084 10.8971 5.56626V9.20854H20.3501V10.4226H10.8971H7.34943C4.60211 10.4226 2.19649 12.0921 1.44404 15.2679C0.576094 18.9081 0.537596 21.1797 1.44404 24.9807C2.11599 27.81 3.72071 29.8259 6.46803 29.8259H9.7182V25.4596C9.7182 22.3052 12.4178 19.5228 15.6236 19.5228H25.0656C27.6939 19.5228 29.7921 17.335 29.7921 14.6664V5.56626C29.7921 2.9763 27.6309 1.03074 25.0656 0.598488C23.4417 0.325203 21.7568 0.201049 20.1408 0.208641ZM15.0286 3.13806C16.0051 3.13806 16.8025 3.95738 16.8025 4.96478C16.8025 5.96861 16.0051 6.78035 15.0286 6.78035C14.0487 6.78035 13.2548 5.96861 13.2548 4.96478C13.2548 3.95738 14.0487 3.13806 15.0286 3.13806Z" fill="white"/>
<path d="M30.9709 10.4228V14.6665C30.9709 17.9567 28.2118 20.7259 25.0655 20.7259H15.6235C13.0372 20.7259 10.897 22.9637 10.897 25.5823V34.6824C10.897 37.2724 13.1247 38.7957 15.6235 39.5388C18.6158 40.4283 21.4853 40.5891 25.0655 39.5388C27.4454 38.8422 29.792 37.4403 29.792 34.6824V31.0401H20.35V29.826H29.792H34.5186C37.2659 29.826 38.2896 27.8887 39.2451 24.9808C40.232 21.9871 40.19 19.1083 39.2451 15.268C38.5661 12.503 37.2694 10.4228 34.5186 10.4228H30.9709ZM25.6605 33.4683C26.6404 33.4683 27.4343 34.2801 27.4343 35.2839C27.4343 36.2913 26.6404 37.1106 25.6605 37.1106C24.684 37.1106 23.8866 36.2913 23.8866 35.2839C23.8866 34.2801 24.684 33.4683 25.6605 33.4683Z" fill="white"/>
<path opacity="0.44382" d="M20.4574 48.2084C27.4537 48.2084 33.1253 47.0966 33.1253 45.7251C33.1253 44.3535 27.4537 43.2417 20.4574 43.2417C13.4611 43.2417 7.78955 44.3535 7.78955 45.7251C7.78955 47.0966 13.4611 48.2084 20.4574 48.2084Z" fill="white"/>
</g>
<defs>
<clipPath id="clip0_174_58">
<rect width="39" height="48" fill="white" transform="translate(0.778564 0.208313)"/>
</clipPath>
</defs>
</svg>
