<svg width="40" height="42" viewBox="0 0 40 42" fill="none" xmlns="http://www.w3.org/2000/svg">
<g clip-path="url(#clip0_174_42)">
<path d="M39.271 12.8454C39.2707 12.1628 39.1145 11.5596 38.7985 11.0421C38.4881 10.5329 38.0233 10.1062 37.3999 9.76889C32.2535 6.9962 27.1022 4.23199 21.9575 1.45648C20.5705 0.708296 19.2258 0.735713 17.8491 1.49464C15.8007 2.62327 5.54502 8.11339 2.48898 9.76734C1.23041 10.4482 0.617991 11.4901 0.617689 12.8442C0.615723 18.4202 0.617689 23.9962 0.615723 29.5723C0.615723 30.2399 0.765613 30.8315 1.06766 31.3413C1.37818 31.8657 1.84948 32.3041 2.48731 32.6491C5.54351 34.3031 15.8005 39.7927 17.8485 40.9218C19.2258 41.6812 20.5705 41.7083 21.958 40.96C27.1028 38.1843 32.2544 35.4201 37.4016 32.6474C38.0394 32.3026 38.5107 31.8639 38.8212 31.3399C39.1228 30.83 39.273 30.2385 39.273 29.5707C39.273 29.5707 39.273 18.4216 39.271 12.8454Z" fill="white"/>
<path d="M20.0035 21.1539L1.06763 31.3413C1.37815 31.8658 1.84945 32.3042 2.48728 32.6492C5.54347 34.3031 15.8005 39.7928 17.8484 40.9219C19.2257 41.6812 20.5705 41.7083 21.9579 40.96C27.1028 38.1844 32.2544 35.4202 37.4015 32.6475C38.0393 32.3026 38.5106 31.8639 38.8212 31.3399L20.0035 21.1539Z" fill="white"/>
<path d="M39.2709 12.8456C39.2706 12.163 39.1144 11.5598 38.7984 11.0422L20.0034 21.1542L38.8211 31.34C39.1227 30.8301 39.2726 30.2386 39.2729 29.5709C39.2729 29.5709 39.2729 18.4218 39.2709 12.8456Z" fill="white"/>
<path d="M31.1523 17.3456V19.2498H33.1902V17.3456H34.2092V19.2498H36.2472V20.202H34.2092V22.1061H36.2472V23.0582H34.2092V24.9624H33.1902V23.0582H31.1523V24.9624H30.1333V23.0582H28.0955V22.1061H30.1333V20.202H28.0955V19.2498H30.1333V17.3456H31.1523ZM33.1902 20.2018H31.1523V22.1061H33.1902V20.2018Z" fill="black"/>
<path d="M20.0451 7.78231C25.3607 7.78231 30.0016 10.4797 32.4874 14.4891L32.4632 14.4505L26.2089 17.8152C24.9768 15.8659 22.718 14.5503 20.1266 14.5232L20.045 14.5227C16.0935 14.5227 12.89 17.516 12.89 21.2082C12.8887 22.3719 13.2141 23.5156 13.8336 24.5251C15.067 26.5369 17.3855 27.8938 20.0451 27.8938C22.7212 27.8938 25.0529 26.5197 26.2799 24.4864L26.2501 24.5352L32.4948 27.9154C30.0362 31.8909 25.4589 34.58 20.2051 34.6335L20.0451 34.6344C14.7127 34.6344 10.0587 31.9203 7.57908 27.8897C6.36861 25.922 5.67603 23.6409 5.67603 21.2082C5.67603 13.7934 12.1091 7.78217 20.045 7.78217L20.0451 7.78231Z" fill="black"/>
</g>
<defs>
<clipPath id="clip0_174_42">
<rect width="39" height="41" fill="white" transform="translate(0.444336 0.708313)"/>
</clipPath>
</defs>
</svg>
