<svg width="40" height="40" viewBox="0 0 40 40" fill="none" xmlns="http://www.w3.org/2000/svg">
<g clip-path="url(#clip0_174_11)">
<path d="M35.3044 0.708313H3.92163C1.8182 0.708313 0.113037 2.41348 0.113037 4.51691V35.8997C0.113037 38.0031 1.8182 39.7083 3.92163 39.7083H35.3044C37.4079 39.7083 39.113 38.0031 39.113 35.8997V4.51691C39.113 2.41348 37.4079 0.708313 35.3044 0.708313Z" fill="white"/>
<path d="M35.3044 0.708313H3.92163C1.8182 0.708313 0.113037 2.41348 0.113037 4.51691V35.8997C0.113037 38.0031 1.8182 39.7083 3.92163 39.7083H35.3044C37.4079 39.7083 39.113 38.0031 39.113 35.8997V4.51691C39.113 2.41348 37.4079 0.708313 35.3044 0.708313Z" fill="white"/>
<path fill-rule="evenodd" clip-rule="evenodd" d="M24.2549 31.7426V35.5558C24.8748 35.8736 25.6079 36.1119 26.4543 36.2708C27.3008 36.4297 28.1928 36.5091 29.1306 36.5091C30.0446 36.5091 30.9128 36.4218 31.7354 36.2469C32.558 36.0722 33.2793 35.7842 33.8991 35.383C34.519 34.9819 35.0098 34.4575 35.3714 33.8101C35.733 33.1626 35.9138 32.3623 35.9138 31.409C35.9138 30.7178 35.8105 30.1121 35.6039 29.5917C35.3972 29.0714 35.0992 28.6087 34.7098 28.2035C34.3204 27.7983 33.8534 27.4348 33.309 27.1131C32.7646 26.7913 32.1507 26.4875 31.4672 26.2015C30.9665 25.995 30.5175 25.7944 30.1201 25.5998C29.7227 25.4051 29.385 25.2065 29.1068 25.004C28.8286 24.8014 28.614 24.5869 28.4631 24.3605C28.3121 24.134 28.2365 23.8778 28.2365 23.5918C28.2365 23.3297 28.3041 23.0934 28.4392 22.8828C28.5744 22.6723 28.7651 22.4916 29.0114 22.3406C29.2578 22.1897 29.5598 22.0725 29.9174 21.9891C30.2751 21.9057 30.6724 21.864 31.1096 21.864C31.4274 21.864 31.7632 21.8879 32.1169 21.9355C32.4705 21.9831 32.8262 22.0567 33.1839 22.1559C33.5415 22.2552 33.8892 22.3804 34.227 22.5313C34.5647 22.6823 34.8767 22.857 35.1628 23.0556V19.4926C34.5826 19.2702 33.9488 19.1054 33.2614 18.9981C32.5739 18.8909 31.7851 18.8372 30.895 18.8372C29.9889 18.8372 29.1306 18.9346 28.32 19.1292C27.5094 19.3238 26.7961 19.6277 26.1801 20.0408C25.5642 20.4539 25.0775 20.9802 24.7198 21.6197C24.3622 22.2592 24.1833 23.0238 24.1833 23.9136C24.1833 25.0496 24.5112 26.0188 25.1669 26.8212C25.8225 27.6235 26.8179 28.3027 28.1531 28.8589C28.6776 29.0734 29.1664 29.2838 29.6194 29.4904C30.0724 29.697 30.4639 29.9115 30.7936 30.1339C31.1234 30.3563 31.3837 30.5986 31.5745 30.8608C31.7653 31.1229 31.8606 31.4208 31.8606 31.7546C31.8606 32.0008 31.801 32.2292 31.6818 32.4397C31.5626 32.6503 31.3817 32.8329 31.1394 32.9879C30.897 33.1428 30.595 33.2639 30.2334 33.3513C29.8717 33.4387 29.4486 33.4824 28.9637 33.4824C28.1372 33.4824 27.3187 33.3374 26.508 33.0474C25.6973 32.7575 24.9463 32.3226 24.2549 31.7426ZM17.8443 22.3474H22.7361V19.2181H9.10132V22.3474H13.9692V36.2806H17.8443V22.3474Z" fill="black"/>
</g>
<defs>
<clipPath id="clip0_174_11">
<rect width="39" height="39" fill="white" transform="translate(0.113037 0.708313)"/>
</clipPath>
</defs>
</svg>
