<svg width="40" height="40" viewBox="0 0 40 40" fill="none" xmlns="http://www.w3.org/2000/svg">
<g clip-path="url(#clip0_174_38)">
<path d="M31.1537 31.4568L24.4505 19.7306L31.1537 8.00451L34.385 19.7306L31.1537 31.4568ZM16.235 30.3125L7.81291 21.6253H21.2192L27.9223 33.3514L16.235 30.3125ZM16.235 9.11289L27.8882 6.07401L21.185 17.8001H7.77879L16.235 9.11289ZM33.3538 0.31839L18.1254 4.42977L15.8567 8.46939L11.285 8.43351L0.113037 19.7306L11.285 31.0278L15.8567 30.9919L18.1254 35.0315L33.3538 39.1788L37.4443 23.7703L35.141 19.7665L37.4443 15.7624L33.3538 0.31839Z" fill="white"/>
</g>
<defs>
<clipPath id="clip0_174_38">
<rect width="39" height="39" fill="white" transform="translate(0.113037 0.708313)"/>
</clipPath>
</defs>
</svg>
