<svg width="40" height="28" viewBox="0 0 40 28" fill="none" xmlns="http://www.w3.org/2000/svg">
<g clip-path="url(#clip0_174_30)">
<path d="M11.8661 10.5588C11.8661 11.1077 11.9175 11.5528 12.0073 11.8792C12.1099 12.2055 12.2382 12.5616 12.4178 12.9473C12.4819 13.066 12.5076 13.1846 12.5076 13.2885C12.5076 13.4368 12.4306 13.5852 12.2638 13.7335L11.4556 14.3566C11.3402 14.4456 11.2247 14.4901 11.1221 14.4901C10.9938 14.4901 10.8655 14.416 10.7372 14.2824C10.5576 14.0599 10.4036 13.8226 10.2754 13.5852C10.1471 13.333 10.0188 13.0511 9.87766 12.7099C8.877 14.0748 7.61977 14.7572 6.10595 14.7572C5.02832 14.7572 4.16878 14.4011 3.54016 13.689C2.91154 12.977 2.59082 12.0275 2.59082 10.8407C2.59082 9.5797 2.97569 8.55608 3.75825 7.78465C4.54082 7.01322 5.57996 6.6275 6.90135 6.6275C7.33753 6.6275 7.78654 6.67201 8.26121 6.74619C8.73589 6.82036 9.22339 6.93904 9.73654 7.07256V5.98959C9.73654 4.86212 9.53128 4.07586 9.13358 3.61597C8.72306 3.15608 8.03029 2.93355 7.04246 2.93355C6.59345 2.93355 6.13161 2.99289 5.65694 3.12641C5.18227 3.25992 4.72043 3.42311 4.27141 3.6308C4.06615 3.73465 3.9122 3.79399 3.8224 3.82366C3.7326 3.85333 3.66845 3.86816 3.61714 3.86816C3.43753 3.86816 3.34773 3.71981 3.34773 3.40827V2.68135C3.34773 2.44399 3.37339 2.26597 3.43753 2.16212C3.50168 2.05827 3.61714 1.95443 3.79674 1.85058C4.24575 1.58355 4.78457 1.36102 5.41319 1.183C6.04181 0.990141 6.70891 0.90113 7.4145 0.90113C8.94115 0.90113 10.0573 1.30168 10.7757 2.10278C11.4813 2.90388 11.8405 4.12036 11.8405 5.75223V10.5588H11.8661ZM6.6576 12.8138C7.08095 12.8138 7.51714 12.7248 7.97898 12.5467C8.44082 12.3687 8.85135 12.0423 9.19773 11.5973C9.40299 11.3154 9.55694 11.0039 9.63391 10.6478C9.71089 10.2918 9.7622 9.86157 9.7622 9.35717V8.7341C9.39016 8.63025 8.99246 8.54124 8.58194 8.4819C8.17141 8.42256 7.77372 8.39289 7.37602 8.39289C6.51648 8.39289 5.88786 8.58575 5.4645 8.9863C5.04115 9.38684 4.83589 9.95058 4.83589 10.6923C4.83589 11.3896 4.98983 11.9088 5.31056 12.2649C5.61845 12.6357 6.06746 12.8138 6.6576 12.8138ZM16.9592 14.416C16.7283 14.416 16.5744 14.3715 16.4717 14.2676C16.3691 14.1786 16.2793 13.9709 16.2023 13.689L13.1875 2.22146C13.1106 1.92476 13.0721 1.7319 13.0721 1.62805C13.0721 1.39069 13.1747 1.25717 13.38 1.25717H14.6372C14.881 1.25717 15.0477 1.30168 15.1375 1.40553C15.2402 1.49454 15.3171 1.70223 15.3941 1.9841L17.5494 11.805L19.5507 1.9841C19.6148 1.68739 19.6918 1.49454 19.7944 1.40553C19.8971 1.31651 20.0767 1.25717 20.3076 1.25717H21.3339C21.5777 1.25717 21.7444 1.30168 21.8471 1.40553C21.9497 1.49454 22.0395 1.70223 22.0908 1.9841L24.1178 11.9237L26.3372 1.9841C26.4142 1.68739 26.504 1.49454 26.5938 1.40553C26.6964 1.31651 26.8632 1.25717 27.0941 1.25717H28.2872C28.4925 1.25717 28.6079 1.37586 28.6079 1.62805C28.6079 1.70223 28.5951 1.77641 28.5823 1.86542C28.5694 1.95443 28.5438 2.07311 28.4925 2.2363L25.4007 13.7039C25.3237 14.0006 25.2339 14.1934 25.1313 14.2824C25.0286 14.3715 24.8619 14.4308 24.6438 14.4308H23.5405C23.2967 14.4308 23.13 14.3863 23.0273 14.2824C22.9247 14.1786 22.8349 13.9857 22.7836 13.689L20.7951 4.12036L18.8194 13.6742C18.7553 13.9709 18.6783 14.1638 18.5757 14.2676C18.4731 14.3715 18.2935 14.416 18.0625 14.416H16.9592ZM33.4444 14.8165C32.7773 14.8165 32.1102 14.7275 31.4688 14.5495C30.8273 14.3715 30.327 14.1786 29.9934 13.9561C29.7882 13.8226 29.6471 13.6742 29.5958 13.5407C29.5444 13.4072 29.5188 13.2588 29.5188 13.1253V12.3687C29.5188 12.0572 29.6214 11.9088 29.8138 11.9088C29.8908 11.9088 29.9678 11.9237 30.0448 11.9533C30.1217 11.983 30.2372 12.0423 30.3655 12.1017C30.8017 12.3242 31.2763 12.5022 31.7767 12.6209C32.2898 12.7396 32.7902 12.7989 33.3033 12.7989C34.1115 12.7989 34.7402 12.6357 35.1763 12.3094C35.6125 11.983 35.8434 11.5083 35.8434 10.9C35.8434 10.4846 35.728 10.1434 35.4971 9.86157C35.2661 9.5797 34.83 9.3275 34.2013 9.09014L32.3411 8.42256C31.4046 8.08135 30.7119 7.57695 30.2885 6.90937C29.8652 6.25663 29.6471 5.5297 29.6471 4.75827C29.6471 4.1352 29.7625 3.5863 29.9934 3.11157C30.2244 2.63684 30.5323 2.22146 30.9171 1.89509C31.302 1.55388 31.7382 1.30168 32.2513 1.12366C32.7645 0.945636 33.3033 0.87146 33.8678 0.87146C34.15 0.87146 34.4451 0.886295 34.7273 0.930801C35.0224 0.975306 35.2918 1.03465 35.5612 1.09399C35.8178 1.16816 36.0615 1.24234 36.2925 1.33135C36.5234 1.42036 36.703 1.50937 36.8313 1.59838C37.0109 1.71706 37.1392 1.83575 37.2161 1.96926C37.2931 2.08794 37.3316 2.25113 37.3316 2.45882V3.15608C37.3316 3.46761 37.229 3.6308 37.0365 3.6308C36.9339 3.6308 36.7671 3.57146 36.549 3.45278C35.8178 3.06706 34.9967 2.87421 34.0859 2.87421C33.3546 2.87421 32.7773 3.00772 32.3796 3.28959C31.9819 3.57146 31.7767 4.00168 31.7767 4.60992C31.7767 5.02531 31.905 5.38135 32.1615 5.66322C32.4181 5.94509 32.8928 6.22695 33.5727 6.47915L35.3944 7.14674C36.3181 7.48794 36.9852 7.96267 37.3829 8.57091C37.7806 9.17915 37.9731 9.87641 37.9731 10.6478C37.9731 11.2857 37.8576 11.8643 37.6395 12.3687C37.4086 12.8731 37.1007 13.3182 36.703 13.6742C36.3053 14.0451 35.8306 14.3121 35.279 14.505C34.7017 14.7127 34.0987 14.8165 33.4444 14.8165Z" fill="white"/>
<path fill-rule="evenodd" clip-rule="evenodd" d="M35.869 22.0264C31.6483 25.6313 25.5161 27.5451 20.2434 27.5451C12.8539 27.5451 6.19568 24.3852 1.16673 19.1335C0.769036 18.7181 1.12825 18.1544 1.60292 18.4808C7.04239 22.1302 13.7519 24.3407 20.6924 24.3407C25.375 24.3407 30.5194 23.2132 35.2532 20.8989C35.9588 20.528 36.5618 21.433 35.869 22.0264Z" fill="white"/>
<path fill-rule="evenodd" clip-rule="evenodd" d="M37.6266 19.7121C37.0878 18.911 34.0601 19.3264 32.6875 19.5193C32.2769 19.5786 32.2128 19.1632 32.5848 18.8517C34.9967 16.8934 38.9608 17.4572 39.4227 18.1099C39.8845 18.7775 39.2944 23.3616 37.0365 25.5572C36.6901 25.8984 36.3565 25.7204 36.5105 25.2753C37.0236 23.8066 38.1654 20.4984 37.6266 19.7121Z" fill="white"/>
</g>
<defs>
<clipPath id="clip0_174_30">
<rect width="39" height="27" fill="white" transform="translate(0.781738 0.708313)"/>
</clipPath>
</defs>
</svg>
