<svg width="40" height="42" viewBox="0 0 40 42" fill="none" xmlns="http://www.w3.org/2000/svg">
<path d="M20.0924 41.7083C19.5096 41.7083 18.9308 41.5643 18.4198 41.2871L13.0957 38.3177C12.3005 37.8988 12.6886 37.7506 12.9508 37.6652C14.0111 37.3155 14.2263 37.2365 15.358 36.631C15.4769 36.5671 15.6326 36.5897 15.7544 36.6574L19.8445 38.9439C19.9923 39.0191 20.2018 39.0191 20.3388 38.9439L36.2866 30.2718C36.4343 30.1928 36.5301 30.0311 36.5301 29.8656V12.529C36.5301 12.356 36.4343 12.2018 36.2834 12.1153L20.3419 3.45077C20.1942 3.36804 19.9986 3.36804 19.8509 3.45077L3.91263 12.1153C3.75814 12.1981 3.65994 12.3598 3.65994 12.5252V29.8619C3.65994 30.0273 3.75575 30.1853 3.90744 30.2643L8.27465 32.641C10.6459 33.7579 12.095 32.4417 12.095 31.1179V14.0069C12.095 13.7625 12.2985 13.5745 12.558 13.5745H14.578C14.8294 13.5745 15.037 13.7625 15.037 14.0069V31.1255C15.037 34.1039 13.3125 35.815 10.3145 35.815C9.3924 35.815 8.66586 35.815 6.63794 34.8748L2.45437 32.6034C1.42045 32.0393 0.781738 30.9863 0.781738 29.8619V12.5252C0.781738 11.397 1.42045 10.3441 2.45437 9.78748L18.4182 1.11164C19.4282 0.57387 20.7695 0.57387 21.7715 1.11164L37.7154 9.79124C38.7453 10.3516 39.388 11.4008 39.388 12.529V29.8656C39.388 30.9901 38.7453 32.0393 37.7154 32.6034L21.7715 41.2792C21.2605 41.5575 20.6817 41.7004 20.0909 41.7004" fill="white"/>
<path d="M25.0186 29.7622C18.0407 29.7622 16.5776 26.7447 16.5776 24.2138C16.5776 23.9731 16.7836 23.7813 17.0395 23.7813H19.0994C19.3269 23.7813 19.5185 23.9374 19.5544 24.1491C19.8658 26.1264 20.7919 27.1238 25.0115 27.1238C28.3727 27.1238 29.8018 26.4085 29.8018 24.7294C29.8018 23.7629 29.3946 23.0446 24.1731 22.5632C19.8059 22.1571 17.1074 21.2507 17.1074 17.9602C17.1074 14.9291 19.8219 13.124 24.3687 13.124C29.4745 13.124 32.0054 14.7937 32.3247 18.3814C32.3367 18.5055 32.2888 18.6258 32.201 18.7161C32.1132 18.8026 31.9894 18.8552 31.8617 18.8552H29.7898C29.5743 18.8552 29.3866 18.7123 29.3427 18.5167C28.8437 16.4371 27.6382 15.7715 24.3608 15.7715C20.6922 15.7715 20.265 16.9749 20.265 17.8774C20.265 18.9718 20.768 19.2914 25.718 19.9082C30.6202 20.5212 32.9475 21.3861 32.9475 24.6316C32.9475 27.9033 30.0493 29.7799 24.9955 29.7799" fill="white"/>
</svg>
