<svg width="41" height="36" viewBox="0 0 41 36" fill="none" xmlns="http://www.w3.org/2000/svg">
<g clip-path="url(#clip0_174_22)">
<path d="M20.7757 21.7146C22.7447 21.7146 24.3409 20.1448 24.3409 18.2083C24.3409 16.2719 22.7447 14.7021 20.7757 14.7021C18.8067 14.7021 17.2104 16.2719 17.2104 18.2083C17.2104 20.1448 18.8067 21.7146 20.7757 21.7146Z" fill="white"/>
<path d="M20.7757 25.3918C31.3411 25.3918 39.9061 22.1757 39.9061 18.2083C39.9061 14.241 31.3411 11.0248 20.7757 11.0248C10.2103 11.0248 1.64526 14.241 1.64526 18.2083C1.64526 22.1757 10.2103 25.3918 20.7757 25.3918Z" stroke="white" stroke-width="2.62176"/>
<path d="M14.4498 21.8001C19.7326 30.7987 26.8472 36.4854 30.3408 34.5018C33.8344 32.5181 32.3841 23.6152 27.1013 14.6166C21.8186 5.61799 14.704 -0.0687314 11.2104 1.91495C7.71677 3.89862 9.16713 12.8015 14.4498 21.8001Z" stroke="white" stroke-width="2.62176"/>
<path d="M14.45 14.6165C9.16731 23.6151 7.71695 32.518 11.2106 34.5017C14.7042 36.4854 21.8188 30.7987 27.1015 21.8001C32.3843 12.8015 33.8346 3.89857 30.341 1.91489C26.8474 -0.0687883 19.7328 5.61793 14.45 14.6165Z" stroke="white" stroke-width="2.62176"/>
</g>
<defs>
<clipPath id="clip0_174_22">
<rect width="40" height="35" fill="white" transform="translate(0.775635 0.708313)"/>
</clipPath>
</defs>
</svg>
