<svg width="86" height="86" viewBox="0 0 86 86" fill="none" xmlns="http://www.w3.org/2000/svg">
<path fill-rule="evenodd" clip-rule="evenodd" d="M40.3446 31.8701L40.3881 33.6396L39.9758 33.6611C39.9432 32.5783 39.7149 32.4305 38.0682 32.4305H37.7159V38.6293C37.7159 39.4855 37.9337 39.7123 38.7774 39.736L38.7985 40.032C37.9998 40.0215 37.394 40.0215 37.0096 40.0215C36.6054 40.0215 35.9776 40.0215 35.1545 40.032L35.1756 39.736C36.0214 39.7123 36.2397 39.4855 36.2397 38.629V32.4302H35.8278C34.1364 32.4302 33.9078 32.5783 33.886 33.6611L33.476 33.6396L33.5167 31.8701C35.0605 31.8804 36.2158 31.8945 36.9907 31.8945C37.7159 31.8945 38.8458 31.8804 40.3446 31.8701ZM41.0286 39.7578C41.7943 39.7578 41.8974 39.6097 41.9089 38.5374V33.3669C41.8974 32.2924 41.794 32.1436 41.0286 32.1436L41.0056 31.8697C42.0463 31.8137 42.2847 31.7783 43.2243 31.6089V35.1241C43.8291 34.4726 44.3214 34.2102 44.9964 34.2102C46.1146 34.2102 46.7328 34.8954 46.7328 36.1971V38.5374C46.7443 39.6097 46.8472 39.7578 47.6111 39.7578L47.6308 40.032C46.9733 40.0104 46.4705 39.9865 46.139 39.9865C45.8168 39.9865 45.3484 40.0104 44.7204 40.032L44.7443 39.7578C45.3484 39.6676 45.4064 39.5552 45.4176 38.5374V36.8239C45.4176 35.3856 45.1675 34.9078 44.4129 34.9078C44.0113 34.9078 43.578 35.1681 43.3954 35.5689C43.3267 35.7062 43.2808 35.8529 43.2348 36.0014C43.2243 36.0608 43.2243 36.1043 43.2243 36.1275V38.5374C43.2243 39.5552 43.293 39.6676 43.8959 39.7578L43.9205 40.032C43.2808 40.0104 42.81 39.9865 42.4917 39.9865C42.1602 39.9865 41.6566 40.0104 41.0056 40.032L41.0286 39.7578ZM49.4706 36.4036C50.5205 36.3801 50.8401 36.355 51.8821 36.2423C51.7448 35.1354 51.3288 34.6095 50.6232 34.6095C49.9378 34.6095 49.5833 35.1562 49.4706 36.4036ZM53.0934 38.913C52.384 39.793 51.6885 40.1595 50.7936 40.1595C49.2073 40.1595 48.1334 38.9944 48.1334 37.291C48.1334 35.4555 49.2415 34.2097 50.8403 34.2097C51.6995 34.2097 52.3177 34.5282 52.7402 35.2033C53.0252 35.6839 53.1042 36.0136 53.115 36.8366H49.5031C49.551 38.5491 50.1773 39.53 51.2216 39.53C51.8367 39.53 52.3618 39.2441 52.9228 38.5946L53.0934 38.913ZM10.9873 50.5841C11.9145 50.5604 12.1548 50.3078 12.1548 49.3575V43.4147C12.1548 42.4656 11.9145 42.2132 10.9873 42.1869L10.9504 41.8806L12.8939 41.905L15.967 41.8663L16.7759 41.8806L16.8262 43.718L16.3193 43.7563C16.2319 42.606 16.0168 42.4795 14.2136 42.4795H13.9336L13.8072 42.4905V45.9117C14.0456 45.9117 14.2389 45.9251 14.3534 45.9251C14.5475 45.9391 14.742 45.9469 14.9366 45.9485C15.928 45.9485 16.1565 45.7356 16.1671 44.7946H16.5995C16.5613 45.5478 16.5613 45.9377 16.5613 46.3167C16.5613 46.6215 16.5613 47.0493 16.5739 47.6182H16.1671C16.1173 46.7107 15.9134 46.5325 14.9622 46.5213L14.276 46.5069L13.7945 46.5325V49.1809C13.7945 50.258 13.8574 50.3078 14.9232 50.3078C16.3332 50.3078 16.7525 49.991 16.8772 48.7845L17.3846 48.8116L17.0928 50.9138L16.1173 50.9274L13.0348 50.9025L10.9502 50.9138L10.9873 50.5841ZM23.7857 50.0161C23.0636 50.7631 22.4892 51.0545 21.6541 51.0545C19.9828 51.0545 18.9118 49.7508 18.9118 47.7864C18.9118 45.7361 20.0429 44.452 21.8691 44.452C22.3501 44.452 22.8365 44.5406 23.5868 44.7439L23.6083 46.2401L23.0382 46.2784C22.8264 45.1614 22.6038 44.8956 21.8691 44.8956C20.9199 44.8956 20.4259 45.7212 20.4259 47.3534C20.4259 49.2577 21.0189 50.3331 22.0974 50.3331C22.6548 50.3331 23.1019 50.0917 23.5971 49.5609L23.7857 50.0161ZM26.6908 47.8603C26.8167 49.6489 27.4129 50.6224 28.3882 50.6224C29.3001 50.6224 29.8465 49.675 29.8465 48.1019C29.8465 46.2301 29.0961 44.9329 28.0588 44.9329C27.1348 44.9329 26.6642 45.7102 26.6642 47.2923C26.6642 47.4825 26.6642 47.6715 26.6908 47.8603ZM25.1394 48.001V47.8089C25.1394 45.6719 26.2911 44.4523 28.2494 44.4523C30.0659 44.4523 31.3577 45.7992 31.3577 47.7586C31.3577 49.725 30.1028 51.0547 28.2113 51.0547C26.4062 51.0547 25.2033 49.8393 25.1394 48.001ZM32.8545 50.6109C33.6809 50.6109 33.8066 50.4458 33.8066 49.2575V46.3411C33.8066 45.187 33.6809 45.0222 32.8545 45.0092L32.8291 44.719C33.9341 44.6554 34.1895 44.6171 35.1502 44.414L35.2151 45.5353C35.9372 44.7437 36.4943 44.452 37.2459 44.452C38.4768 44.452 39.1721 45.2506 39.1721 46.6595V49.2577C39.1606 49.3573 39.1606 49.4594 39.1606 49.5609C39.1606 50.3707 39.3753 50.6109 40.149 50.6109L40.1739 50.9138C39.4392 50.8896 38.8815 50.8636 38.5136 50.8636C38.1594 50.8636 37.6271 50.8896 36.9517 50.9138L36.974 50.6109C37.6271 50.5088 37.702 50.3836 37.702 49.2575L37.7159 48.4814V47.3536C37.7159 45.7609 37.4239 45.2506 36.6219 45.2506C36.1265 45.2506 35.7086 45.5042 35.4554 45.9631C35.3541 46.1531 35.2663 46.4547 35.2663 46.583V49.2577C35.2787 50.3839 35.3424 50.509 36.0133 50.6109L36.0523 50.9138C35.3424 50.8896 34.8104 50.8636 34.4557 50.8636C34.0866 50.8636 33.5455 50.8896 32.8291 50.9138L32.8545 50.6109ZM42.8129 47.8603C42.9407 49.6489 43.5343 50.6224 44.4899 50.6224C45.4023 50.6224 45.9475 49.675 45.9475 48.1019C45.9475 46.2301 45.2003 44.9329 44.1685 44.9329C43.2576 44.9329 42.7887 45.7102 42.7887 47.2923C42.7887 47.4825 42.7887 47.6718 42.8126 47.8606M41.2416 48.001V47.8089C41.2416 45.6719 42.3962 44.4523 44.3523 44.4523C46.1895 44.4523 47.48 45.7992 47.48 47.7586C47.48 49.725 46.2261 51.0547 44.3143 51.0547C42.5216 51.0547 41.3058 49.8393 41.2416 48.001ZM48.8976 50.6109C49.7484 50.6109 49.8753 50.4458 49.8753 49.2575V46.3411C49.8753 45.187 49.7484 45.0222 48.8976 45.0092L48.872 44.719C50 44.6554 50.2561 44.6171 51.2115 44.414L51.2682 45.5353C51.9812 44.7568 52.5398 44.452 53.2871 44.452C54.1487 44.452 54.6542 44.8071 55.0137 45.6339C55.7879 44.7678 56.3568 44.452 57.1308 44.452C58.3266 44.452 58.996 45.2626 58.996 46.6595V49.2577C58.996 49.3573 58.9833 49.4594 58.9833 49.5609C58.9833 50.3707 59.2129 50.6109 59.9718 50.6109L59.9993 50.9138C59.2634 50.8896 58.7062 50.8636 58.3493 50.8636C58.0059 50.8636 57.4843 50.8896 56.7886 50.9138L56.8137 50.6109C57.4843 50.5088 57.5483 50.3836 57.5607 49.2575V47.3536C57.5607 45.7856 57.285 45.2506 56.4968 45.2506C56.0285 45.2506 55.5462 45.5353 55.3435 45.9631C55.2798 46.1138 55.2176 46.2669 55.1795 46.4442C55.1666 46.5069 55.1532 46.5576 55.1532 46.583V49.2577C55.1532 50.3839 55.2293 50.509 55.9002 50.6109L55.9277 50.9138C55.2559 50.8896 54.7621 50.8636 54.4268 50.8636C54.0984 50.8636 53.603 50.8896 52.9439 50.9138L52.9704 50.6109C53.6418 50.5088 53.7052 50.3836 53.716 49.2575V47.3536C53.716 45.7856 53.4388 45.2506 52.6516 45.2506C52.1727 45.2506 51.7407 45.5155 51.4997 45.9631C51.3977 46.1648 51.3161 46.4547 51.3161 46.583V49.2577C51.3288 50.3839 51.3855 50.509 52.0576 50.6109L52.083 50.9138C51.3855 50.8896 50.8738 50.8636 50.5205 50.8636C50.1513 50.8636 49.6077 50.8896 48.872 50.9138L48.8976 50.6109ZM61.9104 42.3027C61.9101 42.1924 61.9315 42.0832 61.9734 41.9813C62.0154 41.8794 62.0771 41.7867 62.155 41.7087C62.2329 41.6307 62.3254 41.5688 62.4273 41.5266C62.5291 41.4844 62.6383 41.4628 62.7486 41.4629C63.2189 41.4629 63.5975 41.8526 63.5975 42.3027C63.5975 42.7816 63.2311 43.1627 62.7486 43.1627C62.2675 43.1627 61.9104 42.795 61.9104 42.3027ZM63.5339 44.414V48.4814L63.5458 49.2575C63.5458 50.4456 63.6619 50.6104 64.5219 50.6104L64.5484 50.9138C63.7615 50.8896 63.1916 50.8638 62.7996 50.8638C62.4202 50.8638 61.8643 50.8896 61.0974 50.9138L61.1213 50.6104C61.9581 50.6104 62.0775 50.4456 62.0775 49.2575L62.0892 48.4814V47.1521L62.0775 46.3416C62.0775 45.187 61.9578 45.0222 61.1213 45.0095L61.0974 44.7188C62.2424 44.6434 62.5069 44.6044 63.5339 44.414ZM66.0742 50.6872L66.0244 49.3944L66.6695 49.3707C66.9612 50.3454 67.1522 50.5344 67.8243 50.5344C68.4059 50.5344 68.7874 50.2315 68.7874 49.7764C68.7874 49.3441 68.5217 49.0302 67.7216 48.4941C67.3171 48.2156 67.039 48.024 66.8873 47.9115C66.5565 47.6586 66.3159 47.3536 66.1889 47.0134C66.1113 46.8229 66.0742 46.5961 66.0742 46.3299C66.0742 45.2009 66.8621 44.452 68.0514 44.452C68.4944 44.452 68.7483 44.4898 69.7536 44.7305L69.7811 45.988L69.137 46.0143C68.9934 45.187 68.7361 44.8956 68.1414 44.8956C67.571 44.8956 67.1646 45.2253 67.1646 45.6715C67.1646 46.1138 67.3688 46.3796 68.0272 46.7973C68.6217 47.1909 69.0772 47.5438 69.3867 47.8225C69.7421 48.1637 69.9458 48.5938 69.9458 49.0726C69.9458 50.1915 69.0052 51.0545 67.7989 51.0545C67.331 51.0545 66.8873 50.9504 66.0742 50.6872ZM71.2875 44.8202C72.287 44.7437 72.6651 44.3147 72.9519 42.9967H73.5215V44.7061H75.1193L74.9408 45.4021H73.5215V48.4941C73.5215 50.03 73.7252 50.3954 74.5865 50.3954C74.7885 50.3954 74.9779 50.3705 75.2835 50.2829V50.649C74.8534 50.8899 74.2579 51.0284 73.6505 51.0284C73.0897 51.0284 72.5704 50.7131 72.3526 50.2437C72.162 49.8513 72.0998 49.4594 72.0998 48.6199V45.4021H71.2875V44.8202Z" fill="white"/>
</svg>
