<svg width="191" height="13" viewBox="0 0 191 13" fill="none" xmlns="http://www.w3.org/2000/svg">
<path d="M186.844 12.192C185.98 12.192 185.234 12.048 184.605 11.76C183.986 11.4613 183.458 11.0667 183.021 10.576L183.885 9.824C184.279 10.24 184.711 10.56 185.18 10.784C185.65 11.008 186.215 11.12 186.876 11.12C187.516 11.12 188.039 11.008 188.445 10.784C188.861 10.5493 189.068 10.1867 189.068 9.696C189.068 9.48267 189.026 9.30667 188.941 9.168C188.866 9.01867 188.759 8.90134 188.62 8.816C188.482 8.73067 188.327 8.66667 188.157 8.624C187.986 8.57067 187.805 8.528 187.613 8.496L186.316 8.304C186.028 8.26133 185.714 8.20267 185.372 8.128C185.042 8.05334 184.738 7.936 184.46 7.776C184.183 7.60534 183.949 7.38134 183.757 7.104C183.575 6.82667 183.484 6.464 183.484 6.016C183.484 5.6 183.565 5.24267 183.725 4.944C183.895 4.63467 184.13 4.37867 184.428 4.176C184.727 3.96267 185.079 3.808 185.484 3.712C185.89 3.60534 186.332 3.552 186.812 3.552C187.559 3.552 188.205 3.66934 188.749 3.904C189.303 4.13867 189.778 4.464 190.173 4.88L189.34 5.664C189.244 5.54667 189.122 5.42934 188.973 5.312C188.834 5.184 188.658 5.072 188.445 4.976C188.242 4.86933 188.002 4.784 187.725 4.72C187.447 4.656 187.127 4.624 186.764 4.624C186.114 4.624 185.612 4.736 185.26 4.96C184.919 5.184 184.749 5.50933 184.749 5.936C184.749 6.14933 184.786 6.33067 184.861 6.48C184.946 6.61867 185.058 6.73067 185.197 6.816C185.335 6.90134 185.49 6.97067 185.661 7.024C185.842 7.06667 186.023 7.104 186.204 7.136L187.501 7.328C187.799 7.37067 188.114 7.42933 188.445 7.504C188.775 7.57867 189.079 7.70133 189.357 7.872C189.634 8.032 189.863 8.25067 190.045 8.528C190.237 8.80534 190.333 9.168 190.333 9.616C190.333 10.4373 190.012 11.072 189.372 11.52C188.743 11.968 187.9 12.192 186.844 12.192Z" fill="white"/>
<path d="M177.155 12.192C176.579 12.192 176.056 12.0907 175.587 11.888C175.128 11.6853 174.734 11.3973 174.403 11.024C174.083 10.64 173.838 10.1867 173.667 9.664C173.496 9.13067 173.411 8.53334 173.411 7.872C173.411 7.22134 173.496 6.62934 173.667 6.096C173.838 5.56267 174.083 5.10934 174.403 4.736C174.734 4.352 175.128 4.05867 175.587 3.856C176.056 3.65334 176.579 3.552 177.155 3.552C177.731 3.552 178.248 3.65334 178.707 3.856C179.176 4.05867 179.571 4.352 179.891 4.736C180.222 5.10934 180.472 5.56267 180.643 6.096C180.814 6.62934 180.899 7.22134 180.899 7.872C180.899 8.53334 180.814 9.13067 180.643 9.664C180.472 10.1867 180.222 10.64 179.891 11.024C179.571 11.3973 179.176 11.6853 178.707 11.888C178.248 12.0907 177.731 12.192 177.155 12.192ZM177.155 11.088C177.87 11.088 178.446 10.8747 178.883 10.448C179.32 10.0213 179.539 9.36 179.539 8.464V7.28C179.539 6.384 179.32 5.72267 178.883 5.296C178.446 4.86933 177.87 4.656 177.155 4.656C176.44 4.656 175.864 4.86933 175.427 5.296C174.99 5.72267 174.771 6.384 174.771 7.28V8.464C174.771 9.36 174.99 10.0213 175.427 10.448C175.864 10.8747 176.44 11.088 177.155 11.088Z" fill="white"/>
<path d="M168.073 1.91998C167.7 1.91998 167.438 1.84532 167.289 1.69598C167.14 1.53598 167.065 1.33865 167.065 1.10398V0.847982C167.065 0.613316 167.14 0.421315 167.289 0.271982C167.438 0.111982 167.7 0.0319824 168.073 0.0319824C168.446 0.0319824 168.708 0.111982 168.857 0.271982C169.006 0.421315 169.081 0.613316 169.081 0.847982V1.10398C169.081 1.33865 169.006 1.53598 168.857 1.69598C168.708 1.84532 168.446 1.91998 168.073 1.91998ZM164.457 10.912H167.433V4.83198H164.457V3.74398H168.713V10.912H171.497V12H164.457V10.912Z" fill="white"/>
<path d="M159.967 10.656H159.903C159.37 11.68 158.522 12.192 157.359 12.192C156.346 12.192 155.551 11.8134 154.975 11.056C154.41 10.2987 154.127 9.23737 154.127 7.87203C154.127 6.5067 154.41 5.44537 154.975 4.68803C155.551 3.9307 156.346 3.55203 157.359 3.55203C158.522 3.55203 159.37 4.06403 159.903 5.08803H159.967V0.160034H161.247V12H159.967V10.656ZM157.855 11.056C158.143 11.056 158.415 11.0187 158.671 10.944C158.927 10.8694 159.151 10.7627 159.343 10.624C159.535 10.4747 159.685 10.2987 159.791 10.096C159.909 9.8827 159.967 9.63737 159.967 9.36003V6.38403C159.967 6.1067 159.909 5.8667 159.791 5.66403C159.685 5.4507 159.535 5.2747 159.343 5.13603C159.151 4.9867 158.927 4.8747 158.671 4.80003C158.415 4.72537 158.143 4.68803 157.855 4.68803C157.109 4.68803 156.527 4.91737 156.111 5.37603C155.706 5.82403 155.503 6.42137 155.503 7.16803V8.57603C155.503 9.3227 155.706 9.92537 156.111 10.384C156.527 10.832 157.109 11.056 157.855 11.056Z" fill="white"/>
<path d="M150.326 10.656H150.262C150.177 10.8587 150.07 11.056 149.942 11.248C149.814 11.4294 149.654 11.5894 149.462 11.728C149.281 11.8667 149.062 11.9787 148.806 12.064C148.55 12.1494 148.251 12.192 147.91 12.192C147.046 12.192 146.353 11.92 145.83 11.376C145.307 10.8214 145.046 10.0427 145.046 9.04002V3.74402H146.326V8.81602C146.326 9.57335 146.491 10.1387 146.822 10.512C147.153 10.8747 147.638 11.056 148.278 11.056C148.534 11.056 148.785 11.024 149.03 10.96C149.275 10.896 149.494 10.8 149.686 10.672C149.878 10.544 150.033 10.384 150.15 10.192C150.267 9.98935 150.326 9.74935 150.326 9.47202V3.74402H151.606V12H150.326V10.656Z" fill="white"/>
<path d="M139.18 12C138.551 12 138.087 11.824 137.788 11.472C137.5 11.12 137.356 10.6667 137.356 10.112V4.83203H134.604V3.74403H136.652C136.929 3.74403 137.121 3.6907 137.228 3.58403C137.345 3.4667 137.404 3.26936 137.404 2.99203V0.832031H138.636V3.74403H142.396V4.83203H138.636V10.912H142.396V12H139.18Z" fill="white"/>
<path d="M129.154 12.192C128.152 12.192 127.33 12.0107 126.69 11.648C126.05 11.2747 125.522 10.8 125.106 10.224L126.082 9.42402C126.52 9.96801 126.978 10.3733 127.458 10.64C127.949 10.9067 128.53 11.04 129.202 11.04C130.013 11.04 130.632 10.8533 131.058 10.48C131.485 10.1067 131.698 9.58401 131.698 8.91201C131.698 8.36801 131.544 7.94668 131.234 7.64802C130.925 7.33868 130.386 7.12001 129.618 6.99201L128.37 6.78402C127.826 6.68802 127.368 6.54401 126.994 6.35201C126.632 6.16001 126.338 5.93068 126.114 5.66401C125.89 5.38668 125.73 5.08802 125.634 4.76801C125.538 4.43735 125.49 4.09601 125.49 3.74401C125.49 2.72001 125.826 1.94668 126.498 1.42402C127.17 0.901348 128.077 0.640015 129.218 0.640015C130.114 0.640015 130.866 0.789348 131.474 1.08801C132.093 1.38668 132.589 1.80801 132.962 2.35201L132.018 3.16801C131.709 2.76268 131.336 2.43201 130.898 2.17601C130.461 1.92001 129.896 1.79202 129.202 1.79202C128.445 1.79202 127.864 1.95201 127.458 2.27201C127.053 2.59201 126.85 3.07202 126.85 3.71202C126.85 4.21335 127 4.62402 127.298 4.94402C127.608 5.25335 128.157 5.47735 128.946 5.61601L130.146 5.82401C130.69 5.92001 131.149 6.06401 131.522 6.25601C131.896 6.44801 132.194 6.67735 132.418 6.94402C132.653 7.21068 132.818 7.50935 132.914 7.84002C133.01 8.17068 133.058 8.51735 133.058 8.88002C133.058 9.91468 132.717 10.7253 132.034 11.312C131.362 11.8987 130.402 12.192 129.154 12.192Z" fill="white"/>
<path d="M111.999 10.656H111.935C111.401 11.68 110.553 12.192 109.391 12.192C108.377 12.192 107.583 11.8134 107.007 11.056C106.441 10.2987 106.159 9.23737 106.159 7.87203C106.159 6.5067 106.441 5.44537 107.007 4.68803C107.583 3.9307 108.377 3.55203 109.391 3.55203C110.553 3.55203 111.401 4.06403 111.935 5.08803H111.999V0.160034H113.279V12H111.999V10.656ZM109.887 11.056C110.175 11.056 110.447 11.0187 110.703 10.944C110.959 10.8694 111.183 10.7627 111.375 10.624C111.567 10.4747 111.716 10.2987 111.823 10.096C111.94 9.8827 111.999 9.63737 111.999 9.36003V6.38403C111.999 6.1067 111.94 5.8667 111.823 5.66403C111.716 5.4507 111.567 5.2747 111.375 5.13603C111.183 4.9867 110.959 4.8747 110.703 4.80003C110.447 4.72537 110.175 4.68803 109.887 4.68803C109.14 4.68803 108.559 4.91737 108.143 5.37603C107.737 5.82403 107.535 6.42137 107.535 7.16803V8.57603C107.535 9.3227 107.737 9.92537 108.143 10.384C108.559 10.832 109.14 11.056 109.887 11.056Z" fill="white"/>
<path d="M97.1729 12V3.744H98.4529V5.088H98.5169C98.6022 4.88533 98.7089 4.69333 98.8369 4.512C98.9649 4.32 99.1195 4.15467 99.3008 4.016C99.4929 3.87733 99.7168 3.76533 99.9728 3.68C100.229 3.59467 100.528 3.552 100.869 3.552C101.733 3.552 102.426 3.82934 102.949 4.384C103.472 4.928 103.733 5.70133 103.733 6.704V12H102.453V6.928C102.453 6.17067 102.288 5.61067 101.957 5.248C101.626 4.87467 101.141 4.688 100.501 4.688C100.245 4.688 99.9942 4.72 99.7488 4.784C99.5035 4.848 99.2848 4.944 99.0928 5.072C98.9008 5.2 98.7462 5.36533 98.6289 5.568C98.5115 5.77067 98.4529 6.00533 98.4529 6.272V12H97.1729Z" fill="white"/>
<path d="M93.9314 12C93.43 12 93.0727 11.872 92.8594 11.616C92.646 11.36 92.5127 11.04 92.4594 10.656H92.3794C92.1981 11.136 91.9047 11.5147 91.4994 11.792C91.1047 12.0587 90.5714 12.192 89.8994 12.192C89.0354 12.192 88.3474 11.968 87.8354 11.52C87.3234 11.072 87.0674 10.4587 87.0674 9.68C87.0674 8.912 87.3447 8.32 87.8994 7.904C88.4647 7.488 89.3714 7.28 90.6194 7.28H92.3794V6.464C92.3794 5.856 92.2087 5.40267 91.8674 5.104C91.5261 4.79467 91.0407 4.64 90.4114 4.64C89.8567 4.64 89.4034 4.752 89.0514 4.976C88.6994 5.18933 88.4167 5.48267 88.2034 5.856L87.3394 5.216C87.4461 5.00267 87.5901 4.79467 87.7714 4.592C87.9527 4.38933 88.1767 4.21333 88.4434 4.064C88.71 3.904 89.0141 3.78133 89.3554 3.696C89.6967 3.6 90.0754 3.552 90.4914 3.552C91.4621 3.552 92.23 3.79734 92.7954 4.288C93.3714 4.77867 93.6594 5.46134 93.6594 6.336V10.88H94.8114V12H93.9314ZM90.1234 11.12C90.454 11.12 90.7527 11.0827 91.0194 11.008C91.2967 10.9227 91.5367 10.816 91.7394 10.688C91.942 10.5493 92.0967 10.3893 92.2034 10.208C92.3207 10.016 92.3794 9.81334 92.3794 9.6V8.24H90.6194C89.8514 8.24 89.2914 8.34667 88.9394 8.56C88.5874 8.77333 88.4114 9.08267 88.4114 9.488V9.824C88.4114 10.2507 88.5607 10.576 88.8594 10.8C89.1687 11.0133 89.59 11.12 90.1234 11.12Z" fill="white"/>
<path d="M77.6494 10.912H80.0654V4.83202H77.6494V3.74402H81.3454V5.82402H81.4254C81.5961 5.17335 81.9161 4.66668 82.3854 4.30402C82.8654 3.93068 83.4734 3.74402 84.2094 3.74402H85.3614V5.02402H83.8094C83.0734 5.02402 82.4761 5.23735 82.0174 5.66402C81.5694 6.09069 81.3454 6.65069 81.3454 7.34402V10.912H84.5454V12H77.6494V10.912Z" fill="white"/>
<path d="M72.0238 12C71.3944 12 70.9304 11.824 70.6318 11.472C70.3438 11.12 70.1998 10.6667 70.1998 10.112V4.83203H67.4478V3.74403H69.4958C69.7731 3.74403 69.9651 3.6907 70.0718 3.58403C70.1891 3.4667 70.2478 3.26936 70.2478 2.99203V0.832031H71.4798V3.74403H75.2398V4.83203H71.4798V10.912H75.2398V12H72.0238Z" fill="white"/>
<path d="M61.9982 12.192C60.9955 12.192 60.1742 12.0107 59.5342 11.648C58.8942 11.2747 58.3662 10.8 57.9502 10.224L58.9262 9.42402C59.3635 9.96801 59.8222 10.3733 60.3022 10.64C60.7929 10.9067 61.3742 11.04 62.0462 11.04C62.8569 11.04 63.4755 10.8533 63.9022 10.48C64.3289 10.1067 64.5422 9.58401 64.5422 8.91201C64.5422 8.36801 64.3875 7.94668 64.0782 7.64802C63.7689 7.33868 63.2302 7.12001 62.4622 6.99201L61.2142 6.78402C60.6702 6.68802 60.2115 6.54401 59.8382 6.35201C59.4755 6.16001 59.1822 5.93068 58.9582 5.66401C58.7342 5.38668 58.5742 5.08802 58.4782 4.76801C58.3822 4.43735 58.3342 4.09601 58.3342 3.74401C58.3342 2.72001 58.6702 1.94668 59.3422 1.42402C60.0142 0.901348 60.9209 0.640015 62.0622 0.640015C62.9582 0.640015 63.7102 0.789348 64.3182 1.08801C64.9369 1.38668 65.4329 1.80801 65.8062 2.35201L64.8622 3.16801C64.5529 2.76268 64.1795 2.43201 63.7422 2.17601C63.3049 1.92001 62.7395 1.79202 62.0462 1.79202C61.2889 1.79202 60.7075 1.95201 60.3022 2.27201C59.8969 2.59201 59.6942 3.07202 59.6942 3.71202C59.6942 4.21335 59.8435 4.62402 60.1422 4.94402C60.4515 5.25335 61.0009 5.47735 61.7902 5.61601L62.9902 5.82401C63.5342 5.92001 63.9929 6.06401 64.3662 6.25601C64.7395 6.44801 65.0382 6.67735 65.2622 6.94402C65.4969 7.21068 65.6622 7.50935 65.7582 7.84002C65.8542 8.17068 65.9022 8.51735 65.9022 8.88002C65.9022 9.91468 65.5609 10.7253 64.8782 11.312C64.2062 11.8987 63.2462 12.192 61.9982 12.192Z" fill="white"/>
<path d="M44.8424 10.656H44.7784C44.2451 11.68 43.3971 12.192 42.2344 12.192C41.2211 12.192 40.4264 11.8134 39.8504 11.056C39.2851 10.2987 39.0024 9.23737 39.0024 7.87203C39.0024 6.5067 39.2851 5.44537 39.8504 4.68803C40.4264 3.9307 41.2211 3.55203 42.2344 3.55203C43.3971 3.55203 44.2451 4.06403 44.7784 5.08803H44.8424V0.160034H46.1224V12H44.8424V10.656ZM42.7304 11.056C43.0184 11.056 43.2904 11.0187 43.5464 10.944C43.8024 10.8694 44.0264 10.7627 44.2184 10.624C44.4104 10.4747 44.5598 10.2987 44.6664 10.096C44.7838 9.8827 44.8424 9.63737 44.8424 9.36003V6.38403C44.8424 6.1067 44.7838 5.8667 44.6664 5.66403C44.5598 5.4507 44.4104 5.2747 44.2184 5.13603C44.0264 4.9867 43.8024 4.8747 43.5464 4.80003C43.2904 4.72537 43.0184 4.68803 42.7304 4.68803C41.9838 4.68803 41.4024 4.91737 40.9864 5.37603C40.5811 5.82403 40.3784 6.42137 40.3784 7.16803V8.57603C40.3784 9.3227 40.5811 9.92537 40.9864 10.384C41.4024 10.832 41.9838 11.056 42.7304 11.056Z" fill="white"/>
<path d="M29.6807 10.912H32.0967V4.83202H29.6807V3.74402H33.3767V5.82402H33.4567C33.6273 5.17335 33.9473 4.66668 34.4167 4.30402C34.8967 3.93068 35.5047 3.74402 36.2407 3.74402H37.3927V5.02402H35.8407C35.1047 5.02402 34.5073 5.23735 34.0487 5.66402C33.6007 6.09069 33.3767 6.65069 33.3767 7.34402V10.912H36.5767V12H29.6807V10.912Z" fill="white"/>
<path d="M24.1668 1.91998C23.7934 1.91998 23.5321 1.84532 23.3828 1.69598C23.2334 1.53598 23.1588 1.33865 23.1588 1.10398V0.847982C23.1588 0.613316 23.2334 0.421315 23.3828 0.271982C23.5321 0.111982 23.7934 0.0319824 24.1668 0.0319824C24.5401 0.0319824 24.8014 0.111982 24.9508 0.271982C25.1001 0.421315 25.1748 0.613316 25.1748 0.847982V1.10398C25.1748 1.33865 25.1001 1.53598 24.9508 1.69598C24.8014 1.84532 24.5401 1.91998 24.1668 1.91998ZM20.5508 10.912H23.5268V4.83198H20.5508V3.74398H24.8068V10.912H27.5908V12H20.5508V10.912Z" fill="white"/>
<path d="M10.8291 0.160034H12.1091V5.08803H12.1731C12.2584 4.88537 12.3651 4.69337 12.4931 4.51203C12.6211 4.32003 12.7758 4.1547 12.9571 4.01603C13.1491 3.87737 13.3731 3.76537 13.6291 3.68003C13.8851 3.5947 14.1838 3.55203 14.5251 3.55203C15.3891 3.55203 16.0824 3.82937 16.6051 4.38403C17.1278 4.92803 17.3891 5.70137 17.3891 6.70403V12H16.1091V6.92803C16.1091 6.1707 15.9438 5.6107 15.6131 5.24803C15.2824 4.8747 14.7971 4.68803 14.1571 4.68803C13.9011 4.68803 13.6504 4.72003 13.4051 4.78403C13.1598 4.84803 12.9411 4.94403 12.7491 5.07203C12.5571 5.20003 12.4024 5.36537 12.2851 5.56803C12.1678 5.7707 12.1091 6.00537 12.1091 6.27203V12H10.8291V0.160034Z" fill="white"/>
<path d="M5.13938 2.00003V12H3.79538V2.00003H0.0673828V0.832031H8.86738V2.00003H5.13938Z" fill="white"/>
</svg>
