<svg width="192" height="13" viewBox="0 0 192 13" fill="none" xmlns="http://www.w3.org/2000/svg">
<path d="M187.622 12.192C186.758 12.192 186.011 12.048 185.382 11.76C184.763 11.4613 184.235 11.0667 183.798 10.576L184.662 9.824C185.056 10.24 185.488 10.56 185.958 10.784C186.427 11.008 186.992 11.12 187.654 11.12C188.294 11.12 188.816 11.008 189.222 10.784C189.638 10.5493 189.846 10.1867 189.846 9.696C189.846 9.48267 189.803 9.30667 189.718 9.168C189.643 9.01867 189.536 8.90134 189.398 8.816C189.259 8.73067 189.104 8.66667 188.934 8.624C188.763 8.57067 188.582 8.528 188.39 8.496L187.094 8.304C186.806 8.26133 186.491 8.20267 186.15 8.128C185.819 8.05334 185.515 7.936 185.238 7.776C184.96 7.60534 184.726 7.38134 184.534 7.104C184.352 6.82667 184.262 6.464 184.262 6.016C184.262 5.6 184.342 5.24267 184.502 4.944C184.672 4.63467 184.907 4.37867 185.206 4.176C185.504 3.96267 185.856 3.808 186.262 3.712C186.667 3.60534 187.11 3.552 187.59 3.552C188.336 3.552 188.982 3.66934 189.526 3.904C190.08 4.13867 190.555 4.464 190.95 4.88L190.118 5.664C190.022 5.54667 189.899 5.42934 189.75 5.312C189.611 5.184 189.435 5.072 189.222 4.976C189.019 4.86933 188.779 4.784 188.502 4.72C188.224 4.656 187.904 4.624 187.542 4.624C186.891 4.624 186.39 4.736 186.038 4.96C185.696 5.184 185.526 5.50933 185.526 5.936C185.526 6.14933 185.563 6.33067 185.638 6.48C185.723 6.61867 185.835 6.73067 185.974 6.816C186.112 6.90134 186.267 6.97067 186.438 7.024C186.619 7.06667 186.8 7.104 186.982 7.136L188.278 7.328C188.576 7.37067 188.891 7.42933 189.222 7.504C189.552 7.57867 189.856 7.70133 190.134 7.872C190.411 8.032 190.64 8.25067 190.822 8.528C191.014 8.80534 191.11 9.168 191.11 9.616C191.11 10.4373 190.79 11.072 190.15 11.52C189.52 11.968 188.678 12.192 187.622 12.192Z" fill="white"/>
<path d="M177.932 12.192C177.356 12.192 176.833 12.0907 176.364 11.888C175.905 11.6853 175.51 11.3973 175.18 11.024C174.86 10.64 174.614 10.1867 174.444 9.664C174.273 9.13067 174.188 8.53334 174.188 7.872C174.188 7.22134 174.273 6.62934 174.444 6.096C174.614 5.56267 174.86 5.10934 175.18 4.736C175.51 4.352 175.905 4.05867 176.364 3.856C176.833 3.65334 177.356 3.552 177.932 3.552C178.508 3.552 179.025 3.65334 179.484 3.856C179.953 4.05867 180.348 4.352 180.668 4.736C180.998 5.10934 181.249 5.56267 181.42 6.096C181.59 6.62934 181.676 7.22134 181.676 7.872C181.676 8.53334 181.59 9.13067 181.42 9.664C181.249 10.1867 180.998 10.64 180.668 11.024C180.348 11.3973 179.953 11.6853 179.484 11.888C179.025 12.0907 178.508 12.192 177.932 12.192ZM177.932 11.088C178.646 11.088 179.222 10.8747 179.66 10.448C180.097 10.0213 180.316 9.36 180.316 8.464V7.28C180.316 6.384 180.097 5.72267 179.66 5.296C179.222 4.86933 178.646 4.656 177.932 4.656C177.217 4.656 176.641 4.86933 176.204 5.296C175.766 5.72267 175.548 6.384 175.548 7.28V8.464C175.548 9.36 175.766 10.0213 176.204 10.448C176.641 10.8747 177.217 11.088 177.932 11.088Z" fill="white"/>
<path d="M168.85 1.91998C168.477 1.91998 168.215 1.84532 168.066 1.69598C167.917 1.53598 167.842 1.33865 167.842 1.10398V0.847982C167.842 0.613316 167.917 0.421315 168.066 0.271982C168.215 0.111982 168.477 0.0319824 168.85 0.0319824C169.223 0.0319824 169.485 0.111982 169.634 0.271982C169.783 0.421315 169.858 0.613316 169.858 0.847982V1.10398C169.858 1.33865 169.783 1.53598 169.634 1.69598C169.485 1.84532 169.223 1.91998 168.85 1.91998ZM165.234 10.912H168.21V4.83198H165.234V3.74398H169.49V10.912H172.274V12H165.234V10.912Z" fill="white"/>
<path d="M160.744 10.656H160.68C160.147 11.68 159.299 12.192 158.136 12.192C157.123 12.192 156.328 11.8134 155.752 11.056C155.187 10.2987 154.904 9.23737 154.904 7.87203C154.904 6.5067 155.187 5.44537 155.752 4.68803C156.328 3.9307 157.123 3.55203 158.136 3.55203C159.299 3.55203 160.147 4.06403 160.68 5.08803H160.744V0.160034H162.024V12H160.744V10.656ZM158.632 11.056C158.92 11.056 159.192 11.0187 159.448 10.944C159.704 10.8694 159.928 10.7627 160.12 10.624C160.312 10.4747 160.462 10.2987 160.568 10.096C160.686 9.8827 160.744 9.63737 160.744 9.36003V6.38403C160.744 6.1067 160.686 5.8667 160.568 5.66403C160.462 5.4507 160.312 5.2747 160.12 5.13603C159.928 4.9867 159.704 4.8747 159.448 4.80003C159.192 4.72537 158.92 4.68803 158.632 4.68803C157.886 4.68803 157.304 4.91737 156.888 5.37603C156.483 5.82403 156.28 6.42137 156.28 7.16803V8.57603C156.28 9.3227 156.483 9.92537 156.888 10.384C157.304 10.832 157.886 11.056 158.632 11.056Z" fill="white"/>
<path d="M151.103 10.656H151.039C150.953 10.8587 150.847 11.056 150.719 11.248C150.591 11.4294 150.431 11.5894 150.239 11.728C150.057 11.8667 149.839 11.9787 149.583 12.064C149.327 12.1494 149.028 12.192 148.687 12.192C147.823 12.192 147.129 11.92 146.607 11.376C146.084 10.8214 145.823 10.0427 145.823 9.04002V3.74402H147.103V8.81602C147.103 9.57335 147.268 10.1387 147.599 10.512C147.929 10.8747 148.415 11.056 149.055 11.056C149.311 11.056 149.561 11.024 149.807 10.96C150.052 10.896 150.271 10.8 150.463 10.672C150.655 10.544 150.809 10.384 150.927 10.192C151.044 9.98935 151.103 9.74935 151.103 9.47202V3.74402H152.383V12H151.103V10.656Z" fill="white"/>
<path d="M139.957 12C139.328 12 138.864 11.824 138.565 11.472C138.277 11.12 138.133 10.6667 138.133 10.112V4.83203H135.381V3.74403H137.429C137.706 3.74403 137.898 3.6907 138.005 3.58403C138.122 3.4667 138.181 3.26936 138.181 2.99203V0.832031H139.413V3.74403H143.173V4.83203H139.413V10.912H143.173V12H139.957Z" fill="white"/>
<path d="M129.931 12.192C128.928 12.192 128.107 12.0107 127.467 11.648C126.827 11.2747 126.299 10.8 125.883 10.224L126.859 9.42402C127.296 9.96801 127.755 10.3733 128.235 10.64C128.726 10.9067 129.307 11.04 129.979 11.04C130.79 11.04 131.408 10.8533 131.835 10.48C132.262 10.1067 132.475 9.58401 132.475 8.91201C132.475 8.36801 132.32 7.94668 132.011 7.64802C131.702 7.33868 131.163 7.12001 130.395 6.99201L129.147 6.78402C128.603 6.68802 128.144 6.54401 127.771 6.35201C127.408 6.16001 127.115 5.93068 126.891 5.66401C126.667 5.38668 126.507 5.08802 126.411 4.76801C126.315 4.43735 126.267 4.09601 126.267 3.74401C126.267 2.72001 126.603 1.94668 127.275 1.42402C127.947 0.901348 128.854 0.640015 129.995 0.640015C130.891 0.640015 131.643 0.789348 132.251 1.08801C132.87 1.38668 133.366 1.80801 133.739 2.35201L132.795 3.16801C132.486 2.76268 132.112 2.43201 131.675 2.17601C131.238 1.92001 130.672 1.79202 129.979 1.79202C129.222 1.79202 128.64 1.95201 128.235 2.27201C127.83 2.59201 127.627 3.07202 127.627 3.71202C127.627 4.21335 127.776 4.62402 128.075 4.94402C128.384 5.25335 128.934 5.47735 129.723 5.61601L130.923 5.82401C131.467 5.92001 131.926 6.06401 132.299 6.25601C132.672 6.44801 132.971 6.67735 133.195 6.94402C133.43 7.21068 133.595 7.50935 133.691 7.84002C133.787 8.17068 133.835 8.51735 133.835 8.88002C133.835 9.91468 133.494 10.7253 132.811 11.312C132.139 11.8987 131.179 12.192 129.931 12.192Z" fill="white"/>
<path d="M112.776 10.656H112.712C112.178 11.68 111.33 12.192 110.168 12.192C109.154 12.192 108.36 11.8134 107.784 11.056C107.218 10.2987 106.936 9.23737 106.936 7.87203C106.936 6.5067 107.218 5.44537 107.784 4.68803C108.36 3.9307 109.154 3.55203 110.168 3.55203C111.33 3.55203 112.178 4.06403 112.712 5.08803H112.776V0.160034H114.056V12H112.776V10.656ZM110.664 11.056C110.952 11.056 111.224 11.0187 111.48 10.944C111.736 10.8694 111.96 10.7627 112.152 10.624C112.344 10.4747 112.493 10.2987 112.6 10.096C112.717 9.8827 112.776 9.63737 112.776 9.36003V6.38403C112.776 6.1067 112.717 5.8667 112.6 5.66403C112.493 5.4507 112.344 5.2747 112.152 5.13603C111.96 4.9867 111.736 4.8747 111.48 4.80003C111.224 4.72537 110.952 4.68803 110.664 4.68803C109.917 4.68803 109.336 4.91737 108.92 5.37603C108.514 5.82403 108.312 6.42137 108.312 7.16803V8.57603C108.312 9.3227 108.514 9.92537 108.92 10.384C109.336 10.832 109.917 11.056 110.664 11.056Z" fill="white"/>
<path d="M97.95 12V3.744H99.2299V5.088H99.294C99.3793 4.88533 99.486 4.69333 99.614 4.512C99.742 4.32 99.8966 4.15467 100.078 4.016C100.27 3.87733 100.494 3.76533 100.75 3.68C101.006 3.59467 101.305 3.552 101.646 3.552C102.51 3.552 103.203 3.82934 103.726 4.384C104.249 4.928 104.51 5.70133 104.51 6.704V12H103.23V6.928C103.23 6.17067 103.065 5.61067 102.734 5.248C102.403 4.87467 101.918 4.688 101.278 4.688C101.022 4.688 100.771 4.72 100.526 4.784C100.281 4.848 100.062 4.944 99.8699 5.072C99.6779 5.2 99.5233 5.36533 99.406 5.568C99.2886 5.77067 99.2299 6.00533 99.2299 6.272V12H97.95Z" fill="white"/>
<path d="M94.708 12C94.2067 12 93.8493 11.872 93.636 11.616C93.4227 11.36 93.2893 11.04 93.236 10.656H93.156C92.9747 11.136 92.6813 11.5147 92.276 11.792C91.8813 12.0587 91.348 12.192 90.676 12.192C89.812 12.192 89.124 11.968 88.612 11.52C88.1 11.072 87.844 10.4587 87.844 9.68C87.844 8.912 88.1213 8.32 88.676 7.904C89.2413 7.488 90.148 7.28 91.396 7.28H93.156V6.464C93.156 5.856 92.9853 5.40267 92.644 5.104C92.3027 4.79467 91.8173 4.64 91.188 4.64C90.6333 4.64 90.18 4.752 89.828 4.976C89.476 5.18933 89.1933 5.48267 88.98 5.856L88.116 5.216C88.2227 5.00267 88.3667 4.79467 88.548 4.592C88.7293 4.38933 88.9533 4.21333 89.22 4.064C89.4867 3.904 89.7907 3.78133 90.132 3.696C90.4733 3.6 90.852 3.552 91.268 3.552C92.2387 3.552 93.0067 3.79734 93.572 4.288C94.148 4.77867 94.436 5.46134 94.436 6.336V10.88H95.588V12H94.708ZM90.9 11.12C91.2307 11.12 91.5293 11.0827 91.796 11.008C92.0733 10.9227 92.3133 10.816 92.516 10.688C92.7187 10.5493 92.8733 10.3893 92.98 10.208C93.0973 10.016 93.156 9.81334 93.156 9.6V8.24H91.396C90.628 8.24 90.068 8.34667 89.716 8.56C89.364 8.77333 89.188 9.08267 89.188 9.488V9.824C89.188 10.2507 89.3373 10.576 89.636 10.8C89.9453 11.0133 90.3667 11.12 90.9 11.12Z" fill="white"/>
<path d="M78.4263 10.912H80.8423V4.83202H78.4263V3.74402H82.1223V5.82402H82.2023C82.3729 5.17335 82.6929 4.66668 83.1623 4.30402C83.6423 3.93068 84.2503 3.74402 84.9863 3.74402H86.1383V5.02402H84.5863C83.8503 5.02402 83.2529 5.23735 82.7943 5.66402C82.3463 6.09069 82.1223 6.65069 82.1223 7.34402V10.912H85.3223V12H78.4263V10.912Z" fill="white"/>
<path d="M72.8006 12C72.1713 12 71.7073 11.824 71.4086 11.472C71.1206 11.12 70.9766 10.6667 70.9766 10.112V4.83203H68.2246V3.74403H70.2726C70.5499 3.74403 70.7419 3.6907 70.8486 3.58403C70.9659 3.4667 71.0246 3.26936 71.0246 2.99203V0.832031H72.2566V3.74403H76.0166V4.83203H72.2566V10.912H76.0166V12H72.8006Z" fill="white"/>
<path d="M62.7748 12.192C61.7721 12.192 60.9508 12.0107 60.3108 11.648C59.6708 11.2747 59.1428 10.8 58.7268 10.224L59.7028 9.42402C60.1401 9.96801 60.5988 10.3733 61.0788 10.64C61.5695 10.9067 62.1508 11.04 62.8228 11.04C63.6335 11.04 64.2521 10.8533 64.6788 10.48C65.1055 10.1067 65.3188 9.58401 65.3188 8.91201C65.3188 8.36801 65.1641 7.94668 64.8548 7.64802C64.5455 7.33868 64.0068 7.12001 63.2388 6.99201L61.9908 6.78402C61.4468 6.68802 60.9881 6.54401 60.6148 6.35201C60.2521 6.16001 59.9588 5.93068 59.7348 5.66401C59.5108 5.38668 59.3508 5.08802 59.2548 4.76801C59.1588 4.43735 59.1108 4.09601 59.1108 3.74401C59.1108 2.72001 59.4468 1.94668 60.1188 1.42402C60.7908 0.901348 61.6975 0.640015 62.8388 0.640015C63.7348 0.640015 64.4868 0.789348 65.0948 1.08801C65.7135 1.38668 66.2095 1.80801 66.5828 2.35201L65.6388 3.16801C65.3295 2.76268 64.9561 2.43201 64.5188 2.17601C64.0815 1.92001 63.5161 1.79202 62.8228 1.79202C62.0655 1.79202 61.4841 1.95201 61.0788 2.27201C60.6735 2.59201 60.4708 3.07202 60.4708 3.71202C60.4708 4.21335 60.6201 4.62402 60.9188 4.94402C61.2281 5.25335 61.7775 5.47735 62.5668 5.61601L63.7668 5.82401C64.3108 5.92001 64.7695 6.06401 65.1428 6.25601C65.5161 6.44801 65.8148 6.67735 66.0388 6.94402C66.2735 7.21068 66.4388 7.50935 66.5348 7.84002C66.6308 8.17068 66.6788 8.51735 66.6788 8.88002C66.6788 9.91468 66.3375 10.7253 65.6548 11.312C64.9828 11.8987 64.0228 12.192 62.7748 12.192Z" fill="white"/>
<path d="M45.6193 10.656H45.5553C45.022 11.68 44.174 12.192 43.0113 12.192C41.998 12.192 41.2033 11.8134 40.6273 11.056C40.062 10.2987 39.7793 9.23737 39.7793 7.87203C39.7793 6.5067 40.062 5.44537 40.6273 4.68803C41.2033 3.9307 41.998 3.55203 43.0113 3.55203C44.174 3.55203 45.022 4.06403 45.5553 5.08803H45.6193V0.160034H46.8993V12H45.6193V10.656ZM43.5073 11.056C43.7953 11.056 44.0673 11.0187 44.3233 10.944C44.5793 10.8694 44.8033 10.7627 44.9953 10.624C45.1873 10.4747 45.3366 10.2987 45.4433 10.096C45.5606 9.8827 45.6193 9.63737 45.6193 9.36003V6.38403C45.6193 6.1067 45.5606 5.8667 45.4433 5.66403C45.3366 5.4507 45.1873 5.2747 44.9953 5.13603C44.8033 4.9867 44.5793 4.8747 44.3233 4.80003C44.0673 4.72537 43.7953 4.68803 43.5073 4.68803C42.7606 4.68803 42.1793 4.91737 41.7633 5.37603C41.358 5.82403 41.1553 6.42137 41.1553 7.16803V8.57603C41.1553 9.3227 41.358 9.92537 41.7633 10.384C42.1793 10.832 42.7606 11.056 43.5073 11.056Z" fill="white"/>
<path d="M30.4575 10.912H32.8735V4.83202H30.4575V3.74402H34.1535V5.82402H34.2335C34.4042 5.17335 34.7242 4.66668 35.1935 4.30402C35.6735 3.93068 36.2815 3.74402 37.0175 3.74402H38.1695V5.02402H36.6175C35.8815 5.02402 35.2842 5.23735 34.8255 5.66402C34.3775 6.09069 34.1535 6.65069 34.1535 7.34402V10.912H37.3535V12H30.4575V10.912Z" fill="white"/>
<path d="M24.9439 1.91998C24.5705 1.91998 24.3092 1.84532 24.1599 1.69598C24.0105 1.53598 23.9359 1.33865 23.9359 1.10398V0.847982C23.9359 0.613316 24.0105 0.421315 24.1599 0.271982C24.3092 0.111982 24.5705 0.0319824 24.9439 0.0319824C25.3172 0.0319824 25.5785 0.111982 25.7279 0.271982C25.8772 0.421315 25.9519 0.613316 25.9519 0.847982V1.10398C25.9519 1.33865 25.8772 1.53598 25.7279 1.69598C25.5785 1.84532 25.3172 1.91998 24.9439 1.91998ZM21.3279 10.912H24.3039V4.83198H21.3279V3.74398H25.5839V10.912H28.3679V12H21.3279V10.912Z" fill="white"/>
<path d="M11.6062 0.160034H12.8862V5.08803H12.9502C13.0355 4.88537 13.1422 4.69337 13.2702 4.51203C13.3982 4.32003 13.5529 4.1547 13.7342 4.01603C13.9262 3.87737 14.1502 3.76537 14.4062 3.68003C14.6622 3.5947 14.9609 3.55203 15.3022 3.55203C16.1662 3.55203 16.8595 3.82937 17.3822 4.38403C17.9049 4.92803 18.1662 5.70137 18.1662 6.70403V12H16.8862V6.92803C16.8862 6.1707 16.7209 5.6107 16.3902 5.24803C16.0595 4.8747 15.5742 4.68803 14.9342 4.68803C14.6782 4.68803 14.4275 4.72003 14.1822 4.78403C13.9369 4.84803 13.7182 4.94403 13.5262 5.07203C13.3342 5.20003 13.1795 5.36537 13.0622 5.56803C12.9449 5.7707 12.8862 6.00537 12.8862 6.27203V12H11.6062V0.160034Z" fill="white"/>
<path d="M5.91624 2.00003V12H4.57224V2.00003H0.844238V0.832031H9.64424V2.00003H5.91624Z" fill="white"/>
</svg>
