<svg width="61" height="61" viewBox="0 0 61 61" fill="none" xmlns="http://www.w3.org/2000/svg">
<g clip-path="url(#clip0_4_456)">
<path fill-rule="evenodd" clip-rule="evenodd" d="M14.7121 17.405C16.1186 15.9985 18.0263 15.2083 20.0154 15.2083H21.764C22.9283 15.2083 24.0767 15.4794 25.1181 16.0001C25.1181 16.0001 25.1181 16.0001 25.1181 16.0001L29.0624 17.9722C30.2973 18.5897 30.7979 20.0914 30.1804 21.3263C29.5629 22.5613 28.0613 23.0619 26.8263 22.4444L22.882 20.4723C22.5349 20.2987 22.1521 20.2083 21.764 20.2083H20.0154C19.3524 20.2083 18.7165 20.4717 18.2476 20.9406L16.1766 23.0116C15.7077 23.4805 15.4443 24.1163 15.4443 24.7794V37.5323C15.4443 38.3682 15.8621 39.1488 16.5575 39.6124L16.5576 39.6124L26.2247 46.0572L26.2249 46.0573C27.1459 46.6714 28.3613 46.6065 29.2119 45.8978L41.3439 35.7878C42.4046 34.9039 43.981 35.0472 44.8649 36.1079C45.7488 37.1685 45.6055 38.745 44.5448 39.6289L32.4128 49.7389C29.8613 51.8651 26.2148 52.0602 23.451 50.2173L13.7842 43.7727C11.6975 42.3818 10.4443 40.0399 10.4443 37.5323V24.7794C10.4443 22.7902 11.2345 20.8826 12.641 19.4761L14.7121 17.405Z" fill="white"/>
<path fill-rule="evenodd" clip-rule="evenodd" d="M33.1538 20.7879C33.1537 20.788 33.1539 20.7879 33.1538 20.7879L22.748 29.4596C22.1576 29.9515 22.1165 30.8448 22.6604 31.389C22.6603 31.3889 22.6604 31.389 22.6604 31.389C23.0766 31.805 23.7197 31.892 24.2314 31.6013C24.2314 31.6014 24.2315 31.6013 24.2314 31.6013L28.8697 28.9651C32.1571 27.0969 36.3217 27.9678 38.5845 30.9978C38.5845 30.9978 38.5845 30.9979 38.5845 30.9978L40.9413 34.1533C42.3803 36.0802 45.4443 35.0626 45.4443 32.6573V25.7986C45.4443 24.8515 44.9093 23.9859 44.0623 23.5624L37.882 20.4723C37.5349 20.2987 37.1521 20.2083 36.764 20.2083H34.7545C34.1698 20.2083 33.6034 20.4134 33.1538 20.7879ZM29.9532 16.9465C31.3011 15.8235 32.9998 15.2083 34.7545 15.2083H36.764C37.9284 15.2083 39.0767 15.4794 40.1181 16.0001M40.1181 16.0001L46.2983 19.0903C46.2983 19.0903 46.2983 19.0903 46.2983 19.0903C48.8392 20.3607 50.4443 22.9577 50.4443 25.7986V32.6573C50.4443 39.8725 41.2527 42.9264 36.9352 37.1452L34.5784 33.9897C33.8242 32.9798 32.4362 32.6893 31.3402 33.3121L26.7021 35.9483C24.2338 37.3509 21.1325 36.9319 19.125 34.9247C16.5026 32.3019 16.6973 27.9931 19.547 25.6185C19.547 25.6186 19.5471 25.6185 19.547 25.6185L29.9532 16.9465" fill="#FF00D6"/>
<path fill-rule="evenodd" clip-rule="evenodd" d="M2.94434 17.7083C4.32505 17.7083 5.44434 18.8276 5.44434 20.2083V42.7083C5.44434 44.089 4.32505 45.2083 2.94434 45.2083C1.56362 45.2083 0.444336 44.089 0.444336 42.7083V20.2083C0.444336 18.8276 1.56362 17.7083 2.94434 17.7083Z" fill="black"/>
<path fill-rule="evenodd" clip-rule="evenodd" d="M2.94434 17.7083C4.32505 17.7083 5.44434 18.8276 5.44434 20.2083V42.7083C5.44434 44.089 4.32505 45.2083 2.94434 45.2083C1.56362 45.2083 0.444336 44.089 0.444336 42.7083V20.2083C0.444336 18.8276 1.56362 17.7083 2.94434 17.7083Z" fill="white"/>
<path fill-rule="evenodd" clip-rule="evenodd" d="M57.9443 17.7083C59.325 17.7083 60.4443 18.8276 60.4443 20.2083V42.7083C60.4443 44.089 59.325 45.2083 57.9443 45.2083C56.5636 45.2083 55.4443 44.089 55.4443 42.7083V20.2083C55.4443 18.8276 56.5636 17.7083 57.9443 17.7083Z" fill="#FF00D6"/>
</g>
<defs>
<clipPath id="clip0_4_456">
<rect width="60" height="60" fill="white" transform="translate(0.444336 0.208313)"/>
</clipPath>
</defs>
</svg>
