<svg width="61" height="61" viewBox="0 0 61 61" fill="none" xmlns="http://www.w3.org/2000/svg">
<path fill-rule="evenodd" clip-rule="evenodd" d="M18.5068 1.57082H42.3818V46.9083C42.3818 50.0743 41.1241 53.1107 38.8854 55.3494C36.6467 57.5881 33.6104 58.8458 30.4443 58.8458C27.2783 58.8458 24.242 57.5881 22.0032 55.3494C19.7645 53.1107 18.5068 50.0743 18.5068 46.9083V1.57082ZM23.2818 6.34582V46.9083C23.2818 48.8079 24.0365 50.6297 25.3797 51.973C26.7229 53.3162 28.5447 54.0708 30.4443 54.0708C32.3439 54.0708 34.1658 53.3162 35.509 51.973C36.8522 50.6297 37.6068 48.8079 37.6068 46.9083V6.34582H23.2818Z" fill="white"/>
<path fill-rule="evenodd" clip-rule="evenodd" d="M47.1444 3.95832C47.1444 5.2769 46.0755 6.34582 44.7569 6.34582H16.1319C14.8133 6.34582 13.7444 5.2769 13.7444 3.95832C13.7444 2.63974 14.8133 1.57082 16.1319 1.57082H44.7569C46.0755 1.57082 47.1444 2.63974 47.1444 3.95832Z" fill="#65FF74"/>
<path fill-rule="evenodd" clip-rule="evenodd" d="M31.512 20.4063C28.9894 21.6676 26.2102 23.0458 20.8943 23.0458V18.2708C25.1059 18.2708 27.103 17.2722 29.3408 16.1533L29.3766 16.1354C31.8992 14.8741 34.6783 13.4958 39.9943 13.4958V18.2708C35.7827 18.2708 33.7856 19.2694 31.5478 20.3884L31.512 20.4063Z" fill="white"/>
<path fill-rule="evenodd" clip-rule="evenodd" d="M30.4444 32.5833C30.4444 33.9019 29.3755 34.9708 28.0569 34.9708C26.7384 34.9708 25.6694 33.9019 25.6694 32.5833C25.6694 31.2647 26.7384 30.1958 28.0569 30.1958C29.3755 30.1958 30.4444 31.2647 30.4444 32.5833Z" fill="#141414"/>
<path fill-rule="evenodd" clip-rule="evenodd" d="M35.2193 44.5333C35.2193 45.8519 34.1504 46.9208 32.8318 46.9208C31.5133 46.9208 30.4443 45.8519 30.4443 44.5333C30.4443 43.2147 31.5133 42.1458 32.8318 42.1458C34.1504 42.1458 35.2193 43.2147 35.2193 44.5333Z" fill="#141414"/>
</svg>
