<svg width="61" height="61" viewBox="0 0 61 61" fill="none" xmlns="http://www.w3.org/2000/svg">
<path fill-rule="evenodd" clip-rule="evenodd" d="M10.4443 30.2083C10.4443 27.4526 12.6886 25.2083 15.4443 25.2083C18.2 25.2083 20.4443 27.4526 20.4443 30.2083C20.4443 32.964 18.2 35.2083 15.4443 35.2083C12.6886 35.2083 10.4443 32.964 10.4443 30.2083ZM15.4488 30.2083C15.4496 30.2077 15.4502 30.2073 15.4507 30.2069C15.4517 30.2062 15.452 30.2062 15.4512 30.2065C15.4508 30.2067 15.4501 30.207 15.4493 30.2072C15.4489 30.2073 15.4484 30.2075 15.448 30.2076C15.4475 30.2071 15.447 30.2067 15.4465 30.2062C15.446 30.2057 15.4455 30.2052 15.4451 30.2047M15.448 30.209C15.4484 30.2092 15.4489 30.2093 15.4493 30.2094C15.4501 30.2097 15.4508 30.2099 15.4512 30.2101C15.452 30.2104 15.4517 30.2104 15.4507 30.2097C15.4502 30.2094 15.4496 30.2089 15.4488 30.2083M15.4451 30.212C15.4455 30.2115 15.446 30.211 15.4465 30.2105C15.447 30.2099 15.4475 30.2095 15.448 30.209M15.4451 30.212C15.4452 30.2124 15.4453 30.2129 15.4454 30.2133C15.4457 30.2141 15.4459 30.2147 15.4461 30.2151C15.4464 30.2159 15.4464 30.2157 15.4457 30.2147C15.4454 30.2142 15.4449 30.2135 15.4443 30.2128C15.4437 30.2135 15.4433 30.2142 15.4429 30.2147C15.4422 30.2157 15.4422 30.2159 15.4426 30.2151C15.4426 30.215 15.4427 30.2148 15.4428 30.2145C15.4429 30.2142 15.4431 30.2138 15.4432 30.2133C15.4434 30.2129 15.4435 30.2124 15.4436 30.212C15.4432 30.2115 15.4427 30.211 15.4422 30.2105C15.4417 30.2099 15.4412 30.2095 15.4407 30.209C15.4402 30.2092 15.4398 30.2093 15.4394 30.2094C15.4385 30.2097 15.4379 30.2099 15.4375 30.2101C15.4367 30.2104 15.4369 30.2104 15.438 30.2097C15.4382 30.2095 15.4385 30.2093 15.4389 30.2091C15.4392 30.2088 15.4395 30.2086 15.4398 30.2083" fill="white"/>
<path fill-rule="evenodd" clip-rule="evenodd" d="M10.4443 15.2083C10.4443 12.4526 12.6886 10.2083 15.4443 10.2083C18.2 10.2083 20.4443 12.4526 20.4443 15.2083C20.4443 17.964 18.2 20.2083 15.4443 20.2083C12.6886 20.2083 10.4443 17.964 10.4443 15.2083ZM15.4488 15.2083C15.4496 15.2077 15.4502 15.2073 15.4507 15.2069C15.4517 15.2062 15.452 15.2062 15.4512 15.2065C15.4508 15.2067 15.4501 15.207 15.4493 15.2072C15.4489 15.2073 15.4484 15.2075 15.448 15.2076C15.4475 15.2071 15.447 15.2067 15.4465 15.2062C15.446 15.2057 15.4455 15.2052 15.4451 15.2047M15.448 15.209C15.4484 15.2092 15.4489 15.2093 15.4493 15.2094C15.4501 15.2097 15.4508 15.2099 15.4512 15.2101C15.452 15.2104 15.4517 15.2104 15.4507 15.2097C15.4502 15.2094 15.4496 15.2089 15.4488 15.2083M15.4451 15.212C15.4455 15.2115 15.446 15.211 15.4465 15.2105C15.447 15.2099 15.4475 15.2095 15.448 15.209M15.4451 15.212C15.4452 15.2124 15.4453 15.2129 15.4454 15.2133C15.4457 15.2141 15.4459 15.2147 15.4461 15.2151C15.4464 15.2159 15.4464 15.2157 15.4457 15.2147C15.4454 15.2142 15.4449 15.2135 15.4443 15.2128C15.4437 15.2135 15.4433 15.2142 15.4429 15.2147C15.4422 15.2157 15.4422 15.2159 15.4426 15.2151C15.4426 15.215 15.4427 15.2148 15.4428 15.2145C15.4429 15.2142 15.4431 15.2138 15.4432 15.2133C15.4434 15.2129 15.4435 15.2124 15.4436 15.212C15.4432 15.2115 15.4427 15.211 15.4422 15.2105C15.4417 15.2099 15.4412 15.2095 15.4407 15.209C15.4402 15.2092 15.4398 15.2093 15.4394 15.2094C15.4385 15.2097 15.4379 15.2099 15.4375 15.2101C15.4367 15.2104 15.4369 15.2104 15.438 15.2097C15.4382 15.2095 15.4385 15.2093 15.4389 15.2091C15.4392 15.2088 15.4395 15.2086 15.4398 15.2083" fill="white"/>
<path fill-rule="evenodd" clip-rule="evenodd" d="M10.4443 45.2083C10.4443 42.4526 12.6886 40.2083 15.4443 40.2083C18.2 40.2083 20.4443 42.4526 20.4443 45.2083C20.4443 47.964 18.2 50.2083 15.4443 50.2083C12.6886 50.2083 10.4443 47.964 10.4443 45.2083ZM15.4488 45.2083C15.4496 45.2077 15.4502 45.2073 15.4507 45.2069C15.4517 45.2062 15.452 45.2062 15.4512 45.2065C15.4508 45.2067 15.4501 45.207 15.4493 45.2072C15.4489 45.2073 15.4484 45.2075 15.448 45.2076C15.4475 45.2071 15.447 45.2067 15.4465 45.2062C15.446 45.2057 15.4455 45.2052 15.4451 45.2047M15.448 45.209C15.4484 45.2092 15.4489 45.2093 15.4493 45.2094C15.4501 45.2097 15.4508 45.2099 15.4512 45.2101C15.452 45.2104 15.4517 45.2104 15.4507 45.2097C15.4502 45.2094 15.4496 45.2089 15.4488 45.2083M15.4451 45.212C15.4455 45.2115 15.446 45.211 15.4465 45.2105C15.447 45.2099 15.4475 45.2095 15.448 45.209M15.4451 45.212C15.4452 45.2124 15.4453 45.2129 15.4454 45.2133C15.4457 45.2141 15.4459 45.2147 15.4461 45.2151C15.4464 45.2159 15.4464 45.2157 15.4457 45.2147C15.4454 45.2142 15.4449 45.2135 15.4443 45.2128C15.4437 45.2135 15.4433 45.2142 15.4429 45.2147C15.4422 45.2157 15.4422 45.2159 15.4426 45.2151C15.4426 45.215 15.4427 45.2148 15.4428 45.2145C15.4429 45.2142 15.4431 45.2138 15.4432 45.2133C15.4434 45.2129 15.4435 45.2124 15.4436 45.212C15.4432 45.2115 15.4427 45.211 15.4422 45.2105C15.4417 45.2099 15.4412 45.2095 15.4407 45.209C15.4402 45.2092 15.4398 45.2093 15.4394 45.2094C15.4385 45.2097 15.4379 45.2099 15.4375 45.2101C15.4367 45.2104 15.4369 45.2104 15.438 45.2097C15.4382 45.2095 15.4385 45.2093 15.4389 45.2091C15.4392 45.2088 15.4395 45.2086 15.4398 45.2083" fill="#65FF74"/>
<path fill-rule="evenodd" clip-rule="evenodd" d="M25.4443 30.2083C25.4443 27.4526 27.6886 25.2083 30.4443 25.2083C33.2 25.2083 35.4443 27.4526 35.4443 30.2083C35.4443 32.964 33.2 35.2083 30.4443 35.2083C27.6886 35.2083 25.4443 32.964 25.4443 30.2083ZM30.4488 30.2083C30.4496 30.2077 30.4502 30.2073 30.4507 30.2069C30.4517 30.2062 30.452 30.2062 30.4512 30.2065C30.4508 30.2067 30.4501 30.207 30.4493 30.2072C30.4489 30.2073 30.4484 30.2075 30.448 30.2076C30.4475 30.2071 30.447 30.2067 30.4465 30.2062C30.446 30.2057 30.4455 30.2052 30.4451 30.2047M30.448 30.209C30.4484 30.2092 30.4489 30.2093 30.4493 30.2094C30.4501 30.2097 30.4508 30.2099 30.4512 30.2101C30.452 30.2104 30.4517 30.2104 30.4507 30.2097C30.4502 30.2094 30.4496 30.2089 30.4488 30.2083M30.4451 30.212C30.4455 30.2115 30.446 30.211 30.4465 30.2105C30.447 30.2099 30.4475 30.2095 30.448 30.209M30.4451 30.212C30.4452 30.2124 30.4453 30.2129 30.4454 30.2133C30.4457 30.2141 30.4459 30.2147 30.4461 30.2151C30.4464 30.2159 30.4464 30.2157 30.4457 30.2147C30.4454 30.2142 30.4449 30.2135 30.4443 30.2128C30.4437 30.2135 30.4433 30.2142 30.4429 30.2147C30.4422 30.2157 30.4422 30.2159 30.4426 30.2151C30.4426 30.215 30.4427 30.2148 30.4428 30.2145C30.4429 30.2142 30.4431 30.2138 30.4432 30.2133C30.4434 30.2129 30.4435 30.2124 30.4436 30.212C30.4432 30.2115 30.4427 30.211 30.4422 30.2105C30.4417 30.2099 30.4412 30.2095 30.4407 30.209C30.4402 30.2092 30.4398 30.2093 30.4394 30.2094C30.4385 30.2097 30.4379 30.2099 30.4375 30.2101C30.4367 30.2104 30.4369 30.2104 30.438 30.2097C30.4382 30.2095 30.4385 30.2093 30.4389 30.2091C30.4392 30.2088 30.4395 30.2086 30.4398 30.2083" fill="white"/>
<path fill-rule="evenodd" clip-rule="evenodd" d="M25.4443 15.2083C25.4443 12.4526 27.6886 10.2083 30.4443 10.2083C33.2 10.2083 35.4443 12.4526 35.4443 15.2083C35.4443 17.964 33.2 20.2083 30.4443 20.2083C27.6886 20.2083 25.4443 17.964 25.4443 15.2083ZM30.4488 15.2083C30.4496 15.2077 30.4502 15.2073 30.4507 15.2069C30.4517 15.2062 30.452 15.2062 30.4512 15.2065C30.4508 15.2067 30.4501 15.207 30.4493 15.2072C30.4489 15.2073 30.4484 15.2075 30.448 15.2076C30.4475 15.2071 30.447 15.2067 30.4465 15.2062C30.446 15.2057 30.4455 15.2052 30.4451 15.2047M30.448 15.209C30.4484 15.2092 30.4489 15.2093 30.4493 15.2094C30.4501 15.2097 30.4508 15.2099 30.4512 15.2101C30.452 15.2104 30.4517 15.2104 30.4507 15.2097C30.4502 15.2094 30.4496 15.2089 30.4488 15.2083M30.4451 15.212C30.4455 15.2115 30.446 15.211 30.4465 15.2105C30.447 15.2099 30.4475 15.2095 30.448 15.209M30.4451 15.212C30.4452 15.2124 30.4453 15.2129 30.4454 15.2133C30.4457 15.2141 30.4459 15.2147 30.4461 15.2151C30.4464 15.2159 30.4464 15.2157 30.4457 15.2147C30.4454 15.2142 30.4449 15.2135 30.4443 15.2128C30.4437 15.2135 30.4433 15.2142 30.4429 15.2147C30.4422 15.2157 30.4422 15.2159 30.4426 15.2151C30.4426 15.215 30.4427 15.2148 30.4428 15.2145C30.4429 15.2142 30.4431 15.2138 30.4432 15.2133C30.4434 15.2129 30.4435 15.2124 30.4436 15.212C30.4432 15.2115 30.4427 15.211 30.4422 15.2105C30.4417 15.2099 30.4412 15.2095 30.4407 15.209C30.4402 15.2092 30.4398 15.2093 30.4394 15.2094C30.4385 15.2097 30.4379 15.2099 30.4375 15.2101C30.4367 15.2104 30.4369 15.2104 30.438 15.2097C30.4382 15.2095 30.4385 15.2093 30.4389 15.2091C30.4392 15.2088 30.4395 15.2086 30.4398 15.2083" fill="white"/>
<path fill-rule="evenodd" clip-rule="evenodd" d="M25.4443 45.2083C25.4443 42.4526 27.6886 40.2083 30.4443 40.2083C33.2 40.2083 35.4443 42.4526 35.4443 45.2083C35.4443 47.964 33.2 50.2083 30.4443 50.2083C27.6886 50.2083 25.4443 47.964 25.4443 45.2083ZM30.4488 45.2083C30.4496 45.2077 30.4502 45.2073 30.4507 45.2069C30.4517 45.2062 30.452 45.2062 30.4512 45.2065C30.4508 45.2067 30.4501 45.207 30.4493 45.2072C30.4489 45.2073 30.4484 45.2075 30.448 45.2076C30.4475 45.2071 30.447 45.2067 30.4465 45.2062C30.446 45.2057 30.4455 45.2052 30.4451 45.2047M30.448 45.209C30.4484 45.2092 30.4489 45.2093 30.4493 45.2094C30.4501 45.2097 30.4508 45.2099 30.4512 45.2101C30.452 45.2104 30.4517 45.2104 30.4507 45.2097C30.4502 45.2094 30.4496 45.2089 30.4488 45.2083M30.4451 45.212C30.4455 45.2115 30.446 45.211 30.4465 45.2105C30.447 45.2099 30.4475 45.2095 30.448 45.209M30.4451 45.212C30.4452 45.2124 30.4453 45.2129 30.4454 45.2133C30.4457 45.2141 30.4459 45.2147 30.4461 45.2151C30.4464 45.2159 30.4464 45.2157 30.4457 45.2147C30.4454 45.2142 30.4449 45.2135 30.4443 45.2128C30.4437 45.2135 30.4433 45.2142 30.4429 45.2147C30.4422 45.2157 30.4422 45.2159 30.4426 45.2151C30.4426 45.215 30.4427 45.2148 30.4428 45.2145C30.4429 45.2142 30.4431 45.2138 30.4432 45.2133C30.4434 45.2129 30.4435 45.2124 30.4436 45.212C30.4432 45.2115 30.4427 45.211 30.4422 45.2105C30.4417 45.2099 30.4412 45.2095 30.4407 45.209C30.4402 45.2092 30.4398 45.2093 30.4394 45.2094C30.4385 45.2097 30.4379 45.2099 30.4375 45.2101C30.4367 45.2104 30.4369 45.2104 30.438 45.2097C30.4382 45.2095 30.4385 45.2093 30.4389 45.2091C30.4392 45.2088 30.4395 45.2086 30.4398 45.2083" fill="white"/>
<path fill-rule="evenodd" clip-rule="evenodd" d="M40.4443 30.2083C40.4443 27.4526 42.6886 25.2083 45.4443 25.2083C48.2 25.2083 50.4443 27.4526 50.4443 30.2083C50.4443 32.964 48.2 35.2083 45.4443 35.2083C42.6886 35.2083 40.4443 32.964 40.4443 30.2083ZM45.4488 30.2083C45.4496 30.2077 45.4502 30.2073 45.4507 30.2069C45.4517 30.2062 45.452 30.2062 45.4512 30.2065C45.4508 30.2067 45.4501 30.207 45.4493 30.2072C45.4489 30.2073 45.4484 30.2075 45.448 30.2076C45.4475 30.2071 45.447 30.2067 45.4465 30.2062C45.446 30.2057 45.4455 30.2052 45.4451 30.2047M45.448 30.209C45.4484 30.2092 45.4489 30.2093 45.4493 30.2094C45.4501 30.2097 45.4508 30.2099 45.4512 30.2101C45.452 30.2104 45.4517 30.2104 45.4507 30.2097C45.4502 30.2094 45.4496 30.2089 45.4488 30.2083M45.4451 30.212C45.4455 30.2115 45.446 30.211 45.4465 30.2105C45.447 30.2099 45.4475 30.2095 45.448 30.209M45.4451 30.212C45.4452 30.2124 45.4453 30.2129 45.4454 30.2133C45.4457 30.2141 45.4459 30.2147 45.4461 30.2151C45.4464 30.2159 45.4464 30.2157 45.4457 30.2147C45.4454 30.2142 45.4449 30.2135 45.4443 30.2128C45.4437 30.2135 45.4433 30.2142 45.4429 30.2147C45.4422 30.2157 45.4422 30.2159 45.4426 30.2151C45.4426 30.215 45.4427 30.2148 45.4428 30.2145C45.4429 30.2142 45.4431 30.2138 45.4432 30.2133C45.4434 30.2129 45.4435 30.2124 45.4436 30.212C45.4432 30.2115 45.4427 30.211 45.4422 30.2105C45.4417 30.2099 45.4412 30.2095 45.4407 30.209C45.4402 30.2092 45.4398 30.2093 45.4394 30.2094C45.4385 30.2097 45.4379 30.2099 45.4375 30.2101C45.4367 30.2104 45.4369 30.2104 45.438 30.2097C45.4382 30.2095 45.4385 30.2093 45.4389 30.2091C45.4392 30.2088 45.4395 30.2086 45.4398 30.2083" fill="#FF00D6"/>
<path fill-rule="evenodd" clip-rule="evenodd" d="M40.4443 15.2083C40.4443 12.4526 42.6886 10.2083 45.4443 10.2083C48.2 10.2083 50.4443 12.4526 50.4443 15.2083C50.4443 17.964 48.2 20.2083 45.4443 20.2083C42.6886 20.2083 40.4443 17.964 40.4443 15.2083ZM45.4488 15.2083L45.4507 15.2069L45.4493 15.2072L45.448 15.2076L45.4465 15.2062L45.4451 15.2047M45.448 15.209L45.4493 15.2094L45.4512 15.2101L45.4488 15.2083M45.4451 15.212L45.4465 15.2105L45.448 15.209M45.4451 15.212L45.4454 15.2133L45.4461 15.2151L45.4443 15.2128L45.4429 15.2147L45.4432 15.2133L45.4436 15.212L45.4422 15.2105L45.4407 15.209L45.4394 15.2094L45.4398 15.2083" fill="#FF00D6"/>
<path fill-rule="evenodd" clip-rule="evenodd" d="M40.4443 45.2083C40.4443 42.4526 42.6886 40.2083 45.4443 40.2083C48.2 40.2083 50.4443 42.4526 50.4443 45.2083C50.4443 47.964 48.2 50.2083 45.4443 50.2083C42.6886 50.2083 40.4443 47.964 40.4443 45.2083ZM45.4488 45.2083C45.4496 45.2077 45.4502 45.2073 45.4507 45.2069C45.4517 45.2062 45.452 45.2062 45.4512 45.2065C45.4508 45.2067 45.4501 45.207 45.4493 45.2072C45.4489 45.2073 45.4484 45.2075 45.448 45.2076C45.4475 45.2071 45.447 45.2067 45.4465 45.2062C45.446 45.2057 45.4455 45.2052 45.4451 45.2047M45.448 45.209C45.4484 45.2092 45.4489 45.2093 45.4493 45.2094C45.4501 45.2097 45.4508 45.2099 45.4512 45.2101C45.452 45.2104 45.4517 45.2104 45.4507 45.2097C45.4502 45.2094 45.4496 45.2089 45.4488 45.2083M45.4451 45.212C45.4455 45.2115 45.446 45.211 45.4465 45.2105C45.447 45.2099 45.4475 45.2095 45.448 45.209M45.4451 45.212C45.4452 45.2124 45.4453 45.2129 45.4454 45.2133C45.4457 45.2141 45.4459 45.2147 45.4461 45.2151C45.4464 45.2159 45.4464 45.2157 45.4457 45.2147C45.4454 45.2142 45.4449 45.2135 45.4443 45.2128C45.4437 45.2135 45.4433 45.2142 45.4429 45.2147C45.4422 45.2157 45.4422 45.2159 45.4426 45.2151C45.4426 45.215 45.4427 45.2148 45.4428 45.2145C45.4429 45.2142 45.4431 45.2138 45.4432 45.2133C45.4434 45.2129 45.4435 45.2124 45.4436 45.212C45.4432 45.2115 45.4427 45.211 45.4422 45.2105C45.4417 45.2099 45.4412 45.2095 45.4407 45.209C45.4402 45.2092 45.4398 45.2093 45.4394 45.2094C45.4385 45.2097 45.4379 45.2099 45.4375 45.2101C45.4367 45.2104 45.4369 45.2104 45.438 45.2097C45.4382 45.2095 45.4385 45.2093 45.4389 45.2091C45.4392 45.2088 45.4395 45.2086 45.4398 45.2083" fill="white"/>
</svg>
