<svg width="61" height="61" viewBox="0 0 61 61" fill="none" xmlns="http://www.w3.org/2000/svg">
<path fill-rule="evenodd" clip-rule="evenodd" d="M18.5068 2.0708H42.3818V47.4083C42.3818 50.5743 41.1241 53.6107 38.8854 55.8494C36.6467 58.0881 33.6104 59.3458 30.4443 59.3458C27.2783 59.3458 24.242 58.0881 22.0032 55.8494C19.7645 53.6107 18.5068 50.5743 18.5068 47.4083V2.0708ZM23.2818 6.8458V47.4083C23.2818 49.3079 24.0365 51.1297 25.3797 52.4729C26.7229 53.8162 28.5447 54.5708 30.4443 54.5708C32.3439 54.5708 34.1658 53.8162 35.509 52.4729C36.8522 51.1297 37.6068 49.3079 37.6068 47.4083V6.8458H23.2818Z" fill="white"/>
<path fill-rule="evenodd" clip-rule="evenodd" d="M47.1444 4.4583C47.1444 5.77688 46.0755 6.8458 44.7569 6.8458H16.1319C14.8133 6.8458 13.7444 5.77688 13.7444 4.4583C13.7444 3.13972 14.8133 2.0708 16.1319 2.0708H44.7569C46.0755 2.0708 47.1444 3.13972 47.1444 4.4583Z" fill="#65FF74"/>
<path fill-rule="evenodd" clip-rule="evenodd" d="M31.512 20.9062C28.9894 22.1676 26.2102 23.5458 20.8943 23.5458V18.7708C25.1059 18.7708 27.103 17.7722 29.3408 16.6532L29.3766 16.6353C31.8992 15.374 34.6783 13.9958 39.9943 13.9958V18.7708C35.7827 18.7708 33.7856 19.7694 31.5478 20.8883L31.512 20.9062Z" fill="white"/>
<path fill-rule="evenodd" clip-rule="evenodd" d="M30.4444 33.0833C30.4444 34.4019 29.3755 35.4708 28.0569 35.4708C26.7384 35.4708 25.6694 34.4019 25.6694 33.0833C25.6694 31.7647 26.7384 30.6958 28.0569 30.6958C29.3755 30.6958 30.4444 31.7647 30.4444 33.0833Z" fill="#FF00D6"/>
<path fill-rule="evenodd" clip-rule="evenodd" d="M35.2193 45.0333C35.2193 46.3519 34.1504 47.4208 32.8318 47.4208C31.5133 47.4208 30.4443 46.3519 30.4443 45.0333C30.4443 43.7147 31.5133 42.6458 32.8318 42.6458C34.1504 42.6458 35.2193 43.7147 35.2193 45.0333Z" fill="#FF00D6"/>
</svg>
