<svg width="61" height="61" viewBox="0 0 61 61" fill="none" xmlns="http://www.w3.org/2000/svg">
<path fill-rule="evenodd" clip-rule="evenodd" d="M47.1121 8.95804C44.5813 8.95804 42.5296 11.0097 42.5296 13.5405C42.5296 16.0714 44.5813 18.1231 47.1121 18.1231C49.643 18.1231 51.6947 16.0714 51.6947 13.5405C51.6947 11.0097 49.643 8.95804 47.1121 8.95804ZM38.7795 13.5405C38.7795 8.93863 42.5102 5.20804 47.1121 5.20804C51.7141 5.20804 55.4447 8.93863 55.4447 13.5405C55.4447 18.1425 51.7141 21.8731 47.1121 21.8731C42.5102 21.8731 38.7795 18.1425 38.7795 13.5405Z" fill="#FF00D6"/>
<path fill-rule="evenodd" clip-rule="evenodd" d="M47.1121 25.6257C44.5813 25.6257 42.5296 27.6774 42.5296 30.2083C42.5296 32.7391 44.5813 34.7908 47.1121 34.7908C49.643 34.7908 51.6947 32.7391 51.6947 30.2083C51.6947 27.6774 49.643 25.6257 47.1121 25.6257ZM38.7795 30.2083C38.7795 25.6063 42.5102 21.8757 47.1121 21.8757C51.7141 21.8757 55.4447 25.6063 55.4447 30.2083C55.4447 34.8102 51.7141 38.5408 47.1121 38.5408C42.5102 38.5408 38.7795 34.8102 38.7795 30.2083Z" fill="white"/>
<path fill-rule="evenodd" clip-rule="evenodd" d="M47.1121 42.2935C44.5813 42.2935 42.5296 44.3451 42.5296 46.876C42.5296 49.4068 44.5813 51.4585 47.1121 51.4585C49.643 51.4585 51.6947 49.4068 51.6947 46.876C51.6947 44.3451 49.643 42.2935 47.1121 42.2935ZM38.7795 46.876C38.7795 42.274 42.5102 38.5435 47.1121 38.5435C51.7141 38.5435 55.4447 42.274 55.4447 46.876C55.4447 51.4779 51.7141 55.2085 47.1121 55.2085C42.5102 55.2085 38.7795 51.4779 38.7795 46.876Z" fill="white"/>
<path fill-rule="evenodd" clip-rule="evenodd" d="M30.4447 8.95804C27.9138 8.95804 25.8621 11.0097 25.8621 13.5405C25.8621 16.0714 27.9138 18.1231 30.4447 18.1231C32.9755 18.1231 35.0272 16.0714 35.0272 13.5405C35.0272 11.0097 32.9755 8.95804 30.4447 8.95804ZM22.1121 13.5405C22.1121 8.93863 25.8427 5.20804 30.4447 5.20804C35.0466 5.20804 38.7772 8.93863 38.7772 13.5405C38.7772 18.1425 35.0466 21.8731 30.4447 21.8731C25.8427 21.8731 22.1121 18.1425 22.1121 13.5405Z" fill="white"/>
<path fill-rule="evenodd" clip-rule="evenodd" d="M30.4447 25.6257C27.9138 25.6257 25.8621 27.6774 25.8621 30.2083C25.8621 32.7391 27.9138 34.7908 30.4447 34.7908C32.9755 34.7908 35.0272 32.7391 35.0272 30.2083C35.0272 27.6774 32.9755 25.6257 30.4447 25.6257ZM22.1121 30.2083C22.1121 25.6063 25.8427 21.8757 30.4447 21.8757C35.0466 21.8757 38.7772 25.6063 38.7772 30.2083C38.7772 34.8102 35.0466 38.5408 30.4447 38.5408C25.8427 38.5408 22.1121 34.8102 22.1121 30.2083Z" fill="white"/>
<path fill-rule="evenodd" clip-rule="evenodd" d="M30.4447 42.2935C27.9138 42.2935 25.8621 44.3451 25.8621 46.876C25.8621 49.4068 27.9138 51.4585 30.4447 51.4585C32.9755 51.4585 35.0272 49.4068 35.0272 46.876C35.0272 44.3451 32.9755 42.2935 30.4447 42.2935ZM22.1121 46.876C22.1121 42.274 25.8427 38.5435 30.4447 38.5435C35.0466 38.5435 38.7772 42.274 38.7772 46.876C38.7772 51.4779 35.0466 55.2085 30.4447 55.2085C25.8427 55.2085 22.1121 51.4779 22.1121 46.876Z" fill="white"/>
<path fill-rule="evenodd" clip-rule="evenodd" d="M13.7767 8.95804C11.2458 8.95804 9.19413 11.0097 9.19413 13.5405C9.19413 16.0714 11.2458 18.1231 13.7767 18.1231C16.3076 18.1231 18.3592 16.0714 18.3592 13.5405C18.3592 11.0097 16.3076 8.95804 13.7767 8.95804ZM5.44409 13.5405C5.44409 8.93863 9.17472 5.20804 13.7767 5.20804C18.3786 5.20804 22.1093 8.93863 22.1093 13.5405C22.1093 18.1425 18.3786 21.8731 13.7767 21.8731C9.17472 21.8731 5.44409 18.1425 5.44409 13.5405Z" fill="white"/>
<path fill-rule="evenodd" clip-rule="evenodd" d="M13.7767 25.6257C11.2458 25.6257 9.19413 27.6774 9.19413 30.2083C9.19413 32.7391 11.2458 34.7908 13.7767 34.7908C16.3076 34.7908 18.3592 32.7391 18.3592 30.2083C18.3592 27.6774 16.3076 25.6257 13.7767 25.6257ZM5.44409 30.2083C5.44409 25.6063 9.17472 21.8757 13.7767 21.8757C18.3786 21.8757 22.1093 25.6063 22.1093 30.2083C22.1093 34.8102 18.3786 38.5408 13.7767 38.5408C9.17472 38.5408 5.44409 34.8102 5.44409 30.2083Z" fill="white"/>
<path fill-rule="evenodd" clip-rule="evenodd" d="M13.7767 42.2935C11.2458 42.2935 9.19413 44.3451 9.19413 46.876C9.19413 49.4068 11.2458 51.4585 13.7767 51.4585C16.3076 51.4585 18.3592 49.4068 18.3592 46.876C18.3592 44.3451 16.3076 42.2935 13.7767 42.2935ZM5.44409 46.876C5.44409 42.274 9.17472 38.5435 13.7767 38.5435C18.3786 38.5435 22.1093 42.274 22.1093 46.876C22.1093 51.4779 18.3786 55.2085 13.7767 55.2085C9.17472 55.2085 5.44409 51.4779 5.44409 46.876Z" fill="white"/>
</svg>
