<svg width="57" height="57" viewBox="0 0 57 57" fill="none" xmlns="http://www.w3.org/2000/svg">
<g clip-path="url(#clip0_1378_68)">
<path d="M51.3088 0.55629H6.24634C3.22603 0.55629 0.777588 3.00473 0.777588 6.02504V51.0875C0.777588 54.1078 3.22603 56.5563 6.24634 56.5563H51.3088C54.3291 56.5563 56.7776 54.1078 56.7776 51.0875V6.02504C56.7776 3.00473 54.3291 0.55629 51.3088 0.55629Z" fill="#3178C6"/>
<path fill-rule="evenodd" clip-rule="evenodd" d="M35.4432 45.1183V50.5937C36.3333 51.05 37.3861 51.3922 38.6015 51.6203C39.8168 51.8485 41.0977 51.9626 42.4443 51.9626C43.7567 51.9626 45.0034 51.8371 46.1845 51.5861C47.3657 51.3352 48.4013 50.9216 49.2914 50.3456C50.1815 49.7696 50.8862 49.0166 51.4054 48.087C51.9246 47.1573 52.1843 46.0081 52.1843 44.6392C52.1843 43.6468 52.036 42.777 51.7393 42.0299C51.4425 41.2827 51.0146 40.6183 50.4554 40.0365C49.8963 39.4548 49.2258 38.9328 48.4441 38.4708C47.6624 38.0088 46.7808 37.5725 45.7994 37.1619C45.0805 36.8653 44.4357 36.5773 43.8651 36.2979C43.2945 36.0183 42.8095 35.7332 42.4101 35.4423C42.0107 35.1514 41.7026 34.8434 41.4858 34.5183C41.269 34.1932 41.1605 33.8253 41.1605 33.4146C41.1605 33.0383 41.2575 32.6989 41.4515 32.3966C41.6456 32.0943 41.9195 31.8348 42.2732 31.618C42.627 31.4014 43.0606 31.233 43.5741 31.1133C44.0877 30.9935 44.6582 30.9337 45.2859 30.9337C45.7423 30.9337 46.2245 30.9679 46.7323 31.0363C47.2401 31.1047 47.7508 31.2103 48.2644 31.3528C48.7779 31.4954 49.2771 31.6751 49.7622 31.8918C50.2472 32.1086 50.695 32.3595 51.1059 32.6447V27.5286C50.2729 27.2092 49.3628 26.9726 48.3756 26.8186C47.3885 26.6646 46.2558 26.5876 44.9778 26.5876C43.6768 26.5876 42.4443 26.7273 41.2804 27.0068C40.1164 27.2862 39.0922 27.7225 38.2077 28.3157C37.3233 28.9089 36.6244 29.6646 36.1109 30.5829C35.5974 31.5011 35.3405 32.599 35.3405 33.8766C35.3405 35.5079 35.8113 36.8995 36.7528 38.0517C37.6942 39.2037 39.1235 40.179 41.0407 40.9776C41.7939 41.2856 42.4958 41.5878 43.1462 41.8844C43.7967 42.181 44.3587 42.489 44.8322 42.8084C45.3058 43.1278 45.6795 43.4757 45.9535 43.8522C46.2274 44.2285 46.3643 44.6563 46.3643 45.1355C46.3643 45.4891 46.2787 45.817 46.1075 46.1193C45.9364 46.4216 45.6767 46.6839 45.3287 46.9064C44.9806 47.1288 44.547 47.3027 44.0278 47.4282C43.5084 47.5538 42.9009 47.6164 42.2047 47.6164C41.0179 47.6164 39.8425 47.4083 38.6785 46.9919C37.5145 46.5756 36.436 45.9511 35.4432 45.1183ZM26.2384 31.6278H33.2624V27.1344H13.6843V31.6278H20.674V51.6344H26.2384V31.6278Z" fill="white"/>
</g>
<defs>
<clipPath id="clip0_1378_68">
<rect width="56" height="56" fill="white" transform="translate(0.777588 0.55629)"/>
</clipPath>
</defs>
</svg>
