<svg width="57" height="57" viewBox="0 0 57 57" fill="none" xmlns="http://www.w3.org/2000/svg">
<g clip-path="url(#clip0_1949_2693)">
<path d="M51.3088 0.349609H6.24634C3.22603 0.349609 0.777588 2.79805 0.777588 5.81836V50.8809C0.777588 53.9012 3.22603 56.3496 6.24634 56.3496H51.3088C54.3291 56.3496 56.7776 53.9012 56.7776 50.8809V5.81836C56.7776 2.79805 54.3291 0.349609 51.3088 0.349609Z" fill="#3178C6"/>
<path fill-rule="evenodd" clip-rule="evenodd" d="M35.4432 44.9116V50.387C36.3333 50.8434 37.3861 51.1855 38.6015 51.4136C39.8168 51.6418 41.0977 51.7559 42.4443 51.7559C43.7567 51.7559 45.0034 51.6304 46.1845 51.3794C47.3657 51.1285 48.4013 50.7149 49.2914 50.1389C50.1815 49.5629 50.8862 48.81 51.4054 47.8803C51.9246 46.9506 52.1843 45.8014 52.1843 44.4326C52.1843 43.4401 52.036 42.5703 51.7393 41.8232C51.4425 41.0761 51.0146 40.4116 50.4554 39.8298C49.8963 39.2481 49.2258 38.7261 48.4441 38.2641C47.6624 37.8021 46.7808 37.3658 45.7994 36.9552C45.0805 36.6586 44.4357 36.3706 43.8651 36.0912C43.2945 35.8116 42.8095 35.5265 42.4101 35.2357C42.0107 34.9447 41.7026 34.6367 41.4858 34.3117C41.269 33.9865 41.1605 33.6187 41.1605 33.208C41.1605 32.8316 41.2575 32.4922 41.4515 32.1899C41.6456 31.8876 41.9195 31.6281 42.2732 31.4114C42.627 31.1947 43.0606 31.0264 43.5741 30.9066C44.0877 30.7868 44.6582 30.727 45.2859 30.727C45.7423 30.727 46.2245 30.7612 46.7323 30.8296C47.2401 30.8981 47.7508 31.0036 48.2644 31.1461C48.7779 31.2887 49.2771 31.4685 49.7622 31.6851C50.2472 31.9019 50.695 32.1528 51.1059 32.4381V27.3219C50.2729 27.0026 49.3628 26.7659 48.3756 26.6119C47.3885 26.4579 46.2558 26.3809 44.9778 26.3809C43.6768 26.3809 42.4443 26.5207 41.2804 26.8001C40.1164 27.0796 39.0922 27.5159 38.2077 28.109C37.3233 28.7022 36.6244 29.4579 36.1109 30.3762C35.5974 31.2944 35.3405 32.3923 35.3405 33.67C35.3405 35.3012 35.8113 36.6929 36.7528 37.845C37.6942 38.9971 39.1235 39.9724 41.0407 40.7709C41.7939 41.0789 42.4958 41.3811 43.1462 41.6777C43.7967 41.9744 44.3587 42.2824 44.8322 42.6017C45.3058 42.9211 45.6795 43.269 45.9535 43.6455C46.2274 44.0219 46.3643 44.4496 46.3643 44.9288C46.3643 45.2824 46.2787 45.6103 46.1075 45.9126C45.9364 46.2149 45.6767 46.4772 45.3287 46.6997C44.9806 46.9222 44.547 47.0961 44.0278 47.2215C43.5084 47.3471 42.9009 47.4097 42.2047 47.4097C41.0179 47.4097 39.8425 47.2016 38.6785 46.7852C37.5145 46.3689 36.436 45.7444 35.4432 44.9116ZM26.2384 31.4211H33.2624V26.9277H13.6843V31.4211H20.674V51.4277H26.2384V31.4211Z" fill="white"/>
</g>
<defs>
<clipPath id="clip0_1949_2693">
<rect width="56" height="56" fill="white" transform="translate(0.777588 0.349609)"/>
</clipPath>
</defs>
</svg>
