<svg width="68" height="65" viewBox="0 0 68 65" fill="none" xmlns="http://www.w3.org/2000/svg">
<g clip-path="url(#clip0_1350_41)">
<path d="M53.7649 50.7489L42.3494 31.5673L53.7649 12.3858L59.268 31.5673L53.7649 50.7489ZM28.3582 48.8771L14.0152 34.6665H36.8463L48.2618 53.8481L28.3582 48.8771ZM28.3582 14.1988L48.2037 9.22786L36.7882 28.4094H13.957L28.3582 14.1988ZM57.5118 -0.187164L31.5776 6.53822L27.7138 13.1462L19.9283 13.0875L0.9021 31.5673L19.9283 50.0471L27.7138 49.9884L31.5776 56.5964L57.5118 63.3805L64.478 38.1753L60.5555 31.626L64.478 25.0761L57.5118 -0.187164Z" fill="white"/>
</g>
<defs>
<clipPath id="clip0_1350_41">
<rect width="66.4178" height="63.7961" fill="white" transform="translate(0.9021 0.450668)"/>
</clipPath>
</defs>
</svg>
