<svg width="33" height="26" viewBox="0 0 33 26" fill="none" xmlns="http://www.w3.org/2000/svg">
<path fill-rule="evenodd" clip-rule="evenodd" d="M0.344238 23.5C0.344238 22.3402 1.28444 21.4 2.44424 21.4H30.4442C31.604 21.4 32.5442 22.3402 32.5442 23.5C32.5442 24.6598 31.604 25.6 30.4442 25.6H2.44424C1.28444 25.6 0.344238 24.6598 0.344238 23.5Z" fill="white"/>
<path fill-rule="evenodd" clip-rule="evenodd" d="M0.344238 13C0.344238 11.8402 1.28444 10.9 2.44424 10.9H30.4442C31.604 10.9 32.5442 11.8402 32.5442 13C32.5442 14.1598 31.604 15.1 30.4442 15.1H2.44424C1.28444 15.1 0.344238 14.1598 0.344238 13Z" fill="white"/>
<path fill-rule="evenodd" clip-rule="evenodd" d="M0.344238 2.50002C0.344238 1.34023 1.28444 0.400024 2.44424 0.400024H30.4442C31.604 0.400024 32.5442 1.34023 32.5442 2.50002C32.5442 3.65982 31.604 4.60002 30.4442 4.60002H2.44424C1.28444 4.60002 0.344238 3.65982 0.344238 2.50002Z" fill="white"/>
</svg>
