<svg width="86" height="85" viewBox="0 0 86 85" fill="none" xmlns="http://www.w3.org/2000/svg">
<g clip-path="url(#clip0_1985_2104)">
<path d="M17.8743 43.4445L16.6751 41.6617L15.4972 43.4445H13.6401L15.7413 40.5368L13.725 37.6928H15.5609L16.7282 39.3376L17.8637 37.6821H19.6359L17.6196 40.4731L19.7632 43.4445H17.8743ZM23.3607 37.6821H26.1729C26.7672 37.6715 27.3615 37.7883 27.9027 38.0323C28.3803 38.2446 28.7835 38.5948 29.0807 39.0405C29.6325 39.985 29.6325 41.1523 29.0807 42.0862C28.7941 42.5213 28.3909 42.8715 27.9027 43.0943C27.3615 43.3384 26.7672 43.4551 26.1729 43.4445H23.3607V37.6821ZM26.0987 42.1498C26.5444 42.1711 26.9901 42.0225 27.3297 41.736C27.9452 41.0886 27.9452 40.0699 27.3297 39.4119C26.9901 39.1148 26.5444 38.9662 26.0987 38.9874H25.0374V42.1498H26.0987ZM38.483 42.1817V43.4445H33.803V37.6821H38.3768V38.945H35.4267V39.9213H38.016V41.1417H35.4267V42.1923H38.483V42.1817ZM44.8502 38.945V40.2078H47.482V41.4707H44.8502V43.4445H43.1629V37.6821H47.8428V38.945H44.8502ZM51.8118 37.6821H53.6158V43.4445H51.8118V37.6821ZM17.2376 46.331L15.5715 51.3717H14.8392L13.4809 47.3498L12.1119 51.3717H11.3372L9.67114 46.331H10.4034L11.7511 50.4273L13.1519 46.331H13.7992L15.1788 50.4485L16.5584 46.331H17.2376ZM23.902 50.1089H21.3444L20.8138 51.3717H20.1028L22.2783 46.331H22.9575L25.1436 51.3717H24.4219L23.902 50.1089ZM23.6685 49.5359L22.6285 47.0632L21.5885 49.5359H23.6685ZM28.7623 46.331H29.4415V50.7456H31.999V51.3717H28.7623V46.331ZM36.3181 46.331H36.9973V50.7456H39.5548V51.3717H36.3181V46.331ZM47.1318 50.7456V51.3717H43.5237V46.331H47.0257V46.9571H44.2347V48.5065H46.7073V49.1114H44.2347V50.735H47.1318V50.7456ZM52.0134 46.9571H50.3685V46.331H54.3268V46.9571H52.6819V51.3717H52.0134V46.9571ZM68.3029 43.8053C66.7642 44.771 64.6948 45.2804 62.5936 45.1743C60.832 45.0894 59.3888 44.442 58.5186 43.3915C57.7545 42.447 57.4574 41.2054 57.659 39.7727C57.7227 39.2952 57.8713 38.8389 58.0729 38.4038L58.1047 38.3401C60.1104 34.4455 64.5675 32.5247 68.7274 33.7769C72.8874 35.0291 75.5828 39.1042 75.1477 43.4763C74.7126 47.8485 71.2743 51.2975 66.9446 51.6901L67.0401 52.8044C71.9004 52.3693 75.7632 48.4959 76.2514 43.5825C76.7396 38.6691 73.7045 34.1059 69.0352 32.6945C64.3659 31.2831 59.3569 33.4479 57.1178 37.8307L57.0754 37.905C56.8207 38.4462 56.6403 39.0193 56.566 39.6029C56.3219 41.3433 56.6933 42.9033 57.6696 44.0919C58.7308 45.3971 60.4606 46.1718 62.5406 46.2779C65.0663 46.4053 67.5813 45.7049 69.3642 44.4314L68.3029 43.8053Z" fill="white"/>
<path d="M70.6164 45.2483C69.6082 46.076 67.263 47.5723 63.3789 47.774C59.028 47.9968 57.2133 46.6703 57.2027 46.6491L56.4917 47.4556C56.566 47.5193 58.3064 48.8458 62.392 48.8458C62.721 48.8458 63.0818 48.8458 63.4426 48.814C68.1438 48.5699 70.7225 46.6385 71.6245 45.8107L70.6164 45.2483Z" fill="white"/>
<path d="M72.4524 46.3414C71.8475 47.1161 71.1046 47.7634 70.2663 48.2728C67.2949 50.1406 63.517 50.3846 60.8746 50.2467L60.8215 51.3397C61.246 51.3609 61.6811 51.3716 62.1056 51.3716C69.5659 51.3716 72.5797 48.0606 73.4287 46.8826L72.4524 46.3414Z" fill="white"/>
<path d="M73.0572 41.1097C73.0572 41.6084 72.654 42.0117 72.1552 42.0117C71.6564 42.0117 71.2532 41.6084 71.2532 41.1097C71.2532 40.6109 71.6564 40.2076 72.1552 40.2076C72.654 40.2076 73.0572 40.6109 73.0572 41.1097Z" fill="white"/>
</g>
<defs>
<clipPath id="clip0_1985_2104">
<rect width="84.8967" height="84.8967" fill="white" transform="translate(0.650879 0.10498)"/>
</clipPath>
</defs>
</svg>
